<svg xmlns="http://www.w3.org/2000/svg" width="1200" height="630" viewBox="0 0 1200 630">
  <defs>
    <linearGradient id="overlay" x1="0" y1="1" x2="0" y2="0">
      <stop offset="0%" stop-color="#001D5C" stop-opacity="0.95"/>
      <stop offset="45%" stop-color="#001D5C" stop-opacity="0.7"/>
      <stop offset="75%" stop-color="#001D5C" stop-opacity="0.2"/>
      <stop offset="100%" stop-color="#001D5C" stop-opacity="0"/>
    </linearGradient>
    <linearGradient id="topFade" x1="0" y1="0" x2="0" y2="1">
      <stop offset="0%" stop-color="#001D5C" stop-opacity="0.3"/>
      <stop offset="100%" stop-color="#001D5C" stop-opacity="0"/>
    </linearGradient>
  </defs>

  <!-- Background -->
  <rect width="1200" height="630" fill="#001D5C"/>

  <!-- Generative pattern -->
  <g><circle cx="777" cy="89" r="47" fill="#f59e0b" opacity="0.09"/><circle cx="777" cy="89" r="47" fill="none" stroke="#f59e0b" stroke-width="1" opacity="0.19"/><circle cx="858" cy="315" r="56" fill="#3b82f6" opacity="0.12"/><circle cx="858" cy="315" r="56" fill="none" stroke="#3b82f6" stroke-width="1" opacity="0.22"/><circle cx="884" cy="567" r="17" fill="#0033A1" opacity="0.17"/><circle cx="884" cy="567" r="17" fill="none" stroke="#0033A1" stroke-width="1" opacity="0.27"/><circle cx="1063" cy="53" r="48" fill="#60a5fa" opacity="0.09"/><circle cx="1063" cy="53" r="48" fill="none" stroke="#60a5fa" stroke-width="1" opacity="0.19"/><circle cx="397" cy="492" r="38" fill="#60a5fa" opacity="0.10"/><circle cx="397" cy="492" r="38" fill="none" stroke="#60a5fa" stroke-width="1" opacity="0.20"/><circle cx="758" cy="275" r="23" fill="#3b82f6" opacity="0.11"/><circle cx="758" cy="275" r="23" fill="none" stroke="#3b82f6" stroke-width="1" opacity="0.21"/><circle cx="799" cy="464" r="68" fill="#1A5BC4" opacity="0.13"/><circle cx="799" cy="464" r="68" fill="none" stroke="#1A5BC4" stroke-width="1" opacity="0.23"/><circle cx="541" cy="86" r="21" fill="#3b82f6" opacity="0.11"/><circle cx="541" cy="86" r="21" fill="none" stroke="#3b82f6" stroke-width="1" opacity="0.21"/><circle cx="1091" cy="552" r="25" fill="#1A5BC4" opacity="0.15"/><circle cx="1091" cy="552" r="25" fill="none" stroke="#1A5BC4" stroke-width="1" opacity="0.25"/><circle cx="41" cy="371" r="52" fill="#0033A1" opacity="0.12"/><circle cx="41" cy="371" r="52" fill="none" stroke="#0033A1" stroke-width="1" opacity="0.22"/><circle cx="361" cy="628" r="55" fill="#60a5fa" opacity="0.22"/><circle cx="361" cy="628" r="55" fill="none" stroke="#60a5fa" stroke-width="1" opacity="0.32"/><circle cx="237" cy="201" r="68" fill="#f59e0b" opacity="0.12"/><circle cx="237" cy="201" r="68" fill="none" stroke="#f59e0b" stroke-width="1" opacity="0.22"/><circle cx="178" cy="501" r="40" fill="#3b82f6" opacity="0.21"/><circle cx="178" cy="501" r="40" fill="none" stroke="#3b82f6" stroke-width="1" opacity="0.31"/><circle cx="434" cy="282" r="28" fill="#0033A1" opacity="0.18"/><circle cx="434" cy="282" r="28" fill="none" stroke="#0033A1" stroke-width="1" opacity="0.28"/><circle cx="1101" cy="143" r="19" fill="#0033A1" opacity="0.21"/><circle cx="1101" cy="143" r="19" fill="none" stroke="#0033A1" stroke-width="1" opacity="0.31"/><circle cx="1171" cy="591" r="45" fill="#0033A1" opacity="0.23"/><circle cx="1171" cy="591" r="45" fill="none" stroke="#0033A1" stroke-width="1" opacity="0.33"/><circle cx="130" cy="238" r="15" fill="#f59e0b" opacity="0.13"/><circle cx="130" cy="238" r="15" fill="none" stroke="#f59e0b" stroke-width="1" opacity="0.23"/><circle cx="1019" cy="546" r="15" fill="#60a5fa" opacity="0.19"/><circle cx="1019" cy="546" r="15" fill="none" stroke="#60a5fa" stroke-width="1" opacity="0.29"/><circle cx="1065" cy="386" r="26" fill="#60a5fa" opacity="0.14"/><circle cx="1065" cy="386" r="26" fill="none" stroke="#60a5fa" stroke-width="1" opacity="0.24"/><circle cx="365" cy="377" r="36" fill="#0033A1" opacity="0.08"/><circle cx="365" cy="377" r="36" fill="none" stroke="#0033A1" stroke-width="1" opacity="0.18"/><circle cx="191" cy="18" r="50" fill="#0033A1" opacity="0.30"/><circle cx="191" cy="18" r="50" fill="none" stroke="#0033A1" stroke-width="1" opacity="0.40"/><circle cx="664" cy="186" r="66" fill="#f59e0b" opacity="0.11"/><circle cx="664" cy="186" r="66" fill="none" stroke="#f59e0b" stroke-width="1" opacity="0.21"/><circle cx="436" cy="95" r="68" fill="#3b82f6" opacity="0.26"/><circle cx="436" cy="95" r="68" fill="none" stroke="#3b82f6" stroke-width="1" opacity="0.36"/><circle cx="919" cy="222" r="34" fill="#1A5BC4" opacity="0.17"/><circle cx="919" cy="222" r="34" fill="none" stroke="#1A5BC4" stroke-width="1" opacity="0.27"/><circle cx="33" cy="18" r="58" fill="#1A5BC4" opacity="0.20"/><circle cx="33" cy="18" r="58" fill="none" stroke="#1A5BC4" stroke-width="1" opacity="0.30"/><circle cx="856" cy="48" r="32" fill="#1A5BC4" opacity="0.27"/><circle cx="856" cy="48" r="32" fill="none" stroke="#1A5BC4" stroke-width="1" opacity="0.37"/><circle cx="946" cy="88" r="38" fill="#f59e0b" opacity="0.17"/><circle cx="946" cy="88" r="38" fill="none" stroke="#f59e0b" stroke-width="1" opacity="0.27"/><circle cx="1062" cy="603" r="28" fill="#f59e0b" opacity="0.28"/><circle cx="1062" cy="603" r="28" fill="none" stroke="#f59e0b" stroke-width="1" opacity="0.38"/><circle cx="89" cy="452" r="34" fill="#60a5fa" opacity="0.33"/><circle cx="89" cy="452" r="34" fill="none" stroke="#60a5fa" stroke-width="1" opacity="0.43"/><circle cx="679" cy="380" r="21" fill="#1A5BC4" opacity="0.08"/><circle cx="679" cy="380" r="21" fill="none" stroke="#1A5BC4" stroke-width="1" opacity="0.18"/><circle cx="1199" cy="414" r="46" fill="#0033A1" opacity="0.29"/><circle cx="1199" cy="414" r="46" fill="none" stroke="#0033A1" stroke-width="1" opacity="0.39"/><circle cx="973" cy="625" r="13" fill="#60a5fa" opacity="0.15"/><circle cx="973" cy="625" r="13" fill="none" stroke="#60a5fa" stroke-width="1" opacity="0.25"/><circle cx="502" cy="570" r="35" fill="#60a5fa" opacity="0.25"/><circle cx="502" cy="570" r="35" fill="none" stroke="#60a5fa" stroke-width="1" opacity="0.35"/><circle cx="960" cy="459" r="36" fill="#0033A1" opacity="0.32"/><circle cx="960" cy="459" r="36" fill="none" stroke="#0033A1" stroke-width="1" opacity="0.42"/><circle cx="144" cy="385" r="23" fill="#0033A1" opacity="0.28"/><circle cx="144" cy="385" r="23" fill="none" stroke="#0033A1" stroke-width="1" opacity="0.38"/><circle cx="319" cy="301" r="28" fill="#f59e0b" opacity="0.10"/><circle cx="319" cy="301" r="28" fill="none" stroke="#f59e0b" stroke-width="1" opacity="0.20"/><circle cx="1042" cy="224" r="29" fill="#0033A1" opacity="0.15"/><circle cx="1042" cy="224" r="29" fill="none" stroke="#0033A1" stroke-width="1" opacity="0.25"/><circle cx="696" cy="19" r="43" fill="#3b82f6" opacity="0.18"/><circle cx="696" cy="19" r="43" fill="none" stroke="#3b82f6" stroke-width="1" opacity="0.28"/><circle cx="991" cy="362" r="21" fill="#0033A1" opacity="0.21"/><circle cx="991" cy="362" r="21" fill="none" stroke="#0033A1" stroke-width="1" opacity="0.31"/><circle cx="1168" cy="297" r="41" fill="#60a5fa" opacity="0.27"/><circle cx="1168" cy="297" r="41" fill="none" stroke="#60a5fa" stroke-width="1" opacity="0.37"/><circle cx="568" cy="495" r="49" fill="#3b82f6" opacity="0.18"/><circle cx="568" cy="495" r="49" fill="none" stroke="#3b82f6" stroke-width="1" opacity="0.28"/><circle cx="237" cy="601" r="39" fill="#3b82f6" opacity="0.24"/><circle cx="237" cy="601" r="39" fill="none" stroke="#3b82f6" stroke-width="1" opacity="0.34"/><circle cx="70" cy="527" r="20" fill="#0033A1" opacity="0.17"/><circle cx="70" cy="527" r="20" fill="none" stroke="#0033A1" stroke-width="1" opacity="0.27"/><circle cx="1135" cy="83" r="24" fill="#3b82f6" opacity="0.22"/><circle cx="1135" cy="83" r="24" fill="none" stroke="#3b82f6" stroke-width="1" opacity="0.32"/><circle cx="855" cy="170" r="22" fill="#60a5fa" opacity="0.11"/><circle cx="855" cy="170" r="22" fill="none" stroke="#60a5fa" stroke-width="1" opacity="0.21"/><circle cx="678" cy="541" r="37" fill="#3b82f6" opacity="0.09"/><circle cx="678" cy="541" r="37" fill="none" stroke="#3b82f6" stroke-width="1" opacity="0.19"/><circle cx="286" cy="432" r="39" fill="#f59e0b" opacity="0.29"/><circle cx="286" cy="432" r="39" fill="none" stroke="#f59e0b" stroke-width="1" opacity="0.39"/><circle cx="89" cy="147" r="42" fill="#3b82f6" opacity="0.22"/><circle cx="89" cy="147" r="42" fill="none" stroke="#3b82f6" stroke-width="1" opacity="0.32"/><circle cx="629" cy="313" r="13" fill="#0033A1" opacity="0.19"/><circle cx="629" cy="313" r="13" fill="none" stroke="#0033A1" stroke-width="1" opacity="0.29"/><circle cx="516" cy="368" r="37" fill="#1A5BC4" opacity="0.14"/><circle cx="516" cy="368" r="37" fill="none" stroke="#1A5BC4" stroke-width="1" opacity="0.24"/></g>

  <!-- Gradient overlay -->
  <rect width="1200" height="630" fill="url(#overlay)"/>
  <rect width="1200" height="120" fill="url(#topFade)"/>

  <!-- Dot pattern subtle -->
  <pattern id="dots" width="40" height="40" patternUnits="userSpaceOnUse">
    <circle cx="20" cy="20" r="0.8" fill="white" opacity="0.04"/>
  </pattern>
  <rect width="1200" height="630" fill="url(#dots)"/>




</svg>