<svg xmlns="http://www.w3.org/2000/svg" width="1200" height="630" viewBox="0 0 1200 630">
  <defs>
    <linearGradient id="overlay" x1="0" y1="1" x2="0" y2="0">
      <stop offset="0%" stop-color="#001D5C" stop-opacity="0.95"/>
      <stop offset="45%" stop-color="#001D5C" stop-opacity="0.7"/>
      <stop offset="75%" stop-color="#001D5C" stop-opacity="0.2"/>
      <stop offset="100%" stop-color="#001D5C" stop-opacity="0"/>
    </linearGradient>
    <linearGradient id="topFade" x1="0" y1="0" x2="0" y2="1">
      <stop offset="0%" stop-color="#001D5C" stop-opacity="0.3"/>
      <stop offset="100%" stop-color="#001D5C" stop-opacity="0"/>
    </linearGradient>
  </defs>

  <!-- Background -->
  <rect width="1200" height="630" fill="#001D5C"/>

  <!-- Generative pattern -->
  <g><path d="M0,5.5 L8,7.8 L16,13.5 L24,12.9 L32,15.1 L40,19.8 L48,20.6 L56,25.7 L64,27.5 L72,33.2 L80,32.6 L88,34.9 L96,38.6 L104,39.7 L112,38.9 L120,36.7 L128,39.1 L136,38.7 L144,40.6 L152,38.1 L160,41.1 L168,39.4 L176,36.0 L184,34.3 L192,34.0 L200,31.4 L208,30.1 L216,24.8 L224,28.1 L232,20.6 L240,19.1 L248,19.8 L256,18.4 L264,15.4 L272,14.2 L280,9.9 L288,10.2 L296,6.6 L304,3.2 L312,1.4 L320,4.0 L328,1.9 L336,-0.5 L344,-2.8 L352,1.8 L360,-2.6 L368,-2.9 L376,-1.5 L384,-0.1 L392,0.4 L400,1.2 L408,-3.9 L416,-0.1 L424,0.4 L432,-2.4 L440,1.1 L448,-1.1 L456,2.7 L464,-0.3 L472,-1.9 L480,0.4 L488,1.3 L496,2.0 L504,1.2 L512,1.1 L520,-2.2 L528,-3.4 L536,-3.9 L544,-2.7 L552,-4.4 L560,-7.4 L568,-8.2 L576,-11.2 L584,-11.8 L592,-16.0 L600,-15.0 L608,-15.3 L616,-20.4 L624,-16.5 L632,-20.5 L640,-23.5 L648,-20.6 L656,-23.6 L664,-21.2 L672,-26.2 L680,-25.5 L688,-23.7 L696,-22.5 L704,-21.8 L712,-23.3 L720,-23.5 L728,-22.9 L736,-17.9 L744,-15.8 L752,-14.3 L760,-12.0 L768,-11.7 L776,-10.9 L784,-8.0 L792,-1.5 L800,0.2 L808,0.2 L816,5.8 L824,11.6 L832,12.1 L840,13.2 L848,20.0 L856,21.7 L864,25.0 L872,25.8 L880,32.6 L888,34.8 L896,37.1 L904,35.3 L912,37.1 L920,40.1 L928,43.3 L936,42.8 L944,41.9 L952,41.7 L960,42.6 L968,45.4 L976,43.9 L984,38.7 L992,38.9 L1000,40.8 L1008,37.9 L1016,34.6 L1024,33.2 L1032,28.9 L1040,27.9 L1048,24.4 L1056,25.1 L1064,18.4 L1072,19.9 L1080,14.7 L1088,10.6 L1096,7.8 L1104,7.0 L1112,5.1 L1120,-0.8 L1128,2.2 L1136,-0.0 L1144,-2.0 L1152,-7.5 L1160,-8.5 L1168,-10.0 L1176,-6.8 L1184,-7.6 L1192,-12.0 L1200,-8.9" fill="none" stroke="#a855f7" stroke-width="1.2" opacity="0.32"/><path d="M0,14.3 L8,16.3 L16,20.3 L24,25.9 L32,28.8 L40,27.3 L48,33.6 L56,31.8 L64,39.1 L72,40.0 L80,37.5 L88,41.9 L96,44.5 L104,42.7 L112,45.7 L120,45.6 L128,41.7 L136,40.0 L144,39.9 L152,37.7 L160,40.3 L168,39.3 L176,34.0 L184,35.3 L192,30.9 L200,26.9 L208,23.5 L216,22.1 L224,22.7 L232,20.0 L240,15.0 L248,12.1 L256,9.4 L264,10.7 L272,5.4 L280,4.8 L288,-0.4 L296,-0.4 L304,-0.3 L312,-6.0 L320,-6.6 L328,-5.5 L336,-11.1 L344,-12.0 L352,-10.8 L360,-11.7 L368,-9.1 L376,-11.7 L384,-8.7 L392,-11.1 L400,-10.0 L408,-12.0 L416,-10.0 L424,-9.2 L432,-9.6 L440,-6.8 L448,-7.7 L456,-9.7 L464,-4.2 L472,-8.4 L480,-8.0 L488,-8.7 L496,-4.1 L504,-7.2 L512,-6.9 L520,-2.7 L528,-4.9 L536,-4.8 L544,-6.2 L552,-9.5 L560,-8.9 L568,-9.2 L576,-7.3 L584,-11.5 L592,-13.8 L600,-10.2 L608,-11.2 L616,-11.5 L624,-14.5 L632,-13.6 L640,-13.8 L648,-17.0 L656,-19.5 L664,-16.7 L672,-15.7 L680,-18.1 L688,-19.4 L696,-13.6 L704,-18.3 L712,-16.5 L720,-16.5 L728,-15.1 L736,-11.2 L744,-7.0 L752,-6.4 L760,-7.3 L768,-1.8 L776,-2.4 L784,1.0 L792,7.0 L800,6.3 L808,11.3 L816,14.9 L824,15.3 L832,19.5 L840,24.9 L848,23.7 L856,30.5 L864,28.6 L872,36.2 L880,37.8 L888,36.4 L896,39.5 L904,40.6 L912,41.9 L920,40.4 L928,46.1 L936,42.8 L944,41.8 L952,42.9 L960,42.9 L968,39.1 L976,38.6 L984,39.1 L992,39.7 L1000,32.9 L1008,35.6 L1016,28.0 L1024,29.0 L1032,26.6 L1040,19.7 L1048,16.5 L1056,13.6 L1064,13.1 L1072,10.1 L1080,4.7 L1088,5.9 L1096,-1.5 L1104,-4.9 L1112,-5.7 L1120,-10.4 L1128,-9.9 L1136,-9.7 L1144,-12.3 L1152,-16.5 L1160,-20.0 L1168,-19.4 L1176,-21.3 L1184,-18.8 L1192,-18.2 L1200,-19.3" fill="none" stroke="#a855f7" stroke-width="1.2" opacity="0.32"/><path d="M0,21.8 L8,27.1 L16,29.9 L24,31.9 L32,34.8 L40,35.9 L48,39.2 L56,40.4 L64,37.8 L72,41.7 L80,43.1 L88,45.8 L96,43.7 L104,44.9 L112,44.7 L120,40.5 L128,44.6 L136,40.3 L144,40.3 L152,36.1 L160,38.2 L168,35.6 L176,28.9 L184,31.5 L192,26.1 L200,22.5 L208,18.7 L216,17.7 L224,16.9 L232,12.1 L240,8.0 L248,5.1 L256,0.4 L264,-3.5 L272,-5.9 L280,-7.4 L288,-10.6 L296,-12.0 L304,-12.9 L312,-17.7 L320,-14.2 L328,-19.8 L336,-18.1 L344,-19.2 L352,-19.7 L360,-21.3 L368,-19.1 L376,-20.0 L384,-19.2 L392,-19.8 L400,-21.5 L408,-17.3 L416,-16.3 L424,-15.4 L432,-14.5 L440,-13.8 L448,-12.3 L456,-11.7 L464,-13.5 L472,-12.4 L480,-10.3 L488,-10.6 L496,-6.0 L504,-5.3 L512,-3.0 L520,-6.8 L528,-7.7 L536,-5.1 L544,-2.7 L552,-5.7 L560,-4.3 L568,-1.4 L576,-2.7 L584,-3.6 L592,-3.2 L600,-7.7 L608,-3.3 L616,-5.9 L624,-6.6 L632,-8.2 L640,-5.4 L648,-7.9 L656,-7.8 L664,-6.8 L672,-5.8 L680,-7.5 L688,-7.1 L696,-9.4 L704,-5.6 L712,-7.7 L720,-1.7 L728,-4.3 L736,-1.5 L744,-0.7 L752,3.3 L760,4.7 L768,4.3 L776,8.5 L784,12.0 L792,15.2 L800,18.0 L808,20.6 L816,18.2 L824,26.3 L832,25.6 L840,27.3 L848,30.2 L856,31.9 L864,34.0 L872,35.0 L880,37.3 L888,39.6 L896,38.6 L904,39.6 L912,41.8 L920,43.5 L928,40.2 L936,43.3 L944,40.8 L952,38.6 L960,36.7 L968,40.0 L976,37.7 L984,35.5 L992,30.6 L1000,26.1 L1008,28.3 L1016,21.0 L1024,17.5 L1032,19.0 L1040,12.5 L1048,8.0 L1056,5.2 L1064,5.5 L1072,2.8 L1080,-5.0 L1088,-6.4 L1096,-10.7 L1104,-11.0 L1112,-14.9 L1120,-18.9 L1128,-22.1 L1136,-20.1 L1144,-22.0 L1152,-22.5 L1160,-26.9 L1168,-25.1 L1176,-30.4 L1184,-29.0 L1192,-27.7 L1200,-27.6" fill="none" stroke="#a855f7" stroke-width="1.2" opacity="0.32"/><path d="M0,88.0 L8,94.6 L16,92.8 L24,94.2 L32,96.2 L40,98.5 L48,95.6 L56,94.0 L64,93.1 L72,94.5 L80,95.0 L88,96.2 L96,90.9 L104,92.8 L112,86.0 L120,86.8 L128,81.9 L136,82.2 L144,78.4 L152,75.9 L160,78.6 L168,72.4 L176,73.9 L184,71.1 L192,65.8 L200,68.4 L208,62.0 L216,62.6 L224,60.4 L232,59.0 L240,56.5 L248,56.3 L256,56.9 L264,54.0 L272,54.7 L280,54.7 L288,54.8 L296,50.6 L304,52.6 L312,52.8 L320,52.6 L328,50.9 L336,52.8 L344,55.2 L352,50.7 L360,53.3 L368,56.6 L376,53.2 L384,56.8 L392,57.4 L400,53.5 L408,53.5 L416,54.9 L424,51.5 L432,53.4 L440,51.0 L448,49.1 L456,49.5 L464,49.4 L472,50.2 L480,49.4 L488,45.6 L496,46.1 L504,45.9 L512,42.3 L520,42.2 L528,41.6 L536,41.4 L544,38.8 L552,36.4 L560,37.6 L568,36.5 L576,33.6 L584,33.5 L592,30.6 L600,30.1 L608,29.0 L616,28.9 L624,31.2 L632,30.6 L640,35.8 L648,36.4 L656,34.6 L664,40.1 L672,42.1 L680,40.2 L688,42.9 L696,47.4 L704,51.6 L712,53.6 L720,56.2 L728,61.5 L736,62.5 L744,68.7 L752,67.8 L760,74.4 L768,73.1 L776,79.5 L784,79.9 L792,81.7 L800,87.3 L808,87.4 L816,89.9 L824,93.0 L832,97.8 L840,95.6 L848,97.5 L856,99.5 L864,102.0 L872,101.6 L880,101.3 L888,101.4 L896,100.6 L904,98.9 L912,95.3 L920,94.3 L928,90.2 L936,91.9 L944,87.7 L952,83.1 L960,81.1 L968,80.7 L976,76.6 L984,74.4 L992,75.0 L1000,69.8 L1008,66.2 L1016,66.8 L1024,64.1 L1032,60.2 L1040,57.2 L1048,53.6 L1056,54.7 L1064,51.3 L1072,47.6 L1080,46.7 L1088,43.5 L1096,42.6 L1104,46.5 L1112,40.8 L1120,45.4 L1128,44.1 L1136,41.1 L1144,40.6 L1152,41.8 L1160,40.0 L1168,43.8 L1176,42.7 L1184,43.2 L1192,46.4 L1200,47.3" fill="none" stroke="#c084fc" stroke-width="1.2" opacity="0.25"/><path d="M0,97.4 L8,95.4 L16,100.2 L24,100.9 L32,101.9 L40,99.5 L48,97.5 L56,95.3 L64,97.9 L72,98.4 L80,95.0 L88,91.9 L96,92.1 L104,87.8 L112,84.3 L120,85.8 L128,83.7 L136,75.9 L144,73.4 L152,74.0 L160,67.6 L168,67.1 L176,66.9 L184,59.6 L192,58.3 L200,58.7 L208,57.1 L216,54.4 L224,51.8 L232,48.9 L240,47.6 L248,46.1 L256,46.9 L264,47.1 L272,44.5 L280,41.9 L288,44.1 L296,45.6 L304,45.3 L312,42.2 L320,45.3 L328,41.8 L336,42.4 L344,43.2 L352,42.6 L360,47.2 L368,47.5 L376,45.2 L384,50.3 L392,50.0 L400,50.4 L408,47.9 L416,48.5 L424,48.3 L432,47.5 L440,52.0 L448,48.2 L456,49.9 L464,49.0 L472,49.2 L480,47.2 L488,49.8 L496,45.6 L504,46.7 L512,46.3 L520,47.1 L528,45.1 L536,40.4 L544,45.1 L552,40.8 L560,40.8 L568,40.4 L576,37.6 L584,37.4 L592,37.8 L600,39.3 L608,39.4 L616,42.9 L624,42.2 L632,41.8 L640,46.2 L648,43.9 L656,45.0 L664,49.3 L672,48.4 L680,51.1 L688,54.9 L696,55.5 L704,62.7 L712,63.0 L720,66.8 L728,65.7 L736,73.2 L744,75.4 L752,77.6 L760,81.5 L768,83.8 L776,84.6 L784,89.6 L792,91.4 L800,89.4 L808,92.1 L816,98.2 L824,98.2 L832,97.0 L840,99.6 L848,96.8 L856,99.8 L864,101.2 L872,100.3 L880,100.1 L888,94.5 L896,97.7 L904,91.7 L912,94.9 L920,89.2 L928,85.4 L936,86.0 L944,84.4 L952,80.2 L960,74.0 L968,73.2 L976,69.8 L984,69.9 L992,64.0 L1000,58.2 L1008,55.9 L1016,52.8 L1024,48.9 L1032,48.0 L1040,48.9 L1048,41.3 L1056,44.2 L1064,40.4 L1072,38.2 L1080,37.0 L1088,37.6 L1096,37.7 L1104,35.7 L1112,31.5 L1120,33.5 L1128,33.7 L1136,31.2 L1144,32.7 L1152,37.4 L1160,32.8 L1168,39.3 L1176,36.3 L1184,37.7 L1192,37.6 L1200,41.3" fill="none" stroke="#c084fc" stroke-width="1.2" opacity="0.25"/><path d="M0,101.4 L8,98.5 L16,99.4 L24,96.7 L32,102.3 L40,99.9 L48,95.2 L56,95.0 L64,96.8 L72,94.7 L80,93.5 L88,88.8 L96,87.3 L104,83.7 L112,78.2 L120,75.2 L128,73.5 L136,70.7 L144,67.9 L152,66.3 L160,59.7 L168,60.0 L176,55.0 L184,51.7 L192,50.8 L200,48.0 L208,45.0 L216,41.2 L224,38.7 L232,39.9 L240,37.9 L248,37.4 L256,36.9 L264,33.8 L272,31.7 L280,36.2 L288,34.2 L296,32.1 L304,33.1 L312,34.7 L320,35.4 L328,35.9 L336,39.3 L344,35.6 L352,42.3 L360,43.8 L368,44.9 L376,45.5 L384,41.9 L392,44.8 L400,48.9 L408,45.2 L416,50.1 L424,49.1 L432,49.6 L440,51.5 L448,51.6 L456,53.1 L464,51.8 L472,53.4 L480,51.9 L488,55.3 L496,50.1 L504,51.2 L512,52.3 L520,49.7 L528,48.1 L536,49.7 L544,52.0 L552,47.1 L560,47.5 L568,48.0 L576,49.9 L584,47.3 L592,51.4 L600,48.2 L608,51.9 L616,50.9 L624,53.5 L632,54.2 L640,54.7 L648,56.7 L656,55.0 L664,56.3 L672,62.0 L680,63.3 L688,62.3 L696,67.6 L704,65.1 L712,70.1 L720,69.8 L728,77.8 L736,78.6 L744,82.6 L752,79.3 L760,83.0 L768,84.2 L776,91.1 L784,89.7 L792,89.3 L800,92.5 L808,93.1 L816,94.2 L824,95.3 L832,98.4 L840,98.2 L848,95.3 L856,97.7 L864,98.3 L872,97.7 L880,94.0 L888,92.5 L896,92.1 L904,90.1 L912,85.6 L920,85.2 L928,78.5 L936,74.7 L944,71.8 L952,71.5 L960,67.6 L968,65.9 L976,61.9 L984,54.6 L992,51.4 L1000,48.0 L1008,48.2 L1016,44.5 L1024,43.3 L1032,40.3 L1040,37.0 L1048,33.1 L1056,30.1 L1064,28.5 L1072,32.6 L1080,29.3 L1088,29.7 L1096,25.6 L1104,24.0 L1112,25.4 L1120,24.3 L1128,26.2 L1136,29.1 L1144,31.9 L1152,33.3 L1160,31.5 L1168,35.2 L1176,34.2 L1184,36.8 L1192,40.8 L1200,37.1" fill="none" stroke="#c084fc" stroke-width="1.2" opacity="0.25"/><path d="M0,130.7 L8,126.9 L16,129.0 L24,124.9 L32,124.2 L40,125.0 L48,122.0 L56,120.4 L64,117.5 L72,114.7 L80,111.3 L88,108.8 L96,109.9 L104,104.8 L112,99.9 L120,99.6 L128,97.7 L136,95.6 L144,97.9 L152,96.0 L160,94.9 L168,88.6 L176,89.6 L184,88.9 L192,89.1 L200,85.3 L208,90.7 L216,86.8 L224,84.6 L232,89.9 L240,85.5 L248,86.2 L256,90.7 L264,85.9 L272,91.4 L280,87.9 L288,87.8 L296,86.6 L304,89.9 L312,90.7 L320,88.7 L328,90.5 L336,89.5 L344,89.1 L352,90.4 L360,91.0 L368,85.9 L376,88.9 L384,83.7 L392,85.6 L400,82.5 L408,85.1 L416,80.2 L424,79.6 L432,81.5 L440,75.4 L448,77.0 L456,74.7 L464,71.6 L472,70.8 L480,70.5 L488,69.3 L496,69.4 L504,71.4 L512,67.5 L520,70.8 L528,66.9 L536,72.4 L544,72.6 L552,73.2 L560,71.6 L568,75.6 L576,74.2 L584,79.0 L592,76.2 L600,79.4 L608,85.7 L616,87.8 L624,86.2 L632,91.1 L640,95.9 L648,98.1 L656,97.6 L664,101.7 L672,104.0 L680,107.5 L688,115.0 L696,116.3 L704,121.3 L712,122.4 L720,124.4 L728,125.2 L736,128.8 L744,128.7 L752,134.1 L760,134.9 L768,133.0 L776,133.3 L784,134.9 L792,133.9 L800,135.9 L808,135.0 L816,137.2 L824,135.9 L832,132.0 L840,130.2 L848,129.3 L856,125.7 L864,125.1 L872,120.7 L880,118.1 L888,115.6 L896,115.5 L904,109.0 L912,107.3 L920,105.6 L928,101.5 L936,96.2 L944,96.0 L952,96.8 L960,93.7 L968,92.1 L976,84.4 L984,87.5 L992,81.9 L1000,83.0 L1008,79.4 L1016,79.1 L1024,80.2 L1032,77.4 L1040,79.4 L1048,78.6 L1056,76.9 L1064,76.2 L1072,75.5 L1080,79.5 L1088,80.4 L1096,76.9 L1104,81.9 L1112,82.3 L1120,81.3 L1128,79.6 L1136,81.2 L1144,83.8 L1152,82.0 L1160,82.4 L1168,84.7 L1176,84.1 L1184,83.0 L1192,85.8 L1200,86.8" fill="none" stroke="#3b82f6" stroke-width="1.2" opacity="0.16"/><path d="M0,131.5 L8,129.0 L16,127.8 L24,122.1 L32,122.1 L40,119.5 L48,114.7 L56,117.2 L64,109.4 L72,107.1 L80,104.8 L88,105.8 L96,99.1 L104,98.0 L112,93.1 L120,92.7 L128,92.4 L136,86.3 L144,88.2 L152,86.0 L160,80.8 L168,82.3 L176,83.3 L184,79.4 L192,79.3 L200,81.1 L208,77.0 L216,78.0 L224,79.3 L232,75.8 L240,78.8 L248,79.4 L256,81.3 L264,81.4 L272,83.5 L280,84.1 L288,84.4 L296,80.1 L304,81.7 L312,85.4 L320,84.0 L328,84.7 L336,85.8 L344,88.6 L352,86.8 L360,87.8 L368,87.2 L376,89.1 L384,88.0 L392,82.6 L400,85.8 L408,82.0 L416,86.3 L424,80.4 L432,81.7 L440,84.4 L448,81.5 L456,83.2 L464,82.2 L472,80.0 L480,76.7 L488,78.3 L496,78.6 L504,80.7 L512,79.5 L520,77.7 L528,75.7 L536,78.1 L544,78.2 L552,79.3 L560,82.0 L568,85.8 L576,86.7 L584,84.2 L592,87.0 L600,87.3 L608,91.5 L616,94.3 L624,98.7 L632,101.9 L640,105.4 L648,108.6 L656,110.9 L664,113.3 L672,111.8 L680,118.5 L688,118.5 L696,119.6 L704,124.2 L712,126.5 L720,127.1 L728,129.3 L736,134.1 L744,134.9 L752,132.1 L760,137.7 L768,133.1 L776,136.2 L784,134.2 L792,134.8 L800,137.1 L808,131.1 L816,134.2 L824,131.4 L832,125.1 L840,126.7 L848,123.3 L856,121.2 L864,115.3 L872,111.9 L880,114.4 L888,111.4 L896,106.4 L904,101.5 L912,97.9 L920,98.4 L928,91.6 L936,90.1 L944,85.9 L952,84.9 L960,79.8 L968,79.4 L976,78.5 L984,76.0 L992,75.8 L1000,72.6 L1008,74.0 L1016,69.7 L1024,71.3 L1032,68.9 L1040,70.7 L1048,68.8 L1056,67.2 L1064,72.6 L1072,69.3 L1080,71.0 L1088,72.7 L1096,75.6 L1104,74.5 L1112,77.2 L1120,76.1 L1128,79.1 L1136,77.4 L1144,78.3 L1152,80.7 L1160,85.8 L1168,82.1 L1176,85.5 L1184,86.9 L1192,84.6 L1200,88.2" fill="none" stroke="#3b82f6" stroke-width="1.2" opacity="0.16"/><path d="M0,127.1 L8,123.4 L16,120.7 L24,120.6 L32,116.5 L40,113.5 L48,112.5 L56,103.7 L64,106.1 L72,103.1 L80,96.4 L88,91.3 L96,91.9 L104,88.5 L112,85.8 L120,81.8 L128,80.1 L136,75.3 L144,79.0 L152,72.1 L160,75.6 L168,71.7 L176,70.5 L184,68.8 L192,72.2 L200,67.3 L208,67.3 L216,71.5 L224,70.1 L232,69.1 L240,73.4 L248,71.9 L256,75.6 L264,75.8 L272,77.1 L280,77.7 L288,79.1 L296,81.6 L304,80.6 L312,79.9 L320,83.9 L328,85.0 L336,87.9 L344,84.6 L352,86.5 L360,89.1 L368,86.3 L376,89.7 L384,88.6 L392,91.8 L400,88.9 L408,87.5 L416,90.6 L424,90.3 L432,88.6 L440,87.5 L448,86.2 L456,86.3 L464,89.0 L472,85.8 L480,86.3 L488,84.8 L496,89.3 L504,85.8 L512,88.8 L520,85.7 L528,86.4 L536,89.1 L544,91.2 L552,91.8 L560,90.2 L568,90.9 L576,94.2 L584,93.4 L592,97.6 L600,97.7 L608,102.3 L616,104.9 L624,103.2 L632,106.2 L640,106.9 L648,114.3 L656,112.0 L664,114.8 L672,120.9 L680,122.3 L688,123.0 L696,126.5 L704,128.9 L712,128.0 L720,127.6 L728,133.8 L736,130.5 L744,133.9 L752,131.8 L760,133.4 L768,134.6 L776,130.8 L784,134.6 L792,128.6 L800,130.9 L808,124.9 L816,123.7 L824,125.0 L832,120.3 L840,120.8 L848,117.4 L856,112.7 L864,106.7 L872,102.9 L880,100.5 L888,97.7 L896,93.4 L904,94.7 L912,90.5 L920,85.5 L928,80.1 L936,82.2 L944,79.7 L952,77.1 L960,70.2 L968,70.9 L976,67.9 L984,66.8 L992,63.4 L1000,65.1 L1008,61.2 L1016,60.1 L1024,65.0 L1032,64.0 L1040,64.2 L1048,65.3 L1056,62.7 L1064,65.7 L1072,65.6 L1080,70.0 L1088,68.9 L1096,70.3 L1104,70.6 L1112,72.7 L1120,78.6 L1128,78.3 L1136,82.9 L1144,85.3 L1152,83.6 L1160,86.9 L1168,88.5 L1176,92.7 L1184,93.8 L1192,91.0 L1200,92.0" fill="none" stroke="#3b82f6" stroke-width="1.2" opacity="0.16"/><path d="M0,162.1 L8,155.1 L16,154.7 L24,151.9 L32,152.4 L40,147.7 L48,144.5 L56,143.9 L64,144.5 L72,141.4 L80,141.3 L88,140.1 L96,135.7 L104,133.9 L112,138.4 L120,135.4 L128,135.1 L136,137.3 L144,135.5 L152,133.7 L160,135.0 L168,136.9 L176,136.7 L184,137.5 L192,137.7 L200,133.6 L208,133.7 L216,136.7 L224,136.2 L232,134.9 L240,139.8 L248,138.1 L256,139.5 L264,137.2 L272,137.9 L280,138.6 L288,136.1 L296,135.1 L304,132.9 L312,136.0 L320,131.5 L328,129.0 L336,131.7 L344,128.4 L352,128.6 L360,127.2 L368,128.3 L376,121.9 L384,124.2 L392,119.3 L400,121.5 L408,118.1 L416,119.8 L424,119.9 L432,119.4 L440,121.1 L448,117.3 L456,121.1 L464,119.3 L472,121.8 L480,118.8 L488,121.2 L496,122.9 L504,125.2 L512,127.0 L520,129.1 L528,130.9 L536,137.2 L544,140.5 L552,140.3 L560,144.9 L568,149.8 L576,151.9 L584,152.8 L592,159.0 L600,157.5 L608,165.6 L616,167.2 L624,169.9 L632,172.8 L640,175.4 L648,178.1 L656,177.2 L664,182.5 L672,183.1 L680,183.7 L688,184.6 L696,186.8 L704,187.1 L712,185.4 L720,183.9 L728,185.4 L736,179.8 L744,180.7 L752,179.0 L760,177.3 L768,176.8 L776,171.6 L784,173.1 L792,170.6 L800,168.6 L808,163.9 L816,163.0 L824,159.1 L832,157.2 L840,151.1 L848,149.0 L856,147.1 L864,143.3 L872,143.2 L880,139.6 L888,134.4 L896,133.8 L904,131.0 L912,132.4 L920,127.8 L928,129.0 L936,125.4 L944,125.9 L952,122.3 L960,124.4 L968,123.9 L976,126.7 L984,124.5 L992,125.7 L1000,125.8 L1008,126.1 L1016,127.7 L1024,127.4 L1032,130.7 L1040,130.6 L1048,129.4 L1056,127.9 L1064,131.3 L1072,130.4 L1080,131.2 L1088,132.5 L1096,132.8 L1104,132.9 L1112,135.1 L1120,134.1 L1128,137.3 L1136,133.3 L1144,133.6 L1152,134.0 L1160,136.0 L1168,136.0 L1176,135.3 L1184,133.9 L1192,134.3 L1200,132.2" fill="none" stroke="#0033A1" stroke-width="1.2" opacity="0.13"/><path d="M0,155.2 L8,152.9 L16,147.6 L24,144.3 L32,140.7 L40,141.1 L48,136.5 L56,133.0 L64,131.7 L72,130.4 L80,127.4 L88,128.1 L96,130.3 L104,126.0 L112,128.5 L120,124.6 L128,123.1 L136,123.0 L144,122.9 L152,123.3 L160,127.0 L168,123.4 L176,127.7 L184,127.3 L192,126.8 L200,131.6 L208,127.9 L216,130.0 L224,133.3 L232,129.1 L240,135.4 L248,130.2 L256,132.5 L264,134.2 L272,133.8 L280,136.0 L288,136.1 L296,132.7 L304,137.0 L312,132.4 L320,136.1 L328,134.2 L336,131.3 L344,132.9 L352,133.9 L360,129.7 L368,128.9 L376,127.7 L384,127.4 L392,125.9 L400,130.0 L408,125.4 L416,127.8 L424,125.7 L432,130.2 L440,128.2 L448,127.8 L456,127.6 L464,128.4 L472,130.9 L480,129.8 L488,130.5 L496,133.0 L504,136.4 L512,138.8 L520,139.2 L528,140.1 L536,147.0 L544,149.3 L552,148.4 L560,154.3 L568,156.7 L576,158.9 L584,160.5 L592,163.1 L600,165.2 L608,167.3 L616,169.1 L624,174.5 L632,177.1 L640,177.0 L648,178.8 L656,181.3 L664,184.0 L672,181.8 L680,183.4 L688,186.1 L696,181.7 L704,184.1 L712,185.7 L720,184.1 L728,180.5 L736,179.5 L744,179.2 L752,178.2 L760,173.2 L768,169.2 L776,168.2 L784,167.3 L792,162.4 L800,159.2 L808,158.2 L816,155.0 L824,148.5 L832,144.4 L840,144.7 L848,138.7 L856,135.7 L864,133.6 L872,132.7 L880,127.7 L888,128.9 L896,122.4 L904,120.7 L912,123.0 L920,116.8 L928,117.7 L936,119.1 L944,118.4 L952,117.5 L960,117.1 L968,117.8 L976,118.0 L984,116.1 L992,118.8 L1000,120.8 L1008,121.0 L1016,122.6 L1024,124.3 L1032,121.2 L1040,122.4 L1048,129.1 L1056,129.6 L1064,131.3 L1072,133.0 L1080,131.0 L1088,132.6 L1096,134.2 L1104,135.4 L1112,139.3 L1120,135.6 L1128,137.0 L1136,138.4 L1144,136.2 L1152,141.6 L1160,137.2 L1168,137.1 L1176,140.4 L1184,140.2 L1192,141.2 L1200,142.1" fill="none" stroke="#0033A1" stroke-width="1.2" opacity="0.13"/><path d="M0,141.3 L8,141.7 L16,136.5 L24,132.1 L32,129.5 L40,128.1 L48,129.5 L56,125.5 L64,122.5 L72,119.4 L80,119.7 L88,121.1 L96,118.7 L104,115.4 L112,119.6 L120,118.4 L128,117.3 L136,116.2 L144,117.0 L152,117.6 L160,120.6 L168,119.7 L176,120.2 L184,123.4 L192,124.2 L200,123.6 L208,123.8 L216,127.2 L224,129.6 L232,130.9 L240,132.7 L248,135.1 L256,134.2 L264,136.2 L272,137.4 L280,138.9 L288,136.8 L296,138.3 L304,138.2 L312,137.3 L320,139.5 L328,136.7 L336,137.7 L344,137.8 L352,140.1 L360,136.8 L368,138.6 L376,136.7 L384,136.6 L392,136.3 L400,135.7 L408,136.3 L416,135.5 L424,136.7 L432,138.3 L440,136.8 L448,135.1 L456,136.1 L464,136.3 L472,140.7 L480,141.3 L488,139.6 L496,145.8 L504,142.8 L512,145.7 L520,151.0 L528,149.8 L536,154.5 L544,156.5 L552,155.1 L560,158.5 L568,162.2 L576,163.0 L584,163.2 L592,165.7 L600,167.4 L608,174.3 L616,173.3 L624,174.9 L632,178.4 L640,177.9 L648,179.7 L656,181.9 L664,178.3 L672,180.0 L680,180.3 L688,183.5 L696,178.8 L704,176.2 L712,174.9 L720,174.8 L728,172.6 L736,173.7 L744,167.6 L752,166.1 L760,165.5 L768,163.9 L776,160.6 L784,154.0 L792,153.0 L800,149.8 L808,146.9 L816,142.1 L824,139.7 L832,133.6 L840,131.9 L848,129.4 L856,125.3 L864,126.6 L872,122.0 L880,116.8 L888,119.4 L896,116.1 L904,114.3 L912,113.3 L920,112.7 L928,108.3 L936,111.2 L944,109.8 L952,113.0 L960,108.1 L968,111.2 L976,109.1 L984,111.6 L992,114.2 L1000,117.5 L1008,117.5 L1016,118.1 L1024,123.2 L1032,124.7 L1040,124.2 L1048,125.5 L1056,129.2 L1064,128.8 L1072,131.4 L1080,133.7 L1088,137.7 L1096,141.9 L1104,142.0 L1112,140.8 L1120,141.2 L1128,144.2 L1136,146.9 L1144,144.3 L1152,149.9 L1160,144.8 L1168,150.4 L1176,147.4 L1184,150.4 L1192,150.1 L1200,146.9" fill="none" stroke="#0033A1" stroke-width="1.2" opacity="0.13"/><path d="M0,179.5 L8,178.1 L16,173.3 L24,174.8 L32,172.0 L40,174.5 L48,172.9 L56,169.8 L64,172.7 L72,175.0 L80,175.5 L88,174.9 L96,175.1 L104,173.9 L112,173.1 L120,175.1 L128,174.7 L136,175.8 L144,176.7 L152,176.4 L160,178.5 L168,177.0 L176,173.5 L184,173.6 L192,177.8 L200,177.1 L208,177.2 L216,172.7 L224,175.9 L232,174.5 L240,172.3 L248,170.8 L256,167.6 L264,166.9 L272,170.6 L280,164.4 L288,165.8 L296,164.0 L304,162.3 L312,164.6 L320,160.1 L328,163.5 L336,162.5 L344,159.9 L352,159.9 L360,157.0 L368,161.9 L376,157.1 L384,157.6 L392,161.3 L400,165.3 L408,161.3 L416,168.0 L424,168.2 L432,171.9 L440,168.6 L448,172.8 L456,175.1 L464,181.0 L472,181.6 L480,186.4 L488,185.4 L496,188.5 L504,195.6 L512,196.3 L520,201.9 L528,205.7 L536,207.4 L544,207.5 L552,212.4 L560,211.5 L568,217.0 L576,218.6 L584,217.5 L592,219.3 L600,223.5 L608,221.8 L616,222.3 L624,226.6 L632,225.5 L640,224.9 L648,225.3 L656,221.7 L664,221.1 L672,221.1 L680,217.9 L688,212.8 L696,214.2 L704,209.7 L712,206.8 L720,202.9 L728,204.3 L736,196.1 L744,198.1 L752,190.5 L760,190.6 L768,190.0 L776,183.8 L784,182.2 L792,176.4 L800,174.9 L808,175.3 L816,173.7 L824,168.6 L832,170.8 L840,165.2 L848,166.1 L856,167.6 L864,166.5 L872,163.6 L880,160.3 L888,164.1 L896,162.7 L904,165.6 L912,166.0 L920,166.6 L928,161.9 L936,163.0 L944,167.5 L952,166.9 L960,168.0 L968,169.9 L976,170.6 L984,168.2 L992,172.3 L1000,174.1 L1008,173.1 L1016,174.2 L1024,174.8 L1032,173.4 L1040,172.5 L1048,176.4 L1056,172.9 L1064,174.6 L1072,174.1 L1080,172.4 L1088,176.3 L1096,175.5 L1104,172.5 L1112,174.4 L1120,174.1 L1128,174.0 L1136,172.0 L1144,172.6 L1152,167.0 L1160,169.5 L1168,171.2 L1176,166.1 L1184,168.6 L1192,168.8 L1200,167.0" fill="none" stroke="#1A5BC4" stroke-width="1.2" opacity="0.25"/><path d="M0,166.0 L8,164.2 L16,167.0 L24,164.5 L32,162.5 L40,161.6 L48,165.6 L56,166.0 L64,162.2 L72,165.7 L80,164.8 L88,162.3 L96,166.1 L104,164.5 L112,167.5 L120,168.0 L128,166.0 L136,169.7 L144,168.1 L152,172.0 L160,173.3 L168,174.1 L176,170.3 L184,175.5 L192,174.9 L200,174.2 L208,174.3 L216,174.3 L224,176.3 L232,175.4 L240,176.8 L248,175.0 L256,171.2 L264,174.3 L272,169.6 L280,173.7 L288,170.9 L296,172.0 L304,168.5 L312,167.1 L320,168.5 L328,170.7 L336,170.3 L344,168.0 L352,169.7 L360,168.8 L368,169.6 L376,172.1 L384,169.0 L392,168.6 L400,174.6 L408,172.8 L416,174.8 L424,175.6 L432,177.2 L440,182.2 L448,182.8 L456,186.8 L464,190.6 L472,192.2 L480,193.6 L488,197.7 L496,199.9 L504,200.0 L512,201.3 L520,209.5 L528,209.5 L536,211.9 L544,213.9 L552,217.4 L560,218.9 L568,218.1 L576,219.2 L584,220.4 L592,223.6 L600,220.6 L608,221.6 L616,221.4 L624,222.2 L632,223.1 L640,222.5 L648,216.8 L656,218.6 L664,215.9 L672,212.6 L680,214.2 L688,207.1 L696,204.9 L704,202.6 L712,199.9 L720,194.5 L728,195.5 L736,187.9 L744,184.6 L752,185.9 L760,182.6 L768,175.7 L776,176.4 L784,172.1 L792,169.9 L800,163.9 L808,166.8 L816,160.0 L824,158.5 L832,159.4 L840,158.5 L848,154.6 L856,154.1 L864,152.2 L872,157.1 L880,153.2 L888,155.0 L896,154.0 L904,158.6 L912,157.5 L920,155.9 L928,157.2 L936,159.9 L944,164.2 L952,162.6 L960,164.6 L968,167.6 L976,164.7 L984,167.4 L992,167.7 L1000,169.8 L1008,174.8 L1016,175.3 L1024,176.7 L1032,179.5 L1040,175.3 L1048,175.6 L1056,176.1 L1064,177.4 L1072,182.2 L1080,178.2 L1088,183.2 L1096,178.2 L1104,179.3 L1112,179.0 L1120,179.4 L1128,179.4 L1136,176.8 L1144,181.2 L1152,178.0 L1160,181.9 L1168,178.8 L1176,181.3 L1184,179.5 L1192,176.3 L1200,177.3" fill="none" stroke="#1A5BC4" stroke-width="1.2" opacity="0.25"/><path d="M0,161.1 L8,154.1 L16,158.3 L24,156.9 L32,156.1 L40,156.0 L48,155.0 L56,157.4 L64,156.3 L72,154.7 L80,155.5 L88,160.4 L96,161.1 L104,160.5 L112,164.9 L120,167.1 L128,163.0 L136,166.5 L144,171.4 L152,167.5 L160,173.1 L168,169.9 L176,176.9 L184,175.9 L192,173.5 L200,177.0 L208,176.3 L216,178.0 L224,176.9 L232,180.6 L240,177.3 L248,181.1 L256,182.9 L264,177.7 L272,176.9 L280,180.4 L288,176.6 L296,181.2 L304,176.8 L312,177.9 L320,181.3 L328,178.1 L336,175.3 L344,181.1 L352,180.5 L360,178.9 L368,180.4 L376,180.4 L384,178.8 L392,180.6 L400,182.0 L408,180.2 L416,186.8 L424,183.5 L432,189.4 L440,189.4 L448,190.3 L456,190.4 L464,194.1 L472,194.2 L480,196.4 L488,201.5 L496,203.7 L504,206.9 L512,209.8 L520,211.6 L528,212.3 L536,213.0 L544,214.0 L552,218.0 L560,217.4 L568,216.1 L576,218.3 L584,217.6 L592,219.1 L600,219.3 L608,221.7 L616,220.4 L624,216.8 L632,216.3 L640,215.5 L648,215.4 L656,213.4 L664,206.9 L672,207.6 L680,202.7 L688,201.8 L696,195.1 L704,191.5 L712,191.1 L720,186.3 L728,185.5 L736,181.9 L744,174.5 L752,175.5 L760,171.4 L768,168.5 L776,167.2 L784,161.3 L792,161.4 L800,157.2 L808,154.5 L816,154.2 L824,154.5 L832,151.0 L840,148.9 L848,151.1 L856,148.6 L864,145.8 L872,146.3 L880,150.3 L888,147.7 L896,151.9 L904,150.6 L912,151.3 L920,156.1 L928,157.5 L936,159.4 L944,160.7 L952,163.4 L960,163.7 L968,165.4 L976,171.5 L984,171.9 L992,174.4 L1000,173.1 L1008,179.6 L1016,178.6 L1024,178.6 L1032,183.9 L1040,185.8 L1048,187.1 L1056,187.3 L1064,186.9 L1072,190.7 L1080,186.2 L1088,187.9 L1096,190.4 L1104,187.3 L1112,188.0 L1120,192.7 L1128,189.2 L1136,190.6 L1144,187.0 L1152,189.5 L1160,188.3 L1168,190.2 L1176,190.0 L1184,186.7 L1192,187.8 L1200,187.7" fill="none" stroke="#1A5BC4" stroke-width="1.2" opacity="0.25"/><path d="M0,205.3 L8,206.8 L16,207.8 L24,207.7 L32,209.5 L40,210.8 L48,210.9 L56,211.4 L64,211.0 L72,211.2 L80,208.8 L88,211.5 L96,211.8 L104,210.3 L112,207.1 L120,209.3 L128,206.9 L136,207.4 L144,208.8 L152,205.3 L160,204.4 L168,205.2 L176,203.1 L184,204.4 L192,204.3 L200,199.9 L208,198.8 L216,198.2 L224,197.0 L232,196.1 L240,197.3 L248,197.6 L256,196.0 L264,194.2 L272,198.1 L280,196.6 L288,194.3 L296,195.7 L304,196.7 L312,196.6 L320,200.5 L328,200.5 L336,202.3 L344,201.6 L352,204.4 L360,210.2 L368,210.8 L376,213.8 L384,214.1 L392,220.5 L400,218.3 L408,226.7 L416,224.3 L424,229.9 L432,231.9 L440,238.1 L448,241.8 L456,244.1 L464,247.3 L472,245.6 L480,247.9 L488,252.9 L496,251.5 L504,258.2 L512,258.5 L520,258.8 L528,256.7 L536,261.2 L544,257.1 L552,257.6 L560,255.6 L568,259.7 L576,256.4 L584,253.0 L592,253.3 L600,250.2 L608,251.3 L616,249.3 L624,242.7 L632,240.5 L640,238.6 L648,233.2 L656,230.1 L664,229.2 L672,224.4 L680,224.7 L688,220.5 L696,219.0 L704,212.2 L712,214.2 L720,207.3 L728,206.7 L736,203.0 L744,203.5 L752,199.9 L760,202.1 L768,201.2 L776,197.0 L784,195.6 L792,196.7 L800,199.3 L808,193.9 L816,198.3 L824,199.2 L832,197.2 L840,199.3 L848,199.3 L856,200.3 L864,199.4 L872,200.3 L880,202.5 L888,201.3 L896,202.4 L904,202.3 L912,203.3 L920,203.6 L928,207.0 L936,210.3 L944,209.0 L952,210.7 L960,210.4 L968,211.4 L976,207.2 L984,209.9 L992,208.2 L1000,210.3 L1008,210.9 L1016,211.2 L1024,206.5 L1032,209.9 L1040,208.7 L1048,204.7 L1056,207.3 L1064,203.6 L1072,205.7 L1080,206.8 L1088,203.0 L1096,204.2 L1104,207.3 L1112,202.4 L1120,203.9 L1128,205.8 L1136,208.6 L1144,206.4 L1152,209.8 L1160,207.4 L1168,211.4 L1176,211.2 L1184,214.2 L1192,218.7 L1200,220.2" fill="none" stroke="#a855f7" stroke-width="1.2" opacity="0.36"/><path d="M0,197.2 L8,196.4 L16,197.9 L24,198.8 L32,200.4 L40,203.0 L48,204.7 L56,201.4 L64,202.7 L72,205.9 L80,207.5 L88,208.8 L96,205.9 L104,206.5 L112,209.3 L120,206.6 L128,210.0 L136,210.3 L144,208.7 L152,211.7 L160,208.9 L168,209.2 L176,207.8 L184,207.8 L192,205.5 L200,207.4 L208,205.2 L216,208.2 L224,207.9 L232,203.3 L240,206.8 L248,202.6 L256,204.9 L264,204.1 L272,205.4 L280,206.0 L288,207.6 L296,204.6 L304,208.1 L312,208.7 L320,206.9 L328,210.4 L336,212.8 L344,215.1 L352,216.0 L360,215.3 L368,218.7 L376,221.7 L384,226.1 L392,224.8 L400,231.3 L408,229.9 L416,234.8 L424,239.6 L432,237.1 L440,242.1 L448,244.8 L456,247.1 L464,249.0 L472,251.9 L480,250.2 L488,255.8 L496,257.7 L504,257.7 L512,256.0 L520,256.6 L528,258.0 L536,260.0 L544,255.9 L552,253.9 L560,254.8 L568,252.2 L576,250.6 L584,247.7 L592,247.6 L600,246.9 L608,244.8 L616,242.6 L624,235.2 L632,232.8 L640,229.9 L648,226.4 L656,221.5 L664,218.4 L672,215.7 L680,211.2 L688,209.5 L696,209.8 L704,208.1 L712,201.1 L720,201.9 L728,197.5 L736,196.7 L744,193.1 L752,191.2 L760,191.7 L768,191.1 L776,186.5 L784,189.3 L792,186.8 L800,185.8 L808,189.5 L816,186.6 L824,190.0 L832,191.9 L840,189.7 L848,193.7 L856,192.5 L864,198.5 L872,200.6 L880,201.8 L888,198.7 L896,201.6 L904,204.7 L912,208.5 L920,207.0 L928,210.6 L936,212.0 L944,209.7 L952,212.0 L960,210.6 L968,213.2 L976,212.9 L984,214.0 L992,215.6 L1000,216.1 L1008,214.6 L1016,217.0 L1024,217.0 L1032,214.3 L1040,217.0 L1048,215.1 L1056,214.4 L1064,213.7 L1072,216.7 L1080,212.7 L1088,215.7 L1096,212.7 L1104,215.2 L1112,212.4 L1120,214.1 L1128,215.6 L1136,218.4 L1144,215.6 L1152,215.9 L1160,219.3 L1168,219.2 L1176,218.3 L1184,222.2 L1192,221.3 L1200,223.9" fill="none" stroke="#a855f7" stroke-width="1.2" opacity="0.36"/><path d="M0,191.7 L8,194.3 L16,193.3 L24,195.1 L32,196.5 L40,196.6 L48,200.7 L56,205.0 L64,203.7 L72,205.3 L80,207.2 L88,209.6 L96,207.9 L104,213.5 L112,208.9 L120,213.0 L128,213.1 L136,214.9 L144,213.5 L152,215.3 L160,216.3 L168,214.9 L176,215.9 L184,214.3 L192,216.4 L200,217.1 L208,214.8 L216,217.0 L224,217.8 L232,217.1 L240,213.2 L248,215.0 L256,216.3 L264,217.2 L272,213.1 L280,217.5 L288,215.1 L296,212.9 L304,218.0 L312,219.5 L320,217.1 L328,221.3 L336,221.2 L344,221.3 L352,224.5 L360,224.4 L368,226.3 L376,228.4 L384,228.6 L392,232.7 L400,235.8 L408,239.0 L416,239.1 L424,243.2 L432,242.6 L440,243.5 L448,247.5 L456,248.9 L464,249.6 L472,253.7 L480,253.0 L488,251.5 L496,250.6 L504,256.1 L512,255.0 L520,251.0 L528,255.7 L536,251.8 L544,251.5 L552,249.1 L560,250.8 L568,246.6 L576,243.2 L584,241.1 L592,236.7 L600,237.1 L608,232.8 L616,228.9 L624,230.1 L632,221.3 L640,223.4 L648,218.4 L656,212.6 L664,212.7 L672,209.6 L680,202.3 L688,202.8 L696,197.6 L704,192.8 L712,190.3 L720,192.9 L728,186.6 L736,184.7 L744,183.9 L752,185.9 L760,183.1 L768,182.6 L776,182.8 L784,185.0 L792,180.6 L800,183.8 L808,182.0 L816,186.1 L824,185.3 L832,189.3 L840,189.5 L848,193.2 L856,195.6 L864,195.7 L872,196.8 L880,202.3 L888,205.8 L896,206.5 L904,206.3 L912,211.8 L920,209.5 L928,210.9 L936,215.1 L944,218.4 L952,220.2 L960,218.6 L968,219.2 L976,220.9 L984,221.8 L992,226.8 L1000,225.6 L1008,227.2 L1016,225.1 L1024,226.9 L1032,224.3 L1040,228.1 L1048,225.4 L1056,223.5 L1064,225.7 L1072,228.2 L1080,222.4 L1088,222.6 L1096,223.7 L1104,225.8 L1112,225.0 L1120,222.2 L1128,221.7 L1136,224.6 L1144,225.9 L1152,226.9 L1160,225.0 L1168,225.2 L1176,226.4 L1184,230.3 L1192,228.1 L1200,228.8" fill="none" stroke="#a855f7" stroke-width="1.2" opacity="0.36"/><path d="M0,261.1 L8,260.4 L16,261.1 L24,260.5 L32,260.8 L40,259.8 L48,257.3 L56,260.7 L64,261.0 L72,257.7 L80,259.8 L88,254.8 L96,256.4 L104,254.5 L112,252.9 L120,251.2 L128,255.1 L136,249.3 L144,251.2 L152,247.4 L160,248.5 L168,251.4 L176,248.4 L184,249.6 L192,248.0 L200,246.5 L208,245.7 L216,249.1 L224,249.6 L232,248.4 L240,253.4 L248,254.0 L256,252.8 L264,256.1 L272,256.1 L280,258.8 L288,264.9 L296,267.7 L304,267.5 L312,268.7 L320,274.8 L328,274.6 L336,278.0 L344,282.8 L352,284.0 L360,288.1 L368,293.8 L376,290.9 L384,294.9 L392,298.6 L400,304.0 L408,303.4 L416,303.5 L424,309.6 L432,305.2 L440,309.9 L448,306.6 L456,308.6 L464,311.1 L472,309.7 L480,307.4 L488,305.1 L496,309.7 L504,303.8 L512,302.0 L520,304.4 L528,297.1 L536,298.1 L544,295.0 L552,289.2 L560,288.9 L568,286.4 L576,280.3 L584,277.3 L592,279.0 L600,273.3 L608,267.2 L616,264.3 L624,264.1 L632,263.1 L640,258.7 L648,254.1 L656,254.4 L664,253.2 L672,252.4 L680,248.0 L688,246.7 L696,245.1 L704,244.3 L712,245.6 L720,248.7 L728,247.7 L736,243.3 L744,246.4 L752,246.0 L760,247.4 L768,250.7 L776,251.1 L784,248.5 L792,251.2 L800,254.4 L808,255.5 L816,256.6 L824,253.0 L832,254.5 L840,257.0 L848,259.8 L856,257.4 L864,262.2 L872,260.1 L880,260.0 L888,262.6 L896,263.7 L904,258.8 L912,261.6 L920,263.8 L928,262.2 L936,260.1 L944,260.3 L952,263.0 L960,259.0 L968,257.7 L976,258.0 L984,260.1 L992,256.5 L1000,256.9 L1008,256.2 L1016,259.7 L1024,259.7 L1032,259.0 L1040,260.0 L1048,256.0 L1056,258.5 L1064,257.1 L1072,260.2 L1080,264.0 L1088,263.4 L1096,264.9 L1104,263.7 L1112,268.7 L1120,271.5 L1128,274.4 L1136,272.7 L1144,278.6 L1152,278.2 L1160,284.7 L1168,283.5 L1176,289.3 L1184,288.8 L1192,289.4 L1200,295.3" fill="none" stroke="#c084fc" stroke-width="1.2" opacity="0.40"/><path d="M0,257.0 L8,259.6 L16,260.7 L24,258.2 L32,261.9 L40,262.0 L48,263.7 L56,258.6 L64,259.4 L72,261.6 L80,261.3 L88,260.6 L96,259.9 L104,261.5 L112,261.9 L120,262.0 L128,259.1 L136,258.9 L144,259.4 L152,255.9 L160,259.4 L168,257.8 L176,258.3 L184,257.4 L192,259.6 L200,257.4 L208,257.9 L216,257.6 L224,260.3 L232,261.0 L240,263.5 L248,263.0 L256,264.5 L264,264.2 L272,266.5 L280,271.7 L288,270.9 L296,273.7 L304,275.0 L312,277.9 L320,278.8 L328,281.7 L336,284.3 L344,285.7 L352,288.7 L360,294.5 L368,293.5 L376,300.6 L384,301.5 L392,302.0 L400,302.6 L408,306.6 L416,304.9 L424,308.2 L432,310.3 L440,311.1 L448,306.4 L456,308.1 L464,304.6 L472,306.8 L480,304.8 L488,302.9 L496,304.5 L504,300.4 L512,297.1 L520,294.7 L528,292.2 L536,290.7 L544,286.5 L552,280.7 L560,279.8 L568,278.6 L576,271.1 L584,269.2 L592,264.5 L600,263.7 L608,261.9 L616,258.4 L624,253.0 L632,249.0 L640,250.3 L648,249.3 L656,248.0 L664,242.1 L672,239.4 L680,238.7 L688,242.3 L696,237.9 L704,237.3 L712,238.4 L720,236.3 L728,239.2 L736,236.8 L744,237.6 L752,238.4 L760,242.0 L768,243.0 L776,247.9 L784,247.0 L792,246.4 L800,252.3 L808,254.2 L816,250.4 L824,255.8 L832,255.0 L840,255.8 L848,261.0 L856,263.9 L864,259.8 L872,264.5 L880,262.4 L888,265.2 L896,264.8 L904,265.1 L912,266.7 L920,268.0 L928,270.4 L936,267.2 L944,267.2 L952,268.4 L960,269.6 L968,267.3 L976,268.3 L984,266.6 L992,269.4 L1000,267.6 L1008,265.6 L1016,267.1 L1024,267.2 L1032,267.1 L1040,264.8 L1048,267.7 L1056,270.8 L1064,269.7 L1072,267.4 L1080,272.7 L1088,270.4 L1096,273.1 L1104,272.0 L1112,274.0 L1120,278.8 L1128,281.2 L1136,282.3 L1144,280.7 L1152,281.8 L1160,288.3 L1168,291.2 L1176,289.7 L1184,289.3 L1192,292.7 L1200,297.2" fill="none" stroke="#c084fc" stroke-width="1.2" opacity="0.40"/><path d="M0,258.8 L8,256.4 L16,259.9 L24,261.0 L32,265.9 L40,262.0 L48,265.9 L56,264.5 L64,267.4 L72,267.6 L80,269.9 L88,269.2 L96,268.0 L104,267.6 L112,266.8 L120,270.3 L128,270.2 L136,265.8 L144,265.5 L152,269.7 L160,264.8 L168,267.2 L176,267.7 L184,266.4 L192,266.5 L200,265.2 L208,265.7 L216,266.7 L224,270.8 L232,270.4 L240,270.6 L248,273.1 L256,272.3 L264,273.9 L272,275.5 L280,276.8 L288,275.2 L296,282.8 L304,279.1 L312,283.2 L320,287.2 L328,290.6 L336,290.1 L344,293.5 L352,293.3 L360,296.3 L368,298.7 L376,301.6 L384,297.6 L392,303.6 L400,303.7 L408,302.7 L416,304.7 L424,301.9 L432,305.0 L440,301.9 L448,303.9 L456,302.5 L464,299.8 L472,300.1 L480,298.7 L488,296.3 L496,294.4 L504,293.8 L512,290.1 L520,289.2 L528,285.8 L536,282.4 L544,274.8 L552,274.8 L560,271.7 L568,266.0 L576,261.0 L584,261.3 L592,255.5 L600,254.1 L608,249.7 L616,246.3 L624,242.7 L632,244.8 L640,241.2 L648,238.6 L656,235.9 L664,234.1 L672,234.6 L680,231.4 L688,232.6 L696,234.3 L704,234.1 L712,235.1 L720,234.4 L728,238.1 L736,236.6 L744,236.3 L752,238.3 L760,239.9 L768,242.8 L776,245.0 L784,245.4 L792,249.1 L800,251.9 L808,256.3 L816,257.3 L824,262.0 L832,261.2 L840,264.0 L848,268.2 L856,264.8 L864,268.7 L872,271.4 L880,272.6 L888,274.0 L896,274.8 L904,277.5 L912,276.7 L920,279.1 L928,278.7 L936,276.8 L944,278.5 L952,277.2 L960,278.4 L968,280.4 L976,276.2 L984,278.1 L992,275.1 L1000,274.3 L1008,277.9 L1016,275.2 L1024,276.5 L1032,277.8 L1040,278.1 L1048,273.3 L1056,277.7 L1064,273.5 L1072,277.1 L1080,276.0 L1088,279.8 L1096,275.6 L1104,279.5 L1112,280.1 L1120,279.8 L1128,284.0 L1136,281.1 L1144,284.1 L1152,286.6 L1160,284.8 L1168,288.2 L1176,291.1 L1184,293.9 L1192,289.5 L1200,294.1" fill="none" stroke="#c084fc" stroke-width="1.2" opacity="0.40"/><path d="M0,286.7 L8,288.5 L16,287.0 L24,283.6 L32,281.8 L40,281.2 L48,283.4 L56,279.1 L64,279.5 L72,278.1 L80,278.5 L88,280.8 L96,277.8 L104,278.4 L112,274.8 L120,278.4 L128,275.2 L136,277.4 L144,279.3 L152,279.7 L160,278.9 L168,285.2 L176,286.0 L184,287.1 L192,287.8 L200,289.4 L208,293.6 L216,293.2 L224,297.9 L232,299.6 L240,301.7 L248,307.6 L256,307.2 L264,310.9 L272,311.9 L280,315.2 L288,318.6 L296,320.4 L304,326.8 L312,326.1 L320,330.2 L328,334.3 L336,335.1 L344,332.7 L352,338.1 L360,340.2 L368,337.5 L376,336.0 L384,340.8 L392,340.4 L400,338.5 L408,337.0 L416,332.0 L424,335.3 L432,330.2 L440,330.0 L448,326.8 L456,322.4 L464,322.6 L472,315.7 L480,313.5 L488,315.0 L496,307.3 L504,307.5 L512,301.0 L520,299.8 L528,299.4 L536,296.0 L544,293.8 L552,287.0 L560,283.9 L568,281.7 L576,278.7 L584,281.2 L592,278.5 L600,278.4 L608,277.1 L616,272.4 L624,275.1 L632,274.7 L640,271.7 L648,275.5 L656,271.7 L664,275.1 L672,271.3 L680,277.4 L688,277.1 L696,274.8 L704,278.5 L712,277.3 L720,280.6 L728,281.0 L736,279.7 L744,281.0 L752,281.5 L760,284.2 L768,289.2 L776,290.3 L784,285.3 L792,286.1 L800,290.2 L808,291.7 L816,288.9 L824,293.3 L832,290.4 L840,291.8 L848,287.6 L856,289.2 L864,290.8 L872,287.5 L880,287.1 L888,287.1 L896,289.6 L904,286.0 L912,289.6 L920,284.9 L928,287.8 L936,286.6 L944,287.1 L952,286.3 L960,288.9 L968,289.9 L976,287.5 L984,292.4 L992,292.5 L1000,289.4 L1008,290.3 L1016,296.3 L1024,298.2 L1032,295.8 L1040,301.2 L1048,304.2 L1056,305.7 L1064,309.4 L1072,308.2 L1080,313.8 L1088,312.5 L1096,314.1 L1104,316.9 L1112,319.1 L1120,323.2 L1128,323.9 L1136,330.5 L1144,330.8 L1152,331.5 L1160,332.4 L1168,334.1 L1176,336.7 L1184,335.7 L1192,334.2 L1200,336.0" fill="none" stroke="#3b82f6" stroke-width="1.2" opacity="0.34"/><path d="M0,289.5 L8,290.0 L16,291.8 L24,292.3 L32,292.4 L40,287.7 L48,287.7 L56,287.3 L64,285.6 L72,285.0 L80,287.0 L88,285.0 L96,285.5 L104,289.7 L112,286.4 L120,285.6 L128,288.7 L136,290.5 L144,288.3 L152,291.0 L160,288.8 L168,290.7 L176,295.5 L184,296.6 L192,298.8 L200,301.7 L208,302.1 L216,304.7 L224,307.2 L232,305.5 L240,310.8 L248,311.0 L256,313.4 L264,319.7 L272,321.1 L280,325.5 L288,326.6 L296,329.6 L304,330.7 L312,329.7 L320,334.0 L328,335.1 L336,333.6 L344,333.6 L352,337.3 L360,336.0 L368,334.2 L376,337.0 L384,332.0 L392,334.9 L400,330.8 L408,330.3 L416,326.6 L424,327.3 L432,322.8 L440,320.8 L448,321.1 L456,316.2 L464,316.2 L472,309.1 L480,304.4 L488,302.5 L496,302.2 L504,296.2 L512,295.6 L520,289.2 L528,286.3 L536,283.5 L544,282.5 L552,279.5 L560,278.2 L568,276.4 L576,269.7 L584,268.1 L592,271.4 L600,267.7 L608,264.7 L616,263.8 L624,264.0 L632,267.3 L640,264.4 L648,264.9 L656,267.7 L664,270.4 L672,271.1 L680,273.2 L688,272.7 L696,272.7 L704,273.7 L712,278.0 L720,276.9 L728,283.1 L736,283.9 L744,285.2 L752,288.5 L760,285.6 L768,288.1 L776,288.2 L784,292.1 L792,294.5 L800,294.5 L808,295.3 L816,299.0 L824,299.1 L832,296.1 L840,297.1 L848,299.4 L856,297.3 L864,297.2 L872,299.9 L880,299.3 L888,295.8 L896,295.7 L904,295.6 L912,295.5 L920,296.0 L928,299.6 L936,296.5 L944,298.2 L952,295.6 L960,296.8 L968,294.9 L976,296.3 L984,300.6 L992,302.3 L1000,301.3 L1008,303.3 L1016,301.5 L1024,304.5 L1032,305.8 L1040,305.9 L1048,309.5 L1056,311.0 L1064,311.0 L1072,315.9 L1080,317.3 L1088,316.1 L1096,317.4 L1104,322.8 L1112,323.0 L1120,325.6 L1128,328.0 L1136,327.0 L1144,330.4 L1152,329.5 L1160,332.1 L1168,330.4 L1176,329.6 L1184,328.4 L1192,329.5 L1200,328.6" fill="none" stroke="#3b82f6" stroke-width="1.2" opacity="0.34"/><path d="M0,296.2 L8,296.8 L16,299.7 L24,300.8 L32,298.8 L40,295.2 L48,300.3 L56,297.3 L64,294.6 L72,294.6 L80,295.7 L88,295.1 L96,299.2 L104,298.0 L112,293.9 L120,294.7 L128,297.1 L136,298.0 L144,300.4 L152,300.1 L160,300.7 L168,300.2 L176,302.6 L184,303.9 L192,306.7 L200,306.0 L208,307.3 L216,311.6 L224,313.6 L232,313.4 L240,317.4 L248,314.5 L256,317.3 L264,317.6 L272,319.2 L280,326.1 L288,326.9 L296,325.4 L304,326.4 L312,329.5 L320,330.7 L328,329.6 L336,332.8 L344,333.4 L352,329.9 L360,332.9 L368,329.8 L376,331.9 L384,327.2 L392,324.3 L400,322.6 L408,322.4 L416,322.7 L424,321.3 L432,314.7 L440,315.8 L448,311.8 L456,304.3 L464,300.8 L472,302.8 L480,296.8 L488,292.6 L496,287.7 L504,288.5 L512,285.3 L520,282.8 L528,274.8 L536,276.0 L544,274.3 L552,268.3 L560,269.0 L568,263.2 L576,266.4 L584,261.5 L592,261.0 L600,262.4 L608,258.5 L616,261.1 L624,261.2 L632,263.4 L640,260.0 L648,262.8 L656,266.0 L664,267.8 L672,267.0 L680,271.9 L688,269.6 L696,276.3 L704,276.4 L712,280.9 L720,282.9 L728,285.9 L736,283.7 L744,288.9 L752,292.5 L760,289.9 L768,292.0 L776,295.8 L784,299.0 L792,301.2 L800,300.7 L808,301.8 L816,306.0 L824,307.1 L832,303.8 L840,305.1 L848,307.1 L856,309.9 L864,307.9 L872,307.0 L880,311.0 L888,308.3 L896,310.7 L904,305.0 L912,306.3 L920,305.4 L928,304.1 L936,306.9 L944,305.6 L952,304.5 L960,302.6 L968,305.3 L976,304.2 L984,305.0 L992,306.7 L1000,303.1 L1008,303.6 L1016,307.9 L1024,309.7 L1032,309.8 L1040,308.3 L1048,309.3 L1056,313.2 L1064,315.6 L1072,311.6 L1080,315.5 L1088,317.6 L1096,317.9 L1104,317.9 L1112,318.5 L1120,319.7 L1128,323.0 L1136,323.2 L1144,324.7 L1152,323.9 L1160,323.7 L1168,326.9 L1176,322.2 L1184,320.9 L1192,326.3 L1200,324.0" fill="none" stroke="#3b82f6" stroke-width="1.2" opacity="0.34"/><path d="M0,320.1 L8,319.4 L16,317.3 L24,319.1 L32,319.0 L40,319.7 L48,318.4 L56,319.4 L64,320.4 L72,321.7 L80,324.5 L88,324.4 L96,326.8 L104,327.3 L112,329.7 L120,330.5 L128,333.9 L136,334.6 L144,340.7 L152,342.2 L160,343.8 L168,347.4 L176,350.5 L184,353.9 L192,355.2 L200,360.0 L208,364.9 L216,362.4 L224,366.3 L232,370.2 L240,371.3 L248,374.1 L256,374.2 L264,376.4 L272,376.7 L280,379.6 L288,380.0 L296,378.7 L304,380.0 L312,377.3 L320,376.4 L328,374.7 L336,377.1 L344,373.3 L352,370.7 L360,370.5 L368,366.1 L376,361.9 L384,361.0 L392,356.2 L400,354.9 L408,354.3 L416,350.1 L424,344.4 L432,344.3 L440,342.0 L448,335.3 L456,334.9 L464,329.2 L472,325.8 L480,327.2 L488,321.9 L496,318.8 L504,318.1 L512,319.0 L520,317.1 L528,311.9 L536,314.4 L544,316.1 L552,313.5 L560,312.2 L568,312.6 L576,311.4 L584,312.9 L592,313.3 L600,315.2 L608,313.0 L616,316.0 L624,317.3 L632,321.2 L640,319.1 L648,323.2 L656,321.4 L664,326.8 L672,325.8 L680,324.6 L688,324.8 L696,330.4 L704,326.3 L712,330.9 L720,331.0 L728,329.0 L736,332.3 L744,330.0 L752,330.1 L760,330.1 L768,331.8 L776,332.9 L784,329.4 L792,331.3 L800,332.2 L808,332.3 L816,329.1 L824,328.6 L832,327.9 L840,331.0 L848,331.5 L856,331.5 L864,330.9 L872,330.0 L880,327.7 L888,332.7 L896,333.9 L904,329.0 L912,332.9 L920,333.2 L928,334.1 L936,339.3 L944,335.8 L952,337.2 L960,339.4 L968,346.6 L976,343.8 L984,346.9 L992,352.0 L1000,353.6 L1008,352.4 L1016,356.6 L1024,359.0 L1032,364.1 L1040,364.7 L1048,369.4 L1056,369.2 L1064,368.8 L1072,371.1 L1080,375.9 L1088,371.4 L1096,372.2 L1104,373.3 L1112,378.4 L1120,378.3 L1128,375.1 L1136,373.0 L1144,376.4 L1152,372.0 L1160,369.8 L1168,368.9 L1176,366.4 L1184,362.9 L1192,361.7 L1200,360.2" fill="none" stroke="#0033A1" stroke-width="1.2" opacity="0.28"/><path d="M0,329.6 L8,331.4 L16,328.4 L24,331.0 L32,331.9 L40,331.3 L48,332.4 L56,330.0 L64,333.1 L72,333.1 L80,334.7 L88,332.1 L96,333.4 L104,335.0 L112,340.4 L120,338.3 L128,341.9 L136,347.7 L144,350.3 L152,347.4 L160,354.2 L168,355.6 L176,358.1 L184,359.3 L192,358.7 L200,360.8 L208,368.3 L216,365.0 L224,370.7 L232,374.0 L240,374.3 L248,376.5 L256,375.6 L264,375.0 L272,375.7 L280,374.1 L288,378.3 L296,375.5 L304,377.9 L312,376.3 L320,372.9 L328,368.3 L336,369.4 L344,365.6 L352,365.1 L360,363.5 L368,361.1 L376,356.5 L384,351.7 L392,351.3 L400,347.9 L408,340.5 L416,337.2 L424,338.6 L432,331.1 L440,329.9 L448,323.5 L456,323.4 L464,320.6 L472,316.2 L480,316.9 L488,314.0 L496,310.7 L504,311.3 L512,306.2 L520,310.3 L528,303.6 L536,306.0 L544,304.7 L552,305.3 L560,304.4 L568,306.4 L576,306.2 L584,308.7 L592,306.7 L600,307.9 L608,313.9 L616,312.3 L624,315.0 L632,319.1 L640,318.0 L648,324.2 L656,324.9 L664,326.6 L672,325.9 L680,326.4 L688,329.2 L696,329.7 L704,334.3 L712,337.2 L720,337.5 L728,339.8 L736,337.9 L744,336.8 L752,341.6 L760,341.1 L768,343.1 L776,342.3 L784,337.9 L792,340.9 L800,339.0 L808,340.1 L816,340.3 L824,340.5 L832,339.9 L840,340.3 L848,337.5 L856,338.0 L864,342.2 L872,337.6 L880,342.5 L888,340.3 L896,341.2 L904,342.8 L912,339.4 L920,342.7 L928,344.7 L936,346.2 L944,346.8 L952,346.1 L960,346.6 L968,350.4 L976,349.6 L984,354.6 L992,354.3 L1000,357.5 L1008,356.2 L1016,357.2 L1024,360.1 L1032,361.0 L1040,362.6 L1048,363.8 L1056,365.0 L1064,370.5 L1072,372.4 L1080,371.3 L1088,371.3 L1096,369.8 L1104,371.9 L1112,371.3 L1120,369.5 L1128,369.6 L1136,368.0 L1144,368.0 L1152,364.4 L1160,363.4 L1168,363.4 L1176,359.8 L1184,358.7 L1192,355.3 L1200,353.7" fill="none" stroke="#0033A1" stroke-width="1.2" opacity="0.28"/><path d="M0,340.5 L8,342.1 L16,339.1 L24,340.9 L32,337.0 L40,336.9 L48,339.5 L56,339.9 L64,341.5 L72,338.7 L80,340.4 L88,345.1 L96,342.9 L104,342.0 L112,348.6 L120,348.8 L128,348.9 L136,349.5 L144,349.8 L152,352.6 L160,353.0 L168,356.5 L176,358.4 L184,359.9 L192,360.7 L200,364.2 L208,367.4 L216,367.9 L224,370.2 L232,368.6 L240,368.2 L248,369.9 L256,372.9 L264,373.6 L272,369.0 L280,367.9 L288,369.0 L296,369.6 L304,368.3 L312,365.9 L320,366.4 L328,360.3 L336,359.2 L344,359.1 L352,356.9 L360,351.0 L368,351.4 L376,346.4 L384,340.6 L392,337.0 L400,333.5 L408,330.9 L416,326.6 L424,324.2 L432,325.4 L440,321.8 L448,319.1 L456,313.6 L464,312.9 L472,311.1 L480,307.8 L488,307.3 L496,303.7 L504,301.7 L512,304.2 L520,299.6 L528,302.0 L536,303.0 L544,299.0 L552,301.6 L560,303.8 L568,302.7 L576,305.9 L584,305.9 L592,311.4 L600,311.8 L608,312.8 L616,316.4 L624,319.6 L632,320.0 L640,324.0 L648,325.5 L656,325.2 L664,328.0 L672,333.4 L680,336.1 L688,334.0 L696,339.8 L704,341.6 L712,340.6 L720,342.1 L728,344.6 L736,345.8 L744,347.3 L752,349.0 L760,350.2 L768,348.2 L776,353.2 L784,352.1 L792,351.2 L800,347.6 L808,353.3 L816,351.9 L824,352.3 L832,346.5 L840,351.5 L848,348.2 L856,346.8 L864,349.0 L872,345.9 L880,348.2 L888,347.5 L896,347.5 L904,349.1 L912,348.3 L920,348.2 L928,347.6 L936,349.4 L944,351.0 L952,351.5 L960,352.5 L968,352.1 L976,354.4 L984,353.4 L992,355.7 L1000,358.1 L1008,356.2 L1016,357.5 L1024,358.0 L1032,357.1 L1040,363.0 L1048,362.7 L1056,364.0 L1064,362.1 L1072,364.3 L1080,364.8 L1088,364.6 L1096,362.3 L1104,361.4 L1112,361.3 L1120,360.8 L1128,361.1 L1136,361.5 L1144,356.2 L1152,357.8 L1160,353.5 L1168,351.9 L1176,348.5 L1184,349.2 L1192,342.6 L1200,341.6" fill="none" stroke="#0033A1" stroke-width="1.2" opacity="0.28"/><path d="M0,382.0 L8,384.9 L16,389.2 L24,387.0 L32,390.0 L40,390.0 L48,395.4 L56,397.6 L64,398.8 L72,400.3 L80,404.6 L88,408.3 L96,409.0 L104,413.6 L112,414.5 L120,419.2 L128,421.6 L136,424.8 L144,428.3 L152,427.9 L160,430.8 L168,434.5 L176,437.5 L184,435.3 L192,438.3 L200,440.4 L208,434.8 L216,437.9 L224,435.9 L232,436.9 L240,435.9 L248,436.5 L256,432.8 L264,431.6 L272,429.0 L280,430.1 L288,426.4 L296,423.4 L304,420.2 L312,418.4 L320,415.0 L328,412.9 L336,408.7 L344,401.6 L352,403.4 L360,399.8 L368,395.9 L376,389.8 L384,391.1 L392,386.3 L400,381.7 L408,380.3 L416,381.6 L424,379.0 L432,376.1 L440,374.8 L448,373.2 L456,372.9 L464,371.6 L472,368.9 L480,372.8 L488,368.1 L496,372.7 L504,370.8 L512,373.8 L520,372.2 L528,371.6 L536,374.7 L544,378.4 L552,378.5 L560,380.8 L568,381.6 L576,382.9 L584,383.3 L592,381.4 L600,385.8 L608,388.7 L616,387.2 L624,389.6 L632,387.3 L640,392.3 L648,389.4 L656,393.8 L664,389.4 L672,391.1 L680,394.5 L688,393.2 L696,393.3 L704,391.8 L712,391.0 L720,393.1 L728,392.7 L736,391.2 L744,389.4 L752,389.7 L760,392.3 L768,391.4 L776,391.8 L784,390.6 L792,389.3 L800,392.2 L808,392.4 L816,393.3 L824,391.6 L832,390.5 L840,392.2 L848,393.4 L856,397.1 L864,400.0 L872,401.4 L880,403.8 L888,401.6 L896,404.0 L904,411.1 L912,408.0 L920,411.8 L928,415.0 L936,415.1 L944,418.4 L952,422.0 L960,421.5 L968,423.4 L976,427.1 L984,428.9 L992,433.7 L1000,429.3 L1008,435.1 L1016,434.6 L1024,437.5 L1032,436.6 L1040,437.0 L1048,431.4 L1056,432.6 L1064,432.7 L1072,432.4 L1080,430.2 L1088,427.2 L1096,428.6 L1104,424.4 L1112,423.5 L1120,421.2 L1128,414.4 L1136,413.4 L1144,411.6 L1152,405.8 L1160,403.9 L1168,396.5 L1176,396.4 L1184,393.4 L1192,386.5 L1200,385.6" fill="none" stroke="#1A5BC4" stroke-width="1.2" opacity="0.17"/><path d="M0,395.8 L8,396.9 L16,393.9 L24,397.6 L32,400.7 L40,403.1 L48,402.6 L56,405.9 L64,409.4 L72,408.4 L80,411.0 L88,416.4 L96,415.4 L104,421.3 L112,423.6 L120,423.6 L128,427.3 L136,428.1 L144,426.9 L152,432.4 L160,434.2 L168,431.1 L176,431.7 L184,434.7 L192,436.4 L200,432.6 L208,435.6 L216,431.4 L224,435.3 L232,434.7 L240,429.8 L248,431.1 L256,425.2 L264,422.1 L272,421.3 L280,420.4 L288,416.9 L296,411.4 L304,411.8 L312,406.2 L320,402.2 L328,401.1 L336,399.2 L344,391.6 L352,392.0 L360,389.5 L368,381.4 L376,383.7 L384,379.2 L392,376.4 L400,375.4 L408,372.9 L416,371.6 L424,370.1 L432,369.0 L440,362.7 L448,363.4 L456,366.7 L464,364.7 L472,366.0 L480,361.9 L488,365.1 L496,365.9 L504,368.2 L512,365.5 L520,370.7 L528,372.4 L536,375.2 L544,374.6 L552,379.3 L560,379.2 L568,381.0 L576,383.5 L584,385.4 L592,388.8 L600,389.5 L608,387.7 L616,393.9 L624,395.0 L632,393.0 L640,393.7 L648,397.2 L656,396.1 L664,397.4 L672,401.3 L680,402.6 L688,398.4 L696,399.8 L704,398.9 L712,398.6 L720,399.0 L728,402.8 L736,398.8 L744,402.0 L752,403.2 L760,398.4 L768,401.1 L776,400.0 L784,400.2 L792,400.0 L800,399.5 L808,402.9 L816,401.0 L824,403.3 L832,401.4 L840,402.0 L848,406.0 L856,405.2 L864,406.9 L872,408.4 L880,408.4 L888,409.6 L896,409.2 L904,412.1 L912,412.5 L920,414.8 L928,418.7 L936,418.1 L944,420.4 L952,423.5 L960,425.8 L968,425.5 L976,424.9 L984,425.9 L992,428.7 L1000,426.6 L1008,430.6 L1016,430.0 L1024,427.7 L1032,426.0 L1040,429.7 L1048,427.9 L1056,424.5 L1064,423.4 L1072,421.1 L1080,420.1 L1088,421.7 L1096,415.2 L1104,411.8 L1112,408.9 L1120,407.6 L1128,408.5 L1136,400.9 L1144,399.0 L1152,398.0 L1160,389.7 L1168,388.5 L1176,387.5 L1184,380.4 L1192,378.1 L1200,374.1" fill="none" stroke="#1A5BC4" stroke-width="1.2" opacity="0.17"/><path d="M0,402.8 L8,400.8 L16,403.6 L24,407.2 L32,403.4 L40,407.1 L48,407.4 L56,410.1 L64,409.9 L72,415.5 L80,412.1 L88,415.5 L96,419.1 L104,417.2 L112,424.4 L120,420.6 L128,423.6 L136,427.2 L144,427.9 L152,429.4 L160,430.5 L168,428.2 L176,427.1 L184,432.0 L192,428.1 L200,427.7 L208,429.5 L216,429.7 L224,426.0 L232,423.4 L240,425.0 L248,419.5 L256,420.7 L264,418.3 L272,412.4 L280,408.3 L288,407.3 L296,404.5 L304,402.2 L312,400.1 L320,395.2 L328,390.9 L336,388.0 L344,382.5 L352,382.8 L360,377.8 L368,375.3 L376,370.3 L384,371.4 L392,366.0 L400,367.8 L408,363.8 L416,362.8 L424,361.2 L432,360.8 L440,357.5 L448,359.0 L456,360.2 L464,360.9 L472,361.3 L480,364.2 L488,361.3 L496,362.2 L504,364.8 L512,371.3 L520,373.4 L528,370.0 L536,376.0 L544,377.4 L552,378.8 L560,385.3 L568,383.8 L576,389.4 L584,388.7 L592,392.5 L600,397.6 L608,399.1 L616,401.8 L624,400.6 L632,403.8 L640,404.5 L648,403.9 L656,409.5 L664,409.1 L672,409.5 L680,411.5 L688,409.3 L696,411.6 L704,413.6 L712,408.7 L720,412.7 L728,413.7 L736,408.3 L744,411.3 L752,407.9 L760,407.7 L768,406.3 L776,410.1 L784,408.9 L792,408.7 L800,407.9 L808,408.4 L816,409.1 L824,408.5 L832,409.9 L840,404.6 L848,408.6 L856,406.2 L864,410.2 L872,411.8 L880,406.8 L888,410.1 L896,413.2 L904,411.7 L912,410.5 L920,413.2 L928,415.4 L936,417.9 L944,417.5 L952,417.7 L960,419.4 L968,419.4 L976,420.4 L984,422.7 L992,421.0 L1000,421.9 L1008,422.5 L1016,419.4 L1024,420.7 L1032,423.5 L1040,421.0 L1048,418.5 L1056,418.4 L1064,415.7 L1072,412.4 L1080,412.3 L1088,411.8 L1096,405.2 L1104,406.3 L1112,402.4 L1120,400.4 L1128,398.4 L1136,390.6 L1144,391.9 L1152,385.1 L1160,385.2 L1168,381.8 L1176,375.8 L1184,377.3 L1192,374.6 L1200,372.4" fill="none" stroke="#1A5BC4" stroke-width="1.2" opacity="0.17"/><path d="M0,433.8 L8,439.3 L16,440.2 L24,444.2 L32,445.3 L40,447.6 L48,449.8 L56,452.9 L64,456.7 L72,459.8 L80,461.0 L88,460.8 L96,462.2 L104,468.0 L112,467.4 L120,466.0 L128,466.2 L136,469.7 L144,469.3 L152,467.2 L160,467.9 L168,465.2 L176,465.0 L184,461.9 L192,458.7 L200,456.9 L208,456.6 L216,453.2 L224,446.7 L232,442.7 L240,439.5 L248,439.2 L256,437.5 L264,433.7 L272,429.6 L280,427.9 L288,419.9 L296,418.8 L304,415.6 L312,412.7 L320,413.5 L328,408.5 L336,404.0 L344,407.9 L352,400.6 L360,399.7 L368,402.8 L376,401.4 L384,397.3 L392,401.2 L400,399.8 L408,401.1 L416,401.6 L424,399.6 L432,399.0 L440,402.4 L448,403.7 L456,406.7 L464,403.3 L472,408.7 L480,410.9 L488,408.7 L496,412.0 L504,414.6 L512,415.9 L520,413.4 L528,416.9 L536,418.6 L544,419.6 L552,419.2 L560,418.9 L568,420.3 L576,423.2 L584,424.8 L592,420.8 L600,422.6 L608,420.8 L616,423.7 L624,421.7 L632,421.3 L640,423.5 L648,423.3 L656,420.7 L664,419.5 L672,423.7 L680,421.6 L688,420.8 L696,421.4 L704,419.0 L712,420.0 L720,422.2 L728,423.0 L736,425.9 L744,423.9 L752,422.7 L760,424.6 L768,428.8 L776,426.8 L784,430.4 L792,431.6 L800,433.6 L808,436.6 L816,434.6 L824,439.2 L832,442.7 L840,444.3 L848,448.0 L856,448.3 L864,452.8 L872,451.5 L880,453.7 L888,457.7 L896,459.2 L904,461.8 L912,458.4 L920,462.5 L928,465.3 L936,462.4 L944,465.0 L952,463.3 L960,462.1 L968,461.3 L976,460.0 L984,463.2 L992,462.1 L1000,461.4 L1008,457.3 L1016,451.9 L1024,451.6 L1032,448.4 L1040,445.4 L1048,444.1 L1056,440.3 L1064,437.6 L1072,433.3 L1080,431.6 L1088,427.5 L1096,422.7 L1104,419.3 L1112,420.3 L1120,411.7 L1128,409.7 L1136,410.3 L1144,408.0 L1152,400.5 L1160,403.4 L1168,397.9 L1176,394.7 L1184,395.3 L1192,395.4 L1200,395.0" fill="none" stroke="#a855f7" stroke-width="1.2" opacity="0.12"/><path d="M0,445.2 L8,446.4 L16,446.3 L24,447.6 L32,450.4 L40,456.3 L48,458.3 L56,457.8 L64,456.9 L72,461.9 L80,460.9 L88,460.1 L96,461.2 L104,465.5 L112,463.2 L120,465.0 L128,464.2 L136,464.5 L144,463.9 L152,460.4 L160,460.4 L168,459.4 L176,456.9 L184,453.1 L192,449.0 L200,450.6 L208,446.6 L216,443.0 L224,438.8 L232,436.0 L240,433.2 L248,426.7 L256,426.3 L264,424.0 L272,418.0 L280,416.7 L288,409.8 L296,410.9 L304,405.8 L312,404.4 L320,400.4 L328,402.1 L336,400.6 L344,393.7 L352,392.8 L360,394.5 L368,393.5 L376,390.8 L384,395.6 L392,391.6 L400,396.6 L408,393.4 L416,392.9 L424,397.2 L432,397.8 L440,397.6 L448,399.4 L456,404.2 L464,404.8 L472,403.9 L480,409.2 L488,411.4 L496,414.0 L504,413.7 L512,417.3 L520,418.0 L528,418.6 L536,422.7 L544,426.1 L552,424.2 L560,426.2 L568,426.1 L576,430.7 L584,429.8 L592,431.9 L600,434.5 L608,432.2 L616,429.4 L624,434.9 L632,434.2 L640,431.8 L648,431.4 L656,431.6 L664,430.3 L672,433.6 L680,431.0 L688,432.7 L696,428.4 L704,428.9 L712,433.3 L720,433.9 L728,430.9 L736,428.7 L744,432.1 L752,432.7 L760,435.3 L768,436.7 L776,434.4 L784,436.1 L792,438.1 L800,435.1 L808,439.8 L816,439.6 L824,443.6 L832,446.0 L840,447.9 L848,447.6 L856,448.1 L864,451.7 L872,450.2 L880,455.7 L888,457.0 L896,454.0 L904,456.1 L912,459.0 L920,456.6 L928,457.7 L936,457.9 L944,460.2 L952,457.7 L960,454.2 L968,455.9 L976,453.2 L984,455.8 L992,450.6 L1000,450.1 L1008,448.9 L1016,445.4 L1024,442.5 L1032,440.1 L1040,438.3 L1048,432.8 L1056,431.5 L1064,428.7 L1072,424.4 L1080,418.2 L1088,415.8 L1096,414.5 L1104,411.4 L1112,409.4 L1120,407.0 L1128,401.4 L1136,400.1 L1144,400.0 L1152,395.8 L1160,393.7 L1168,392.7 L1176,393.3 L1184,393.1 L1192,388.6 L1200,391.8" fill="none" stroke="#a855f7" stroke-width="1.2" opacity="0.12"/><path d="M0,447.8 L8,449.2 L16,448.1 L24,451.6 L32,451.1 L40,449.8 L48,452.7 L56,458.0 L64,454.7 L72,458.3 L80,460.7 L88,459.5 L96,460.0 L104,457.3 L112,460.0 L120,455.8 L128,459.3 L136,455.3 L144,457.0 L152,451.1 L160,453.2 L168,448.5 L176,447.9 L184,443.8 L192,438.4 L200,440.6 L208,432.5 L216,430.3 L224,430.4 L232,427.9 L240,423.5 L248,416.6 L256,414.9 L264,413.6 L272,407.6 L280,409.1 L288,404.5 L296,398.4 L304,399.2 L312,399.4 L320,393.9 L328,392.1 L336,392.0 L344,393.2 L352,391.8 L360,390.7 L368,386.8 L376,390.5 L384,390.3 L392,388.9 L400,389.5 L408,391.9 L416,395.7 L424,398.0 L432,400.8 L440,401.2 L448,405.0 L456,406.7 L464,405.9 L472,408.1 L480,415.2 L488,417.9 L496,416.6 L504,422.9 L512,426.4 L520,427.0 L528,426.6 L536,428.2 L544,429.7 L552,436.2 L560,435.5 L568,438.9 L576,440.7 L584,438.8 L592,439.4 L600,440.0 L608,441.3 L616,444.8 L624,440.3 L632,443.6 L640,443.2 L648,443.5 L656,443.0 L664,441.9 L672,438.4 L680,441.2 L688,439.2 L696,438.1 L704,441.6 L712,438.7 L720,440.7 L728,440.5 L736,437.5 L744,438.1 L752,435.9 L760,438.0 L768,436.6 L776,437.0 L784,438.3 L792,436.9 L800,440.0 L808,439.4 L816,439.8 L824,440.2 L832,441.2 L840,442.5 L848,442.4 L856,448.0 L864,445.5 L872,446.9 L880,450.2 L888,449.5 L896,449.2 L904,452.5 L912,448.9 L920,449.9 L928,452.2 L936,448.3 L944,446.7 L952,449.0 L960,448.1 L968,449.3 L976,445.3 L984,441.2 L992,439.4 L1000,438.7 L1008,436.1 L1016,434.4 L1024,430.4 L1032,432.7 L1040,426.0 L1048,426.6 L1056,421.5 L1064,415.9 L1072,415.9 L1080,411.3 L1088,409.5 L1096,406.8 L1104,402.1 L1112,399.3 L1120,397.4 L1128,393.7 L1136,396.8 L1144,390.8 L1152,390.2 L1160,388.8 L1168,386.5 L1176,390.8 L1184,388.0 L1192,388.9 L1200,390.9" fill="none" stroke="#a855f7" stroke-width="1.2" opacity="0.12"/><path d="M0,509.2 L8,512.0 L16,511.7 L24,512.1 L32,513.3 L40,511.7 L48,513.5 L56,517.0 L64,513.0 L72,511.3 L80,514.7 L88,508.5 L96,510.2 L104,509.3 L112,505.5 L120,504.5 L128,497.4 L136,499.3 L144,496.4 L152,488.3 L160,489.6 L168,483.4 L176,483.9 L184,475.8 L192,477.7 L200,474.3 L208,468.3 L216,467.6 L224,463.3 L232,457.2 L240,455.5 L248,454.2 L256,451.9 L264,449.0 L272,448.3 L280,449.8 L288,448.5 L296,444.2 L304,448.3 L312,443.8 L320,448.1 L328,446.7 L336,445.0 L344,448.9 L352,444.9 L360,446.7 L368,452.1 L376,453.1 L384,452.9 L392,453.1 L400,457.9 L408,454.6 L416,461.2 L424,458.5 L432,464.7 L440,462.0 L448,466.5 L456,468.0 L464,465.2 L472,465.6 L480,470.6 L488,472.4 L496,470.8 L504,469.9 L512,470.3 L520,472.1 L528,471.0 L536,470.3 L544,469.1 L552,472.1 L560,472.6 L568,470.6 L576,470.2 L584,473.4 L592,469.6 L600,472.7 L608,469.6 L616,473.0 L624,467.9 L632,470.2 L640,470.1 L648,469.0 L656,469.0 L664,470.2 L672,472.1 L680,472.3 L688,475.4 L696,474.3 L704,479.7 L712,479.5 L720,479.7 L728,481.7 L736,482.4 L744,489.5 L752,489.9 L760,489.4 L768,491.9 L776,495.4 L784,494.7 L792,499.9 L800,499.0 L808,505.1 L816,507.4 L824,503.9 L832,505.1 L840,509.4 L848,510.6 L856,509.9 L864,511.5 L872,510.8 L880,512.9 L888,512.5 L896,510.9 L904,507.0 L912,506.8 L920,506.1 L928,505.5 L936,498.6 L944,498.2 L952,494.2 L960,494.2 L968,489.1 L976,489.0 L984,485.5 L992,478.5 L1000,475.9 L1008,471.9 L1016,470.8 L1024,466.9 L1032,461.7 L1040,458.5 L1048,458.3 L1056,451.6 L1064,450.5 L1072,449.8 L1080,447.3 L1088,443.0 L1096,443.8 L1104,443.1 L1112,443.2 L1120,437.4 L1128,437.1 L1136,440.9 L1144,440.1 L1152,440.0 L1160,442.9 L1168,439.2 L1176,442.3 L1184,443.7 L1192,447.1 L1200,445.5" fill="none" stroke="#c084fc" stroke-width="1.2" opacity="0.25"/><path d="M0,509.6 L8,509.4 L16,508.1 L24,509.2 L32,509.4 L40,509.9 L48,507.7 L56,511.0 L64,510.5 L72,508.6 L80,507.6 L88,501.2 L96,499.9 L104,497.1 L112,495.6 L120,493.8 L128,489.7 L136,486.6 L144,486.8 L152,482.5 L160,475.3 L168,474.8 L176,469.8 L184,470.3 L192,464.5 L200,463.3 L208,457.7 L216,454.9 L224,453.4 L232,448.0 L240,450.2 L248,447.1 L256,444.3 L264,441.0 L272,439.3 L280,438.0 L288,441.0 L296,437.0 L304,440.1 L312,441.6 L320,441.1 L328,443.8 L336,443.3 L344,446.6 L352,443.1 L360,445.5 L368,450.6 L376,449.8 L384,454.6 L392,456.0 L400,457.6 L408,459.5 L416,462.9 L424,465.6 L432,465.9 L440,470.4 L448,467.3 L456,468.5 L464,474.8 L472,472.9 L480,474.7 L488,476.9 L496,478.1 L504,476.9 L512,477.7 L520,479.9 L528,480.6 L536,480.0 L544,479.3 L552,480.9 L560,478.6 L568,478.9 L576,483.0 L584,478.5 L592,482.8 L600,480.6 L608,483.3 L616,482.8 L624,481.0 L632,478.2 L640,481.3 L648,479.9 L656,479.8 L664,483.0 L672,481.5 L680,479.2 L688,482.5 L696,484.9 L704,480.8 L712,485.0 L720,484.3 L728,488.8 L736,487.6 L744,487.5 L752,489.1 L760,494.7 L768,492.7 L776,497.4 L784,496.6 L792,498.3 L800,501.6 L808,501.0 L816,504.1 L824,500.1 L832,502.9 L840,502.5 L848,505.3 L856,506.9 L864,504.6 L872,501.2 L880,503.2 L888,503.5 L896,498.2 L904,500.6 L912,499.7 L920,497.6 L928,496.4 L936,493.5 L944,488.2 L952,483.1 L960,484.2 L968,480.7 L976,474.5 L984,471.9 L992,472.2 L1000,467.3 L1008,463.1 L1016,463.2 L1024,455.4 L1032,456.3 L1040,448.9 L1048,446.5 L1056,444.5 L1064,446.2 L1072,442.1 L1080,443.0 L1088,436.5 L1096,434.9 L1104,439.1 L1112,434.0 L1120,436.3 L1128,433.8 L1136,437.2 L1144,437.2 L1152,441.4 L1160,437.9 L1168,440.6 L1176,442.9 L1184,445.7 L1192,449.2 L1200,448.4" fill="none" stroke="#c084fc" stroke-width="1.2" opacity="0.25"/><path d="M0,501.9 L8,502.5 L16,502.8 L24,502.4 L32,507.2 L40,506.8 L48,500.4 L56,501.7 L64,499.2 L72,499.4 L80,494.1 L88,494.1 L96,494.3 L104,492.2 L112,488.9 L120,483.3 L128,479.4 L136,480.0 L144,472.7 L152,473.4 L160,467.6 L168,463.9 L176,464.2 L184,458.1 L192,455.4 L200,452.8 L208,450.7 L216,449.0 L224,446.1 L232,443.0 L240,440.6 L248,438.2 L256,436.8 L264,438.7 L272,439.5 L280,438.7 L288,438.3 L296,439.0 L304,434.9 L312,436.0 L320,439.0 L328,439.0 L336,443.9 L344,442.5 L352,447.4 L360,451.0 L368,448.9 L376,452.2 L384,454.0 L392,456.6 L400,464.5 L408,466.6 L416,469.2 L424,466.8 L432,469.5 L440,472.9 L448,474.4 L456,481.2 L464,479.9 L472,482.0 L480,485.7 L488,486.2 L496,488.7 L504,488.0 L512,492.6 L520,491.2 L528,491.4 L536,493.8 L544,493.1 L552,491.7 L560,490.9 L568,490.0 L576,491.3 L584,493.1 L592,490.3 L600,487.5 L608,489.0 L616,489.9 L624,485.6 L632,485.5 L640,484.1 L648,483.0 L656,486.0 L664,483.1 L672,482.9 L680,487.5 L688,483.9 L696,485.7 L704,486.1 L712,487.7 L720,486.4 L728,485.1 L736,490.0 L744,489.4 L752,490.1 L760,489.5 L768,493.7 L776,489.9 L784,494.3 L792,495.8 L800,496.8 L808,494.1 L816,494.1 L824,494.7 L832,498.6 L840,496.7 L848,497.0 L856,493.2 L864,493.6 L872,492.3 L880,494.8 L888,493.6 L896,491.3 L904,491.0 L912,485.9 L920,485.3 L928,486.1 L936,482.5 L944,476.4 L952,476.9 L960,474.5 L968,470.5 L976,468.3 L984,463.6 L992,461.6 L1000,457.7 L1008,457.3 L1016,451.6 L1024,448.4 L1032,445.4 L1040,446.5 L1048,441.5 L1056,440.7 L1064,439.5 L1072,440.6 L1080,435.7 L1088,438.9 L1096,434.2 L1104,433.0 L1112,435.3 L1120,433.3 L1128,438.3 L1136,439.3 L1144,439.9 L1152,443.5 L1160,442.8 L1168,446.9 L1176,444.3 L1184,450.1 L1192,449.5 L1200,453.0" fill="none" stroke="#c084fc" stroke-width="1.2" opacity="0.25"/><path d="M0,549.6 L8,550.8 L16,545.7 L24,547.7 L32,544.0 L40,538.3 L48,540.0 L56,537.3 L64,532.8 L72,530.4 L80,524.3 L88,522.9 L96,518.8 L104,519.0 L112,514.9 L120,507.1 L128,504.3 L136,505.6 L144,501.8 L152,499.0 L160,494.0 L168,494.7 L176,492.7 L184,488.9 L192,485.4 L200,485.5 L208,487.5 L216,487.6 L224,482.1 L232,485.4 L240,486.1 L248,487.2 L256,485.5 L264,485.9 L272,486.2 L280,490.7 L288,490.1 L296,490.4 L304,495.0 L312,493.7 L320,496.9 L328,496.0 L336,498.0 L344,501.7 L352,499.4 L360,504.3 L368,505.6 L376,503.4 L384,507.1 L392,505.9 L400,511.5 L408,509.5 L416,511.6 L424,513.5 L432,513.2 L440,512.3 L448,512.1 L456,511.8 L464,512.0 L472,513.7 L480,513.5 L488,511.5 L496,510.2 L504,514.5 L512,511.8 L520,511.8 L528,513.2 L536,511.4 L544,511.1 L552,509.3 L560,509.6 L568,511.7 L576,515.1 L584,515.7 L592,517.2 L600,517.4 L608,517.1 L616,520.2 L624,518.5 L632,518.2 L640,519.3 L648,521.5 L656,525.5 L664,530.1 L672,528.6 L680,529.9 L688,536.6 L696,538.2 L704,539.8 L712,536.9 L720,538.5 L728,545.7 L736,544.4 L744,548.8 L752,549.3 L760,548.7 L768,548.6 L776,552.1 L784,548.7 L792,552.0 L800,551.9 L808,546.6 L816,546.2 L824,548.5 L832,543.0 L840,541.4 L848,544.0 L856,540.0 L864,538.0 L872,534.0 L880,534.0 L888,528.6 L896,526.0 L904,524.7 L912,517.7 L920,515.6 L928,512.2 L936,511.1 L944,503.7 L952,500.9 L960,500.9 L968,497.2 L976,490.9 L984,489.3 L992,487.8 L1000,486.1 L1008,483.6 L1016,481.2 L1024,482.8 L1032,477.8 L1040,477.7 L1048,481.7 L1056,481.5 L1064,481.4 L1072,479.4 L1080,482.6 L1088,481.5 L1096,482.1 L1104,482.6 L1112,484.4 L1120,485.1 L1128,486.4 L1136,490.7 L1144,492.9 L1152,497.9 L1160,500.0 L1168,503.0 L1176,501.3 L1184,506.2 L1192,505.7 L1200,507.9" fill="none" stroke="#3b82f6" stroke-width="1.2" opacity="0.26"/><path d="M0,542.1 L8,542.0 L16,540.1 L24,538.1 L32,533.1 L40,534.7 L48,527.3 L56,527.1 L64,522.2 L72,520.2 L80,514.3 L88,515.2 L96,507.8 L104,509.0 L112,503.8 L120,497.7 L128,496.9 L136,492.4 L144,492.7 L152,488.1 L160,485.7 L168,485.8 L176,481.3 L184,479.9 L192,482.5 L200,479.7 L208,480.5 L216,477.0 L224,479.8 L232,479.5 L240,482.6 L248,482.0 L256,481.0 L264,485.0 L272,484.7 L280,484.8 L288,490.4 L296,491.3 L304,489.7 L312,494.4 L320,499.8 L328,502.1 L336,502.1 L344,504.3 L352,507.0 L360,509.8 L368,510.7 L376,509.7 L384,514.9 L392,516.1 L400,519.1 L408,516.9 L416,517.7 L424,519.8 L432,522.8 L440,524.4 L448,520.5 L456,523.4 L464,521.7 L472,522.3 L480,520.7 L488,521.6 L496,520.0 L504,523.3 L512,521.7 L520,524.1 L528,521.7 L536,521.7 L544,521.7 L552,519.3 L560,523.5 L568,519.0 L576,521.5 L584,518.3 L592,520.9 L600,521.7 L608,524.8 L616,525.9 L624,524.6 L632,526.0 L640,524.1 L648,528.9 L656,528.7 L664,532.1 L672,530.4 L680,535.3 L688,536.2 L696,532.6 L704,536.4 L712,538.0 L720,539.3 L728,539.9 L736,541.5 L744,539.3 L752,540.4 L760,541.8 L768,545.7 L776,540.3 L784,540.5 L792,541.6 L800,539.1 L808,538.6 L816,541.8 L824,535.1 L832,536.7 L840,536.1 L848,534.5 L856,526.9 L864,524.8 L872,522.2 L880,523.8 L888,519.4 L896,512.9 L904,510.7 L912,508.6 L920,503.3 L928,503.4 L936,501.7 L944,497.6 L952,490.3 L960,492.0 L968,489.3 L976,485.1 L984,484.9 L992,480.2 L1000,476.8 L1008,475.5 L1016,477.4 L1024,475.6 L1032,477.2 L1040,474.2 L1048,478.7 L1056,476.3 L1064,478.0 L1072,480.4 L1080,478.4 L1088,480.0 L1096,480.6 L1104,485.1 L1112,489.2 L1120,488.9 L1128,494.5 L1136,492.4 L1144,495.3 L1152,500.0 L1160,503.0 L1168,507.1 L1176,508.5 L1184,511.8 L1192,513.6 L1200,518.9" fill="none" stroke="#3b82f6" stroke-width="1.2" opacity="0.26"/><path d="M0,536.3 L8,532.1 L16,531.8 L24,526.6 L32,523.7 L40,525.2 L48,520.2 L56,516.5 L64,515.2 L72,509.3 L80,509.1 L88,502.8 L96,500.4 L104,494.9 L112,494.9 L120,492.3 L128,491.6 L136,483.6 L144,483.8 L152,480.1 L160,482.1 L168,477.0 L176,479.8 L184,479.6 L192,474.8 L200,478.1 L208,478.0 L216,473.8 L224,477.3 L232,480.8 L240,481.1 L248,481.4 L256,482.8 L264,484.2 L272,487.1 L280,491.4 L288,490.5 L296,491.7 L304,496.4 L312,497.0 L320,500.3 L328,502.9 L336,509.3 L344,508.8 L352,514.4 L360,518.5 L368,519.9 L376,522.4 L384,519.6 L392,526.4 L400,524.1 L408,526.4 L416,529.5 L424,530.0 L432,528.3 L440,529.8 L448,534.9 L456,531.6 L464,530.2 L472,532.0 L480,529.8 L488,533.6 L496,528.9 L504,529.9 L512,533.5 L520,527.1 L528,529.3 L536,528.6 L544,530.8 L552,526.1 L560,525.9 L568,524.6 L576,524.0 L584,524.9 L592,527.0 L600,525.9 L608,523.0 L616,525.9 L624,522.8 L632,523.0 L640,523.5 L648,525.8 L656,526.8 L664,525.6 L672,527.8 L680,529.2 L688,527.7 L696,531.1 L704,530.4 L712,530.0 L720,531.8 L728,531.2 L736,536.8 L744,535.8 L752,535.6 L760,537.0 L768,533.0 L776,535.4 L784,533.5 L792,531.8 L800,534.0 L808,529.5 L816,531.0 L824,526.0 L832,524.2 L840,521.9 L848,522.2 L856,518.5 L864,518.1 L872,516.5 L880,509.7 L888,507.9 L896,503.7 L904,505.4 L912,503.2 L920,496.3 L928,491.8 L936,493.6 L944,488.5 L952,488.1 L960,483.2 L968,482.2 L976,480.0 L984,482.2 L992,480.2 L1000,476.2 L1008,476.5 L1016,474.4 L1024,474.5 L1032,476.7 L1040,475.0 L1048,474.5 L1056,479.8 L1064,481.7 L1072,480.2 L1080,484.1 L1088,483.1 L1096,490.6 L1104,492.9 L1112,492.3 L1120,493.6 L1128,500.5 L1136,503.4 L1144,505.8 L1152,508.2 L1160,514.0 L1168,515.0 L1176,516.7 L1184,519.1 L1192,522.7 L1200,527.5" fill="none" stroke="#3b82f6" stroke-width="1.2" opacity="0.26"/><path d="M0,563.9 L8,557.6 L16,554.0 L24,554.5 L32,552.1 L40,543.9 L48,541.1 L56,541.5 L64,538.7 L72,537.1 L80,533.8 L88,532.3 L96,531.1 L104,523.9 L112,528.0 L120,522.0 L128,520.7 L136,525.5 L144,521.8 L152,519.2 L160,519.7 L168,520.5 L176,523.6 L184,522.4 L192,522.7 L200,525.2 L208,527.3 L216,526.9 L224,528.5 L232,533.4 L240,531.2 L248,534.2 L256,535.3 L264,540.9 L272,543.1 L280,542.3 L288,541.5 L296,546.0 L304,547.4 L312,548.5 L320,551.0 L328,551.5 L336,548.7 L344,554.1 L352,553.0 L360,550.4 L368,552.3 L376,552.5 L384,551.6 L392,554.5 L400,552.0 L408,553.1 L416,551.3 L424,554.0 L432,549.9 L440,550.5 L448,551.9 L456,549.7 L464,554.0 L472,553.2 L480,549.5 L488,555.3 L496,555.2 L504,554.4 L512,554.8 L520,555.2 L528,558.4 L536,559.7 L544,561.3 L552,562.6 L560,563.4 L568,562.6 L576,567.6 L584,569.6 L592,566.0 L600,572.9 L608,572.6 L616,572.2 L624,575.0 L632,576.2 L640,581.7 L648,580.2 L656,582.7 L664,586.3 L672,587.8 L680,587.8 L688,587.8 L696,588.1 L704,589.6 L712,590.2 L720,586.4 L728,583.8 L736,582.4 L744,582.9 L752,583.3 L760,579.0 L768,578.7 L776,576.5 L784,572.1 L792,571.7 L800,568.6 L808,566.8 L816,563.8 L824,557.9 L832,554.4 L840,554.6 L848,549.7 L856,543.3 L864,544.0 L872,536.7 L880,536.8 L888,534.7 L896,532.7 L904,529.9 L912,527.7 L920,520.7 L928,523.0 L936,518.4 L944,517.6 L952,519.7 L960,519.2 L968,519.0 L976,519.4 L984,515.4 L992,520.2 L1000,516.9 L1008,520.1 L1016,520.4 L1024,522.4 L1032,524.7 L1040,528.0 L1048,529.2 L1056,532.4 L1064,534.5 L1072,532.3 L1080,538.5 L1088,540.5 L1096,542.0 L1104,545.1 L1112,543.6 L1120,551.3 L1128,552.6 L1136,552.1 L1144,551.7 L1152,558.7 L1160,555.6 L1168,558.7 L1176,559.8 L1184,560.6 L1192,560.2 L1200,563.2" fill="none" stroke="#0033A1" stroke-width="1.2" opacity="0.29"/><path d="M0,553.9 L8,549.8 L16,546.6 L24,545.8 L32,540.0 L40,539.3 L48,535.6 L56,534.1 L64,528.7 L72,523.7 L80,522.3 L88,520.3 L96,521.6 L104,517.2 L112,519.3 L120,519.3 L128,516.4 L136,518.9 L144,517.4 L152,519.1 L160,517.1 L168,517.9 L176,520.6 L184,521.7 L192,522.5 L200,524.6 L208,529.6 L216,527.7 L224,533.8 L232,535.2 L240,536.9 L248,536.3 L256,539.2 L264,543.9 L272,545.3 L280,547.7 L288,547.6 L296,553.0 L304,554.3 L312,556.7 L320,554.1 L328,555.5 L336,559.5 L344,558.1 L352,558.2 L360,558.8 L368,561.9 L376,560.3 L384,563.7 L392,560.5 L400,562.4 L408,560.2 L416,564.2 L424,565.1 L432,562.4 L440,559.7 L448,564.2 L456,559.8 L464,560.7 L472,561.6 L480,557.9 L488,558.5 L496,560.5 L504,562.9 L512,559.2 L520,563.7 L528,559.9 L536,565.3 L544,564.2 L552,562.5 L560,564.0 L568,564.1 L576,567.5 L584,567.3 L592,570.7 L600,572.0 L608,571.4 L616,576.1 L624,571.8 L632,576.5 L640,579.7 L648,580.3 L656,576.6 L664,578.5 L672,578.3 L680,582.1 L688,577.7 L696,581.0 L704,578.4 L712,581.5 L720,577.7 L728,579.1 L736,578.1 L744,573.8 L752,571.6 L760,574.0 L768,571.4 L776,569.6 L784,566.5 L792,563.8 L800,556.8 L808,555.6 L816,549.7 L824,550.2 L832,545.4 L840,541.1 L848,540.0 L856,537.7 L864,536.0 L872,531.8 L880,526.0 L888,525.3 L896,525.8 L904,519.2 L912,517.5 L920,515.2 L928,515.7 L936,514.7 L944,517.4 L952,515.8 L960,512.0 L968,514.0 L976,516.7 L984,513.3 L992,515.1 L1000,521.2 L1008,522.4 L1016,523.7 L1024,522.6 L1032,528.8 L1040,528.2 L1048,533.5 L1056,532.7 L1064,539.5 L1072,538.3 L1080,545.8 L1088,546.8 L1096,546.1 L1104,550.2 L1112,551.5 L1120,557.4 L1128,559.1 L1136,560.7 L1144,561.7 L1152,567.2 L1160,566.7 L1168,566.6 L1176,571.9 L1184,573.3 L1192,573.6 L1200,571.3" fill="none" stroke="#0033A1" stroke-width="1.2" opacity="0.29"/><path d="M0,545.3 L8,539.6 L16,539.7 L24,531.9 L32,532.5 L40,529.8 L48,523.3 L56,522.9 L64,520.6 L72,520.5 L80,518.1 L88,518.8 L96,517.2 L104,515.1 L112,515.2 L120,513.4 L128,513.5 L136,512.7 L144,514.9 L152,513.8 L160,516.0 L168,517.4 L176,522.5 L184,526.4 L192,524.2 L200,525.6 L208,529.5 L216,532.0 L224,539.1 L232,536.7 L240,539.1 L248,544.0 L256,550.1 L264,552.1 L272,552.8 L280,554.9 L288,560.7 L296,558.2 L304,564.9 L312,565.9 L320,567.4 L328,566.6 L336,570.0 L344,568.8 L352,571.4 L360,572.8 L368,573.9 L376,570.5 L384,571.8 L392,570.5 L400,572.9 L408,571.1 L416,570.9 L424,573.3 L432,569.0 L440,568.0 L448,566.3 L456,569.7 L464,566.2 L472,568.8 L480,567.6 L488,562.4 L496,563.6 L504,563.7 L512,561.2 L520,561.1 L528,565.8 L536,564.0 L544,565.0 L552,567.0 L560,561.6 L568,566.6 L576,563.0 L584,566.3 L592,569.5 L600,569.6 L608,570.5 L616,567.2 L624,572.1 L632,567.5 L640,572.0 L648,570.9 L656,574.5 L664,570.5 L672,574.4 L680,574.7 L688,570.4 L696,574.2 L704,573.5 L712,568.0 L720,566.5 L728,565.3 L736,565.8 L744,562.8 L752,561.8 L760,564.3 L768,561.4 L776,557.8 L784,555.8 L792,550.8 L800,548.2 L808,544.5 L816,543.8 L824,543.5 L832,538.3 L840,533.5 L848,529.8 L856,531.7 L864,525.4 L872,522.4 L880,524.2 L888,519.9 L896,520.5 L904,519.0 L912,519.1 L920,514.1 L928,517.3 L936,512.9 L944,513.7 L952,517.4 L960,512.5 L968,518.8 L976,519.3 L984,519.1 L992,521.2 L1000,521.2 L1008,526.3 L1016,529.2 L1024,530.7 L1032,535.4 L1040,534.8 L1048,541.3 L1056,544.9 L1064,544.7 L1072,546.7 L1080,552.1 L1088,553.2 L1096,555.6 L1104,563.8 L1112,564.3 L1120,564.2 L1128,571.6 L1136,571.4 L1144,572.1 L1152,574.7 L1160,576.7 L1168,576.8 L1176,577.1 L1184,579.9 L1192,579.0 L1200,582.8" fill="none" stroke="#0033A1" stroke-width="1.2" opacity="0.29"/><path d="M0,584.0 L8,581.3 L16,581.5 L24,580.7 L32,578.2 L40,579.1 L48,578.5 L56,577.5 L64,574.7 L72,576.2 L80,577.6 L88,577.8 L96,578.3 L104,577.7 L112,575.9 L120,579.7 L128,581.7 L136,585.1 L144,585.1 L152,588.3 L160,586.9 L168,591.4 L176,592.6 L184,592.9 L192,595.5 L200,596.3 L208,597.4 L216,599.0 L224,598.5 L232,602.8 L240,605.9 L248,606.0 L256,606.1 L264,606.4 L272,609.6 L280,610.1 L288,607.3 L296,610.1 L304,608.9 L312,607.0 L320,609.8 L328,607.4 L336,609.0 L344,608.2 L352,604.9 L360,605.9 L368,606.4 L376,609.6 L384,608.0 L392,609.5 L400,609.1 L408,604.3 L416,608.7 L424,609.9 L432,608.7 L440,611.0 L448,609.6 L456,609.3 L464,615.0 L472,612.3 L480,613.5 L488,618.8 L496,616.4 L504,621.4 L512,621.0 L520,621.7 L528,628.9 L536,630.8 L544,632.4 L552,628.6 L560,630.7 L568,636.7 L576,634.3 L584,634.5 L592,638.3 L600,640.0 L608,640.7 L616,642.7 L624,638.2 L632,639.0 L640,636.5 L648,639.0 L656,634.7 L664,636.4 L672,632.2 L680,634.5 L688,632.9 L696,629.3 L704,626.5 L712,621.8 L720,623.4 L728,617.0 L736,613.3 L744,608.3 L752,607.5 L760,605.8 L768,599.4 L776,597.1 L784,591.7 L792,590.9 L800,590.8 L808,585.2 L816,583.4 L824,580.0 L832,579.7 L840,575.3 L848,574.4 L856,569.7 L864,572.9 L872,569.3 L880,569.1 L888,572.2 L896,570.3 L904,567.6 L912,569.2 L920,569.5 L928,570.8 L936,573.0 L944,577.5 L952,575.1 L960,579.8 L968,579.3 L976,585.0 L984,588.8 L992,588.9 L1000,594.0 L1008,590.9 L1016,598.6 L1024,600.2 L1032,603.3 L1040,603.2 L1048,606.4 L1056,608.6 L1064,610.1 L1072,609.8 L1080,615.0 L1088,611.9 L1096,617.5 L1104,615.4 L1112,614.4 L1120,618.3 L1128,616.2 L1136,616.6 L1144,619.3 L1152,616.2 L1160,621.2 L1168,621.1 L1176,615.0 L1184,615.3 L1192,619.5 L1200,618.9" fill="none" stroke="#1A5BC4" stroke-width="1.2" opacity="0.14"/><path d="M0,574.5 L8,573.7 L16,571.5 L24,569.1 L32,570.6 L40,567.5 L48,570.7 L56,571.0 L64,567.7 L72,570.2 L80,569.0 L88,573.5 L96,575.7 L104,575.2 L112,576.2 L120,580.1 L128,580.2 L136,581.0 L144,586.5 L152,588.4 L160,589.9 L168,594.6 L176,597.8 L184,596.7 L192,597.3 L200,599.6 L208,604.3 L216,606.3 L224,605.7 L232,608.2 L240,610.1 L248,614.1 L256,614.9 L264,613.0 L272,613.4 L280,617.1 L288,615.3 L296,620.1 L304,619.7 L312,618.6 L320,615.1 L328,617.9 L336,620.3 L344,617.4 L352,615.1 L360,617.6 L368,614.0 L376,614.4 L384,617.0 L392,618.1 L400,612.9 L408,613.3 L416,613.1 L424,612.7 L432,615.6 L440,612.9 L448,613.7 L456,613.8 L464,617.1 L472,618.5 L480,616.2 L488,616.9 L496,620.5 L504,621.0 L512,621.6 L520,625.8 L528,625.1 L536,626.4 L544,629.1 L552,626.2 L560,632.0 L568,630.9 L576,633.6 L584,634.0 L592,631.1 L600,634.8 L608,632.1 L616,633.2 L624,631.3 L632,631.8 L640,632.7 L648,631.1 L656,629.7 L664,627.1 L672,623.4 L680,626.3 L688,623.6 L696,615.9 L704,618.2 L712,615.4 L720,612.4 L728,606.9 L736,607.4 L744,599.8 L752,601.1 L760,596.7 L768,593.4 L776,586.0 L784,586.4 L792,580.7 L800,577.6 L808,580.5 L816,576.5 L824,573.4 L832,571.4 L840,569.6 L848,566.6 L856,569.5 L864,565.1 L872,566.8 L880,566.7 L888,569.6 L896,567.6 L904,570.6 L912,570.9 L920,571.8 L928,572.6 L936,576.2 L944,579.9 L952,581.8 L960,582.3 L968,586.3 L976,588.9 L984,592.3 L992,597.7 L1000,600.0 L1008,598.2 L1016,601.5 L1024,606.5 L1032,607.4 L1040,611.3 L1048,611.5 L1056,613.9 L1064,617.0 L1072,620.6 L1080,622.6 L1088,623.9 L1096,624.5 L1104,624.0 L1112,626.7 L1120,628.1 L1128,627.4 L1136,627.8 L1144,630.9 L1152,627.7 L1160,628.8 L1168,624.4 L1176,627.7 L1184,623.3 L1192,627.6 L1200,623.5" fill="none" stroke="#1A5BC4" stroke-width="1.2" opacity="0.14"/><path d="M0,568.5 L8,571.8 L16,567.9 L24,565.1 L32,567.1 L40,570.3 L48,568.5 L56,566.7 L64,567.7 L72,567.7 L80,569.0 L88,572.5 L96,573.9 L104,576.7 L112,579.7 L120,582.7 L128,587.6 L136,590.5 L144,590.1 L152,595.7 L160,595.2 L168,598.0 L176,603.8 L184,607.0 L192,608.3 L200,608.1 L208,611.4 L216,617.9 L224,620.2 L232,618.5 L240,618.7 L248,624.5 L256,626.5 L264,627.3 L272,625.0 L280,629.1 L288,628.8 L296,624.9 L304,628.8 L312,627.3 L320,627.8 L328,628.7 L336,627.7 L344,624.5 L352,626.8 L360,625.1 L368,625.9 L376,624.8 L384,623.5 L392,620.2 L400,619.9 L408,620.0 L416,618.1 L424,618.7 L432,619.8 L440,616.9 L448,615.9 L456,617.4 L464,615.7 L472,614.5 L480,615.7 L488,616.1 L496,615.5 L504,618.4 L512,621.6 L520,618.9 L528,620.7 L536,622.6 L544,622.4 L552,621.4 L560,621.4 L568,621.2 L576,621.1 L584,624.1 L592,621.8 L600,622.7 L608,626.0 L616,623.1 L624,625.6 L632,620.0 L640,623.8 L648,619.9 L656,618.8 L664,617.7 L672,613.9 L680,610.7 L688,609.3 L696,607.6 L704,608.1 L712,606.0 L720,601.4 L728,599.1 L736,595.8 L744,591.6 L752,592.5 L760,589.8 L768,585.6 L776,581.7 L784,581.6 L792,575.1 L800,578.5 L808,571.5 L816,573.7 L824,568.6 L832,567.0 L840,569.3 L848,568.0 L856,565.5 L864,567.6 L872,568.3 L880,569.4 L888,568.8 L896,573.5 L904,574.0 L912,576.7 L920,575.8 L928,579.1 L936,584.8 L944,585.9 L952,584.8 L960,588.5 L968,592.9 L976,597.2 L984,600.5 L992,605.1 L1000,608.7 L1008,608.8 L1016,611.7 L1024,616.3 L1032,618.4 L1040,619.4 L1048,621.6 L1056,627.4 L1064,628.4 L1072,633.2 L1080,629.4 L1088,633.5 L1096,635.2 L1104,636.5 L1112,634.8 L1120,633.8 L1128,637.9 L1136,633.8 L1144,636.6 L1152,631.9 L1160,635.3 L1168,631.5 L1176,629.4 L1184,630.1 L1192,628.5 L1200,629.2" fill="none" stroke="#1A5BC4" stroke-width="1.2" opacity="0.14"/></g>

  <!-- Gradient overlay -->
  <rect width="1200" height="630" fill="url(#overlay)"/>
  <rect width="1200" height="120" fill="url(#topFade)"/>

  <!-- Dot pattern subtle -->
  <pattern id="dots" width="40" height="40" patternUnits="userSpaceOnUse">
    <circle cx="20" cy="20" r="0.8" fill="white" opacity="0.04"/>
  </pattern>
  <rect width="1200" height="630" fill="url(#dots)"/>




</svg>