<svg xmlns="http://www.w3.org/2000/svg" width="1200" height="630" viewBox="0 0 1200 630">
  <defs>
    <linearGradient id="overlay" x1="0" y1="1" x2="0" y2="0">
      <stop offset="0%" stop-color="#001D5C" stop-opacity="0.95"/>
      <stop offset="45%" stop-color="#001D5C" stop-opacity="0.7"/>
      <stop offset="75%" stop-color="#001D5C" stop-opacity="0.2"/>
      <stop offset="100%" stop-color="#001D5C" stop-opacity="0"/>
    </linearGradient>
    <linearGradient id="topFade" x1="0" y1="0" x2="0" y2="1">
      <stop offset="0%" stop-color="#001D5C" stop-opacity="0.3"/>
      <stop offset="100%" stop-color="#001D5C" stop-opacity="0"/>
    </linearGradient>
  </defs>

  <!-- Background -->
  <rect width="1200" height="630" fill="#001D5C"/>

  <!-- Generative pattern -->
  <g><circle cx="1176" cy="193" r="39" fill="#1A5BC4" opacity="0.21"/><circle cx="1176" cy="193" r="39" fill="none" stroke="#1A5BC4" stroke-width="1" opacity="0.31"/><circle cx="417" cy="46" r="56" fill="#1A5BC4" opacity="0.29"/><circle cx="417" cy="46" r="56" fill="none" stroke="#1A5BC4" stroke-width="1" opacity="0.39"/><circle cx="552" cy="596" r="63" fill="#1A5BC4" opacity="0.24"/><circle cx="552" cy="596" r="63" fill="none" stroke="#1A5BC4" stroke-width="1" opacity="0.34"/><circle cx="299" cy="298" r="28" fill="#0033A1" opacity="0.30"/><circle cx="299" cy="298" r="28" fill="none" stroke="#0033A1" stroke-width="1" opacity="0.40"/><circle cx="776" cy="491" r="57" fill="#0033A1" opacity="0.19"/><circle cx="776" cy="491" r="57" fill="none" stroke="#0033A1" stroke-width="1" opacity="0.29"/><circle cx="88" cy="206" r="22" fill="#0033A1" opacity="0.11"/><circle cx="88" cy="206" r="22" fill="none" stroke="#0033A1" stroke-width="1" opacity="0.21"/><circle cx="1113" cy="219" r="23" fill="#a855f7" opacity="0.25"/><circle cx="1113" cy="219" r="23" fill="none" stroke="#a855f7" stroke-width="1" opacity="0.35"/><circle cx="971" cy="30" r="46" fill="#0033A1" opacity="0.31"/><circle cx="971" cy="30" r="46" fill="none" stroke="#0033A1" stroke-width="1" opacity="0.41"/><circle cx="44" cy="356" r="64" fill="#3b82f6" opacity="0.29"/><circle cx="44" cy="356" r="64" fill="none" stroke="#3b82f6" stroke-width="1" opacity="0.39"/><circle cx="554" cy="164" r="26" fill="#3b82f6" opacity="0.26"/><circle cx="554" cy="164" r="26" fill="none" stroke="#3b82f6" stroke-width="1" opacity="0.36"/><circle cx="15" cy="117" r="55" fill="#3b82f6" opacity="0.26"/><circle cx="15" cy="117" r="55" fill="none" stroke="#3b82f6" stroke-width="1" opacity="0.36"/><circle cx="516" cy="50" r="32" fill="#1A5BC4" opacity="0.32"/><circle cx="516" cy="50" r="32" fill="none" stroke="#1A5BC4" stroke-width="1" opacity="0.42"/><circle cx="921" cy="189" r="10" fill="#3b82f6" opacity="0.12"/><circle cx="921" cy="189" r="10" fill="none" stroke="#3b82f6" stroke-width="1" opacity="0.22"/><circle cx="356" cy="481" r="67" fill="#a855f7" opacity="0.30"/><circle cx="356" cy="481" r="67" fill="none" stroke="#a855f7" stroke-width="1" opacity="0.40"/><circle cx="1135" cy="342" r="11" fill="#3b82f6" opacity="0.26"/><circle cx="1135" cy="342" r="11" fill="none" stroke="#3b82f6" stroke-width="1" opacity="0.36"/><circle cx="974" cy="613" r="63" fill="#3b82f6" opacity="0.18"/><circle cx="974" cy="613" r="63" fill="none" stroke="#3b82f6" stroke-width="1" opacity="0.28"/><circle cx="285" cy="158" r="70" fill="#3b82f6" opacity="0.12"/><circle cx="285" cy="158" r="70" fill="none" stroke="#3b82f6" stroke-width="1" opacity="0.22"/><circle cx="33" cy="223" r="27" fill="#3b82f6" opacity="0.14"/><circle cx="33" cy="223" r="27" fill="none" stroke="#3b82f6" stroke-width="1" opacity="0.24"/><circle cx="980" cy="368" r="47" fill="#a855f7" opacity="0.09"/><circle cx="980" cy="368" r="47" fill="none" stroke="#a855f7" stroke-width="1" opacity="0.19"/><circle cx="1188" cy="14" r="50" fill="#1A5BC4" opacity="0.27"/><circle cx="1188" cy="14" r="50" fill="none" stroke="#1A5BC4" stroke-width="1" opacity="0.37"/><circle cx="703" cy="45" r="29" fill="#3b82f6" opacity="0.15"/><circle cx="703" cy="45" r="29" fill="none" stroke="#3b82f6" stroke-width="1" opacity="0.25"/><circle cx="728" cy="607" r="60" fill="#1A5BC4" opacity="0.27"/><circle cx="728" cy="607" r="60" fill="none" stroke="#1A5BC4" stroke-width="1" opacity="0.37"/><circle cx="518" cy="407" r="63" fill="#1A5BC4" opacity="0.11"/><circle cx="518" cy="407" r="63" fill="none" stroke="#1A5BC4" stroke-width="1" opacity="0.21"/><circle cx="816" cy="4" r="47" fill="#1A5BC4" opacity="0.21"/><circle cx="816" cy="4" r="47" fill="none" stroke="#1A5BC4" stroke-width="1" opacity="0.31"/><circle cx="1110" cy="476" r="63" fill="#1A5BC4" opacity="0.23"/><circle cx="1110" cy="476" r="63" fill="none" stroke="#1A5BC4" stroke-width="1" opacity="0.33"/><circle cx="164" cy="474" r="20" fill="#a855f7" opacity="0.22"/><circle cx="164" cy="474" r="20" fill="none" stroke="#a855f7" stroke-width="1" opacity="0.32"/><circle cx="1130" cy="617" r="67" fill="#3b82f6" opacity="0.28"/><circle cx="1130" cy="617" r="67" fill="none" stroke="#3b82f6" stroke-width="1" opacity="0.38"/><circle cx="754" cy="237" r="19" fill="#a855f7" opacity="0.26"/><circle cx="754" cy="237" r="19" fill="none" stroke="#a855f7" stroke-width="1" opacity="0.36"/><circle cx="182" cy="46" r="36" fill="#3b82f6" opacity="0.08"/><circle cx="182" cy="46" r="36" fill="none" stroke="#3b82f6" stroke-width="1" opacity="0.18"/><circle cx="862" cy="320" r="54" fill="#a855f7" opacity="0.15"/><circle cx="862" cy="320" r="54" fill="none" stroke="#a855f7" stroke-width="1" opacity="0.25"/><circle cx="1169" cy="284" r="44" fill="#a855f7" opacity="0.32"/><circle cx="1169" cy="284" r="44" fill="none" stroke="#a855f7" stroke-width="1" opacity="0.42"/><circle cx="946" cy="487" r="51" fill="#c084fc" opacity="0.18"/><circle cx="946" cy="487" r="51" fill="none" stroke="#c084fc" stroke-width="1" opacity="0.28"/><circle cx="126" cy="535" r="37" fill="#3b82f6" opacity="0.24"/><circle cx="126" cy="535" r="37" fill="none" stroke="#3b82f6" stroke-width="1" opacity="0.34"/><circle cx="403" cy="164" r="24" fill="#3b82f6" opacity="0.11"/><circle cx="403" cy="164" r="24" fill="none" stroke="#3b82f6" stroke-width="1" opacity="0.21"/><circle cx="255" cy="474" r="14" fill="#1A5BC4" opacity="0.26"/><circle cx="255" cy="474" r="14" fill="none" stroke="#1A5BC4" stroke-width="1" opacity="0.36"/><circle cx="686" cy="152" r="27" fill="#1A5BC4" opacity="0.15"/><circle cx="686" cy="152" r="27" fill="none" stroke="#1A5BC4" stroke-width="1" opacity="0.25"/><circle cx="47" cy="547" r="14" fill="#0033A1" opacity="0.33"/><circle cx="47" cy="547" r="14" fill="none" stroke="#0033A1" stroke-width="1" opacity="0.43"/><circle cx="617" cy="141" r="20" fill="#c084fc" opacity="0.17"/><circle cx="617" cy="141" r="20" fill="none" stroke="#c084fc" stroke-width="1" opacity="0.27"/><circle cx="499" cy="148" r="17" fill="#3b82f6" opacity="0.24"/><circle cx="499" cy="148" r="17" fill="none" stroke="#3b82f6" stroke-width="1" opacity="0.34"/><circle cx="518" cy="262" r="46" fill="#c084fc" opacity="0.25"/><circle cx="518" cy="262" r="46" fill="none" stroke="#c084fc" stroke-width="1" opacity="0.35"/><circle cx="773" cy="100" r="16" fill="#0033A1" opacity="0.17"/><circle cx="773" cy="100" r="16" fill="none" stroke="#0033A1" stroke-width="1" opacity="0.27"/><circle cx="181" cy="296" r="33" fill="#1A5BC4" opacity="0.20"/><circle cx="181" cy="296" r="33" fill="none" stroke="#1A5BC4" stroke-width="1" opacity="0.30"/><circle cx="966" cy="285" r="27" fill="#3b82f6" opacity="0.14"/><circle cx="966" cy="285" r="27" fill="none" stroke="#3b82f6" stroke-width="1" opacity="0.24"/><circle cx="616" cy="500" r="46" fill="#1A5BC4" opacity="0.14"/><circle cx="616" cy="500" r="46" fill="none" stroke="#1A5BC4" stroke-width="1" opacity="0.24"/><circle cx="620" cy="222" r="45" fill="#0033A1" opacity="0.17"/><circle cx="620" cy="222" r="45" fill="none" stroke="#0033A1" stroke-width="1" opacity="0.27"/><circle cx="6" cy="454" r="11" fill="#0033A1" opacity="0.08"/><circle cx="6" cy="454" r="11" fill="none" stroke="#0033A1" stroke-width="1" opacity="0.18"/><circle cx="421" cy="268" r="41" fill="#3b82f6" opacity="0.21"/><circle cx="421" cy="268" r="41" fill="none" stroke="#3b82f6" stroke-width="1" opacity="0.31"/><circle cx="414" cy="627" r="62" fill="#1A5BC4" opacity="0.13"/><circle cx="414" cy="627" r="62" fill="none" stroke="#1A5BC4" stroke-width="1" opacity="0.23"/><circle cx="741" cy="343" r="45" fill="#3b82f6" opacity="0.28"/><circle cx="741" cy="343" r="45" fill="none" stroke="#3b82f6" stroke-width="1" opacity="0.38"/><circle cx="707" cy="217" r="27" fill="#0033A1" opacity="0.13"/><circle cx="707" cy="217" r="27" fill="none" stroke="#0033A1" stroke-width="1" opacity="0.23"/><circle cx="113" cy="165" r="15" fill="#a855f7" opacity="0.17"/><circle cx="113" cy="165" r="15" fill="none" stroke="#a855f7" stroke-width="1" opacity="0.27"/><circle cx="858" cy="424" r="35" fill="#3b82f6" opacity="0.22"/><circle cx="858" cy="424" r="35" fill="none" stroke="#3b82f6" stroke-width="1" opacity="0.32"/><circle cx="648" cy="349" r="14" fill="#c084fc" opacity="0.29"/><circle cx="648" cy="349" r="14" fill="none" stroke="#c084fc" stroke-width="1" opacity="0.39"/><circle cx="241" cy="503" r="12" fill="#0033A1" opacity="0.28"/><circle cx="241" cy="503" r="12" fill="none" stroke="#0033A1" stroke-width="1" opacity="0.38"/><circle cx="582" cy="119" r="16" fill="#a855f7" opacity="0.31"/><circle cx="582" cy="119" r="16" fill="none" stroke="#a855f7" stroke-width="1" opacity="0.41"/><circle cx="1091" cy="61" r="42" fill="#0033A1" opacity="0.19"/><circle cx="1091" cy="61" r="42" fill="none" stroke="#0033A1" stroke-width="1" opacity="0.29"/><circle cx="57" cy="7" r="50" fill="#c084fc" opacity="0.19"/><circle cx="57" cy="7" r="50" fill="none" stroke="#c084fc" stroke-width="1" opacity="0.29"/><circle cx="741" cy="421" r="13" fill="#3b82f6" opacity="0.20"/><circle cx="741" cy="421" r="13" fill="none" stroke="#3b82f6" stroke-width="1" opacity="0.30"/><circle cx="922" cy="98" r="19" fill="#0033A1" opacity="0.08"/><circle cx="922" cy="98" r="19" fill="none" stroke="#0033A1" stroke-width="1" opacity="0.18"/><circle cx="43" cy="626" r="19" fill="#0033A1" opacity="0.23"/><circle cx="43" cy="626" r="19" fill="none" stroke="#0033A1" stroke-width="1" opacity="0.33"/><circle cx="186" cy="595" r="21" fill="#a855f7" opacity="0.22"/><circle cx="186" cy="595" r="21" fill="none" stroke="#a855f7" stroke-width="1" opacity="0.32"/><circle cx="606" cy="401" r="17" fill="#a855f7" opacity="0.08"/><circle cx="606" cy="401" r="17" fill="none" stroke="#a855f7" stroke-width="1" opacity="0.18"/><circle cx="1030" cy="153" r="42" fill="#3b82f6" opacity="0.31"/><circle cx="1030" cy="153" r="42" fill="none" stroke="#3b82f6" stroke-width="1" opacity="0.41"/><circle cx="827" cy="180" r="20" fill="#0033A1" opacity="0.25"/><circle cx="827" cy="180" r="20" fill="none" stroke="#0033A1" stroke-width="1" opacity="0.35"/><circle cx="843" cy="233" r="18" fill="#1A5BC4" opacity="0.15"/><circle cx="843" cy="233" r="18" fill="none" stroke="#1A5BC4" stroke-width="1" opacity="0.25"/><circle cx="148" cy="209" r="24" fill="#1A5BC4" opacity="0.23"/><circle cx="148" cy="209" r="24" fill="none" stroke="#1A5BC4" stroke-width="1" opacity="0.33"/><circle cx="286" cy="35" r="30" fill="#3b82f6" opacity="0.32"/><circle cx="286" cy="35" r="30" fill="none" stroke="#3b82f6" stroke-width="1" opacity="0.42"/><circle cx="695" cy="443" r="30" fill="#3b82f6" opacity="0.23"/><circle cx="695" cy="443" r="30" fill="none" stroke="#3b82f6" stroke-width="1" opacity="0.33"/><circle cx="271" cy="371" r="35" fill="#1A5BC4" opacity="0.28"/><circle cx="271" cy="371" r="35" fill="none" stroke="#1A5BC4" stroke-width="1" opacity="0.38"/><circle cx="1046" cy="285" r="36" fill="#0033A1" opacity="0.13"/><circle cx="1046" cy="285" r="36" fill="none" stroke="#0033A1" stroke-width="1" opacity="0.23"/></g>

  <!-- Gradient overlay -->
  <rect width="1200" height="630" fill="url(#overlay)"/>
  <rect width="1200" height="120" fill="url(#topFade)"/>

  <!-- Dot pattern subtle -->
  <pattern id="dots" width="40" height="40" patternUnits="userSpaceOnUse">
    <circle cx="20" cy="20" r="0.8" fill="white" opacity="0.04"/>
  </pattern>
  <rect width="1200" height="630" fill="url(#dots)"/>

</svg>