<svg xmlns="http://www.w3.org/2000/svg" width="1200" height="630" viewBox="0 0 1200 630">
  <defs>
    <linearGradient id="overlay" x1="0" y1="1" x2="0" y2="0">
      <stop offset="0%" stop-color="#001D5C" stop-opacity="0.95"/>
      <stop offset="45%" stop-color="#001D5C" stop-opacity="0.7"/>
      <stop offset="75%" stop-color="#001D5C" stop-opacity="0.2"/>
      <stop offset="100%" stop-color="#001D5C" stop-opacity="0"/>
    </linearGradient>
    <linearGradient id="topFade" x1="0" y1="0" x2="0" y2="1">
      <stop offset="0%" stop-color="#001D5C" stop-opacity="0.3"/>
      <stop offset="100%" stop-color="#001D5C" stop-opacity="0"/>
    </linearGradient>
  </defs>

  <!-- Background -->
  <rect width="1200" height="630" fill="#001D5C"/>

  <!-- Generative pattern -->
  <g><circle cx="46.91929302923381" cy="16.23777806200087" r="4.1" fill="#c084fc" opacity="0.36"/><circle cx="67.9686777498573" cy="23.23662982136011" r="4.5" fill="#a855f7" opacity="0.40"/><circle cx="148.0345542151481" cy="21.99920712225139" r="5.0" fill="#1A5BC4" opacity="0.45"/><circle cx="170.1074967943132" cy="20.369964748620987" r="4.9" fill="#0033A1" opacity="0.44"/><circle cx="198.81119824945927" cy="23.3212901186198" r="4.7" fill="#c084fc" opacity="0.42"/><circle cx="217.7027248200029" cy="21.354832593351603" r="4.4" fill="#0033A1" opacity="0.39"/><circle cx="268.20275215245783" cy="17.71263395436108" r="3.6" fill="#3b82f6" opacity="0.31"/><circle cx="293.6028061285615" cy="18.433661909773946" r="3.1" fill="#0033A1" opacity="0.26"/><circle cx="319.16617443971336" cy="16.349986635148525" r="2.6" fill="#a855f7" opacity="0.21"/><circle cx="570.9680579118431" cy="20.831462673842907" r="2.2" fill="#0033A1" opacity="0.17"/><circle cx="591.707224804908" cy="18.5954818893224" r="2.7" fill="#c084fc" opacity="0.22"/><circle cx="620.2870244942605" cy="16.058740777894855" r="3.2" fill="#a855f7" opacity="0.27"/><circle cx="723.1513314023614" cy="19.992231281474233" r="4.8" fill="#0033A1" opacity="0.43"/><circle cx="792.2775283977389" cy="16.18743330053985" r="4.9" fill="#1A5BC4" opacity="0.44"/><circle cx="819.7983678728342" cy="21.36157845519483" r="4.7" fill="#c084fc" opacity="0.42"/><circle cx="871.3443013783544" cy="22.667743287980556" r="4.1" fill="#1A5BC4" opacity="0.36"/><circle cx="895.520874561742" cy="21.65393497236073" r="3.6" fill="#1A5BC4" opacity="0.31"/><circle cx="920.3409455921501" cy="18.428472187370062" r="3.1" fill="#3b82f6" opacity="0.26"/><circle cx="1168.606152119115" cy="19.715685704723" r="1.7" fill="#a855f7" opacity="0.12"/><circle cx="21.999360481277108" cy="42.238759176805615" r="4.1" fill="#0033A1" opacity="0.36"/><circle cx="41.05844019539654" cy="48.42510346323252" r="4.4" fill="#a855f7" opacity="0.39"/><circle cx="67.06464718468487" cy="42.9889656342566" r="4.7" fill="#c084fc" opacity="0.42"/><circle cx="92.94806064851582" cy="47.175163332372904" r="4.9" fill="#0033A1" opacity="0.44"/><circle cx="116.53785215876997" cy="45.52931183949113" r="5.0" fill="#0033A1" opacity="0.45"/><circle cx="148.6345196980983" cy="42.3988842535764" r="4.9" fill="#0033A1" opacity="0.44"/><circle cx="168.84762397035956" cy="48.13910151273012" r="4.8" fill="#a855f7" opacity="0.43"/><circle cx="197.39194394275546" cy="45.29534204117954" r="4.5" fill="#a855f7" opacity="0.40"/><circle cx="217.46511281467974" cy="44.99903594329953" r="4.1" fill="#3b82f6" opacity="0.36"/><circle cx="248.2458575963974" cy="46.32061015628278" r="3.7" fill="#0033A1" opacity="0.32"/><circle cx="267.04504918307066" cy="48.69780968874693" r="3.2" fill="#1A5BC4" opacity="0.27"/><circle cx="341.1831712126732" cy="44.33857204578817" r="1.8" fill="#a855f7" opacity="0.13"/><circle cx="544.042384300381" cy="45.804320104420185" r="2.1" fill="#a855f7" opacity="0.16"/><circle cx="673.9525589235127" cy="48.81782315298915" r="4.4" fill="#1A5BC4" opacity="0.39"/><circle cx="697.3919710852206" cy="43.54594910144806" r="4.7" fill="#1A5BC4" opacity="0.42"/><circle cx="771.8640011511743" cy="45.91861672140658" r="5.0" fill="#1A5BC4" opacity="0.45"/><circle cx="821.8048446904868" cy="46.29312986694276" r="4.5" fill="#1A5BC4" opacity="0.40"/><circle cx="847.3892818912864" cy="43.44515313953161" r="4.2" fill="#a855f7" opacity="0.37"/><circle cx="869.4720434211195" cy="48.63131718337536" r="3.7" fill="#3b82f6" opacity="0.32"/><circle cx="891.1265628859401" cy="48.246745966374874" r="3.2" fill="#3b82f6" opacity="0.27"/><circle cx="45.33722340129316" cy="72.31150348111987" r="4.7" fill="#1A5BC4" opacity="0.42"/><circle cx="70.94031042791903" cy="70.68579182773829" r="4.9" fill="#1A5BC4" opacity="0.44"/><circle cx="145.84494117088616" cy="68.5384693723172" r="4.8" fill="#a855f7" opacity="0.43"/><circle cx="223.42402712628245" cy="68.50575422868133" r="3.7" fill="#c084fc" opacity="0.32"/><circle cx="241.68703495711088" cy="69.97922617569566" r="3.3" fill="#1A5BC4" opacity="0.28"/><circle cx="320.2006425857544" cy="66.85191653855145" r="1.8" fill="#c084fc" opacity="0.13"/><circle cx="595.2227579392493" cy="68.27599232271314" r="3.4" fill="#3b82f6" opacity="0.29"/><circle cx="617.3881756216288" cy="68.11833097040653" r="3.9" fill="#1A5BC4" opacity="0.34"/><circle cx="646.3640951383859" cy="73.43613802455366" r="4.3" fill="#0033A1" opacity="0.38"/><circle cx="671.6448858901858" cy="73.48830549605191" r="4.7" fill="#c084fc" opacity="0.42"/><circle cx="694.9584312364459" cy="71.1274026222527" r="4.9" fill="#a855f7" opacity="0.44"/><circle cx="744.2443316280842" cy="73.98443741351366" r="5.0" fill="#a855f7" opacity="0.45"/><circle cx="769.6637266483158" cy="70.62754759937525" r="4.8" fill="#a855f7" opacity="0.43"/><circle cx="821.7017412725836" cy="69.28039881028235" r="4.2" fill="#a855f7" opacity="0.37"/><circle cx="844.9235267750919" cy="72.5696770567447" r="3.8" fill="#1A5BC4" opacity="0.33"/><circle cx="1191.3312948010862" cy="70.88149017840624" r="2.9" fill="#3b82f6" opacity="0.24"/><circle cx="70.5436981935054" cy="95.73773862607777" r="5.0" fill="#3b82f6" opacity="0.45"/><circle cx="95.20354650355875" cy="98.49489153549075" r="5.0" fill="#c084fc" opacity="0.45"/><circle cx="123.64029774814844" cy="97.19908668659627" r="4.9" fill="#0033A1" opacity="0.44"/><circle cx="147.3423688299954" cy="98.7020557448268" r="4.6" fill="#a855f7" opacity="0.41"/><circle cx="169.4890358876437" cy="97.40459571965039" r="4.3" fill="#0033A1" opacity="0.38"/><circle cx="191.4832202140242" cy="96.41103380918503" r="3.8" fill="#c084fc" opacity="0.33"/><circle cx="220.7684091515839" cy="94.61971863172948" r="3.4" fill="#1A5BC4" opacity="0.29"/><circle cx="245.3757586814463" cy="97.06208418868482" r="2.9" fill="#1A5BC4" opacity="0.24"/><circle cx="273.9107850063592" cy="96.57781505398452" r="2.4" fill="#1A5BC4" opacity="0.19"/><circle cx="443.33307273313403" cy="96.69839506968856" r="1.2" fill="#0033A1" opacity="0.07"/><circle cx="570.3254832141101" cy="92.11365484260023" r="3.4" fill="#0033A1" opacity="0.29"/><circle cx="596.4175889827311" cy="91.67569780349731" r="3.8" fill="#0033A1" opacity="0.33"/><circle cx="648.3816947061568" cy="93.70192119292915" r="4.6" fill="#a855f7" opacity="0.41"/><circle cx="691.2036076597869" cy="98.69959541596472" r="5.0" fill="#c084fc" opacity="0.45"/><circle cx="717.6675476003438" cy="97.11465227231383" r="5.0" fill="#0033A1" opacity="0.45"/><circle cx="793.4659412167966" cy="92.34299152903259" r="4.3" fill="#3b82f6" opacity="0.38"/><circle cx="816.172192459926" cy="95.34441657923162" r="3.9" fill="#c084fc" opacity="0.34"/><circle cx="1120.477864574641" cy="97.759446490556" r="1.9" fill="#3b82f6" opacity="0.14"/><circle cx="1171.6626624707133" cy="96.8596362285316" r="2.8" fill="#0033A1" opacity="0.23"/><circle cx="16.446490859612823" cy="119.92536372505128" r="4.8" fill="#1A5BC4" opacity="0.43"/><circle cx="118.86249988526106" cy="118.68897305428982" r="4.7" fill="#c084fc" opacity="0.42"/><circle cx="147.0326694715768" cy="117.81603710353374" r="4.3" fill="#3b82f6" opacity="0.38"/><circle cx="271.6219123415649" cy="120.16273343004286" r="2.0" fill="#3b82f6" opacity="0.15"/><circle cx="394.57444232329726" cy="119.23623859882355" r="1.0" fill="#c084fc" opacity="0.05"/><circle cx="542.7112986352295" cy="119.83794955909252" r="3.3" fill="#c084fc" opacity="0.28"/><circle cx="571.8601155802608" cy="120.98711164295673" r="3.7" fill="#1A5BC4" opacity="0.32"/><circle cx="616.7393981348723" cy="122.2702465839684" r="4.5" fill="#0033A1" opacity="0.40"/><circle cx="644.9825538415462" cy="118.4777555000037" r="4.8" fill="#a855f7" opacity="0.43"/><circle cx="673.1540153566748" cy="122.27230380661786" r="5.0" fill="#c084fc" opacity="0.45"/><circle cx="743.5130008272827" cy="121.46533574350178" r="4.7" fill="#3b82f6" opacity="0.42"/><circle cx="771.6307181231678" cy="118.10179126635194" r="4.4" fill="#a855f7" opacity="0.39"/><circle cx="816.0959301181138" cy="117.72325383871794" r="3.5" fill="#3b82f6" opacity="0.30"/><circle cx="896.8471058588475" cy="119.85990354791284" r="2.1" fill="#a855f7" opacity="0.16"/><circle cx="917.0391005426645" cy="119.75996780768037" r="1.7" fill="#3b82f6" opacity="0.12"/><circle cx="1171.4489859510213" cy="119.13129912875593" r="3.2" fill="#0033A1" opacity="0.27"/><circle cx="45.451983373612165" cy="141.1771989259869" r="5.0" fill="#a855f7" opacity="0.45"/><circle cx="71.13331307470798" cy="143.34357785619795" r="4.9" fill="#3b82f6" opacity="0.44"/><circle cx="95.5886433403939" cy="142.23060000315309" r="4.7" fill="#0033A1" opacity="0.42"/><circle cx="147.6332281641662" cy="148.621473075822" r="4.0" fill="#c084fc" opacity="0.35"/><circle cx="171.64345401525497" cy="145.58206783421338" r="3.6" fill="#0033A1" opacity="0.31"/><circle cx="446.0501151755452" cy="145.77886848151684" r="1.8" fill="#1A5BC4" opacity="0.13"/><circle cx="623.0887420363724" cy="148.4772384800017" r="4.8" fill="#0033A1" opacity="0.43"/><circle cx="648.027985284105" cy="146.89015311188996" r="4.9" fill="#0033A1" opacity="0.44"/><circle cx="669.2250682730228" cy="145.34297051653266" r="5.0" fill="#a855f7" opacity="0.45"/><circle cx="694.3408157993108" cy="142.57990641333163" r="4.9" fill="#1A5BC4" opacity="0.44"/><circle cx="722.7987478990108" cy="145.1775057129562" r="4.7" fill="#a855f7" opacity="0.42"/><circle cx="767.7511352244765" cy="145.11329440400004" r="4.1" fill="#c084fc" opacity="0.36"/><circle cx="795.318697584793" cy="145.7940967604518" r="3.6" fill="#c084fc" opacity="0.31"/><circle cx="869.312165223062" cy="148.2611215095967" r="2.2" fill="#0033A1" opacity="0.17"/><circle cx="1041.4172312319279" cy="143.52126863971353" r="1.4" fill="#0033A1" opacity="0.09"/><circle cx="1095.3541785757989" cy="141.04224244691432" r="2.1" fill="#3b82f6" opacity="0.16"/><circle cx="1145.3677388727665" cy="148.24604983069003" r="3.1" fill="#a855f7" opacity="0.26"/><circle cx="1191.7442238405347" cy="147.10765805467963" r="4.0" fill="#a855f7" opacity="0.35"/><circle cx="20.38661672733724" cy="171.81928525678813" r="5.0" fill="#c084fc" opacity="0.45"/><circle cx="42.9905324857682" cy="169.699359793216" r="4.9" fill="#a855f7" opacity="0.44"/><circle cx="95.4941690377891" cy="173.5358303990215" r="4.5" fill="#a855f7" opacity="0.40"/><circle cx="119.20941469445825" cy="170.4771633632481" r="4.1" fill="#0033A1" opacity="0.36"/><circle cx="194.18201082758605" cy="169.08294475451112" r="2.7" fill="#a855f7" opacity="0.22"/><circle cx="217.4098573345691" cy="173.2113192230463" r="2.2" fill="#3b82f6" opacity="0.17"/><circle cx="320.492373412475" cy="173.75407426059246" r="1.0" fill="#1A5BC4" opacity="0.05"/><circle cx="417.10745752230287" cy="172.5438761804253" r="1.7" fill="#c084fc" opacity="0.12"/><circle cx="443.9831590782851" cy="170.7728176880628" r="2.1" fill="#c084fc" opacity="0.16"/><circle cx="523.6365533526987" cy="167.56396651640534" r="3.5" fill="#c084fc" opacity="0.30"/><circle cx="569.7243848536164" cy="173.58075054176152" r="4.4" fill="#a855f7" opacity="0.39"/><circle cx="594.7887766994536" cy="168.49337398074567" r="4.7" fill="#a855f7" opacity="0.42"/><circle cx="641.6268507912755" cy="170.1066671218723" r="5.0" fill="#c084fc" opacity="0.45"/><circle cx="666.8340263236314" cy="170.05021844245493" r="5.0" fill="#0033A1" opacity="0.45"/><circle cx="691.1128006819636" cy="166.6290153618902" r="4.8" fill="#0033A1" opacity="0.43"/><circle cx="792.5293915253133" cy="167.01057833991945" r="3.2" fill="#3b82f6" opacity="0.27"/><circle cx="1092.2364201694727" cy="172.89148807525635" r="2.5" fill="#3b82f6" opacity="0.20"/><circle cx="1167.9960355553776" cy="173.44058097340167" r="3.9" fill="#3b82f6" opacity="0.34"/><circle cx="1192.8709697891027" cy="172.58221225254238" r="4.4" fill="#a855f7" opacity="0.39"/><circle cx="21.114252181723714" cy="196.63748775795102" r="5.0" fill="#3b82f6" opacity="0.45"/><circle cx="48.909062810242176" cy="193.78209277428687" r="4.8" fill="#0033A1" opacity="0.43"/><circle cx="92.82433381862938" cy="197.33986342325807" r="4.2" fill="#a855f7" opacity="0.37"/><circle cx="122.0419781319797" cy="192.93536969646811" r="3.7" fill="#1A5BC4" opacity="0.32"/><circle cx="147.89107561297715" cy="196.9812105409801" r="3.3" fill="#0033A1" opacity="0.28"/><circle cx="170.84372738189995" cy="191.86995346657932" r="2.8" fill="#c084fc" opacity="0.23"/><circle cx="444.9878598488867" cy="194.49645278975368" r="2.5" fill="#c084fc" opacity="0.20"/><circle cx="471.55246574804187" cy="197.62911774404347" r="3.0" fill="#c084fc" opacity="0.25"/><circle cx="573.1049411706626" cy="198.1349610965699" r="4.7" fill="#0033A1" opacity="0.42"/><circle cx="598.1223564539105" cy="192.57896267436445" r="4.9" fill="#c084fc" opacity="0.44"/><circle cx="623.0805637706071" cy="195.21005523391068" r="5.0" fill="#c084fc" opacity="0.45"/><circle cx="670.2545816451311" cy="198.676546709612" r="4.8" fill="#0033A1" opacity="0.43"/><circle cx="698.8117602746934" cy="195.7256905529648" r="4.6" fill="#3b82f6" opacity="0.41"/><circle cx="722.8141283039004" cy="198.87438923679292" r="4.2" fill="#3b82f6" opacity="0.37"/><circle cx="744.3975593224168" cy="198.9415188394487" r="3.8" fill="#c084fc" opacity="0.33"/><circle cx="767.0405653398484" cy="195.25331098772585" r="3.3" fill="#c084fc" opacity="0.28"/><circle cx="1018.8933956790715" cy="197.55226104333997" r="1.6" fill="#a855f7" opacity="0.11"/><circle cx="23.41093653254211" cy="219.0957847610116" r="4.9" fill="#1A5BC4" opacity="0.44"/><circle cx="71.78315724618733" cy="220.7314340081066" r="4.3" fill="#1A5BC4" opacity="0.38"/><circle cx="147.323716936633" cy="216.95901639945805" r="2.9" fill="#0033A1" opacity="0.24"/><circle cx="470.7789108399302" cy="221.1609804984182" r="3.4" fill="#a855f7" opacity="0.29"/><circle cx="496.18717458099127" cy="222.41222650930285" r="3.8" fill="#3b82f6" opacity="0.33"/><circle cx="516.7440837863833" cy="216.29269045963883" r="4.3" fill="#3b82f6" opacity="0.38"/><circle cx="568.0455261580646" cy="216.49019941687584" r="4.8" fill="#0033A1" opacity="0.43"/><circle cx="597.2490275613964" cy="219.0063270404935" r="5.0" fill="#3b82f6" opacity="0.45"/><circle cx="643.2761545721442" cy="220.38949443027377" r="4.9" fill="#c084fc" opacity="0.44"/><circle cx="716.8360166344792" cy="222.6294725574553" r="3.9" fill="#1A5BC4" opacity="0.34"/><circle cx="747.6998542658985" cy="216.01291993446648" r="3.4" fill="#1A5BC4" opacity="0.29"/><circle cx="992.6020857784897" cy="222.85076455399394" r="1.5" fill="#1A5BC4" opacity="0.10"/><circle cx="1021.881748476997" cy="216.10637267306447" r="1.9" fill="#a855f7" opacity="0.14"/><circle cx="1195.2335395999253" cy="222.1699552629143" r="4.8" fill="#3b82f6" opacity="0.43"/><circle cx="19.559479938820004" cy="246.7008281312883" r="4.7" fill="#c084fc" opacity="0.42"/><circle cx="48.41050563380122" cy="248.96615754440427" r="4.3" fill="#c084fc" opacity="0.38"/><circle cx="97.1014511603862" cy="248.21226815879345" r="3.5" fill="#1A5BC4" opacity="0.30"/><circle cx="145.11068568006158" cy="243.0452048610896" r="2.5" fill="#c084fc" opacity="0.20"/><circle cx="398.79859327338636" cy="246.7455878239125" r="2.3" fill="#c084fc" opacity="0.18"/><circle cx="468.0240092203021" cy="246.8394623491913" r="3.7" fill="#c084fc" opacity="0.32"/><circle cx="519.5450366195291" cy="242.17198865301907" r="4.5" fill="#3b82f6" opacity="0.40"/><circle cx="547.7024845816195" cy="245.77244067564607" r="4.8" fill="#3b82f6" opacity="0.43"/><circle cx="566.1227235626429" cy="242.63049929589033" r="5.0" fill="#a855f7" opacity="0.45"/><circle cx="594.581521820277" cy="245.94520621187985" r="5.0" fill="#0033A1" opacity="0.45"/><circle cx="621.2195895314217" cy="245.1324928496033" r="4.9" fill="#3b82f6" opacity="0.44"/><circle cx="643.1066301465034" cy="241.7558922804892" r="4.7" fill="#0033A1" opacity="0.42"/><circle cx="1045.1265396997333" cy="244.18089831992984" r="2.7" fill="#1A5BC4" opacity="0.22"/><circle cx="1092.3963841572404" cy="246.9955653194338" r="3.7" fill="#a855f7" opacity="0.32"/><circle cx="1119.198210483417" cy="245.29312606714666" r="4.1" fill="#c084fc" opacity="0.36"/><circle cx="1141.159028409049" cy="247.89420724101365" r="4.5" fill="#c084fc" opacity="0.40"/><circle cx="1196.65449061431" cy="245.78770907595754" r="4.9" fill="#c084fc" opacity="0.44"/><circle cx="42.22285512648523" cy="271.7687479779124" r="4.0" fill="#0033A1" opacity="0.35"/><circle cx="70.69964242726564" cy="269.8534205779433" r="3.6" fill="#3b82f6" opacity="0.31"/><circle cx="121.29873212985694" cy="270.00416634604335" r="2.6" fill="#3b82f6" opacity="0.21"/><circle cx="221.94021742232144" cy="268.9692580476403" r="1.1" fill="#c084fc" opacity="0.06"/><circle cx="397.6187665425241" cy="272.27953983284533" r="2.7" fill="#a855f7" opacity="0.22"/><circle cx="441.66983081772923" cy="271.2574068456888" r="3.6" fill="#c084fc" opacity="0.31"/><circle cx="467.38105433806777" cy="272.8088470324874" r="4.1" fill="#c084fc" opacity="0.36"/><circle cx="519.7295648548752" cy="272.68546202778816" r="4.8" fill="#3b82f6" opacity="0.43"/><circle cx="547.9504479076713" cy="272.0884230416268" r="4.9" fill="#c084fc" opacity="0.44"/><circle cx="572.8623413983732" cy="273.40466841124" r="5.0" fill="#a855f7" opacity="0.45"/><circle cx="592.6032916605473" cy="271.0835165306926" r="4.9" fill="#c084fc" opacity="0.44"/><circle cx="617.2055172789842" cy="272.5727406013757" r="4.7" fill="#3b82f6" opacity="0.42"/><circle cx="642.5210837442428" cy="273.8205101173371" r="4.5" fill="#0033A1" opacity="0.40"/><circle cx="720.8316012453288" cy="272.97661392204463" r="3.1" fill="#0033A1" opacity="0.26"/><circle cx="791.1133525837213" cy="269.26357383467257" r="1.7" fill="#a855f7" opacity="0.12"/><circle cx="1068.6754123717546" cy="268.661105170846" r="3.6" fill="#c084fc" opacity="0.31"/><circle cx="1091.1027607880533" cy="269.19378487952054" r="4.0" fill="#3b82f6" opacity="0.35"/><circle cx="1116.809388851747" cy="273.5248061325401" r="4.4" fill="#0033A1" opacity="0.39"/><circle cx="1148.2796691525728" cy="266.64982365071774" r="4.7" fill="#a855f7" opacity="0.42"/><circle cx="1169.7138765342534" cy="273.95912513136864" r="4.9" fill="#a855f7" opacity="0.44"/><circle cx="16.406092086806893" cy="292.1826508473605" r="4.1" fill="#c084fc" opacity="0.36"/><circle cx="70.30770817399025" cy="298.3218694869429" r="3.2" fill="#3b82f6" opacity="0.27"/><circle cx="346.3765798266977" cy="294.8102384842932" r="2.1" fill="#1A5BC4" opacity="0.16"/><circle cx="444.1849481854588" cy="292.26711398921907" r="4.0" fill="#1A5BC4" opacity="0.35"/><circle cx="495.18234663270414" cy="291.6836308129132" r="4.7" fill="#1A5BC4" opacity="0.42"/><circle cx="520.8916668556631" cy="293.47154467366636" r="4.9" fill="#a855f7" opacity="0.44"/><circle cx="546.3021111432463" cy="293.89706358499825" r="5.0" fill="#c084fc" opacity="0.45"/><circle cx="568.9845444057137" cy="297.2879577949643" r="5.0" fill="#3b82f6" opacity="0.45"/><circle cx="598.5135843846947" cy="297.50058704055846" r="4.8" fill="#0033A1" opacity="0.43"/><circle cx="643.3328593447804" cy="296.72975423000753" r="4.2" fill="#0033A1" opacity="0.37"/><circle cx="722.6067563518882" cy="295.21128636971116" r="2.7" fill="#0033A1" opacity="0.22"/><circle cx="773.1677408479154" cy="291.5459398087114" r="1.8" fill="#a855f7" opacity="0.13"/><circle cx="1046.5768497884274" cy="295.12879947572947" r="3.5" fill="#1A5BC4" opacity="0.30"/><circle cx="1142.2969534453005" cy="292.0135319251567" r="4.9" fill="#0033A1" opacity="0.44"/><circle cx="19.851915787905455" cy="322.8847315721214" r="3.7" fill="#1A5BC4" opacity="0.32"/><circle cx="97.21884584985673" cy="321.5924880411476" r="2.3" fill="#3b82f6" opacity="0.18"/><circle cx="344.5629320554435" cy="323.9328417517245" r="2.5" fill="#c084fc" opacity="0.20"/><circle cx="394.02652559801936" cy="322.0625060405582" r="3.4" fill="#c084fc" opacity="0.29"/><circle cx="491.46533732302487" cy="319.85295990109444" r="4.9" fill="#a855f7" opacity="0.44"/><circle cx="523.989535421133" cy="323.40629343502223" r="5.0" fill="#1A5BC4" opacity="0.45"/><circle cx="591.793167354539" cy="319.2223757561296" r="4.6" fill="#1A5BC4" opacity="0.41"/><circle cx="618.7689924295992" cy="316.61335976049304" r="4.2" fill="#3b82f6" opacity="0.37"/><circle cx="642.4555837009102" cy="321.4447088036686" r="3.8" fill="#a855f7" opacity="0.33"/><circle cx="672.7045678645372" cy="321.70332933962345" r="3.3" fill="#0033A1" opacity="0.28"/><circle cx="970.3195515777916" cy="316.0221369806677" r="2.4" fill="#1A5BC4" opacity="0.19"/><circle cx="1018.0605486240238" cy="321.4150965306908" r="3.4" fill="#1A5BC4" opacity="0.29"/><circle cx="1046.77474636212" cy="319.39713429287076" r="3.9" fill="#a855f7" opacity="0.34"/><circle cx="1073.7537280470133" cy="319.0685615837574" r="4.3" fill="#0033A1" opacity="0.38"/><circle cx="1092.6669416949153" cy="316.21111710369587" r="4.6" fill="#1A5BC4" opacity="0.41"/><circle cx="1118.8407983798534" cy="321.59373895451427" r="4.9" fill="#a855f7" opacity="0.44"/><circle cx="1166.6743100956082" cy="319.8915911335498" r="5.0" fill="#1A5BC4" opacity="0.45"/><circle cx="1192.417334586382" cy="321.2791183758527" r="4.9" fill="#a855f7" opacity="0.44"/><circle cx="93.5541530046612" cy="348.0219473093748" r="1.9" fill="#a855f7" opacity="0.14"/><circle cx="342.24466995708644" cy="343.73458261601627" r="2.9" fill="#3b82f6" opacity="0.24"/><circle cx="392.6598915811628" cy="342.86623032577336" r="3.8" fill="#c084fc" opacity="0.33"/><circle cx="423.01443714275956" cy="343.8316776640713" r="4.3" fill="#0033A1" opacity="0.38"/><circle cx="541.8289354238659" cy="341.05737983621657" r="4.9" fill="#c084fc" opacity="0.44"/><circle cx="568.9727634359151" cy="343.0914069209248" r="4.6" fill="#3b82f6" opacity="0.41"/><circle cx="595.1429693698883" cy="344.1648741532117" r="4.3" fill="#c084fc" opacity="0.38"/><circle cx="642.4685221910477" cy="345.8848318737" r="3.4" fill="#c084fc" opacity="0.29"/><circle cx="668.3732254840434" cy="341.52155532874167" r="2.9" fill="#c084fc" opacity="0.24"/><circle cx="1016.9444036949426" cy="342.909434331581" r="3.8" fill="#0033A1" opacity="0.33"/><circle cx="1046.3083401042968" cy="346.72566821426153" r="4.2" fill="#0033A1" opacity="0.37"/><circle cx="1073.058431411162" cy="341.8783687260002" r="4.6" fill="#c084fc" opacity="0.41"/><circle cx="1098.915881536901" cy="345.1217280998826" r="4.8" fill="#a855f7" opacity="0.43"/><circle cx="1118.3893761858344" cy="344.04473518393934" r="5.0" fill="#1A5BC4" opacity="0.45"/><circle cx="1145.4882142879069" cy="343.2267931215465" r="5.0" fill="#c084fc" opacity="0.45"/><circle cx="1173.0759742744267" cy="342.46432678215206" r="4.9" fill="#3b82f6" opacity="0.44"/><circle cx="1196.9016416687518" cy="341.91592983342707" r="4.7" fill="#3b82f6" opacity="0.42"/><circle cx="17.390474451705813" cy="372.5113705340773" r="3.0" fill="#0033A1" opacity="0.25"/><circle cx="66.10355917550623" cy="371.4034763202071" r="2.0" fill="#1A5BC4" opacity="0.15"/><circle cx="297.0839077588171" cy="369.9198367651552" r="2.3" fill="#a855f7" opacity="0.18"/><circle cx="346.3098844420165" cy="373.92698755301535" r="3.3" fill="#0033A1" opacity="0.28"/><circle cx="396.96441736631095" cy="370.8814209830016" r="4.2" fill="#c084fc" opacity="0.37"/><circle cx="423.4469166640192" cy="366.9631776586175" r="4.5" fill="#3b82f6" opacity="0.40"/><circle cx="448.5993000753224" cy="372.45345722697675" r="4.8" fill="#0033A1" opacity="0.43"/><circle cx="468.4954466801137" cy="370.7300675380975" r="5.0" fill="#0033A1" opacity="0.45"/><circle cx="494.22855239361525" cy="367.15077329799533" r="5.0" fill="#a855f7" opacity="0.45"/><circle cx="592.1339921467006" cy="366.9533288180828" r="4.0" fill="#1A5BC4" opacity="0.35"/><circle cx="623.5341535117477" cy="368.2071258574724" r="3.5" fill="#a855f7" opacity="0.30"/><circle cx="998.5779063720256" cy="366.5579301957041" r="3.7" fill="#c084fc" opacity="0.32"/><circle cx="1023.828200256452" cy="367.88064490258694" r="4.1" fill="#c084fc" opacity="0.36"/><circle cx="1068.3087195772678" cy="367.5287491567433" r="4.8" fill="#c084fc" opacity="0.43"/><circle cx="1092.7439354471862" cy="370.6985208783299" r="4.9" fill="#1A5BC4" opacity="0.44"/><circle cx="1116.112463645637" cy="366.7162014897913" r="5.0" fill="#3b82f6" opacity="0.45"/><circle cx="1141.2738986145705" cy="371.3987645730376" r="4.9" fill="#3b82f6" opacity="0.44"/><circle cx="1168.0398251805454" cy="367.31657587364316" r="4.7" fill="#3b82f6" opacity="0.42"/><circle cx="1196.3473984804004" cy="370.2227763272822" r="4.4" fill="#3b82f6" opacity="0.39"/><circle cx="16.00096320733428" cy="394.5718664955348" r="2.6" fill="#a855f7" opacity="0.21"/><circle cx="322.4834672026336" cy="393.9920878019184" r="3.2" fill="#0033A1" opacity="0.27"/><circle cx="373.4507493469864" cy="391.6307336743921" r="4.1" fill="#0033A1" opacity="0.36"/><circle cx="392.7483829520643" cy="392.1847993154079" r="4.5" fill="#0033A1" opacity="0.40"/><circle cx="443.05794887803495" cy="396.1159553322941" r="4.9" fill="#3b82f6" opacity="0.44"/><circle cx="522.985622074455" cy="398.29208645410836" r="4.7" fill="#3b82f6" opacity="0.42"/><circle cx="541.0132773406804" cy="398.018326183781" r="4.5" fill="#3b82f6" opacity="0.40"/><circle cx="595.09564887546" cy="393.5061276387423" r="3.6" fill="#3b82f6" opacity="0.31"/><circle cx="616.2389316428453" cy="398.92944696731865" r="3.1" fill="#0033A1" opacity="0.26"/><circle cx="746.6257458757609" cy="392.79480478540063" r="1.1" fill="#0033A1" opacity="0.06"/><circle cx="991.5982139222324" cy="391.2480065152049" r="4.0" fill="#c084fc" opacity="0.35"/><circle cx="1017.6133131571114" cy="393.7442271169275" r="4.4" fill="#a855f7" opacity="0.39"/><circle cx="1048.668605307117" cy="396.72607615217566" r="4.7" fill="#a855f7" opacity="0.42"/><circle cx="1071.9230900742114" cy="394.0200502406806" r="4.9" fill="#1A5BC4" opacity="0.44"/><circle cx="1094.771913940087" cy="392.3800717201084" r="5.0" fill="#1A5BC4" opacity="0.45"/><circle cx="1121.9948849920183" cy="398.6150588747114" r="5.0" fill="#a855f7" opacity="0.45"/><circle cx="1168.5851431768388" cy="393.75861465744674" r="4.5" fill="#a855f7" opacity="0.40"/><circle cx="1192.2220946904272" cy="393.6137911081314" r="4.1" fill="#0033A1" opacity="0.36"/><circle cx="246.3561366610229" cy="422.37074320204556" r="2.1" fill="#c084fc" opacity="0.16"/><circle cx="322.6130580175668" cy="421.2235067989677" r="3.5" fill="#1A5BC4" opacity="0.30"/><circle cx="343.26879399083555" cy="420.75836003012955" r="4.0" fill="#3b82f6" opacity="0.35"/><circle cx="396.6854403652251" cy="423.1593840532005" r="4.7" fill="#a855f7" opacity="0.42"/><circle cx="420.36812554486096" cy="420.3632352091372" r="4.9" fill="#0033A1" opacity="0.44"/><circle cx="469.121413692832" cy="422.94371182471514" r="5.0" fill="#3b82f6" opacity="0.45"/><circle cx="522.9938941188157" cy="420.08464302681386" r="4.5" fill="#a855f7" opacity="0.40"/><circle cx="598.102455496788" cy="418.9435715638101" r="3.2" fill="#c084fc" opacity="0.27"/><circle cx="648.7432921472937" cy="418.1304430309683" r="2.2" fill="#c084fc" opacity="0.17"/><circle cx="847.9300887547433" cy="423.4917287994176" r="1.6" fill="#a855f7" opacity="0.11"/><circle cx="873.9181493669748" cy="422.93107552081347" r="2.0" fill="#3b82f6" opacity="0.15"/><circle cx="897.5484148152173" cy="416.1661636400968" r="2.5" fill="#1A5BC4" opacity="0.20"/><circle cx="942.1595644317567" cy="419.30605071410537" r="3.5" fill="#0033A1" opacity="0.30"/><circle cx="966.5482493881136" cy="421.216416105628" r="3.9" fill="#1A5BC4" opacity="0.34"/><circle cx="995.532161064446" cy="419.12539132870734" r="4.4" fill="#3b82f6" opacity="0.39"/><circle cx="1020.2197050601244" cy="417.2109493855387" r="4.7" fill="#3b82f6" opacity="0.42"/><circle cx="272.0122364666313" cy="444.0808699391782" r="3.0" fill="#c084fc" opacity="0.25"/><circle cx="323.4311036504805" cy="447.512851793319" r="3.9" fill="#1A5BC4" opacity="0.34"/><circle cx="371.6440751105547" cy="443.9832387212664" r="4.7" fill="#a855f7" opacity="0.42"/><circle cx="417.5051788967103" cy="441.8929651621729" r="5.0" fill="#1A5BC4" opacity="0.45"/><circle cx="446.4672226589173" cy="445.586593285203" r="5.0" fill="#0033A1" opacity="0.45"/><circle cx="470.9250931497663" cy="444.5314679145813" r="4.8" fill="#c084fc" opacity="0.43"/><circle cx="519.0891651362181" cy="442.3213356435299" r="4.2" fill="#1A5BC4" opacity="0.37"/><circle cx="547.7355617843568" cy="442.8630937244743" r="3.8" fill="#c084fc" opacity="0.33"/><circle cx="573.0315276533365" cy="444.5712461024523" r="3.3" fill="#1A5BC4" opacity="0.28"/><circle cx="591.6157099790871" cy="444.6536690928042" r="2.8" fill="#c084fc" opacity="0.23"/><circle cx="618.5598774887621" cy="445.10250802338123" r="2.3" fill="#1A5BC4" opacity="0.18"/><circle cx="868.1033643838018" cy="446.4626575484872" r="2.4" fill="#c084fc" opacity="0.19"/><circle cx="1043.7182748038322" cy="448.45922792702913" r="5.0" fill="#c084fc" opacity="0.45"/><circle cx="22.406008223071694" cy="471.7471593283117" r="1.5" fill="#1A5BC4" opacity="0.10"/><circle cx="342.4726073835045" cy="468.25470275618136" r="4.6" fill="#a855f7" opacity="0.41"/><circle cx="366.1840603109449" cy="471.23897351138294" r="4.8" fill="#3b82f6" opacity="0.43"/><circle cx="397.63630039431155" cy="467.09214303828776" r="5.0" fill="#c084fc" opacity="0.45"/><circle cx="448.7205455135554" cy="468.80043466202915" r="4.9" fill="#0033A1" opacity="0.44"/><circle cx="896.0297083687037" cy="469.6078566759825" r="3.3" fill="#c084fc" opacity="0.28"/><circle cx="992.7773285247386" cy="472.2529721558094" r="4.8" fill="#0033A1" opacity="0.43"/><circle cx="1019.2798889912665" cy="471.6459633819759" r="5.0" fill="#0033A1" opacity="0.45"/><circle cx="1066.0489270314574" cy="471.360524719581" r="4.9" fill="#c084fc" opacity="0.44"/><circle cx="1094.290856776759" cy="471.0743102505803" r="4.7" fill="#0033A1" opacity="0.42"/><circle cx="1193.1952513437718" cy="470.34706573560834" r="3.0" fill="#a855f7" opacity="0.25"/><circle cx="223.46409690752625" cy="493.35165530256927" r="2.8" fill="#c084fc" opacity="0.23"/><circle cx="241.97003724984825" cy="493.98554399237037" r="3.3" fill="#a855f7" opacity="0.28"/><circle cx="273.5590697154403" cy="498.16154495440423" r="3.7" fill="#3b82f6" opacity="0.32"/><circle cx="348.53415259718895" cy="491.53975344635546" r="4.8" fill="#1A5BC4" opacity="0.43"/><circle cx="370.607709499076" cy="493.05561061762273" r="5.0" fill="#1A5BC4" opacity="0.45"/><circle cx="398.49281770177186" cy="495.2019026633352" r="5.0" fill="#a855f7" opacity="0.45"/><circle cx="446.91030767932534" cy="492.3535402715206" r="4.7" fill="#3b82f6" opacity="0.42"/><circle cx="946.04205821082" cy="494.0335107240826" r="4.5" fill="#0033A1" opacity="0.40"/><circle cx="968.0405338928103" cy="497.44135573133826" r="4.8" fill="#3b82f6" opacity="0.43"/><circle cx="998.0556185450405" cy="498.76179935596883" r="4.9" fill="#c084fc" opacity="0.44"/><circle cx="1021.4404333848506" cy="494.01012410223484" r="5.0" fill="#c084fc" opacity="0.45"/><circle cx="1095.562877284363" cy="494.7767926007509" r="4.4" fill="#1A5BC4" opacity="0.39"/><circle cx="1123.7794012967497" cy="498.3734167236835" r="4.0" fill="#1A5BC4" opacity="0.35"/><circle cx="1198.7093994040042" cy="491.54629408568144" r="2.6" fill="#0033A1" opacity="0.21"/><circle cx="168.41978592984378" cy="518.6257195044309" r="2.2" fill="#0033A1" opacity="0.17"/><circle cx="219.1002029273659" cy="523.0488704554737" r="3.2" fill="#0033A1" opacity="0.27"/><circle cx="269.3270587641746" cy="521.026482462883" r="4.1" fill="#a855f7" opacity="0.36"/><circle cx="293.40481294319034" cy="516.0786869190633" r="4.5" fill="#a855f7" opacity="0.40"/><circle cx="318.2425098493695" cy="516.3529415279627" r="4.8" fill="#3b82f6" opacity="0.43"/><circle cx="345.0698157493025" cy="523.8714741952717" r="4.9" fill="#c084fc" opacity="0.44"/><circle cx="398.898360196501" cy="521.4238277245313" r="4.9" fill="#3b82f6" opacity="0.44"/><circle cx="416.1089999862015" cy="519.8906676508486" r="4.7" fill="#a855f7" opacity="0.42"/><circle cx="471.66840505599976" cy="516.5219140090048" r="4.1" fill="#3b82f6" opacity="0.36"/><circle cx="544.994480099529" cy="523.1437794510275" r="2.6" fill="#3b82f6" opacity="0.21"/><circle cx="818.4958470761776" cy="520.0814533326775" r="2.6" fill="#a855f7" opacity="0.21"/><circle cx="873.4561820961535" cy="523.5700306985527" r="3.6" fill="#1A5BC4" opacity="0.31"/><circle cx="892.2540178894997" cy="517.2536990251392" r="4.0" fill="#1A5BC4" opacity="0.35"/><circle cx="1046.267783632502" cy="520.3403664194047" r="4.8" fill="#1A5BC4" opacity="0.43"/><circle cx="1070.3234380334616" cy="519.6096781473607" r="4.5" fill="#c084fc" opacity="0.40"/><circle cx="1118.9143863078207" cy="516.2399962581694" r="3.7" fill="#1A5BC4" opacity="0.32"/><circle cx="1147.4774614144117" cy="518.3542243391275" r="3.2" fill="#a855f7" opacity="0.27"/><circle cx="196.69742975197732" cy="542.0612924136221" r="3.1" fill="#1A5BC4" opacity="0.26"/><circle cx="248.54927340894938" cy="543.42828601785" r="4.0" fill="#3b82f6" opacity="0.35"/><circle cx="292.2191371023655" cy="543.2326984368265" r="4.7" fill="#3b82f6" opacity="0.42"/><circle cx="316.3932723160833" cy="548.4815570879728" r="4.9" fill="#c084fc" opacity="0.44"/><circle cx="369.77046559005976" cy="547.2125989831984" r="5.0" fill="#c084fc" opacity="0.45"/><circle cx="397.9625777732581" cy="544.362278835848" r="4.8" fill="#3b82f6" opacity="0.43"/><circle cx="470.4776424188167" cy="546.9911962039769" r="3.7" fill="#0033A1" opacity="0.32"/><circle cx="493.21995537541807" cy="548.9000960644335" r="3.2" fill="#c084fc" opacity="0.27"/><circle cx="566.746287683025" cy="542.4524677079171" r="1.8" fill="#3b82f6" opacity="0.13"/><circle cx="795.9647300615907" cy="544.4222906697541" r="2.5" fill="#3b82f6" opacity="0.20"/><circle cx="898.5879950001836" cy="547.7278509549797" r="4.4" fill="#0033A1" opacity="0.39"/><circle cx="941.8204780519009" cy="542.1860769297928" r="4.9" fill="#c084fc" opacity="0.44"/><circle cx="971.9123557247221" cy="547.1882566157728" r="5.0" fill="#3b82f6" opacity="0.45"/><circle cx="996.4783947616816" cy="543.6230632606894" r="5.0" fill="#3b82f6" opacity="0.45"/><circle cx="1044.9696811903268" cy="547.53102453053" r="4.6" fill="#a855f7" opacity="0.41"/><circle cx="1069.7027824427933" cy="541.45448163338" r="4.2" fill="#3b82f6" opacity="0.37"/><circle cx="1121.6540106870234" cy="547.4558585565537" r="3.3" fill="#c084fc" opacity="0.28"/><circle cx="194.86452137678862" cy="572.1055347193033" r="3.4" fill="#3b82f6" opacity="0.29"/><circle cx="223.1703424230218" cy="568.459339639172" r="3.9" fill="#a855f7" opacity="0.34"/><circle cx="248.02008190751076" cy="569.4397401995957" r="4.3" fill="#c084fc" opacity="0.38"/><circle cx="273.82549872249365" cy="573.2846952471882" r="4.7" fill="#1A5BC4" opacity="0.42"/><circle cx="296.7113568726927" cy="572.7404743432999" r="4.9" fill="#0033A1" opacity="0.44"/><circle cx="323.4482328929007" cy="571.6886997744441" r="5.0" fill="#1A5BC4" opacity="0.45"/><circle cx="344.826264988631" cy="568.2082291804254" r="5.0" fill="#c084fc" opacity="0.45"/><circle cx="448.00507799722254" cy="568.6370402649045" r="3.8" fill="#3b82f6" opacity="0.33"/><circle cx="496.7213193997741" cy="569.3324479907751" r="2.8" fill="#3b82f6" opacity="0.23"/><circle cx="519.2961332369596" cy="572.760079452768" r="2.3" fill="#0033A1" opacity="0.18"/><circle cx="896.8342703823" cy="568.142492627725" r="4.6" fill="#1A5BC4" opacity="0.41"/><circle cx="923.4856855142862" cy="573.230277063325" r="4.9" fill="#0033A1" opacity="0.44"/><circle cx="947.8255678154528" cy="570.615236196667" r="5.0" fill="#3b82f6" opacity="0.45"/><circle cx="973.6305698435754" cy="570.0544562805444" r="5.0" fill="#a855f7" opacity="0.45"/><circle cx="997.063529798761" cy="569.3099873047322" r="4.9" fill="#a855f7" opacity="0.44"/><circle cx="1020.7818374428898" cy="568.9881836883724" r="4.6" fill="#a855f7" opacity="0.41"/><circle cx="1117.412060936913" cy="568.7977071776986" r="2.9" fill="#0033A1" opacity="0.24"/><circle cx="167.67302661202848" cy="598.6153537482023" r="3.4" fill="#a855f7" opacity="0.29"/><circle cx="221.29150682501495" cy="597.9102271739393" r="4.3" fill="#3b82f6" opacity="0.38"/><circle cx="266.2598861437291" cy="594.5941149238497" r="4.8" fill="#a855f7" opacity="0.43"/><circle cx="341.18131006136537" cy="592.2828645501286" r="4.9" fill="#3b82f6" opacity="0.44"/><circle cx="370.9642771631479" cy="593.9619313459843" r="4.6" fill="#1A5BC4" opacity="0.41"/><circle cx="467.67312463372946" cy="591.303436877206" r="2.9" fill="#a855f7" opacity="0.24"/><circle cx="518.9045440647751" cy="595.0786575209349" r="2.0" fill="#0033A1" opacity="0.15"/><circle cx="772.9959237538278" cy="595.4575372636318" r="2.8" fill="#0033A1" opacity="0.23"/><circle cx="848.9270528759807" cy="594.643465263769" r="4.2" fill="#0033A1" opacity="0.37"/><circle cx="868.4713248219341" cy="593.4998982381076" r="4.6" fill="#c084fc" opacity="0.41"/><circle cx="946.7344556897879" cy="591.0799538139254" r="5.0" fill="#1A5BC4" opacity="0.45"/><circle cx="967.6216183509678" cy="595.0851087123156" r="4.9" fill="#a855f7" opacity="0.44"/><circle cx="991.3505019806325" cy="591.5671910271049" r="4.7" fill="#3b82f6" opacity="0.42"/><circle cx="1019.8030065055937" cy="595.5382567811757" r="4.4" fill="#a855f7" opacity="0.39"/><circle cx="1094.9418664965779" cy="594.7087995000184" r="3.0" fill="#c084fc" opacity="0.25"/><circle cx="1146.388456074521" cy="595.8849410898983" r="2.0" fill="#a855f7" opacity="0.15"/><circle cx="46.23971638828516" cy="616.7761885523796" r="1.5" fill="#a855f7" opacity="0.10"/><circle cx="168.45209528692067" cy="622.6080825030804" r="3.7" fill="#3b82f6" opacity="0.32"/><circle cx="218.92317953146994" cy="622.8361508157104" r="4.5" fill="#a855f7" opacity="0.40"/><circle cx="241.6484790276736" cy="617.6388926617801" r="4.8" fill="#0033A1" opacity="0.43"/><circle cx="270.3864448554814" cy="619.0157731845975" r="5.0" fill="#3b82f6" opacity="0.45"/><circle cx="322.52807772904634" cy="621.3855396360159" r="4.9" fill="#1A5BC4" opacity="0.44"/><circle cx="341.52994498983026" cy="618.4142200052738" r="4.7" fill="#1A5BC4" opacity="0.42"/><circle cx="391.6902702730149" cy="616.5321274194866" r="4.0" fill="#3b82f6" opacity="0.35"/><circle cx="417.37574889324605" cy="618.3761734273285" r="3.5" fill="#a855f7" opacity="0.30"/><circle cx="748.4807325676084" cy="623.9582511875778" r="2.7" fill="#3b82f6" opacity="0.22"/><circle cx="817.3061434756964" cy="623.572723057121" r="4.1" fill="#c084fc" opacity="0.36"/><circle cx="841.9016077183187" cy="619.700941151008" r="4.5" fill="#0033A1" opacity="0.40"/><circle cx="873.7298562396318" cy="621.7797147799283" r="4.8" fill="#0033A1" opacity="0.43"/><circle cx="894.2577373310924" cy="617.8603260889649" r="4.9" fill="#0033A1" opacity="0.44"/><circle cx="969.6329755559564" cy="622.0853927098215" r="4.7" fill="#c084fc" opacity="0.42"/><circle cx="994.5619505904615" cy="620.5905313640833" r="4.4" fill="#1A5BC4" opacity="0.39"/><circle cx="1046.951419338584" cy="622.4104712642729" r="3.6" fill="#a855f7" opacity="0.31"/></g>

  <!-- Gradient overlay -->
  <rect width="1200" height="630" fill="url(#overlay)"/>
  <rect width="1200" height="120" fill="url(#topFade)"/>

  <!-- Dot pattern subtle -->
  <pattern id="dots" width="40" height="40" patternUnits="userSpaceOnUse">
    <circle cx="20" cy="20" r="0.8" fill="white" opacity="0.04"/>
  </pattern>
  <rect width="1200" height="630" fill="url(#dots)"/>




</svg>