<svg xmlns="http://www.w3.org/2000/svg" width="1200" height="630" viewBox="0 0 1200 630">
  <defs>
    <linearGradient id="overlay" x1="0" y1="1" x2="0" y2="0">
      <stop offset="0%" stop-color="#001D5C" stop-opacity="0.95"/>
      <stop offset="45%" stop-color="#001D5C" stop-opacity="0.7"/>
      <stop offset="75%" stop-color="#001D5C" stop-opacity="0.2"/>
      <stop offset="100%" stop-color="#001D5C" stop-opacity="0"/>
    </linearGradient>
    <linearGradient id="topFade" x1="0" y1="0" x2="0" y2="1">
      <stop offset="0%" stop-color="#001D5C" stop-opacity="0.3"/>
      <stop offset="100%" stop-color="#001D5C" stop-opacity="0"/>
    </linearGradient>
  </defs>

  <!-- Background -->
  <rect width="1200" height="630" fill="#001D5C"/>

  <!-- Generative pattern -->
  <g><path d="M273.7,405.5 L267.7,405.4 L261.7,405.0 L255.7,404.3 L249.8,403.3 L243.9,402.0 L238.2,400.3 L232.6,398.2 L227.1,395.7 L221.8,392.9 L216.8,389.6 L212.0,386.0 L207.6,381.9 L203.5,377.6 L199.7,372.9 L196.4,367.8 L193.6,362.6 L191.2,357.0 L189.4,351.3 L188.0,345.5 L187.1,339.6 L186.8,333.6 L186.9,327.6 L187.5,321.6 L188.6,315.7 L190.2,309.9 L192.1,304.2 L194.5,298.7 L197.2,293.3 L200.2,288.2 L203.5,283.2 L207.1,278.4 L210.9,273.8 L215.0,269.3 L219.2,265.1 L223.6,261.0 L228.2,257.1 L232.8,253.3 L237.6,249.6 L242.4,246.1 L247.4,242.7" fill="none" stroke="#a855f7" stroke-width="3.3" opacity="0.32"/><path d="M856.7,57.1 L851.1,54.9 L845.6,52.5 L840.2,49.9 L834.9,47.1 L829.7,44.1 L824.6,40.9 L819.6,37.5 L814.8,33.9 L810.2,30.1 L805.7,26.1 L801.3,22.0 L797.1,17.7 L793.1,13.3 L789.2,8.7 L785.5,3.9 L782.0,-0.9 L778.6,-5.9 L775.4,-10.9 L772.4,-16.1 L769.5,-21.4 L766.7,-26.7 L764.1,-32.1 L761.6,-37.5 L759.3,-43.1 L757.0,-48.6 L754.9,-54.2 L752.9,-59.9 L751.0,-65.6 L749.2,-71.3 L747.5,-77.1 L745.9,-82.8 L744.3,-88.6 L742.9,-94.5 L741.5,-100.3 L740.2,-106.2 L738.9,-112.0 L737.8,-117.9 L736.6,-123.8 L735.6,-129.7 L734.6,-135.6" fill="none" stroke="#3b82f6" stroke-width="0.9" opacity="0.20"/><path d="M526.4,116.6 L520.5,116.8 L514.5,116.3 L508.6,115.1 L502.9,113.2 L497.4,110.8 L492.2,107.7 L487.4,104.2 L482.9,100.2 L478.8,95.9 L475.0,91.2 L471.6,86.3 L468.5,81.1 L465.7,75.8 L463.2,70.4 L460.9,64.8 L458.8,59.2 L456.9,53.5 L455.2,47.8 L453.6,42.0 L452.1,36.2 L450.6,30.3 L449.3,24.5 L447.9,18.7 L446.6,12.8 L445.3,6.9 L444.0,1.1 L442.7,-4.8 L441.3,-10.6 L439.9,-16.4 L438.5,-22.3 L436.9,-28.1 L435.4,-33.9 L433.7,-39.6 L431.9,-45.4 L430.1,-51.1 L428.2,-56.7 L426.1,-62.4 L424.0,-68.0 L421.7,-73.5 L419.3,-79.1" fill="none" stroke="#0033A1" stroke-width="0.7" opacity="0.38"/><path d="M996.7,488.4 L991.4,485.5 L985.9,483.1 L980.2,481.4 L974.3,480.2 L968.3,479.7 L962.3,479.7 L956.3,480.3 L950.5,481.5 L944.7,483.1 L939.0,485.1 L933.6,487.6 L928.3,490.4 L923.2,493.5 L918.2,497.0 L913.5,500.7 L909.0,504.6 L904.6,508.8 L900.5,513.1 L896.5,517.6 L892.8,522.3 L889.2,527.1 L885.7,532.0 L882.5,537.0 L879.4,542.2 L876.5,547.5 L873.8,552.8 L871.2,558.2 L868.8,563.7 L866.5,569.3 L864.4,574.9 L862.4,580.5 L860.6,586.2 L858.9,592.0 L857.3,597.8 L855.8,603.6 L854.5,609.5 L853.3,615.3 L852.2,621.2 L851.2,627.1 L850.3,633.1" fill="none" stroke="#a855f7" stroke-width="3.0" opacity="0.10"/><path d="M121.4,106.2 L126.0,102.4 L130.8,98.8 L135.7,95.3 L140.7,92.1 L145.9,88.9 L151.1,86.0 L156.4,83.3 L161.9,80.7 L167.3,78.2 L172.9,76.0 L178.5,73.9 L184.2,72.0 L189.9,70.2 L195.7,68.6 L201.5,67.1 L207.4,65.7 L213.2,64.4 L219.1,63.2 L225.0,62.2 L230.9,61.2 L236.9,60.2 L242.8,59.3 L248.7,58.4 L254.7,57.6 L260.6,56.7 L266.5,55.8 L272.5,54.9 L278.4,53.9 L284.3,52.8 L290.1,51.6 L296.0,50.3 L301.8,48.8 L307.6,47.2 L313.3,45.5 L319.0,43.5 L324.6,41.3 L330.1,38.9 L335.5,36.3 L340.8,33.5 L345.9,30.4" fill="none" stroke="#3b82f6" stroke-width="1.1" opacity="0.27"/><path d="M241.1,263.2 L245.4,259.0 L249.8,254.9 L254.3,251.0 L258.9,247.1 L263.6,243.4 L268.3,239.7 L273.1,236.1 L278.0,232.5 L282.8,229.0 L287.7,225.5 L292.6,222.0 L297.5,218.5 L302.3,215.0 L307.2,211.5 L312.0,208.0 L316.8,204.4 L321.6,200.8 L326.4,197.1 L331.1,193.3 L335.7,189.5 L340.3,185.7 L344.8,181.7 L349.2,177.7 L353.6,173.5 L357.9,169.3 L362.1,165.1 L366.2,160.7 L370.2,156.2 L374.1,151.7 L377.9,147.0 L381.6,142.3 L385.2,137.5 L388.6,132.6 L392.0,127.6 L395.2,122.5 L398.2,117.4 L401.2,112.1 L404.0,106.8 L406.7,101.5 L409.2,96.0" fill="none" stroke="#a855f7" stroke-width="0.7" opacity="0.33"/><path d="M589.3,2.1 L587.8,7.9 L586.1,13.7 L584.1,19.3 L581.9,24.9 L579.3,30.3 L576.3,35.5 L573.1,40.6 L569.4,45.3 L565.4,49.8 L561.0,53.9 L556.3,57.6 L551.2,60.7 L545.8,63.4 L540.1,65.4 L534.3,66.8 L528.3,67.5 L522.3,67.5 L516.4,66.9 L510.5,65.5 L504.9,63.5 L499.5,60.9 L494.3,57.8 L489.5,54.2 L485.0,50.3 L480.8,46.0 L477.0,41.4 L473.4,36.6 L470.1,31.6 L467.0,26.4 L464.1,21.2 L461.4,15.8 L458.9,10.4 L456.5,4.9 L454.2,-0.7 L451.9,-6.3 L449.8,-11.8 L447.6,-17.5 L445.5,-23.1 L443.4,-28.7 L441.3,-34.3" fill="none" stroke="#0033A1" stroke-width="2.2" opacity="0.26"/><path d="M938.1,209.1 L941.4,204.1 L944.3,198.8 L946.8,193.4 L948.9,187.7 L950.4,181.9 L951.4,176.0 L951.9,170.0 L951.7,164.0 L950.9,158.1 L949.6,152.2 L947.6,146.6 L945.2,141.1 L942.2,135.9 L938.8,130.9 L935.1,126.2 L931.0,121.8 L926.7,117.7 L922.1,113.8 L917.3,110.1 L912.5,106.7 L907.4,103.4 L902.4,100.2 L897.2,97.1 L892.0,94.1 L886.8,91.2 L881.5,88.3 L876.3,85.4 L871.0,82.4 L865.8,79.5 L860.6,76.5 L855.5,73.4 L850.4,70.3 L845.3,67.0 L840.3,63.7 L835.4,60.2 L830.6,56.7 L825.9,53.0 L821.2,49.2 L816.7,45.2 L812.3,41.2" fill="none" stroke="#c084fc" stroke-width="1.1" opacity="0.15"/><path d="M265.4,627.7 L266.0,621.7 L267.4,615.9 L269.4,610.2 L271.9,604.8 L274.9,599.6 L278.4,594.7 L282.1,590.0 L286.2,585.6 L290.5,581.4 L295.1,577.5 L299.8,573.7 L304.6,570.2 L309.5,566.8 L314.5,563.5 L319.7,560.4 L324.8,557.3 L330.1,554.4 L335.3,551.5 L340.7,548.8 L346.0,546.0 L351.4,543.4 L356.8,540.8 L362.2,538.2 L367.7,535.7 L373.1,533.2 L378.6,530.7 L384.1,528.3 L389.6,525.9 L395.1,523.5 L400.6,521.1 L406.1,518.8 L411.6,516.4 L417.2,514.1 L422.7,511.8 L428.2,509.5 L433.8,507.2 L439.3,504.9 L444.9,502.7 L450.5,500.4 L456.0,498.2" fill="none" stroke="#1A5BC4" stroke-width="3.4" opacity="0.22"/><path d="M99.4,127.9 L103.3,123.4 L107.3,118.9 L111.5,114.6 L115.8,110.4 L120.3,106.4 L124.9,102.6 L129.6,98.9 L134.5,95.4 L139.5,92.1 L144.6,88.9 L149.8,85.9 L155.0,83.1 L160.4,80.4 L165.9,77.9 L171.4,75.6 L177.0,73.5 L182.7,71.5 L188.4,69.6 L194.1,67.9 L199.9,66.3 L205.8,64.9 L211.6,63.6 L217.5,62.3 L223.4,61.2 L229.3,60.1 L235.2,59.1 L241.1,58.2 L247.0,57.3 L253.0,56.4 L258.9,55.5 L264.8,54.5 L270.8,53.6 L276.7,52.5 L282.6,51.4 L288.4,50.2 L294.3,48.9 L300.1,47.5 L305.9,45.9 L311.6,44.1 L317.3,42.2" fill="none" stroke="#3b82f6" stroke-width="2.9" opacity="0.22"/><path d="M909.0,596.3 L903.3,598.3 L897.9,600.8 L892.7,603.9 L887.9,607.4 L883.3,611.4 L879.1,615.7 L875.3,620.3 L871.8,625.1 L868.6,630.2 L865.7,635.5 L863.2,640.9 L860.9,646.4 L858.8,652.1 L857.0,657.8 L855.5,663.6 L854.1,669.5 L853.0,675.3 L852.0,681.3 L851.2,687.2 L850.5,693.2 L850.0,699.2 L849.6,705.1 L849.3,711.1 L849.2,717.1 L849.1,723.1 L849.1,729.1 L849.2,735.1 L849.4,741.1 L849.7,747.1 L850.0,753.1 L850.4,759.1 L850.8,765.1 L851.3,771.1 L851.9,777.0 L852.5,783.0 L853.1,789.0 L853.8,794.9 L854.5,800.9 L855.3,806.8 L856.1,812.8" fill="none" stroke="#0033A1" stroke-width="2.5" opacity="0.39"/><path d="M46.8,104.2 L46.2,98.3 L45.4,92.3 L44.4,86.4 L43.1,80.6 L41.5,74.8 L39.5,69.1 L37.2,63.6 L34.5,58.2 L31.4,53.1 L27.9,48.2 L23.9,43.7 L19.6,39.6 L14.8,35.9 L9.7,32.8 L4.2,30.3 L-1.4,28.3 L-7.3,27.0 L-13.3,26.3 L-19.3,26.2 L-25.2,26.7 L-31.1,27.8 L-36.9,29.5 L-42.5,31.6 L-48.0,34.1 L-53.2,37.1 L-58.2,40.4 L-62.9,44.0 L-67.5,47.9 L-71.8,52.1 L-75.9,56.5 L-79.7,61.1 L-83.3,65.9 L-86.7,70.9 L-89.9,76.0 L-92.9,81.2 L-95.7,86.5 L-98.3,91.9 L-100.7,97.4 L-102.9,103.0 L-104.9,108.6" fill="none" stroke="#a855f7" stroke-width="2.4" opacity="0.31"/><path d="M212.9,312.8 L214.6,307.0 L216.6,301.3 L219.0,295.8 L221.7,290.5 L224.8,285.3 L228.1,280.3 L231.7,275.5 L235.5,270.9 L239.5,266.4 L243.6,262.1 L247.9,257.9 L252.4,253.8 L256.9,249.9 L261.5,246.0 L266.2,242.3 L270.9,238.6 L275.7,235.0 L280.5,231.4 L285.4,227.9 L290.2,224.4 L295.1,220.8 L299.9,217.3 L304.8,213.8 L309.6,210.3 L314.4,206.7 L319.2,203.0 L324.0,199.4 L328.7,195.6 L333.3,191.9 L337.9,188.0 L342.5,184.1 L346.9,180.1 L351.3,176.0 L355.6,171.8 L359.9,167.6 L364.0,163.2 L368.1,158.8 L372.0,154.3 L375.9,149.7 L379.6,145.0" fill="none" stroke="#c084fc" stroke-width="2.6" opacity="0.32"/><path d="M559.9,519.1 L562.5,513.6 L565.4,508.4 L568.7,503.4 L572.3,498.6 L576.1,494.0 L580.2,489.6 L584.6,485.4 L589.1,481.5 L593.8,477.7 L598.6,474.2 L603.5,470.8 L608.6,467.6 L613.8,464.5 L619.0,461.6 L624.3,458.8 L629.7,456.2 L635.2,453.7 L640.7,451.3 L646.3,449.1 L651.9,447.0 L657.5,444.9 L663.2,443.1 L668.9,441.3 L674.7,439.6 L680.5,438.1 L686.3,436.7 L692.2,435.4 L698.1,434.2 L704.0,433.2 L709.9,432.4 L715.9,431.6 L721.9,431.1 L727.9,430.7 L733.9,430.4 L739.9,430.4 L745.8,430.6 L751.8,431.0 L757.8,431.6 L763.7,432.5 L769.6,433.6" fill="none" stroke="#1A5BC4" stroke-width="1.7" opacity="0.19"/><path d="M460.2,307.8 L454.7,310.2 L449.1,312.3 L443.4,314.2 L437.6,315.8 L431.7,317.1 L425.8,318.0 L419.8,318.6 L413.8,318.7 L407.9,318.3 L401.9,317.5 L396.1,316.2 L390.4,314.3 L384.9,311.9 L379.7,308.9 L374.8,305.3 L370.4,301.3 L366.4,296.8 L363.0,291.9 L360.1,286.6 L357.8,281.1 L356.0,275.4 L354.8,269.5 L354.1,263.5 L353.9,257.5 L354.1,251.5 L354.8,245.6 L355.8,239.6 L357.1,233.8 L358.7,228.0 L360.5,222.3 L362.5,216.6 L364.7,211.0 L367.0,205.5 L369.4,200.0 L371.9,194.6 L374.5,189.2 L377.2,183.8 L379.9,178.4 L382.6,173.1 L385.3,167.7" fill="none" stroke="#1A5BC4" stroke-width="1.6" opacity="0.10"/><path d="M917.2,233.9 L921.9,230.2 L926.4,226.2 L930.8,222.1 L934.9,217.7 L938.8,213.2 L942.4,208.4 L945.7,203.4 L948.6,198.1 L951.2,192.7 L953.2,187.0 L954.8,181.3 L955.8,175.3 L956.2,169.4 L956.1,163.4 L955.3,157.4 L953.9,151.6 L952.0,145.9 L949.5,140.4 L946.5,135.2 L943.1,130.3 L939.2,125.7 L935.1,121.3 L930.7,117.3 L926.1,113.4 L921.3,109.8 L916.3,106.4 L911.3,103.2 L906.1,100.1 L900.9,97.1 L895.7,94.2 L890.4,91.4 L885.1,88.6 L879.8,85.8 L874.5,83.0 L869.2,80.1 L864.0,77.2 L858.7,74.3 L853.6,71.2 L848.4,68.1 L843.4,64.9" fill="none" stroke="#a855f7" stroke-width="3.5" opacity="0.10"/><path d="M546.4,135.2 L541.0,137.8 L535.4,139.9 L529.6,141.4 L523.6,142.4 L517.6,142.7 L511.7,142.3 L505.7,141.3 L500.0,139.6 L494.4,137.3 L489.2,134.4 L484.2,131.0 L479.7,127.1 L475.5,122.8 L471.7,118.2 L468.3,113.3 L465.2,108.1 L462.5,102.7 L460.1,97.2 L457.9,91.6 L456.1,85.9 L454.4,80.2 L452.9,74.4 L451.6,68.5 L450.4,62.6 L449.3,56.7 L448.3,50.8 L447.3,44.9 L446.4,39.0 L445.5,33.0 L444.6,27.1 L443.8,21.2 L442.9,15.2 L441.9,9.3 L441.0,3.4 L439.9,-2.5 L438.9,-8.4 L437.7,-14.3 L436.5,-20.2 L435.2,-26.1 L433.8,-31.9" fill="none" stroke="#0033A1" stroke-width="1.4" opacity="0.17"/><path d="M972.8,534.6 L967.6,531.6 L962.1,529.2 L956.4,527.4 L950.5,526.3 L944.5,525.8 L938.5,525.9 L932.6,526.6 L926.7,527.9 L921.0,529.7 L915.5,532.1 L910.2,534.8 L905.1,538.0 L900.2,541.6 L895.6,545.4 L891.3,549.6 L887.2,554.0 L883.4,558.6 L879.8,563.4 L876.5,568.4 L873.4,573.6 L870.5,578.8 L867.8,584.2 L865.4,589.7 L863.1,595.2 L861.0,600.8 L859.1,606.5 L857.4,612.3 L855.9,618.1 L854.5,623.9 L853.2,629.8 L852.1,635.7 L851.1,641.6 L850.2,647.5 L849.4,653.5 L848.8,659.4 L848.3,665.4 L847.8,671.4 L847.5,677.4 L847.2,683.4 L847.0,689.4" fill="none" stroke="#1A5BC4" stroke-width="1.5" opacity="0.39"/><path d="M1033.1,150.9 L1033.0,145.0 L1032.1,139.0 L1030.5,133.2 L1028.2,127.7 L1025.2,122.5 L1021.7,117.6 L1017.7,113.2 L1013.2,109.1 L1008.4,105.6 L1003.3,102.4 L998.0,99.6 L992.6,97.1 L987.0,94.9 L981.3,93.0 L975.5,91.4 L969.7,89.9 L963.8,88.5 L958.0,87.3 L952.1,86.2 L946.2,85.1 L940.3,84.0 L934.4,83.0 L928.5,81.9 L922.6,80.9 L916.7,79.8 L910.8,78.6 L904.9,77.3 L899.1,76.0 L893.2,74.6 L887.4,73.0 L881.7,71.4 L875.9,69.6 L870.3,67.6 L864.6,65.5 L859.1,63.3 L853.6,60.9 L848.2,58.3 L842.8,55.6 L837.6,52.7 L832.4,49.6" fill="none" stroke="#3b82f6" stroke-width="3.4" opacity="0.19"/><path d="M422.9,75.6 L424.3,69.8 L425.6,63.9 L426.7,58.0 L427.7,52.1 L428.6,46.1 L429.3,40.2 L430.0,34.2 L430.5,28.2 L430.8,22.3 L431.1,16.3 L431.1,10.3 L431.1,4.3 L430.9,-1.7 L430.6,-7.7 L430.1,-13.7 L429.5,-19.7 L428.8,-25.6 L427.9,-31.6 L426.9,-37.5 L425.7,-43.4 L424.4,-49.2 L422.9,-55.0 L421.3,-60.8 L419.5,-66.5 L417.6,-72.2 L415.5,-77.8 L413.3,-83.4 L410.9,-88.9 L408.3,-94.3 L405.6,-99.7 L402.7,-105.0 L399.7,-110.1 L396.5,-115.2 L393.1,-120.2 L389.5,-125.0 L385.8,-129.7 L381.9,-134.3 L377.9,-138.7 L373.7,-143.0 L369.3,-147.1" fill="none" stroke="#3b82f6" stroke-width="3.3" opacity="0.17"/><path d="M879.8,199.9 L881.9,194.3 L883.6,188.5 L884.8,182.7 L885.6,176.7 L885.9,170.7 L885.7,164.7 L885.0,158.8 L883.9,152.9 L882.3,147.1 L880.4,141.4 L878.0,135.9 L875.4,130.5 L872.4,125.3 L869.2,120.2 L865.8,115.2 L862.3,110.4 L858.5,105.7 L854.7,101.1 L850.7,96.6 L846.7,92.1 L842.7,87.7 L838.6,83.3 L834.5,78.9 L830.4,74.5 L826.3,70.1 L822.3,65.7 L818.3,61.2 L814.4,56.7 L810.5,52.1 L806.7,47.5 L803.0,42.8 L799.4,38.0 L795.8,33.1 L792.4,28.2 L789.0,23.2 L785.8,18.2 L782.7,13.0 L779.7,7.9 L776.8,2.6 L774.0,-2.7" fill="none" stroke="#1A5BC4" stroke-width="2.8" opacity="0.16"/><path d="M530.3,112.6 L524.3,113.1 L518.3,113.0 L512.4,112.2 L506.6,110.7 L500.9,108.6 L495.6,105.8 L490.5,102.6 L485.8,98.9 L481.5,94.7 L477.5,90.2 L473.9,85.5 L470.6,80.4 L467.6,75.2 L464.9,69.9 L462.5,64.4 L460.3,58.8 L458.2,53.2 L456.4,47.5 L454.7,41.7 L453.0,35.9 L451.5,30.1 L450.1,24.3 L448.7,18.5 L447.3,12.6 L445.9,6.8 L444.6,1.0 L443.2,-4.9 L441.8,-10.7 L440.3,-16.5 L438.8,-22.4 L437.3,-28.2 L435.7,-33.9 L434.0,-39.7 L432.2,-45.4 L430.4,-51.1 L428.4,-56.8 L426.3,-62.4 L424.2,-68.0 L421.9,-73.6 L419.5,-79.1" fill="none" stroke="#3b82f6" stroke-width="3.3" opacity="0.33"/><path d="M1150.9,174.3 L1156.8,173.5 L1162.8,173.0 L1168.8,172.8 L1174.8,172.9 L1180.8,173.3 L1186.7,174.1 L1192.6,175.3 L1198.3,177.0 L1203.9,179.2 L1209.3,181.9 L1214.3,185.2 L1218.9,189.0 L1223.0,193.4 L1226.6,198.2 L1229.5,203.5 L1231.6,209.1 L1233.0,214.9 L1233.6,220.9 L1233.5,226.9 L1232.6,232.8 L1231.0,238.6 L1228.9,244.2 L1226.1,249.6 L1223.0,254.7 L1219.4,259.5 L1215.4,264.0 L1211.2,268.3 L1206.8,272.3 L1202.1,276.1 L1197.3,279.7 L1192.4,283.1 L1187.4,286.4 L1182.2,289.5 L1177.1,292.5 L1171.8,295.4 L1166.5,298.3 L1161.2,301.0 L1155.8,303.8 L1150.5,306.4 L1145.1,309.1" fill="none" stroke="#a855f7" stroke-width="2.4" opacity="0.26"/><path d="M139.0,263.9 L142.7,259.2 L146.6,254.7 L150.8,250.3 L155.2,246.3 L159.8,242.4 L164.6,238.8 L169.5,235.5 L174.6,232.3 L179.9,229.4 L185.2,226.6 L190.6,224.0 L196.1,221.6 L201.7,219.4 L207.3,217.3 L213.0,215.3 L218.6,213.4 L224.4,211.5 L230.1,209.8 L235.8,208.0 L241.6,206.3 L247.4,204.7 L253.1,203.0 L258.9,201.3 L264.6,199.5 L270.3,197.7 L276.0,195.9 L281.7,193.9 L287.4,191.9 L293.0,189.8 L298.6,187.6 L304.1,185.2 L309.6,182.8 L315.0,180.2 L320.3,177.5 L325.6,174.7 L330.8,171.7 L336.0,168.6 L341.0,165.3 L345.9,161.9 L350.8,158.4" fill="none" stroke="#1A5BC4" stroke-width="0.5" opacity="0.13"/><path d="M270.3,368.0 L265.8,364.0 L261.7,359.6 L258.1,354.8 L255.0,349.7 L252.4,344.2 L250.4,338.6 L249.0,332.7 L248.2,326.8 L247.9,320.8 L248.1,314.8 L248.9,308.9 L250.1,303.0 L251.8,297.2 L253.8,291.6 L256.2,286.1 L258.9,280.7 L261.9,275.5 L265.2,270.5 L268.6,265.6 L272.3,260.8 L276.1,256.2 L280.0,251.6 L284.1,247.2 L288.2,242.9 L292.4,238.6 L296.7,234.4 L301.1,230.3 L305.5,226.2 L309.9,222.1 L314.3,218.0 L318.7,214.0 L323.1,209.9 L327.5,205.9 L331.9,201.8 L336.3,197.6 L340.6,193.5 L344.8,189.3 L349.1,185.0 L353.2,180.7 L357.3,176.3" fill="none" stroke="#0033A1" stroke-width="2.5" opacity="0.28"/><path d="M905.0,576.9 L899.7,579.6 L894.6,582.8 L889.8,586.4 L885.3,590.4 L881.1,594.7 L877.3,599.3 L873.7,604.1 L870.5,609.1 L867.5,614.4 L864.8,619.7 L862.4,625.2 L860.2,630.8 L858.3,636.5 L856.5,642.2 L855.0,648.0 L853.7,653.9 L852.5,659.8 L851.5,665.7 L850.7,671.6 L850.0,677.6 L849.4,683.6 L848.9,689.5 L848.6,695.5 L848.3,701.5 L848.2,707.5 L848.1,713.5 L848.1,719.5 L848.2,725.5 L848.4,731.5 L848.6,737.5 L848.9,743.5 L849.3,749.5 L849.7,755.5 L850.1,761.5 L850.7,767.4 L851.2,773.4 L851.8,779.4 L852.5,785.3 L853.2,791.3 L853.9,797.3" fill="none" stroke="#a855f7" stroke-width="0.9" opacity="0.20"/><path d="M823.4,458.5 L827.3,463.0 L831.0,467.8 L834.3,472.8 L837.2,478.1 L839.8,483.5 L842.1,489.0 L844.1,494.7 L845.7,500.4 L847.1,506.3 L848.2,512.2 L849.1,518.1 L849.7,524.1 L850.2,530.1 L850.4,536.1 L850.6,542.1 L850.6,548.1 L850.5,554.1 L850.3,560.1 L850.0,566.0 L849.7,572.0 L849.4,578.0 L849.0,584.0 L848.6,590.0 L848.2,596.0 L847.8,602.0 L847.4,608.0 L847.0,614.0 L846.7,619.9 L846.3,625.9 L846.0,631.9 L845.8,637.9 L845.5,643.9 L845.4,649.9 L845.2,655.9 L845.1,661.9 L845.0,667.9 L845.0,673.9 L845.0,679.9 L845.1,685.9 L845.2,691.9" fill="none" stroke="#0033A1" stroke-width="1.5" opacity="0.17"/><path d="M1112.1,395.7 L1107.8,391.4 L1103.1,387.7 L1098.0,384.5 L1092.6,381.9 L1087.0,379.8 L1081.2,378.3 L1075.3,377.4 L1069.3,376.9 L1063.3,376.9 L1057.3,377.3 L1051.4,378.1 L1045.5,379.3 L1039.6,380.7 L1033.9,382.5 L1028.2,384.5 L1022.7,386.7 L1017.2,389.1 L1011.8,391.7 L1006.4,394.4 L1001.2,397.3 L996.0,400.4 L990.9,403.5 L985.9,406.8 L980.9,410.2 L976.1,413.7 L971.3,417.3 L966.5,421.0 L961.9,424.8 L957.3,428.7 L952.8,432.6 L948.3,436.7 L944.0,440.8 L939.7,445.0 L935.5,449.2 L931.3,453.6 L927.3,458.0 L923.3,462.5 L919.4,467.1 L915.6,471.7 L911.9,476.4" fill="none" stroke="#0033A1" stroke-width="0.6" opacity="0.28"/><path d="M797.0,35.1 L793.6,30.2 L790.2,25.2 L787.0,20.2 L783.8,15.1 L780.8,9.9 L777.8,4.7 L775.0,-0.6 L772.3,-5.9 L769.7,-11.3 L767.2,-16.8 L764.8,-22.3 L762.5,-27.8 L760.3,-33.4 L758.2,-39.0 L756.1,-44.7 L754.2,-50.4 L752.4,-56.1 L750.6,-61.8 L749.0,-67.6 L747.4,-73.4 L745.8,-79.2 L744.4,-85.0 L743.0,-90.8 L741.6,-96.7 L740.4,-102.5 L739.2,-108.4 L738.0,-114.3 L736.9,-120.2 L735.9,-126.1 L734.9,-132.0 L733.9,-138.0 L733.0,-143.9 L732.2,-149.8 L731.4,-155.8 L730.6,-161.7 L729.9,-167.7 L729.2,-173.6 L728.6,-179.6 L728.0,-185.6 L727.5,-191.6" fill="none" stroke="#c084fc" stroke-width="1.1" opacity="0.19"/><path d="M74.1,566.8 L76.8,572.2 L79.8,577.4 L83.4,582.2 L87.3,586.8 L91.6,590.9 L96.3,594.7 L101.2,598.1 L106.5,601.1 L111.9,603.6 L117.5,605.8 L123.2,607.5 L129.1,608.8 L135.0,609.8 L141.0,610.4 L147.0,610.6 L153.0,610.6 L159.0,610.3 L164.9,609.7 L170.9,608.9 L176.8,607.8 L182.7,606.6 L188.5,605.2 L194.3,603.7 L200.1,602.1 L205.8,600.3 L211.5,598.4 L217.2,596.5 L222.9,594.5 L228.5,592.4 L234.1,590.3 L239.7,588.1 L245.3,585.9 L250.8,583.7 L256.4,581.4 L261.9,579.1 L267.5,576.8 L273.0,574.5 L278.5,572.2 L284.1,569.8 L289.6,567.5" fill="none" stroke="#1A5BC4" stroke-width="3.3" opacity="0.30"/><path d="M265.3,477.2 L264.1,483.1 L263.6,489.1 L263.8,495.1 L264.7,501.0 L266.5,506.7 L269.0,512.2 L272.2,517.2 L276.2,521.7 L280.7,525.7 L285.6,529.1 L291.0,531.8 L296.6,534.0 L302.4,535.6 L308.3,536.6 L314.2,537.2 L320.2,537.4 L326.2,537.2 L332.2,536.7 L338.2,535.9 L344.1,534.9 L350.0,533.7 L355.8,532.4 L361.6,530.9 L367.4,529.3 L373.1,527.6 L378.9,525.8 L384.6,523.9 L390.3,522.0 L395.9,520.0 L401.6,518.0 L407.2,516.0 L412.8,513.9 L418.5,511.8 L424.1,509.7 L429.7,507.6 L435.3,505.4 L440.9,503.3 L446.5,501.1 L452.1,499.0 L457.7,496.8" fill="none" stroke="#a855f7" stroke-width="2.3" opacity="0.39"/><path d="M129.2,617.4 L135.2,617.5 L141.1,617.2 L147.1,616.7 L153.1,616.0 L159.0,615.1 L164.9,613.9 L170.8,612.6 L176.6,611.2 L182.4,609.6 L188.1,607.9 L193.8,606.1 L199.5,604.2 L205.2,602.2 L210.8,600.2 L216.5,598.1 L222.1,595.9 L227.6,593.7 L233.2,591.5 L238.8,589.2 L244.3,586.9 L249.9,584.6 L255.4,582.3 L260.9,580.0 L266.4,577.6 L271.9,575.2 L277.5,572.9 L283.0,570.5 L288.5,568.1 L294.0,565.8 L299.5,563.4 L305.0,561.0 L310.5,558.6 L316.0,556.3 L321.5,553.9 L327.1,551.5 L332.6,549.2 L338.1,546.8 L343.6,544.4 L349.1,542.1 L354.6,539.7" fill="none" stroke="#0033A1" stroke-width="2.9" opacity="0.33"/><path d="M1046.0,29.2 L1041.3,33.0 L1036.5,36.5 L1031.5,39.8 L1026.3,42.9 L1021.1,45.7 L1015.7,48.4 L1010.2,50.9 L1004.7,53.2 L999.1,55.3 L993.4,57.3 L987.7,59.1 L981.9,60.7 L976.1,62.2 L970.2,63.5 L964.3,64.6 L958.4,65.6 L952.5,66.5 L946.5,67.2 L940.6,67.7 L934.6,68.1 L928.6,68.4 L922.6,68.4 L916.6,68.3 L910.6,68.1 L904.6,67.6 L898.6,67.0 L892.7,66.2 L886.8,65.3 L880.9,64.1 L875.0,62.8 L869.2,61.2 L863.5,59.5 L857.8,57.5 L852.2,55.4 L846.7,53.0 L841.3,50.5 L835.9,47.7 L830.7,44.8 L825.6,41.6 L820.6,38.2" fill="none" stroke="#c084fc" stroke-width="2.1" opacity="0.12"/><path d="M1158.4,233.8 L1160.3,239.5 L1161.4,245.4 L1161.7,251.4 L1161.2,257.4 L1160.0,263.3 L1158.1,269.0 L1155.7,274.5 L1152.7,279.7 L1149.4,284.7 L1145.7,289.4 L1141.7,293.9 L1137.5,298.1 L1133.1,302.2 L1128.5,306.1 L1123.8,309.8 L1119.0,313.4 L1114.1,316.9 L1109.2,320.3 L1104.2,323.6 L1099.1,326.8 L1094.0,330.1 L1088.9,333.2 L1083.8,336.4 L1078.7,339.5 L1073.6,342.6 L1068.5,345.8 L1063.4,348.9 L1058.2,352.0 L1053.1,355.2 L1048.1,358.4 L1043.0,361.6 L1037.9,364.8 L1032.9,368.1 L1027.9,371.4 L1022.9,374.7 L1017.9,378.1 L1013.0,381.5 L1008.1,385.0 L1003.3,388.5 L998.4,392.0" fill="none" stroke="#1A5BC4" stroke-width="1.6" opacity="0.27"/><path d="M167.1,533.6 L168.6,539.5 L170.8,545.0 L173.6,550.3 L177.1,555.2 L181.1,559.7 L185.6,563.6 L190.6,567.0 L195.9,569.9 L201.4,572.2 L207.1,573.9 L213.0,575.2 L218.9,576.1 L224.9,576.5 L230.9,576.5 L236.9,576.2 L242.9,575.7 L248.8,574.8 L254.7,573.8 L260.6,572.5 L266.4,571.1 L272.2,569.5 L278.0,567.8 L283.7,566.1 L289.4,564.2 L295.1,562.3 L300.7,560.2 L306.4,558.2 L312.0,556.1 L317.6,553.9 L323.2,551.8 L328.8,549.6 L334.4,547.4 L339.9,545.1 L345.5,542.9 L351.0,540.6 L356.6,538.4 L362.2,536.1 L367.7,533.8 L373.3,531.5 L378.8,529.3" fill="none" stroke="#c084fc" stroke-width="2.2" opacity="0.27"/><path d="M394.3,351.7 L388.4,353.1 L382.5,354.1 L376.6,354.8 L370.6,355.2 L364.6,355.2 L358.6,354.8 L352.7,354.0 L346.8,352.7 L341.1,351.0 L335.5,348.7 L330.2,345.8 L325.2,342.5 L320.6,338.7 L316.4,334.4 L312.8,329.6 L309.6,324.5 L307.1,319.1 L305.1,313.4 L303.7,307.6 L302.9,301.6 L302.6,295.7 L302.9,289.7 L303.6,283.7 L304.8,277.8 L306.3,272.0 L308.2,266.3 L310.4,260.7 L312.9,255.3 L315.6,249.9 L318.4,244.7 L321.5,239.5 L324.7,234.4 L328.0,229.4 L331.4,224.5 L334.9,219.6 L338.5,214.8 L342.1,209.9 L345.7,205.2 L349.3,200.4 L353.0,195.6" fill="none" stroke="#0033A1" stroke-width="2.1" opacity="0.32"/><path d="M631.3,511.9 L635.0,507.1 L638.9,502.6 L643.1,498.3 L647.4,494.2 L652.0,490.3 L656.8,486.6 L661.7,483.2 L666.8,480.0 L672.0,477.0 L677.3,474.3 L682.8,471.7 L688.3,469.4 L693.9,467.3 L699.6,465.5 L705.4,463.8 L711.2,462.4 L717.1,461.2 L723.0,460.3 L729.0,459.6 L735.0,459.1 L741.0,459.0 L747.0,459.1 L753.0,459.4 L758.9,460.1 L764.8,461.1 L770.7,462.5 L776.4,464.1 L782.1,466.1 L787.6,468.5 L793.0,471.2 L798.2,474.2 L803.1,477.6 L807.8,481.3 L812.3,485.4 L816.4,489.7 L820.2,494.3 L823.8,499.2 L827.0,504.2 L829.8,509.5 L832.4,514.9" fill="none" stroke="#c084fc" stroke-width="1.7" opacity="0.34"/><path d="M1094.3,3.8 L1090.6,8.4 L1086.5,12.9 L1082.3,17.1 L1077.8,21.1 L1073.2,24.9 L1068.4,28.5 L1063.4,31.9 L1058.4,35.1 L1053.2,38.2 L1047.9,41.0 L1042.6,43.7 L1037.1,46.3 L1031.6,48.7 L1026.1,51.0 L1020.5,53.1 L1014.8,55.1 L1009.1,56.9 L1003.4,58.7 L997.6,60.3 L991.8,61.8 L985.9,63.2 L980.1,64.4 L974.2,65.5 L968.3,66.5 L962.3,67.4 L956.4,68.1 L950.4,68.7 L944.4,69.2 L938.4,69.5 L932.4,69.7 L926.4,69.8 L920.4,69.7 L914.4,69.4 L908.4,69.0 L902.5,68.4 L896.5,67.7 L890.6,66.8 L884.7,65.7 L878.8,64.4 L873.0,62.9" fill="none" stroke="#a855f7" stroke-width="1.3" opacity="0.28"/><path d="M844.5,105.6 L841.2,100.6 L837.7,95.7 L834.3,90.8 L830.7,85.9 L827.1,81.1 L823.5,76.4 L819.9,71.6 L816.2,66.8 L812.6,62.0 L809.1,57.2 L805.6,52.3 L802.1,47.4 L798.7,42.5 L795.4,37.5 L792.1,32.4 L788.9,27.3 L785.9,22.2 L782.9,17.0 L780.0,11.7 L777.2,6.4 L774.4,1.1 L771.8,-4.3 L769.3,-9.8 L766.9,-15.3 L764.6,-20.8 L762.3,-26.4 L760.2,-32.0 L758.1,-37.6 L756.1,-43.3 L754.3,-49.0 L752.5,-54.7 L750.7,-60.4 L749.1,-66.2 L747.5,-72.0 L746.0,-77.8 L744.5,-83.6 L743.1,-89.4 L741.8,-95.3 L740.5,-101.2 L739.3,-107.0" fill="none" stroke="#3b82f6" stroke-width="3.0" opacity="0.37"/><path d="M137.1,628.6 L142.9,627.1 L148.7,625.5 L154.4,623.7 L160.2,621.9 L165.8,620.0 L171.5,618.0 L177.1,615.9 L182.7,613.7 L188.3,611.6 L193.9,609.3 L199.4,607.1 L205.0,604.8 L210.5,602.4 L216.0,600.1 L221.6,597.7 L227.1,595.4 L232.6,593.0 L238.1,590.6 L243.6,588.2 L249.1,585.7 L254.5,583.3 L260.0,580.9 L265.5,578.5 L271.0,576.1 L276.5,573.6 L282.0,571.2 L287.5,568.8 L293.0,566.4 L298.5,564.0 L304.0,561.6 L309.5,559.2 L315.0,556.8 L320.5,554.4 L326.0,552.1 L331.5,549.7 L337.0,547.3 L342.5,545.0 L348.1,542.6 L353.6,540.2 L359.1,537.9" fill="none" stroke="#c084fc" stroke-width="1.9" opacity="0.31"/><path d="M1118.8,210.2 L1124.4,212.4 L1129.8,215.0 L1134.8,218.2 L1139.4,222.1 L1143.6,226.4 L1147.1,231.3 L1149.8,236.6 L1151.9,242.3 L1153.1,248.1 L1153.5,254.1 L1153.1,260.1 L1152.0,266.0 L1150.2,271.7 L1147.8,277.2 L1144.9,282.5 L1141.7,287.5 L1138.0,292.3 L1134.1,296.8 L1129.9,301.1 L1125.5,305.3 L1121.0,309.2 L1116.4,313.0 L1111.6,316.6 L1106.8,320.2 L1101.8,323.6 L1096.9,327.0 L1091.9,330.3 L1086.8,333.6 L1081.8,336.8 L1076.7,340.0 L1071.6,343.2 L1066.6,346.4 L1061.5,349.6 L1056.4,352.8 L1051.3,356.0 L1046.2,359.2 L1041.2,362.4 L1036.2,365.7 L1031.2,369.0 L1026.2,372.3" fill="none" stroke="#0033A1" stroke-width="2.4" opacity="0.13"/><path d="M732.3,449.2 L738.3,449.0 L744.3,449.0 L750.3,449.3 L756.2,449.9 L762.2,450.7 L768.1,451.9 L773.9,453.4 L779.6,455.1 L785.2,457.2 L790.7,459.7 L796.0,462.5 L801.2,465.6 L806.1,469.0 L810.7,472.8 L815.1,476.9 L819.2,481.3 L823.0,485.9 L826.5,490.8 L829.6,495.9 L832.4,501.2 L834.9,506.7 L837.1,512.3 L839.0,518.0 L840.6,523.8 L841.9,529.6 L843.0,535.5 L843.9,541.5 L844.6,547.4 L845.1,553.4 L845.5,559.4 L845.8,565.4 L846.0,571.4 L846.0,577.4 L846.0,583.4 L846.0,589.4 L845.9,595.4 L845.7,601.4 L845.6,607.4 L845.4,613.4 L845.3,619.4" fill="none" stroke="#0033A1" stroke-width="0.9" opacity="0.35"/><path d="M978.5,496.0 L972.8,494.2 L966.9,493.0 L960.9,492.5 L954.9,492.5 L949.0,493.1 L943.1,494.3 L937.3,495.9 L931.7,498.1 L926.3,500.6 L921.0,503.5 L916.0,506.7 L911.1,510.3 L906.5,514.1 L902.1,518.1 L897.9,522.4 L893.9,526.9 L890.1,531.5 L886.5,536.3 L883.1,541.3 L879.8,546.3 L876.8,551.5 L874.0,556.8 L871.3,562.2 L868.8,567.6 L866.5,573.2 L864.3,578.8 L862.3,584.4 L860.4,590.1 L858.7,595.8 L857.1,601.6 L855.6,607.5 L854.3,613.3 L853.1,619.2 L852.0,625.1 L851.0,631.0 L850.2,636.9 L849.4,642.9 L848.7,648.9 L848.2,654.8 L847.7,660.8" fill="none" stroke="#0033A1" stroke-width="1.6" opacity="0.23"/><path d="M320.9,137.2 L326.6,135.4 L332.2,133.3 L337.7,130.9 L343.2,128.4 L348.5,125.6 L353.7,122.7 L358.8,119.5 L363.7,116.0 L368.5,112.4 L373.1,108.6 L377.5,104.5 L381.8,100.3 L385.9,95.9 L389.8,91.3 L393.4,86.6 L396.9,81.7 L400.2,76.7 L403.3,71.5 L406.1,66.2 L408.7,60.9 L411.2,55.4 L413.4,49.8 L415.4,44.1 L417.2,38.4 L418.8,32.6 L420.1,26.8 L421.3,20.9 L422.3,15.0 L423.0,9.0 L423.6,3.1 L424.0,-2.9 L424.2,-8.9 L424.2,-14.9 L424.0,-20.9 L423.6,-26.9 L423.1,-32.9 L422.4,-38.8 L421.4,-44.8 L420.4,-50.7 L419.1,-56.5" fill="none" stroke="#a855f7" stroke-width="1.4" opacity="0.24"/><path d="M653.6,69.2 L658.6,72.5 L663.9,75.4 L669.5,77.7 L675.2,79.4 L681.1,80.4 L687.1,80.8 L693.1,80.6 L699.0,79.6 L704.8,78.0 L710.4,75.8 L715.6,72.9 L720.6,69.5 L725.2,65.6 L729.3,61.3 L733.1,56.6 L736.4,51.6 L739.2,46.3 L741.7,40.9 L743.8,35.2 L745.5,29.5 L746.8,23.6 L747.9,17.7 L748.6,11.8 L749.1,5.8 L749.3,-0.2 L749.4,-6.2 L749.3,-12.2 L749.0,-18.2 L748.6,-24.2 L748.1,-30.2 L747.5,-36.1 L746.8,-42.1 L746.0,-48.0 L745.2,-54.0 L744.4,-59.9 L743.5,-65.9 L742.6,-71.8 L741.7,-77.7 L740.7,-83.6 L739.8,-89.6" fill="none" stroke="#3b82f6" stroke-width="1.8" opacity="0.39"/><path d="M213.3,224.1 L218.9,221.9 L224.5,219.7 L230.1,217.6 L235.8,215.6 L241.4,213.6 L247.1,211.6 L252.8,209.7 L258.4,207.7 L264.1,205.7 L269.8,203.7 L275.4,201.6 L281.0,199.5 L286.6,197.3 L292.1,195.0 L297.6,192.6 L303.1,190.1 L308.5,187.5 L313.9,184.8 L319.2,182.0 L324.4,179.1 L329.6,176.0 L334.6,172.8 L339.6,169.5 L344.5,166.1 L349.3,162.5 L354.0,158.7 L358.6,154.9 L363.1,150.9 L367.5,146.8 L371.7,142.5 L375.8,138.1 L379.8,133.7 L383.6,129.0 L387.3,124.3 L390.9,119.5 L394.3,114.5 L397.5,109.5 L400.6,104.3 L403.5,99.1 L406.3,93.8" fill="none" stroke="#0033A1" stroke-width="1.5" opacity="0.32"/><path d="M823.7,465.4 L827.5,470.0 L831.0,474.9 L834.1,480.0 L836.9,485.3 L839.4,490.8 L841.5,496.4 L843.3,502.1 L844.9,507.9 L846.1,513.8 L847.2,519.7 L848.0,525.7 L848.5,531.6 L849.0,537.6 L849.2,543.6 L849.3,549.6 L849.3,555.6 L849.2,561.6 L849.1,567.6 L848.9,573.6 L848.6,579.6 L848.3,585.6 L848.0,591.6 L847.6,597.6 L847.3,603.6 L846.9,609.6 L846.6,615.5 L846.3,621.5 L846.0,627.5 L845.7,633.5 L845.5,639.5 L845.3,645.5 L845.2,651.5 L845.0,657.5 L844.9,663.5 L844.9,669.5 L844.9,675.5 L844.9,681.5 L845.0,687.5 L845.2,693.5 L845.3,699.5" fill="none" stroke="#3b82f6" stroke-width="1.9" opacity="0.14"/><path d="M100.1,625.8 L106.1,626.2 L112.1,626.4 L118.1,626.3 L124.1,625.9 L130.1,625.3 L136.0,624.4 L141.9,623.4 L147.8,622.2 L153.7,620.9 L159.5,619.4 L165.3,617.8 L171.0,616.0 L176.7,614.2 L182.4,612.2 L188.0,610.2 L193.7,608.2 L199.3,606.1 L204.9,603.9 L210.5,601.7 L216.0,599.4 L221.6,597.1 L227.1,594.8 L232.6,592.5 L238.2,590.1 L243.7,587.8 L249.2,585.4 L254.7,583.0 L260.2,580.6 L265.7,578.2 L271.2,575.8 L276.7,573.4 L282.2,571.0 L287.7,568.6 L293.2,566.2 L298.7,563.8 L304.2,561.5 L309.7,559.1 L315.2,556.7 L320.7,554.3 L326.2,551.9" fill="none" stroke="#0033A1" stroke-width="3.1" opacity="0.22"/><path d="M618.8,574.9 L618.6,568.9 L618.8,562.9 L619.4,557.0 L620.4,551.1 L621.7,545.2 L623.4,539.5 L625.5,533.8 L628.0,528.4 L630.8,523.0 L633.9,517.9 L637.3,513.0 L641.0,508.3 L645.0,503.8 L649.3,499.5 L653.7,495.5 L658.3,491.7 L663.2,488.2 L668.2,484.8 L673.3,481.7 L678.6,478.9 L684.0,476.2 L689.4,473.8 L695.0,471.6 L700.7,469.7 L706.5,468.0 L712.3,466.5 L718.2,465.3 L724.1,464.3 L730.0,463.6 L736.0,463.2 L742.0,463.0 L748.0,463.2 L754.0,463.6 L760.0,464.3 L765.9,465.4 L771.7,466.8 L777.4,468.5 L783.1,470.6 L788.5,473.1 L793.9,475.9" fill="none" stroke="#3b82f6" stroke-width="1.5" opacity="0.15"/><path d="M177.9,443.2 L171.9,444.1 L166.0,445.0 L160.1,445.9 L154.1,446.9 L148.2,447.8 L142.3,448.8 L136.4,449.9 L130.5,451.0 L124.6,452.2 L118.8,453.5 L113.0,455.0 L107.2,456.6 L101.5,458.4 L95.8,460.4 L90.2,462.6 L84.8,465.1 L79.4,467.8 L74.2,470.9 L69.2,474.2 L64.4,477.8 L59.9,481.7 L55.6,485.9 L51.7,490.5 L48.1,495.3 L44.9,500.4 L42.1,505.7 L39.8,511.2 L37.9,516.9 L36.4,522.7 L35.5,528.6 L35.0,534.6 L35.0,540.6 L35.4,546.6 L36.3,552.5 L37.7,558.4 L39.5,564.1 L41.7,569.7 L44.3,575.1 L47.3,580.2 L50.7,585.2" fill="none" stroke="#1A5BC4" stroke-width="3.1" opacity="0.11"/><path d="M476.5,141.8 L472.3,137.5 L468.6,132.9 L465.2,127.9 L462.1,122.7 L459.5,117.3 L457.2,111.8 L455.1,106.2 L453.4,100.4 L451.8,94.6 L450.5,88.8 L449.3,82.9 L448.3,77.0 L447.4,71.1 L446.6,65.1 L445.9,59.2 L445.2,53.2 L444.5,47.2 L443.9,41.3 L443.2,35.3 L442.6,29.3 L441.9,23.4 L441.2,17.4 L440.5,11.5 L439.7,5.5 L438.8,-0.4 L437.9,-6.4 L436.9,-12.3 L435.8,-18.2 L434.6,-24.0 L433.3,-29.9 L432.0,-35.8 L430.5,-41.6 L428.9,-47.4 L427.2,-53.1 L425.4,-58.8 L423.4,-64.5 L421.3,-70.1 L419.1,-75.7 L416.8,-81.2 L414.3,-86.7" fill="none" stroke="#a855f7" stroke-width="1.9" opacity="0.20"/><path d="M599.6,84.1 L598.8,90.0 L597.9,96.0 L596.9,101.9 L595.8,107.8 L594.6,113.7 L593.3,119.5 L591.9,125.3 L590.3,131.1 L588.6,136.9 L586.8,142.6 L584.9,148.3 L582.8,153.9 L580.6,159.5 L578.2,165.0 L575.7,170.4 L573.0,175.8 L570.2,181.1 L567.2,186.3 L564.1,191.5 L560.8,196.5 L557.4,201.4 L553.8,206.2 L550.0,210.8 L546.1,215.4 L541.9,219.7 L537.6,223.9 L533.2,227.9 L528.5,231.7 L523.7,235.3 L518.7,238.6 L513.6,241.7 L508.2,244.5 L502.8,246.9 L497.1,249.0 L491.4,250.7 L485.5,251.9 L479.6,252.7 L473.6,253.0 L467.6,252.8 L461.6,252.0" fill="none" stroke="#1A5BC4" stroke-width="0.5" opacity="0.28"/><path d="M1186.6,405.9 L1186.5,399.9 L1185.8,394.0 L1184.7,388.1 L1182.9,382.4 L1180.5,376.8 L1177.6,371.6 L1174.2,366.7 L1170.2,362.2 L1165.8,358.1 L1161.0,354.5 L1155.8,351.5 L1150.4,348.9 L1144.8,346.9 L1139.0,345.3 L1133.1,344.2 L1127.1,343.6 L1121.1,343.4 L1115.1,343.6 L1109.1,344.1 L1103.2,344.9 L1097.3,346.0 L1091.4,347.3 L1085.6,348.9 L1079.9,350.7 L1074.2,352.6 L1068.6,354.8 L1063.1,357.0 L1057.6,359.4 L1052.1,361.9 L1046.7,364.6 L1041.4,367.3 L1036.1,370.1 L1030.9,373.1 L1025.7,376.1 L1020.5,379.2 L1015.4,382.4 L1010.4,385.6 L1005.4,388.9 L1000.4,392.3 L995.5,395.8" fill="none" stroke="#0033A1" stroke-width="2.2" opacity="0.11"/><path d="M217.6,75.5 L223.5,74.7 L229.5,74.0 L235.5,73.4 L241.4,72.8 L247.4,72.3 L253.4,71.7 L259.4,71.2 L265.3,70.7 L271.3,70.1 L277.3,69.4 L283.2,68.7 L289.2,67.9 L295.1,66.9 L301.0,65.9 L306.9,64.7 L312.7,63.3 L318.5,61.7 L324.2,59.9 L329.9,57.9 L335.4,55.6 L340.9,53.1 L346.2,50.4 L351.4,47.4 L356.5,44.2 L361.4,40.6 L366.0,36.9 L370.5,32.9 L374.7,28.6 L378.7,24.1 L382.4,19.4 L385.8,14.5 L389.0,9.4 L391.8,4.1 L394.4,-1.3 L396.7,-6.9 L398.6,-12.6 L400.3,-18.3 L401.6,-24.2 L402.7,-30.1 L403.4,-36.0" fill="none" stroke="#0033A1" stroke-width="3.0" opacity="0.30"/><path d="M504.8,99.8 L499.4,97.4 L494.1,94.4 L489.3,91.0 L484.7,87.0 L480.5,82.7 L476.7,78.1 L473.2,73.3 L470.0,68.2 L467.1,62.9 L464.5,57.5 L462.1,52.0 L459.8,46.5 L457.8,40.8 L455.9,35.1 L454.1,29.4 L452.4,23.7 L450.8,17.9 L449.2,12.1 L447.7,6.3 L446.1,0.5 L444.6,-5.3 L443.1,-11.1 L441.5,-16.9 L439.9,-22.7 L438.3,-28.5 L436.6,-34.2 L434.8,-40.0 L433.0,-45.7 L431.0,-51.3 L429.0,-57.0 L426.9,-62.6 L424.7,-68.2 L422.4,-73.7 L420.0,-79.2 L417.4,-84.6 L414.7,-90.0 L411.9,-95.3 L409.0,-100.5 L405.9,-105.7 L402.7,-110.8" fill="none" stroke="#0033A1" stroke-width="2.3" opacity="0.25"/><path d="M1095.8,333.8 L1090.4,336.5 L1085.1,339.3 L1079.8,342.1 L1074.5,344.9 L1069.2,347.7 L1063.9,350.6 L1058.7,353.6 L1053.5,356.6 L1048.3,359.6 L1043.2,362.7 L1038.1,365.8 L1033.0,369.0 L1027.9,372.2 L1022.9,375.5 L1017.9,378.8 L1012.9,382.2 L1008.0,385.6 L1003.1,389.1 L998.2,392.6 L993.4,396.2 L988.6,399.8 L983.9,403.5 L979.2,407.2 L974.6,411.0 L970.0,414.9 L965.4,418.8 L960.9,422.8 L956.5,426.8 L952.1,430.9 L947.8,435.1 L943.5,439.3 L939.3,443.6 L935.2,448.0 L931.2,452.4 L927.2,456.9 L923.3,461.4 L919.4,466.0 L915.7,470.7 L912.0,475.4 L908.4,480.2" fill="none" stroke="#0033A1" stroke-width="3.2" opacity="0.11"/><path d="M203.3,541.3 L206.9,546.1 L211.1,550.4 L215.8,554.1 L220.9,557.3 L226.3,559.9 L231.9,561.9 L237.7,563.4 L243.7,564.4 L249.6,565.0 L255.6,565.2 L261.6,565.0 L267.6,564.5 L273.5,563.7 L279.5,562.7 L285.3,561.5 L291.2,560.1 L297.0,558.6 L302.8,556.9 L308.5,555.2 L314.2,553.3 L319.9,551.4 L325.6,549.4 L331.2,547.4 L336.8,545.3 L342.4,543.2 L348.1,541.1 L353.6,538.9 L359.2,536.7 L364.8,534.5 L370.4,532.3 L376.0,530.1 L381.5,527.8 L387.1,525.6 L392.7,523.4 L398.2,521.1 L403.8,518.9 L409.3,516.6 L414.9,514.4 L420.5,512.1 L426.0,509.9" fill="none" stroke="#1A5BC4" stroke-width="1.2" opacity="0.11"/><path d="M1022.0,248.8 L1027.8,250.4 L1033.4,252.4 L1038.9,255.0 L1044.0,258.1 L1048.8,261.7 L1053.1,265.9 L1056.8,270.6 L1059.9,275.7 L1062.3,281.2 L1063.9,287.0 L1064.8,292.9 L1064.9,298.9 L1064.3,304.9 L1063.0,310.8 L1061.2,316.5 L1058.8,322.0 L1056.1,327.3 L1052.9,332.5 L1049.5,337.4 L1045.9,342.2 L1042.0,346.7 L1038.0,351.2 L1033.8,355.5 L1029.6,359.8 L1025.2,363.9 L1020.8,368.0 L1016.4,372.0 L1011.9,375.9 L1007.3,379.9 L1002.8,383.8 L998.2,387.7 L993.7,391.6 L989.2,395.5 L984.6,399.5 L980.1,403.4 L975.6,407.4 L971.2,411.4 L966.7,415.5 L962.3,419.6 L958.0,423.7" fill="none" stroke="#1A5BC4" stroke-width="1.4" opacity="0.10"/><path d="M831.1,81.6 L827.3,77.0 L823.5,72.3 L819.7,67.7 L816.0,63.0 L812.2,58.3 L808.5,53.6 L804.9,48.8 L801.4,43.9 L797.9,39.1 L794.5,34.1 L791.2,29.1 L788.0,24.0 L784.9,18.9 L781.9,13.7 L778.9,8.5 L776.1,3.2 L773.4,-2.2 L770.8,-7.6 L768.3,-13.0 L765.9,-18.5 L763.6,-24.1 L761.4,-29.6 L759.2,-35.2 L757.2,-40.9 L755.2,-46.6 L753.4,-52.3 L751.6,-58.0 L749.9,-63.7 L748.3,-69.5 L746.7,-75.3 L745.2,-81.1 L743.8,-87.0 L742.4,-92.8 L741.1,-98.7 L739.9,-104.5 L738.7,-110.4 L737.6,-116.3 L736.5,-122.2 L735.5,-128.1 L734.5,-134.0" fill="none" stroke="#0033A1" stroke-width="2.5" opacity="0.19"/><path d="M567.0,88.8 L562.7,93.0 L558.1,96.9 L553.2,100.3 L548.0,103.3 L542.5,105.7 L536.8,107.6 L530.9,108.8 L524.9,109.3 L518.9,109.2 L513.0,108.4 L507.2,107.0 L501.6,104.9 L496.2,102.2 L491.1,99.0 L486.4,95.2 L482.1,91.1 L478.1,86.6 L474.4,81.9 L471.1,76.9 L468.1,71.7 L465.3,66.4 L462.9,60.9 L460.6,55.3 L458.5,49.7 L456.6,44.0 L454.9,38.3 L453.2,32.5 L451.6,26.7 L450.1,20.9 L448.6,15.1 L447.2,9.3 L445.8,3.5 L444.4,-2.4 L442.9,-8.2 L441.4,-14.0 L439.9,-19.8 L438.4,-25.6 L436.8,-31.4 L435.1,-37.2 L433.3,-42.9" fill="none" stroke="#3b82f6" stroke-width="2.7" opacity="0.14"/><path d="M482.5,201.5 L476.9,199.4 L471.5,196.7 L466.4,193.5 L461.7,189.8 L457.5,185.6 L453.6,181.0 L450.2,176.0 L447.2,170.8 L444.7,165.4 L442.5,159.8 L440.8,154.0 L439.3,148.2 L438.2,142.3 L437.3,136.4 L436.7,130.4 L436.2,124.4 L435.9,118.5 L435.8,112.5 L435.7,106.5 L435.8,100.5 L435.9,94.5 L436.0,88.5 L436.2,82.5 L436.4,76.5 L436.6,70.5 L436.8,64.5 L437.0,58.5 L437.1,52.5 L437.2,46.5 L437.2,40.5 L437.1,34.5 L437.0,28.5 L436.8,22.5 L436.5,16.5 L436.2,10.5 L435.7,4.5 L435.2,-1.5 L434.5,-7.4 L433.7,-13.4 L432.9,-19.3" fill="none" stroke="#c084fc" stroke-width="1.6" opacity="0.39"/><path d="M871.9,248.1 L876.9,244.6 L881.7,241.0 L886.3,237.3 L890.8,233.3 L895.2,229.2 L899.3,224.8 L903.2,220.2 L906.9,215.5 L910.2,210.5 L913.2,205.3 L915.8,199.9 L918.0,194.3 L919.8,188.6 L921.0,182.7 L921.8,176.8 L922.0,170.8 L921.6,164.8 L920.7,158.8 L919.3,153.0 L917.4,147.3 L915.0,141.8 L912.2,136.5 L909.0,131.5 L905.5,126.6 L901.7,121.9 L897.6,117.5 L893.4,113.2 L889.0,109.1 L884.5,105.2 L879.9,101.3 L875.2,97.6 L870.5,93.9 L865.7,90.3 L860.9,86.7 L856.1,83.1 L851.3,79.4 L846.6,75.8 L841.8,72.1 L837.2,68.3 L832.5,64.5" fill="none" stroke="#a855f7" stroke-width="0.6" opacity="0.11"/><path d="M1052.2,37.0 L1047.0,40.0 L1041.7,42.8 L1036.3,45.5 L1030.9,48.0 L1025.3,50.3 L1019.8,52.5 L1014.1,54.6 L1008.4,56.5 L1002.7,58.3 L996.9,59.9 L991.1,61.5 L985.3,62.9 L979.4,64.1 L973.5,65.3 L967.6,66.3 L961.7,67.2 L955.7,67.9 L949.8,68.5 L943.8,69.0 L937.8,69.3 L931.8,69.5 L925.8,69.6 L919.8,69.5 L913.8,69.2 L907.8,68.8 L901.9,68.2 L895.9,67.5 L890.0,66.6 L884.1,65.4 L878.2,64.2 L872.4,62.7 L866.6,61.0 L860.9,59.1 L855.3,57.1 L849.7,54.8 L844.3,52.4 L838.9,49.7 L833.6,46.8 L828.5,43.7 L823.5,40.5" fill="none" stroke="#1A5BC4" stroke-width="3.1" opacity="0.24"/><path d="M76.0,174.9 L78.6,169.4 L81.4,164.1 L84.3,158.9 L87.4,153.8 L90.8,148.8 L94.3,143.9 L98.0,139.2 L101.9,134.6 L105.9,130.2 L110.1,125.9 L114.5,121.8 L119.0,117.9 L123.7,114.1 L128.6,110.6 L133.5,107.2 L138.6,104.1 L143.8,101.1 L149.2,98.3 L154.6,95.7 L160.1,93.3 L165.7,91.1 L171.3,89.1 L177.0,87.3 L182.8,85.6 L188.6,84.2 L194.5,82.9 L200.4,81.7 L206.3,80.7 L212.2,79.8 L218.1,79.0 L224.1,78.3 L230.1,77.7 L236.0,77.1 L242.0,76.6 L248.0,76.2 L254.0,75.7 L260.0,75.3 L266.0,74.8 L271.9,74.3 L277.9,73.8" fill="none" stroke="#3b82f6" stroke-width="3.3" opacity="0.17"/><path d="M219.8,168.0 L225.7,167.5 L231.7,167.0 L237.7,166.5 L243.7,166.1 L249.7,165.6 L255.6,165.0 L261.6,164.4 L267.6,163.8 L273.5,163.0 L279.5,162.1 L285.4,161.2 L291.3,160.0 L297.1,158.8 L303.0,157.3 L308.8,155.7 L314.5,154.0 L320.2,152.0 L325.8,149.9 L331.3,147.5 L336.7,145.0 L342.1,142.3 L347.3,139.3 L352.4,136.2 L357.4,132.9 L362.3,129.3 L367.0,125.6 L371.5,121.7 L375.9,117.7 L380.2,113.4 L384.2,109.0 L388.1,104.4 L391.8,99.7 L395.4,94.8 L398.7,89.9 L401.8,84.7 L404.8,79.5 L407.5,74.2 L410.1,68.8 L412.5,63.3 L414.6,57.7" fill="none" stroke="#0033A1" stroke-width="0.7" opacity="0.39"/><path d="M932.6,214.2 L936.2,209.4 L939.5,204.4 L942.4,199.2 L944.9,193.7 L947.0,188.1 L948.5,182.3 L949.5,176.4 L950.0,170.4 L949.8,164.4 L949.1,158.4 L947.7,152.6 L945.8,146.9 L943.4,141.4 L940.4,136.2 L937.1,131.2 L933.4,126.5 L929.3,122.1 L925.0,117.9 L920.4,114.0 L915.7,110.3 L910.8,106.8 L905.9,103.4 L900.8,100.2 L895.7,97.1 L890.5,94.1 L885.3,91.1 L880.1,88.1 L874.8,85.2 L869.6,82.2 L864.4,79.2 L859.3,76.2 L854.1,73.1 L849.1,69.9 L844.0,66.6 L839.1,63.2 L834.2,59.7 L829.4,56.1 L824.7,52.4 L820.1,48.5 L815.6,44.5" fill="none" stroke="#3b82f6" stroke-width="0.6" opacity="0.19"/><path d="M840.7,208.1 L843.7,202.9 L846.4,197.5 L848.7,192.0 L850.6,186.3 L852.1,180.5 L853.2,174.6 L853.9,168.7 L854.2,162.7 L854.0,156.7 L853.5,150.7 L852.6,144.8 L851.3,138.9 L849.6,133.1 L847.7,127.5 L845.5,121.9 L843.0,116.4 L840.4,111.0 L837.5,105.7 L834.6,100.5 L831.5,95.4 L828.3,90.3 L825.0,85.3 L821.7,80.3 L818.3,75.3 L815.0,70.3 L811.6,65.4 L808.2,60.4 L804.9,55.4 L801.6,50.4 L798.3,45.4 L795.1,40.3 L792.0,35.2 L788.9,30.0 L785.9,24.8 L783.0,19.6 L780.2,14.3 L777.4,8.9 L774.8,3.6 L772.2,-1.8 L769.7,-7.3" fill="none" stroke="#1A5BC4" stroke-width="1.4" opacity="0.32"/><path d="M831.2,612.8 L832.7,618.7 L834.0,624.5 L835.2,630.4 L836.2,636.3 L837.1,642.2 L838.0,648.2 L838.7,654.1 L839.4,660.1 L840.0,666.1 L840.6,672.0 L841.2,678.0 L841.7,684.0 L842.2,690.0 L842.7,695.9 L843.2,701.9 L843.7,707.9 L844.2,713.9 L844.8,719.8 L845.3,725.8 L845.8,731.8 L846.4,737.8 L847.0,743.7 L847.6,749.7 L848.2,755.7 L848.9,761.6 L849.6,767.6 L850.3,773.6 L851.0,779.5 L851.8,785.5 L852.6,791.4 L853.4,797.4 L854.2,803.3 L855.1,809.2 L856.0,815.2 L856.9,821.1 L857.9,827.0 L858.9,832.9 L859.9,838.8 L861.0,844.8 L862.1,850.6" fill="none" stroke="#a855f7" stroke-width="3.4" opacity="0.21"/><path d="M593.2,81.8 L591.6,87.6 L589.9,93.3 L587.9,99.0 L585.8,104.6 L583.4,110.1 L580.9,115.6 L578.0,120.9 L575.0,126.0 L571.6,131.0 L568.0,135.8 L564.1,140.4 L560.0,144.7 L555.6,148.7 L550.8,152.5 L545.9,155.8 L540.6,158.7 L535.2,161.2 L529.5,163.2 L523.7,164.6 L517.7,165.5 L511.7,165.7 L505.8,165.3 L499.9,164.3 L494.1,162.6 L488.6,160.3 L483.3,157.4 L478.4,154.0 L473.8,150.0 L469.7,145.7 L465.9,141.0 L462.6,136.0 L459.7,130.8 L457.1,125.4 L454.8,119.8 L452.9,114.1 L451.2,108.4 L449.8,102.6 L448.6,96.7 L447.5,90.8 L446.6,84.8" fill="none" stroke="#0033A1" stroke-width="1.0" opacity="0.11"/><path d="M135.0,226.0 L139.7,222.2 L144.5,218.7 L149.5,215.4 L154.7,212.3 L160.0,209.5 L165.4,207.0 L171.0,204.6 L176.6,202.5 L182.2,200.5 L188.0,198.7 L193.7,197.1 L199.5,195.6 L205.4,194.3 L211.3,193.0 L217.1,191.8 L223.0,190.7 L228.9,189.7 L234.9,188.6 L240.8,187.6 L246.7,186.6 L252.6,185.5 L258.5,184.4 L264.4,183.3 L270.2,182.0 L276.1,180.7 L281.9,179.3 L287.7,177.8 L293.5,176.1 L299.2,174.3 L304.9,172.4 L310.5,170.4 L316.1,168.1 L321.6,165.7 L327.1,163.2 L332.4,160.5 L337.7,157.6 L342.8,154.5 L347.9,151.3 L352.8,147.9 L357.7,144.3" fill="none" stroke="#c084fc" stroke-width="2.1" opacity="0.32"/></g>

  <!-- Gradient overlay -->
  <rect width="1200" height="630" fill="url(#overlay)"/>
  <rect width="1200" height="120" fill="url(#topFade)"/>

  <!-- Dot pattern subtle -->
  <pattern id="dots" width="40" height="40" patternUnits="userSpaceOnUse">
    <circle cx="20" cy="20" r="0.8" fill="white" opacity="0.04"/>
  </pattern>
  <rect width="1200" height="630" fill="url(#dots)"/>




</svg>