<svg xmlns="http://www.w3.org/2000/svg" width="1200" height="630" viewBox="0 0 1200 630">
  <defs>
    <linearGradient id="overlay" x1="0" y1="1" x2="0" y2="0">
      <stop offset="0%" stop-color="#001D5C" stop-opacity="0.95"/>
      <stop offset="45%" stop-color="#001D5C" stop-opacity="0.7"/>
      <stop offset="75%" stop-color="#001D5C" stop-opacity="0.2"/>
      <stop offset="100%" stop-color="#001D5C" stop-opacity="0"/>
    </linearGradient>
    <linearGradient id="topFade" x1="0" y1="0" x2="0" y2="1">
      <stop offset="0%" stop-color="#001D5C" stop-opacity="0.3"/>
      <stop offset="100%" stop-color="#001D5C" stop-opacity="0"/>
    </linearGradient>
  </defs>

  <!-- Background -->
  <rect width="1200" height="630" fill="#001D5C"/>

  <!-- Generative pattern -->
  <g><path d="M0,6.9 L8,14.5 L16,14.0 L24,16.4 L32,20.3 L40,23.5 L48,27.3 L56,30.4 L64,30.2 L72,37.8 L80,39.1 L88,38.7 L96,39.9 L104,43.5 L112,44.2 L120,45.5 L128,41.9 L136,41.8 L144,45.8 L152,40.9 L160,42.8 L168,40.0 L176,40.6 L184,36.4 L192,37.0 L200,33.4 L208,36.1 L216,30.9 L224,29.4 L232,30.0 L240,22.8 L248,23.9 L256,22.6 L264,20.7 L272,19.8 L280,17.0 L288,10.7 L296,9.7 L304,9.7 L312,8.5 L320,8.7 L328,6.1 L336,2.7 L344,5.4 L352,4.9 L360,6.1 L368,3.0 L376,3.0 L384,5.3 L392,0.2 L400,2.8 L408,1.8 L416,1.3 L424,4.7 L432,2.9 L440,6.4 L448,1.9 L456,7.2 L464,7.0 L472,6.7 L480,6.0 L488,4.0 L496,6.1 L504,3.4 L512,0.8 L520,2.4 L528,0.5 L536,0.1 L544,-1.5 L552,0.5 L560,-5.8 L568,-6.4 L576,-7.7 L584,-7.2 L592,-6.1 L600,-8.6 L608,-12.7 L616,-13.4 L624,-14.3 L632,-17.5 L640,-16.1 L648,-15.8 L656,-20.3 L664,-17.3 L672,-22.6 L680,-23.4 L688,-18.2 L696,-17.7 L704,-21.1 L712,-21.1 L720,-19.2 L728,-15.1 L736,-17.9 L744,-15.5 L752,-12.6 L760,-7.4 L768,-10.2 L776,-6.5 L784,-1.7 L792,-1.9 L800,2.2 L808,4.4 L816,12.8 L824,13.5 L832,14.1 L840,18.7 L848,20.0 L856,27.2 L864,27.9 L872,30.4 L880,36.3 L888,39.5 L896,36.9 L904,41.9 L912,42.7 L920,43.1 L928,44.0 L936,46.6 L944,47.9 L952,50.2 L960,50.4 L968,50.2 L976,46.4 L984,45.7 L992,46.0 L1000,43.1 L1008,40.4 L1016,38.0 L1024,37.9 L1032,37.6 L1040,30.9 L1048,31.0 L1056,27.3 L1064,25.3 L1072,21.0 L1080,16.5 L1088,18.8 L1096,10.9 L1104,10.9 L1112,6.7 L1120,8.2 L1128,6.3 L1136,4.7 L1144,1.4 L1152,1.1 L1160,-2.8 L1168,-5.9 L1176,-4.6 L1184,-5.3 L1192,-4.0 L1200,-6.7" fill="none" stroke="#a855f7" stroke-width="1.2" opacity="0.21"/><path d="M0,16.3 L8,23.6 L16,26.3 L24,30.3 L32,29.3 L40,35.0 L48,33.5 L56,38.1 L64,42.8 L72,43.2 L80,44.2 L88,42.6 L96,45.4 L104,44.8 L112,46.8 L120,48.2 L128,45.3 L136,48.0 L144,46.0 L152,47.0 L160,45.0 L168,43.6 L176,37.9 L184,39.7 L192,37.6 L200,32.1 L208,30.7 L216,28.5 L224,26.0 L232,24.3 L240,21.0 L248,16.6 L256,16.0 L264,14.7 L272,8.9 L280,5.7 L288,2.8 L296,5.8 L304,2.6 L312,-0.3 L320,-4.0 L328,-5.1 L336,-5.5 L344,-4.2 L352,-7.5 L360,-4.6 L368,-8.1 L376,-6.6 L384,-4.8 L392,-9.3 L400,-4.0 L408,-8.6 L416,-8.1 L424,-2.5 L432,-2.2 L440,-4.1 L448,-2.7 L456,-5.7 L464,-2.3 L472,0.8 L480,-3.1 L488,-1.3 L496,-0.5 L504,-0.8 L512,-3.9 L520,1.0 L528,-2.9 L536,-3.3 L544,0.4 L552,-4.5 L560,-1.8 L568,-2.0 L576,-1.9 L584,-3.9 L592,-8.3 L600,-5.3 L608,-10.9 L616,-6.1 L624,-10.8 L632,-13.3 L640,-13.1 L648,-13.5 L656,-13.0 L664,-13.1 L672,-11.6 L680,-14.7 L688,-12.9 L696,-11.0 L704,-10.2 L712,-8.3 L720,-7.4 L728,-4.9 L736,-7.9 L744,-5.4 L752,-1.2 L760,1.4 L768,-0.1 L776,3.2 L784,10.2 L792,7.6 L800,11.6 L808,16.8 L816,16.9 L824,24.7 L832,25.1 L840,28.6 L848,27.8 L856,33.7 L864,35.9 L872,37.4 L880,37.9 L888,41.9 L896,43.2 L904,44.7 L912,47.1 L920,50.3 L928,51.0 L936,48.9 L944,50.4 L952,50.5 L960,48.8 L968,46.9 L976,47.9 L984,40.8 L992,41.0 L1000,38.2 L1008,38.2 L1016,37.3 L1024,33.3 L1032,32.1 L1040,29.4 L1048,20.8 L1056,20.2 L1064,15.6 L1072,14.4 L1080,8.3 L1088,5.9 L1096,5.2 L1104,2.1 L1112,-0.2 L1120,-5.2 L1128,-2.4 L1136,-6.3 L1144,-8.8 L1152,-12.5 L1160,-11.0 L1168,-12.7 L1176,-13.1 L1184,-15.0 L1192,-15.4 L1200,-15.5" fill="none" stroke="#a855f7" stroke-width="1.2" opacity="0.21"/><path d="M0,26.9 L8,31.7 L16,32.7 L24,34.4 L32,39.3 L40,38.9 L48,42.6 L56,45.2 L64,44.7 L72,46.1 L80,44.6 L88,49.4 L96,50.2 L104,50.0 L112,45.8 L120,48.4 L128,48.6 L136,47.9 L144,43.6 L152,43.1 L160,38.2 L168,38.9 L176,35.3 L184,32.4 L192,32.6 L200,27.8 L208,23.0 L216,21.1 L224,16.5 L232,18.0 L240,11.2 L248,8.6 L256,5.2 L264,0.6 L272,-0.4 L280,0.1 L288,-6.5 L296,-8.6 L304,-6.1 L312,-7.7 L320,-9.3 L328,-15.4 L336,-15.3 L344,-15.2 L352,-16.4 L360,-15.7 L368,-17.8 L376,-17.1 L384,-13.6 L392,-13.8 L400,-12.2 L408,-15.1 L416,-15.8 L424,-13.4 L432,-9.8 L440,-11.1 L448,-8.6 L456,-7.3 L464,-7.8 L472,-3.9 L480,-3.1 L488,-2.5 L496,0.4 L504,-4.0 L512,-0.6 L520,-3.0 L528,0.0 L536,2.0 L544,2.3 L552,1.2 L560,0.4 L568,-0.5 L576,-0.7 L584,-2.5 L592,1.5 L600,-3.9 L608,-3.2 L616,-4.3 L624,-3.1 L632,-5.5 L640,-2.6 L648,-2.1 L656,-1.8 L664,-0.9 L672,-2.6 L680,-2.8 L688,-3.8 L696,-3.0 L704,-0.1 L712,0.5 L720,3.1 L728,4.6 L736,5.9 L744,6.2 L752,4.8 L760,11.2 L768,8.8 L776,13.2 L784,16.9 L792,19.5 L800,17.7 L808,25.0 L816,23.3 L824,25.8 L832,32.1 L840,32.8 L848,34.1 L856,37.9 L864,41.4 L872,39.4 L880,44.1 L888,41.6 L896,46.4 L904,47.8 L912,46.3 L920,45.6 L928,45.2 L936,48.8 L944,43.1 L952,43.6 L960,42.6 L968,41.8 L976,41.6 L984,40.9 L992,37.9 L1000,34.9 L1008,32.0 L1016,28.3 L1024,26.7 L1032,23.5 L1040,18.7 L1048,16.8 L1056,8.7 L1064,6.3 L1072,3.1 L1080,-0.9 L1088,-1.1 L1096,-5.7 L1104,-7.6 L1112,-7.9 L1120,-15.1 L1128,-17.3 L1136,-14.6 L1144,-18.2 L1152,-22.2 L1160,-24.3 L1168,-20.4 L1176,-24.0 L1184,-26.2 L1192,-22.3 L1200,-23.9" fill="none" stroke="#a855f7" stroke-width="1.2" opacity="0.21"/><path d="M0,82.1 L8,84.2 L16,86.7 L24,85.9 L32,88.0 L40,86.8 L48,88.5 L56,90.2 L64,90.5 L72,88.7 L80,87.4 L88,85.4 L96,83.3 L104,86.5 L112,84.7 L120,80.2 L128,78.0 L136,76.5 L144,73.1 L152,73.4 L160,68.3 L168,65.2 L176,63.3 L184,64.2 L192,62.4 L200,58.4 L208,57.4 L216,54.4 L224,55.8 L232,52.2 L240,48.4 L248,51.0 L256,49.5 L264,46.1 L272,46.0 L280,47.1 L288,46.2 L296,44.1 L304,48.4 L312,44.2 L320,47.9 L328,49.5 L336,44.5 L344,46.0 L352,45.4 L360,49.8 L368,49.3 L376,45.4 L384,47.4 L392,46.4 L400,51.0 L408,50.5 L416,45.3 L424,46.6 L432,49.2 L440,48.5 L448,44.8 L456,42.7 L464,44.2 L472,40.0 L480,42.3 L488,38.4 L496,41.1 L504,39.5 L512,35.7 L520,35.1 L528,35.8 L536,32.0 L544,32.4 L552,29.2 L560,31.4 L568,25.6 L576,26.1 L584,26.1 L592,28.1 L600,24.1 L608,23.4 L616,28.2 L624,28.4 L632,29.1 L640,30.4 L648,29.4 L656,31.7 L664,31.2 L672,31.3 L680,34.3 L688,40.1 L696,41.4 L704,46.9 L712,48.1 L720,52.2 L728,52.1 L736,56.5 L744,61.8 L752,63.6 L760,64.2 L768,70.0 L776,71.3 L784,73.5 L792,79.4 L800,80.3 L808,81.2 L816,88.2 L824,85.8 L832,86.4 L840,88.9 L848,90.9 L856,92.4 L864,93.5 L872,90.7 L880,95.8 L888,91.6 L896,93.2 L904,87.7 L912,88.4 L920,86.3 L928,86.8 L936,84.8 L944,83.6 L952,79.5 L960,74.5 L968,72.0 L976,72.6 L984,70.0 L992,66.9 L1000,61.7 L1008,62.9 L1016,59.9 L1024,53.3 L1032,50.6 L1040,51.0 L1048,47.7 L1056,44.8 L1064,42.5 L1072,42.6 L1080,43.8 L1088,39.9 L1096,36.4 L1104,38.2 L1112,39.4 L1120,39.1 L1128,38.6 L1136,37.1 L1144,34.0 L1152,39.1 L1160,38.3 L1168,35.0 L1176,35.2 L1184,37.0 L1192,41.0 L1200,38.0" fill="none" stroke="#c084fc" stroke-width="1.2" opacity="0.11"/><path d="M0,88.4 L8,91.0 L16,94.3 L24,93.3 L32,95.7 L40,92.4 L48,93.0 L56,94.3 L64,90.4 L72,89.6 L80,89.1 L88,88.2 L96,86.2 L104,80.1 L112,82.5 L120,80.5 L128,76.5 L136,74.7 L144,68.9 L152,66.6 L160,63.9 L168,59.1 L176,57.6 L184,57.2 L192,54.4 L200,53.3 L208,50.8 L216,44.0 L224,43.5 L232,45.6 L240,39.6 L248,41.5 L256,42.0 L264,37.1 L272,39.7 L280,39.5 L288,34.5 L296,39.2 L304,36.9 L312,38.3 L320,37.7 L328,37.6 L336,38.5 L344,37.7 L352,40.1 L360,41.2 L368,40.1 L376,43.2 L384,40.5 L392,42.2 L400,45.4 L408,43.7 L416,42.8 L424,43.7 L432,45.7 L440,41.5 L448,44.8 L456,45.6 L464,42.6 L472,42.0 L480,44.6 L488,44.1 L496,42.4 L504,38.9 L512,40.7 L520,36.9 L528,39.4 L536,35.4 L544,33.4 L552,37.2 L560,37.5 L568,33.8 L576,34.3 L584,32.8 L592,36.3 L600,34.6 L608,35.2 L616,31.9 L624,34.6 L632,38.3 L640,38.5 L648,36.9 L656,40.2 L664,43.6 L672,43.5 L680,46.3 L688,46.2 L696,51.9 L704,53.8 L712,54.5 L720,56.6 L728,62.7 L736,66.8 L744,67.7 L752,69.9 L760,76.3 L768,76.3 L776,79.2 L784,80.0 L792,86.0 L800,83.4 L808,88.8 L816,90.6 L824,88.4 L832,94.4 L840,94.8 L848,93.2 L856,96.3 L864,93.3 L872,92.0 L880,91.8 L888,91.9 L896,92.4 L904,90.9 L912,87.7 L920,83.6 L928,83.5 L936,77.3 L944,76.0 L952,76.2 L960,69.8 L968,68.1 L976,62.3 L984,59.7 L992,56.4 L1000,55.6 L1008,50.7 L1016,45.5 L1024,47.9 L1032,44.0 L1040,39.0 L1048,40.1 L1056,33.5 L1064,36.5 L1072,29.4 L1080,32.7 L1088,32.7 L1096,29.9 L1104,26.1 L1112,24.9 L1120,29.6 L1128,27.0 L1136,26.4 L1144,26.7 L1152,28.1 L1160,31.5 L1168,29.6 L1176,33.7 L1184,30.9 L1192,31.4 L1200,33.1" fill="none" stroke="#c084fc" stroke-width="1.2" opacity="0.11"/><path d="M0,89.9 L8,95.7 L16,90.4 L24,90.9 L32,90.2 L40,93.3 L48,89.8 L56,92.1 L64,89.0 L72,85.1 L80,85.6 L88,82.3 L96,77.6 L104,75.4 L112,71.8 L120,73.2 L128,65.4 L136,63.7 L144,63.0 L152,57.9 L160,53.4 L168,50.2 L176,48.3 L184,43.9 L192,45.6 L200,42.1 L208,39.3 L216,36.0 L224,32.9 L232,31.3 L240,34.2 L248,32.9 L256,31.2 L264,30.8 L272,28.1 L280,25.3 L288,26.5 L296,30.7 L304,25.4 L312,26.2 L320,32.3 L328,27.5 L336,30.6 L344,29.6 L352,32.4 L360,36.2 L368,36.7 L376,35.7 L384,38.5 L392,39.9 L400,39.1 L408,38.7 L416,43.1 L424,45.6 L432,44.7 L440,42.9 L448,45.6 L456,42.9 L464,44.5 L472,46.2 L480,48.3 L488,43.8 L496,43.4 L504,48.1 L512,47.3 L520,46.7 L528,46.5 L536,45.6 L544,41.3 L552,41.1 L560,44.8 L568,40.9 L576,46.0 L584,43.9 L592,43.2 L600,42.7 L608,43.8 L616,44.5 L624,42.6 L632,45.5 L640,47.9 L648,50.2 L656,48.2 L664,50.6 L672,54.2 L680,55.6 L688,54.7 L696,62.1 L704,63.5 L712,66.0 L720,66.0 L728,70.2 L736,72.1 L744,73.5 L752,74.7 L760,81.1 L768,79.2 L776,80.0 L784,86.3 L792,85.2 L800,85.6 L808,89.7 L816,86.9 L824,93.1 L832,88.8 L840,88.1 L848,88.0 L856,88.0 L864,91.7 L872,87.3 L880,88.2 L888,83.7 L896,86.8 L904,83.5 L912,78.6 L920,77.4 L928,76.3 L936,71.8 L944,69.9 L952,66.2 L960,59.4 L968,57.7 L976,53.0 L984,50.2 L992,45.4 L1000,42.3 L1008,39.6 L1016,38.2 L1024,38.1 L1032,30.9 L1040,32.5 L1048,30.6 L1056,26.1 L1064,24.3 L1072,20.9 L1080,21.0 L1088,24.2 L1096,23.7 L1104,17.8 L1112,19.4 L1120,23.7 L1128,22.4 L1136,24.4 L1144,21.1 L1152,24.2 L1160,24.1 L1168,29.3 L1176,29.5 L1184,32.2 L1192,31.0 L1200,35.3" fill="none" stroke="#c084fc" stroke-width="1.2" opacity="0.11"/><path d="M0,140.7 L8,137.2 L16,132.5 L24,132.4 L32,132.3 L40,127.0 L48,127.8 L56,125.0 L64,123.9 L72,120.4 L80,118.5 L88,116.9 L96,113.5 L104,110.0 L112,107.4 L120,105.8 L128,107.0 L136,102.4 L144,101.3 L152,103.4 L160,102.0 L168,95.5 L176,98.7 L184,94.6 L192,92.6 L200,93.4 L208,92.4 L216,97.1 L224,95.5 L232,91.4 L240,97.4 L248,95.2 L256,94.6 L264,97.1 L272,96.2 L280,94.8 L288,95.1 L296,95.8 L304,96.7 L312,97.2 L320,97.3 L328,98.5 L336,95.0 L344,94.0 L352,95.3 L360,92.4 L368,91.8 L376,94.4 L384,93.9 L392,93.3 L400,93.6 L408,92.8 L416,89.0 L424,88.5 L432,87.6 L440,85.7 L448,86.0 L456,83.0 L464,82.0 L472,77.6 L480,80.5 L488,77.2 L496,76.0 L504,77.2 L512,74.1 L520,75.7 L528,73.3 L536,76.9 L544,78.1 L552,76.6 L560,80.4 L568,81.1 L576,84.1 L584,81.5 L592,83.3 L600,84.9 L608,87.5 L616,93.3 L624,93.7 L632,96.3 L640,99.7 L648,104.7 L656,107.3 L664,110.1 L672,112.4 L680,118.5 L688,120.7 L696,120.6 L704,123.8 L712,131.3 L720,128.7 L728,132.8 L736,137.9 L744,137.5 L752,141.8 L760,139.9 L768,141.4 L776,140.7 L784,142.8 L792,145.4 L800,139.5 L808,144.3 L816,142.0 L824,140.8 L832,139.6 L840,137.7 L848,137.3 L856,132.3 L864,133.1 L872,125.9 L880,126.9 L888,119.8 L896,121.8 L904,116.7 L912,111.7 L920,108.7 L928,106.7 L936,104.4 L944,105.6 L952,101.9 L960,99.9 L968,96.7 L976,93.0 L984,94.3 L992,90.3 L1000,87.7 L1008,88.3 L1016,85.9 L1024,85.6 L1032,82.9 L1040,86.0 L1048,82.8 L1056,86.7 L1064,83.7 L1072,85.4 L1080,86.1 L1088,85.2 L1096,83.9 L1104,85.4 L1112,85.2 L1120,90.8 L1128,89.0 L1136,91.4 L1144,88.4 L1152,88.4 L1160,89.5 L1168,90.6 L1176,91.8 L1184,90.7 L1192,95.9 L1200,91.7" fill="none" stroke="#3b82f6" stroke-width="1.2" opacity="0.35"/><path d="M0,136.0 L8,137.4 L16,132.9 L24,129.5 L32,129.4 L40,124.8 L48,124.3 L56,123.9 L64,118.7 L72,115.3 L80,114.3 L88,109.0 L96,109.8 L104,106.8 L112,101.7 L120,98.0 L128,95.5 L136,95.9 L144,95.0 L152,88.5 L160,87.6 L168,86.0 L176,86.1 L184,85.2 L192,85.5 L200,86.0 L208,85.3 L216,83.7 L224,83.7 L232,83.8 L240,83.1 L248,83.6 L256,85.0 L264,88.1 L272,88.7 L280,90.9 L288,91.4 L296,90.0 L304,91.6 L312,88.5 L320,93.7 L328,91.6 L336,91.5 L344,90.4 L352,92.4 L360,90.2 L368,90.7 L376,89.9 L384,94.5 L392,92.3 L400,89.9 L408,90.3 L416,89.6 L424,92.7 L432,89.5 L440,86.0 L448,85.9 L456,88.2 L464,89.5 L472,85.3 L480,84.8 L488,86.6 L496,86.1 L504,85.9 L512,84.8 L520,85.9 L528,86.8 L536,88.1 L544,88.9 L552,86.4 L560,88.1 L568,86.6 L576,89.2 L584,91.0 L592,93.5 L600,96.4 L608,97.8 L616,104.5 L624,104.8 L632,108.5 L640,109.2 L648,112.5 L656,116.5 L664,117.2 L672,118.2 L680,121.3 L688,125.3 L696,130.9 L704,129.8 L712,131.8 L720,134.6 L728,140.2 L736,136.6 L744,142.7 L752,140.2 L760,142.5 L768,139.7 L776,142.1 L784,145.1 L792,139.6 L800,142.0 L808,138.4 L816,138.7 L824,135.7 L832,131.9 L840,131.5 L848,129.1 L856,127.4 L864,126.3 L872,121.5 L880,119.5 L888,114.1 L896,111.2 L904,110.4 L912,105.3 L920,105.2 L928,96.8 L936,96.7 L944,92.6 L952,93.5 L960,86.2 L968,83.9 L976,81.9 L984,81.8 L992,77.7 L1000,77.9 L1008,78.7 L1016,79.7 L1024,76.9 L1032,74.1 L1040,76.3 L1048,77.1 L1056,73.9 L1064,75.2 L1072,74.6 L1080,77.1 L1088,76.7 L1096,79.1 L1104,82.0 L1112,84.5 L1120,86.7 L1128,87.7 L1136,84.0 L1144,86.9 L1152,90.9 L1160,88.5 L1168,91.6 L1176,91.2 L1184,93.6 L1192,91.8 L1200,92.2" fill="none" stroke="#3b82f6" stroke-width="1.2" opacity="0.35"/><path d="M0,130.6 L8,129.5 L16,128.5 L24,123.7 L32,122.0 L40,121.8 L48,116.4 L56,114.5 L64,109.3 L72,105.6 L80,104.1 L88,102.3 L96,95.7 L104,92.7 L112,89.5 L120,89.1 L128,87.2 L136,84.8 L144,80.1 L152,81.5 L160,79.4 L168,77.6 L176,78.0 L184,75.7 L192,73.9 L200,75.6 L208,73.2 L216,78.0 L224,74.1 L232,76.1 L240,77.4 L248,77.8 L256,80.1 L264,83.5 L272,79.6 L280,82.3 L288,83.2 L296,85.4 L304,86.0 L312,88.5 L320,87.3 L328,90.9 L336,89.4 L344,90.7 L352,95.0 L360,96.7 L368,93.5 L376,92.8 L384,96.0 L392,98.9 L400,97.4 L408,94.7 L416,93.9 L424,97.4 L432,97.6 L440,97.3 L448,98.0 L456,96.2 L464,96.1 L472,95.2 L480,93.9 L488,96.7 L496,93.1 L504,91.7 L512,96.8 L520,96.6 L528,97.8 L536,92.9 L544,95.6 L552,99.8 L560,97.4 L568,97.3 L576,100.0 L584,104.1 L592,105.5 L600,108.1 L608,105.1 L616,111.0 L624,114.8 L632,116.6 L640,117.3 L648,117.2 L656,122.4 L664,126.2 L672,127.1 L680,126.2 L688,131.9 L696,134.7 L704,132.5 L712,132.8 L720,136.9 L728,137.5 L736,137.7 L744,137.5 L752,138.8 L760,139.4 L768,137.9 L776,141.6 L784,135.7 L792,135.5 L800,136.4 L808,136.7 L816,134.7 L824,128.1 L832,130.0 L840,122.7 L848,121.2 L856,121.6 L864,117.3 L872,112.3 L880,107.4 L888,103.9 L896,104.0 L904,100.8 L912,97.2 L920,95.4 L928,87.1 L936,83.8 L944,81.8 L952,82.0 L960,81.0 L968,79.5 L976,73.0 L984,74.6 L992,69.0 L1000,72.0 L1008,70.0 L1016,70.1 L1024,70.4 L1032,71.2 L1040,69.5 L1048,72.1 L1056,73.8 L1064,74.0 L1072,76.1 L1080,74.4 L1088,74.1 L1096,75.1 L1104,79.7 L1112,81.1 L1120,84.1 L1128,87.5 L1136,85.5 L1144,89.1 L1152,89.7 L1160,94.2 L1168,97.6 L1176,97.2 L1184,95.2 L1192,98.7 L1200,102.1" fill="none" stroke="#3b82f6" stroke-width="1.2" opacity="0.35"/><path d="M0,160.7 L8,158.0 L16,151.1 L24,150.7 L32,147.1 L40,145.2 L48,145.0 L56,140.9 L64,141.1 L72,141.7 L80,136.7 L88,139.6 L96,135.4 L104,136.2 L112,133.0 L120,133.6 L128,136.3 L136,132.0 L144,133.4 L152,132.6 L160,133.2 L168,136.5 L176,131.8 L184,134.2 L192,135.1 L200,135.0 L208,133.6 L216,132.8 L224,136.3 L232,133.8 L240,138.2 L248,138.5 L256,133.6 L264,138.1 L272,134.7 L280,135.9 L288,135.2 L296,132.9 L304,135.9 L312,133.6 L320,129.2 L328,133.2 L336,126.4 L344,128.5 L352,127.2 L360,126.7 L368,124.5 L376,123.0 L384,124.7 L392,120.6 L400,120.7 L408,116.5 L416,120.3 L424,117.0 L432,115.3 L440,116.3 L448,117.1 L456,119.6 L464,118.3 L472,119.7 L480,118.8 L488,122.3 L496,120.9 L504,123.1 L512,126.7 L520,126.4 L528,133.4 L536,131.4 L544,139.2 L552,140.4 L560,144.8 L568,143.5 L576,151.8 L584,154.5 L592,152.9 L600,158.0 L608,162.2 L616,167.4 L624,165.4 L632,168.5 L640,173.2 L648,174.8 L656,175.2 L664,178.5 L672,178.5 L680,181.8 L688,182.2 L696,183.7 L704,183.7 L712,180.6 L720,180.6 L728,182.8 L736,184.2 L744,177.4 L752,179.3 L760,176.3 L768,173.2 L776,170.7 L784,169.1 L792,168.5 L800,165.4 L808,159.9 L816,159.0 L824,158.9 L832,153.6 L840,150.6 L848,149.7 L856,146.0 L864,141.9 L872,138.3 L880,137.3 L888,137.5 L896,131.0 L904,128.2 L912,128.6 L920,129.5 L928,127.9 L936,127.9 L944,126.0 L952,122.9 L960,122.7 L968,120.9 L976,122.5 L984,122.4 L992,125.4 L1000,126.0 L1008,126.8 L1016,126.5 L1024,127.4 L1032,126.2 L1040,126.9 L1048,129.8 L1056,127.3 L1064,131.8 L1072,130.5 L1080,131.6 L1088,130.3 L1096,135.3 L1104,131.8 L1112,135.7 L1120,132.8 L1128,134.9 L1136,134.6 L1144,134.5 L1152,130.7 L1160,134.7 L1168,133.3 L1176,130.1 L1184,131.0 L1192,133.3 L1200,129.1" fill="none" stroke="#0033A1" stroke-width="1.2" opacity="0.29"/><path d="M0,153.0 L8,147.4 L16,144.3 L24,144.8 L32,139.3 L40,140.1 L48,136.5 L56,135.9 L64,130.4 L72,129.7 L80,130.1 L88,125.8 L96,123.6 L104,123.3 L112,124.1 L120,125.0 L128,123.1 L136,125.7 L144,125.2 L152,126.7 L160,126.1 L168,122.2 L176,127.2 L184,126.2 L192,125.3 L200,126.0 L208,129.8 L216,128.6 L224,131.3 L232,130.9 L240,133.0 L248,130.4 L256,134.2 L264,133.8 L272,135.6 L280,132.0 L288,132.7 L296,133.5 L304,131.7 L312,131.6 L320,133.4 L328,132.6 L336,131.7 L344,130.7 L352,130.1 L360,128.6 L368,132.1 L376,127.0 L384,126.0 L392,125.1 L400,126.3 L408,125.6 L416,124.0 L424,123.8 L432,124.7 L440,129.4 L448,126.6 L456,129.7 L464,129.2 L472,129.2 L480,131.8 L488,129.9 L496,130.6 L504,131.9 L512,136.0 L520,140.2 L528,143.7 L536,141.0 L544,148.7 L552,147.3 L560,153.1 L568,155.2 L576,155.6 L584,159.9 L592,161.8 L600,165.5 L608,169.4 L616,169.5 L624,173.6 L632,177.0 L640,177.1 L648,179.8 L656,180.9 L664,179.4 L672,179.6 L680,182.4 L688,180.8 L696,184.4 L704,179.8 L712,182.8 L720,182.9 L728,177.0 L736,176.0 L744,176.2 L752,172.7 L760,170.3 L768,170.7 L776,165.4 L784,162.6 L792,163.5 L800,160.1 L808,155.2 L816,149.8 L824,146.0 L832,145.2 L840,143.9 L848,141.2 L856,137.7 L864,129.9 L872,129.0 L880,129.2 L888,122.9 L896,123.5 L904,119.9 L912,117.8 L920,117.2 L928,118.5 L936,118.3 L944,115.0 L952,116.0 L960,117.5 L968,117.0 L976,116.6 L984,117.4 L992,118.1 L1000,114.8 L1008,121.3 L1016,118.7 L1024,121.8 L1032,121.9 L1040,121.4 L1048,127.0 L1056,124.0 L1064,128.3 L1072,132.5 L1080,132.8 L1088,134.3 L1096,131.9 L1104,132.1 L1112,137.7 L1120,136.8 L1128,134.8 L1136,137.8 L1144,136.7 L1152,141.1 L1160,141.0 L1168,137.6 L1176,137.7 L1184,139.5 L1192,135.8 L1200,138.2" fill="none" stroke="#0033A1" stroke-width="1.2" opacity="0.29"/><path d="M0,141.7 L8,138.4 L16,133.7 L24,135.8 L32,132.6 L40,131.4 L48,124.7 L56,123.8 L64,122.5 L72,119.2 L80,117.0 L88,117.4 L96,116.6 L104,114.5 L112,112.7 L120,114.6 L128,115.6 L136,116.6 L144,116.3 L152,119.3 L160,119.6 L168,117.4 L176,120.8 L184,123.8 L192,123.9 L200,125.7 L208,123.3 L216,124.1 L224,127.6 L232,128.3 L240,132.0 L248,131.0 L256,135.7 L264,131.4 L272,134.8 L280,138.2 L288,135.9 L296,137.2 L304,135.7 L312,136.3 L320,136.9 L328,138.5 L336,138.2 L344,140.2 L352,136.5 L360,137.6 L368,136.1 L376,137.8 L384,135.7 L392,135.5 L400,134.6 L408,137.3 L416,135.0 L424,136.8 L432,139.0 L440,136.9 L448,136.9 L456,136.9 L464,140.4 L472,136.2 L480,138.5 L488,142.7 L496,144.8 L504,143.9 L512,148.0 L520,145.8 L528,149.0 L536,150.4 L544,155.1 L552,154.7 L560,156.7 L568,158.2 L576,161.4 L584,167.0 L592,164.1 L600,171.1 L608,168.0 L616,171.1 L624,174.4 L632,172.9 L640,177.8 L648,180.9 L656,179.6 L664,180.1 L672,181.9 L680,179.5 L688,178.8 L696,179.5 L704,177.2 L712,175.1 L720,174.0 L728,171.2 L736,174.3 L744,169.9 L752,164.7 L760,166.5 L768,162.5 L776,159.6 L784,153.7 L792,149.0 L800,147.1 L808,142.2 L816,139.8 L824,137.6 L832,133.0 L840,133.6 L848,126.8 L856,122.5 L864,123.0 L872,120.0 L880,117.6 L888,116.0 L896,113.1 L904,110.5 L912,108.0 L920,107.5 L928,106.8 L936,109.1 L944,110.8 L952,107.6 L960,111.2 L968,108.8 L976,112.5 L984,111.1 L992,112.2 L1000,114.8 L1008,114.6 L1016,117.0 L1024,118.5 L1032,122.6 L1040,125.7 L1048,123.9 L1056,126.1 L1064,128.5 L1072,130.3 L1080,134.3 L1088,133.4 L1096,140.6 L1104,141.4 L1112,138.9 L1120,142.7 L1128,141.8 L1136,142.9 L1144,147.9 L1152,145.6 L1160,145.0 L1168,144.1 L1176,146.4 L1184,145.4 L1192,147.1 L1200,149.6" fill="none" stroke="#0033A1" stroke-width="1.2" opacity="0.29"/><path d="M0,184.7 L8,182.8 L16,178.4 L24,181.9 L32,180.4 L40,178.6 L48,180.7 L56,177.4 L64,179.1 L72,176.8 L80,177.5 L88,177.9 L96,178.9 L104,179.0 L112,176.8 L120,179.1 L128,178.6 L136,182.6 L144,183.5 L152,179.6 L160,182.2 L168,182.3 L176,183.3 L184,181.9 L192,179.1 L200,181.1 L208,177.5 L216,178.5 L224,182.0 L232,179.4 L240,177.0 L248,175.2 L256,176.1 L264,175.7 L272,172.9 L280,174.1 L288,171.6 L296,170.5 L304,166.2 L312,168.2 L320,164.5 L328,163.7 L336,163.8 L344,164.2 L352,163.7 L360,167.8 L368,165.8 L376,166.1 L384,164.8 L392,168.4 L400,168.8 L408,169.9 L416,171.1 L424,171.1 L432,172.2 L440,179.5 L448,178.7 L456,181.7 L464,186.5 L472,190.2 L480,190.7 L488,193.3 L496,199.0 L504,202.5 L512,202.9 L520,204.4 L528,209.3 L536,212.6 L544,213.8 L552,219.0 L560,220.4 L568,224.4 L576,222.5 L584,225.4 L592,226.7 L600,229.5 L608,231.2 L616,230.8 L624,229.2 L632,229.7 L640,230.5 L648,227.1 L656,225.3 L664,228.7 L672,225.3 L680,220.8 L688,219.0 L696,215.4 L704,214.5 L712,214.1 L720,208.8 L728,206.3 L736,207.5 L744,203.6 L752,197.3 L760,193.6 L768,194.7 L776,189.9 L784,185.0 L792,186.4 L800,182.7 L808,179.8 L816,178.4 L824,178.6 L832,175.2 L840,169.7 L848,169.2 L856,172.0 L864,169.9 L872,169.1 L880,169.8 L888,170.2 L896,168.7 L904,166.5 L912,170.6 L920,169.6 L928,172.0 L936,168.5 L944,169.6 L952,173.0 L960,170.6 L968,174.0 L976,177.4 L984,175.2 L992,176.6 L1000,174.7 L1008,178.3 L1016,180.1 L1024,181.0 L1032,181.9 L1040,177.6 L1048,180.1 L1056,181.7 L1064,180.3 L1072,181.6 L1080,177.0 L1088,176.9 L1096,176.2 L1104,179.0 L1112,179.6 L1120,174.6 L1128,178.4 L1136,173.8 L1144,178.8 L1152,176.0 L1160,173.7 L1168,174.4 L1176,172.6 L1184,173.6 L1192,177.4 L1200,175.2" fill="none" stroke="#1A5BC4" stroke-width="1.2" opacity="0.18"/><path d="M0,174.3 L8,170.8 L16,172.2 L24,171.4 L32,170.5 L40,171.7 L48,167.8 L56,166.9 L64,167.3 L72,168.8 L80,168.8 L88,171.6 L96,173.7 L104,168.8 L112,171.6 L120,172.7 L128,172.7 L136,175.3 L144,174.3 L152,175.3 L160,175.9 L168,180.7 L176,180.4 L184,180.4 L192,181.7 L200,179.1 L208,182.1 L216,178.2 L224,178.9 L232,179.1 L240,179.7 L248,176.9 L256,180.8 L264,179.2 L272,178.5 L280,179.0 L288,175.1 L296,176.0 L304,173.0 L312,173.3 L320,174.3 L328,175.2 L336,172.0 L344,171.9 L352,173.6 L360,174.3 L368,172.2 L376,174.9 L384,175.6 L392,177.4 L400,176.6 L408,176.9 L416,182.8 L424,180.3 L432,185.3 L440,188.8 L448,185.8 L456,193.5 L464,190.7 L472,197.9 L480,200.1 L488,200.6 L496,206.4 L504,205.4 L512,207.7 L520,211.6 L528,216.7 L536,216.1 L544,217.7 L552,222.8 L560,225.4 L568,226.6 L576,224.7 L584,225.7 L592,225.9 L600,227.6 L608,231.9 L616,226.4 L624,229.0 L632,229.7 L640,229.1 L648,225.4 L656,225.3 L664,222.2 L672,216.8 L680,215.8 L688,216.0 L696,210.9 L704,207.1 L712,203.5 L720,203.7 L728,199.0 L736,193.1 L744,193.6 L752,191.9 L760,188.5 L768,183.3 L776,180.0 L784,178.1 L792,176.4 L800,172.1 L808,172.2 L816,168.3 L824,167.5 L832,165.6 L840,160.2 L848,160.1 L856,159.6 L864,161.1 L872,162.7 L880,158.1 L888,163.5 L896,162.4 L904,162.3 L912,160.6 L920,164.5 L928,164.7 L936,166.6 L944,166.3 L952,167.8 L960,170.8 L968,173.2 L976,175.5 L984,176.3 L992,174.2 L1000,178.4 L1008,179.8 L1016,183.0 L1024,179.5 L1032,180.2 L1040,181.1 L1048,183.2 L1056,184.0 L1064,183.8 L1072,183.2 L1080,185.7 L1088,185.1 L1096,183.3 L1104,183.4 L1112,186.1 L1120,185.5 L1128,188.4 L1136,182.8 L1144,186.9 L1152,181.9 L1160,183.6 L1168,182.1 L1176,186.0 L1184,187.2 L1192,183.2 L1200,184.1" fill="none" stroke="#1A5BC4" stroke-width="1.2" opacity="0.18"/><path d="M0,161.4 L8,164.1 L16,163.5 L24,160.9 L32,158.7 L40,163.0 L48,163.5 L56,158.6 L64,159.5 L72,159.7 L80,165.3 L88,167.1 L96,166.3 L104,164.1 L112,167.5 L120,169.6 L128,173.7 L136,172.8 L144,174.5 L152,175.3 L160,174.6 L168,179.7 L176,177.5 L184,178.3 L192,182.2 L200,182.3 L208,180.7 L216,185.1 L224,184.2 L232,184.9 L240,185.2 L248,184.0 L256,187.8 L264,186.6 L272,186.8 L280,184.4 L288,186.3 L296,182.0 L304,185.9 L312,181.9 L320,184.4 L328,181.1 L336,186.3 L344,183.8 L352,181.5 L360,181.7 L368,181.8 L376,183.0 L384,184.0 L392,185.5 L400,189.8 L408,187.6 L416,189.6 L424,191.6 L432,192.4 L440,195.5 L448,194.9 L456,196.9 L464,201.7 L472,202.3 L480,205.0 L488,204.2 L496,209.2 L504,208.7 L512,213.1 L520,217.8 L528,219.2 L536,217.1 L544,220.2 L552,219.3 L560,220.9 L568,224.9 L576,225.2 L584,227.4 L592,225.0 L600,227.3 L608,227.8 L616,226.0 L624,222.3 L632,223.3 L640,218.8 L648,218.6 L656,214.6 L664,212.3 L672,213.2 L680,206.8 L688,209.0 L696,205.7 L704,200.5 L712,198.7 L720,195.5 L728,187.1 L736,186.1 L744,185.4 L752,181.8 L760,175.9 L768,171.3 L776,167.6 L784,168.7 L792,165.6 L800,161.9 L808,161.4 L816,162.0 L824,155.3 L832,159.1 L840,154.4 L848,156.8 L856,152.5 L864,153.7 L872,156.7 L880,158.0 L888,154.0 L896,154.3 L904,160.6 L912,162.2 L920,164.0 L928,165.3 L936,166.0 L944,165.9 L952,168.3 L960,168.7 L968,174.9 L976,175.5 L984,176.4 L992,180.4 L1000,179.5 L1008,181.5 L1016,183.3 L1024,187.2 L1032,188.8 L1040,191.8 L1048,188.0 L1056,193.6 L1064,194.6 L1072,190.7 L1080,193.1 L1088,194.2 L1096,194.3 L1104,194.3 L1112,197.0 L1120,197.0 L1128,197.2 L1136,193.1 L1144,196.0 L1152,192.2 L1160,194.4 L1168,196.0 L1176,193.4 L1184,195.3 L1192,193.1 L1200,192.2" fill="none" stroke="#1A5BC4" stroke-width="1.2" opacity="0.18"/><path d="M0,201.3 L8,200.6 L16,201.7 L24,203.9 L32,205.4 L40,206.7 L48,206.0 L56,207.0 L64,206.1 L72,208.0 L80,208.0 L88,208.2 L96,206.7 L104,209.1 L112,209.2 L120,206.0 L128,205.5 L136,204.1 L144,205.3 L152,203.5 L160,202.7 L168,205.2 L176,200.5 L184,200.8 L192,202.8 L200,200.7 L208,197.5 L216,197.4 L224,198.1 L232,197.0 L240,197.5 L248,195.8 L256,195.8 L264,190.6 L272,195.2 L280,191.8 L288,195.3 L296,192.7 L304,194.0 L312,196.2 L320,194.6 L328,197.8 L336,201.1 L344,201.1 L352,205.0 L360,203.5 L368,207.3 L376,206.9 L384,215.0 L392,212.8 L400,221.0 L408,220.7 L416,227.0 L424,226.7 L432,229.4 L440,230.7 L448,235.8 L456,241.3 L464,241.9 L472,245.5 L480,248.9 L488,248.8 L496,248.3 L504,251.9 L512,253.0 L520,257.1 L528,256.0 L536,257.1 L544,257.9 L552,253.7 L560,253.9 L568,254.9 L576,250.6 L584,250.8 L592,248.3 L600,249.6 L608,248.8 L616,244.5 L624,243.6 L632,236.4 L640,237.7 L648,231.3 L656,227.2 L664,226.7 L672,225.4 L680,222.4 L688,220.4 L696,217.0 L704,211.3 L712,211.7 L720,209.4 L728,207.1 L736,201.6 L744,200.4 L752,201.5 L760,199.7 L768,195.2 L776,195.7 L784,194.5 L792,194.3 L800,194.1 L808,191.0 L816,192.8 L824,192.0 L832,191.1 L840,195.0 L848,195.5 L856,193.5 L864,198.9 L872,199.5 L880,200.8 L888,198.3 L896,200.3 L904,204.2 L912,202.3 L920,204.8 L928,203.3 L936,204.2 L944,203.0 L952,206.4 L960,207.1 L968,205.4 L976,206.6 L984,206.8 L992,209.8 L1000,209.5 L1008,207.5 L1016,208.8 L1024,208.2 L1032,207.5 L1040,204.9 L1048,202.6 L1056,201.4 L1064,203.0 L1072,201.2 L1080,203.5 L1088,204.6 L1096,202.2 L1104,202.7 L1112,202.2 L1120,202.5 L1128,201.6 L1136,203.6 L1144,201.6 L1152,208.1 L1160,206.9 L1168,208.5 L1176,211.5 L1184,210.5 L1192,210.9 L1200,217.0" fill="none" stroke="#a855f7" stroke-width="1.2" opacity="0.30"/><path d="M0,192.2 L8,192.5 L16,196.1 L24,195.5 L32,200.6 L40,199.6 L48,198.1 L56,200.3 L64,200.0 L72,204.6 L80,201.2 L88,202.0 L96,207.1 L104,205.3 L112,205.9 L120,204.9 L128,203.9 L136,205.3 L144,208.8 L152,203.8 L160,207.6 L168,208.6 L176,209.0 L184,206.1 L192,206.8 L200,202.6 L208,204.3 L216,203.5 L224,201.8 L232,204.5 L240,204.1 L248,200.7 L256,203.3 L264,203.2 L272,199.8 L280,201.8 L288,203.2 L296,202.7 L304,206.4 L312,203.8 L320,203.1 L328,204.4 L336,206.8 L344,208.7 L352,210.4 L360,212.2 L368,219.2 L376,221.1 L384,224.1 L392,226.4 L400,226.4 L408,227.0 L416,232.5 L424,236.5 L432,237.3 L440,239.3 L448,241.0 L456,242.9 L464,243.4 L472,248.9 L480,248.5 L488,253.9 L496,253.4 L504,250.8 L512,256.4 L520,252.0 L528,256.0 L536,256.6 L544,252.2 L552,253.7 L560,249.6 L568,253.7 L576,248.5 L584,247.4 L592,247.4 L600,241.0 L608,238.2 L616,239.8 L624,231.0 L632,229.5 L640,228.3 L648,226.8 L656,223.9 L664,220.1 L672,213.3 L680,209.2 L688,209.8 L696,204.5 L704,202.4 L712,197.6 L720,195.9 L728,193.9 L736,192.8 L744,188.6 L752,186.3 L760,188.9 L768,184.0 L776,185.4 L784,185.2 L792,184.2 L800,186.2 L808,188.8 L816,188.7 L824,184.4 L832,190.5 L840,187.9 L848,191.3 L856,189.9 L864,193.2 L872,194.6 L880,196.5 L888,197.9 L896,199.6 L904,203.3 L912,201.1 L920,207.1 L928,204.2 L936,209.8 L944,209.3 L952,206.9 L960,212.7 L968,209.8 L976,210.4 L984,214.9 L992,213.3 L1000,212.6 L1008,210.9 L1016,215.7 L1024,215.1 L1032,215.6 L1040,211.0 L1048,211.5 L1056,211.4 L1064,210.4 L1072,210.5 L1080,210.9 L1088,213.3 L1096,212.5 L1104,212.3 L1112,210.8 L1120,211.4 L1128,212.1 L1136,212.9 L1144,214.0 L1152,215.5 L1160,213.9 L1168,219.1 L1176,219.1 L1184,220.5 L1192,221.3 L1200,221.1" fill="none" stroke="#a855f7" stroke-width="1.2" opacity="0.30"/><path d="M0,188.1 L8,191.6 L16,194.3 L24,195.4 L32,193.6 L40,193.4 L48,199.9 L56,196.9 L64,198.3 L72,200.1 L80,201.7 L88,202.8 L96,203.9 L104,206.5 L112,211.1 L120,207.4 L128,213.3 L136,212.4 L144,210.8 L152,215.0 L160,215.5 L168,211.5 L176,215.4 L184,215.4 L192,213.2 L200,210.2 L208,211.1 L216,212.5 L224,209.4 L232,212.8 L240,214.4 L248,211.4 L256,209.2 L264,213.2 L272,208.8 L280,210.5 L288,211.1 L296,211.2 L304,211.6 L312,212.3 L320,217.8 L328,216.2 L336,218.4 L344,217.2 L352,217.8 L360,223.2 L368,223.6 L376,224.1 L384,227.8 L392,226.9 L400,232.0 L408,233.1 L416,236.7 L424,238.0 L432,237.8 L440,244.0 L448,240.9 L456,247.4 L464,248.6 L472,250.6 L480,246.1 L488,246.9 L496,247.8 L504,250.3 L512,248.3 L520,249.7 L528,251.0 L536,249.6 L544,248.3 L552,244.4 L560,243.5 L568,241.9 L576,243.9 L584,240.4 L592,235.0 L600,235.2 L608,232.2 L616,225.6 L624,224.0 L632,219.3 L640,220.4 L648,211.7 L656,209.5 L664,208.0 L672,201.9 L680,202.8 L688,196.7 L696,198.1 L704,194.4 L712,192.0 L720,190.2 L728,183.8 L736,184.3 L744,183.5 L752,184.1 L760,179.1 L768,181.2 L776,180.5 L784,182.5 L792,183.1 L800,180.5 L808,180.5 L816,181.3 L824,183.6 L832,183.4 L840,184.4 L848,190.8 L856,189.4 L864,192.9 L872,196.2 L880,198.6 L888,197.1 L896,202.5 L904,204.0 L912,203.9 L920,208.5 L928,208.2 L936,210.0 L944,213.8 L952,213.0 L960,217.8 L968,215.7 L976,217.1 L984,218.9 L992,223.2 L1000,224.9 L1008,220.3 L1016,220.0 L1024,224.8 L1032,222.2 L1040,222.5 L1048,220.9 L1056,222.3 L1064,225.1 L1072,220.5 L1080,222.7 L1088,224.3 L1096,224.4 L1104,221.6 L1112,224.2 L1120,222.4 L1128,218.6 L1136,220.5 L1144,221.3 L1152,224.9 L1160,219.6 L1168,223.7 L1176,226.9 L1184,222.5 L1192,227.9 L1200,227.5" fill="none" stroke="#a855f7" stroke-width="1.2" opacity="0.30"/><path d="M0,253.9 L8,257.4 L16,254.0 L24,257.9 L32,252.5 L40,256.2 L48,254.1 L56,252.7 L64,254.2 L72,252.4 L80,252.8 L88,249.3 L96,250.8 L104,250.7 L112,250.5 L120,250.7 L128,246.9 L136,244.4 L144,242.9 L152,244.8 L160,244.2 L168,244.5 L176,242.6 L184,240.6 L192,239.6 L200,242.1 L208,242.2 L216,243.3 L224,246.3 L232,245.2 L240,248.7 L248,244.1 L256,248.7 L264,248.6 L272,251.8 L280,252.8 L288,259.6 L296,258.7 L304,260.4 L312,262.9 L320,265.7 L328,271.1 L336,271.0 L344,275.1 L352,281.5 L360,282.2 L368,287.2 L376,287.9 L384,290.3 L392,293.9 L400,294.0 L408,296.1 L416,299.5 L424,298.2 L432,304.9 L440,300.9 L448,303.8 L456,305.9 L464,305.3 L472,304.8 L480,302.8 L488,300.6 L496,303.7 L504,300.5 L512,301.0 L520,297.3 L528,291.8 L536,291.6 L544,287.7 L552,288.6 L560,283.5 L568,281.7 L576,279.5 L584,272.0 L592,268.8 L600,269.5 L608,265.8 L616,261.8 L624,261.3 L632,257.4 L640,252.5 L648,249.2 L656,250.7 L664,248.3 L672,246.3 L680,242.3 L688,245.9 L696,240.7 L704,240.8 L712,242.7 L720,240.0 L728,237.9 L736,242.3 L744,240.0 L752,243.3 L760,240.6 L768,240.5 L776,240.6 L784,243.8 L792,247.3 L800,246.6 L808,244.7 L816,249.0 L824,247.3 L832,251.4 L840,252.5 L848,251.0 L856,253.7 L864,252.7 L872,252.4 L880,254.2 L888,252.6 L896,253.3 L904,254.0 L912,255.8 L920,254.2 L928,257.3 L936,254.2 L944,254.5 L952,256.4 L960,254.7 L968,252.5 L976,252.8 L984,255.0 L992,253.8 L1000,252.6 L1008,250.6 L1016,249.5 L1024,250.8 L1032,250.6 L1040,250.4 L1048,250.8 L1056,253.8 L1064,254.0 L1072,257.9 L1080,256.9 L1088,255.1 L1096,260.7 L1104,258.5 L1112,263.7 L1120,267.1 L1128,264.6 L1136,267.8 L1144,272.2 L1152,274.9 L1160,278.6 L1168,279.3 L1176,284.7 L1184,286.7 L1192,285.1 L1200,288.6" fill="none" stroke="#c084fc" stroke-width="1.2" opacity="0.27"/><path d="M0,248.9 L8,249.6 L16,255.1 L24,251.0 L32,251.7 L40,257.0 L48,254.3 L56,255.1 L64,258.0 L72,257.8 L80,258.2 L88,255.6 L96,255.4 L104,256.0 L112,255.8 L120,254.6 L128,255.1 L136,250.2 L144,252.1 L152,252.8 L160,249.1 L168,250.4 L176,253.5 L184,253.4 L192,249.5 L200,251.0 L208,251.5 L216,254.0 L224,253.5 L232,255.6 L240,253.6 L248,258.3 L256,255.4 L264,257.1 L272,261.1 L280,262.4 L288,265.7 L296,266.0 L304,273.1 L312,274.7 L320,277.8 L328,277.4 L336,278.2 L344,281.5 L352,286.8 L360,287.8 L368,289.0 L376,291.0 L384,295.2 L392,296.5 L400,297.6 L408,297.4 L416,300.3 L424,299.2 L432,300.0 L440,303.4 L448,303.5 L456,302.7 L464,303.2 L472,303.2 L480,299.8 L488,298.1 L496,298.3 L504,296.4 L512,292.3 L520,290.7 L528,286.8 L536,281.7 L544,281.8 L552,279.7 L560,274.0 L568,271.3 L576,268.9 L584,262.1 L592,260.2 L600,257.3 L608,257.5 L616,252.6 L624,249.9 L632,246.7 L640,245.5 L648,243.4 L656,239.6 L664,237.7 L672,234.7 L680,236.9 L688,232.3 L696,234.5 L704,236.0 L712,232.5 L720,232.0 L728,234.9 L736,231.5 L744,237.3 L752,237.1 L760,239.0 L768,237.1 L776,238.0 L784,240.6 L792,244.9 L800,241.9 L808,246.7 L816,247.7 L824,251.0 L832,249.9 L840,254.4 L848,252.1 L856,254.3 L864,259.6 L872,259.5 L880,259.0 L888,259.0 L896,261.4 L904,263.7 L912,259.9 L920,263.6 L928,260.7 L936,264.8 L944,265.5 L952,264.0 L960,263.6 L968,260.3 L976,260.5 L984,262.9 L992,260.2 L1000,263.0 L1008,264.5 L1016,261.1 L1024,264.7 L1032,264.9 L1040,261.3 L1048,262.8 L1056,265.4 L1064,263.3 L1072,265.0 L1080,265.4 L1088,267.5 L1096,264.7 L1104,268.8 L1112,268.4 L1120,272.6 L1128,273.3 L1136,274.4 L1144,280.1 L1152,279.8 L1160,278.6 L1168,285.4 L1176,286.4 L1184,287.3 L1192,291.1 L1200,290.1" fill="none" stroke="#c084fc" stroke-width="1.2" opacity="0.27"/><path d="M0,251.8 L8,254.1 L16,254.2 L24,259.0 L32,257.2 L40,257.6 L48,259.3 L56,260.5 L64,260.0 L72,259.1 L80,264.7 L88,259.7 L96,261.2 L104,263.7 L112,265.4 L120,261.9 L128,262.0 L136,263.0 L144,265.0 L152,262.9 L160,262.8 L168,263.7 L176,261.3 L184,259.4 L192,261.7 L200,262.7 L208,263.2 L216,262.4 L224,264.5 L232,265.1 L240,267.3 L248,265.3 L256,265.7 L264,269.0 L272,270.2 L280,270.8 L288,273.9 L296,276.9 L304,273.4 L312,280.1 L320,282.1 L328,279.9 L336,284.4 L344,284.7 L352,289.1 L360,287.2 L368,290.2 L376,294.6 L384,293.3 L392,298.8 L400,298.8 L408,300.5 L416,298.6 L424,299.2 L432,299.4 L440,299.3 L448,297.0 L456,298.2 L464,295.1 L472,293.2 L480,291.2 L488,291.5 L496,289.3 L504,287.6 L512,284.5 L520,282.8 L528,278.0 L536,272.6 L544,269.0 L552,266.9 L560,267.0 L568,262.9 L576,257.2 L584,253.8 L592,251.6 L600,248.5 L608,242.9 L616,242.8 L624,239.2 L632,239.7 L640,233.2 L648,230.9 L656,234.0 L664,227.7 L672,228.8 L680,226.8 L688,230.1 L696,229.1 L704,229.3 L712,225.3 L720,230.2 L728,230.1 L736,229.6 L744,232.5 L752,235.5 L760,235.8 L768,240.1 L776,242.4 L784,245.0 L792,243.1 L800,245.5 L808,251.0 L816,252.2 L824,252.8 L832,254.2 L840,259.9 L848,259.8 L856,262.4 L864,265.2 L872,264.9 L880,264.1 L888,266.0 L896,270.1 L904,270.9 L912,272.5 L920,270.4 L928,270.5 L936,269.8 L944,274.7 L952,274.0 L960,271.6 L968,270.0 L976,270.7 L984,273.6 L992,273.6 L1000,270.7 L1008,272.1 L1016,269.6 L1024,273.5 L1032,269.6 L1040,269.0 L1048,273.2 L1056,273.6 L1064,272.1 L1072,273.3 L1080,270.6 L1088,270.4 L1096,273.9 L1104,276.0 L1112,274.4 L1120,272.5 L1128,276.8 L1136,277.3 L1144,280.2 L1152,277.5 L1160,283.2 L1168,285.2 L1176,286.7 L1184,285.5 L1192,287.7 L1200,288.1" fill="none" stroke="#c084fc" stroke-width="1.2" opacity="0.27"/><path d="M0,296.2 L8,295.7 L16,292.5 L24,290.2 L32,293.3 L40,289.1 L48,288.9 L56,287.7 L64,286.5 L72,286.8 L80,285.6 L88,284.1 L96,287.4 L104,283.0 L112,282.3 L120,286.4 L128,284.9 L136,283.0 L144,283.9 L152,285.2 L160,291.0 L168,288.8 L176,290.0 L184,290.5 L192,292.9 L200,294.5 L208,296.6 L216,304.2 L224,306.2 L232,307.6 L240,310.8 L248,313.6 L256,313.4 L264,319.7 L272,320.7 L280,325.2 L288,329.7 L296,329.1 L304,334.4 L312,335.0 L320,338.2 L328,342.5 L336,343.5 L344,342.3 L352,342.5 L360,345.4 L368,346.8 L376,345.0 L384,348.0 L392,346.4 L400,344.3 L408,346.1 L416,345.0 L424,341.4 L432,336.5 L440,335.1 L448,336.3 L456,332.2 L464,330.8 L472,326.1 L480,322.8 L488,318.6 L496,319.1 L504,310.9 L512,311.4 L520,307.1 L528,306.9 L536,303.2 L544,295.9 L552,294.1 L560,292.2 L568,289.8 L576,287.8 L584,284.5 L592,285.5 L600,281.9 L608,284.8 L616,278.9 L624,278.6 L632,277.9 L640,280.6 L648,278.1 L656,278.8 L664,279.6 L672,279.9 L680,280.1 L688,282.4 L696,286.7 L704,285.9 L712,288.0 L720,289.6 L728,285.7 L736,290.1 L744,293.6 L752,290.2 L760,294.7 L768,294.7 L776,296.1 L784,297.4 L792,298.5 L800,293.9 L808,295.2 L816,296.4 L824,297.2 L832,299.7 L840,299.7 L848,294.8 L856,295.5 L864,294.8 L872,294.3 L880,296.6 L888,296.8 L896,294.8 L904,298.0 L912,296.5 L920,297.6 L928,295.0 L936,294.0 L944,295.5 L952,297.2 L960,295.7 L968,292.8 L976,297.8 L984,298.3 L992,298.8 L1000,301.2 L1008,299.2 L1016,300.9 L1024,301.9 L1032,305.4 L1040,309.7 L1048,311.1 L1056,311.6 L1064,312.1 L1072,315.1 L1080,319.9 L1088,319.0 L1096,321.8 L1104,323.5 L1112,327.2 L1120,328.4 L1128,334.8 L1136,333.9 L1144,335.7 L1152,337.6 L1160,337.7 L1168,341.7 L1176,339.5 L1184,344.3 L1192,341.5 L1200,342.5" fill="none" stroke="#3b82f6" stroke-width="1.2" opacity="0.19"/><path d="M0,296.2 L8,298.1 L16,295.5 L24,299.4 L32,299.4 L40,296.1 L48,296.9 L56,293.0 L64,295.9 L72,293.4 L80,297.4 L88,293.6 L96,291.4 L104,292.9 L112,291.4 L120,293.5 L128,294.4 L136,293.7 L144,293.9 L152,296.7 L160,299.1 L168,302.0 L176,301.8 L184,303.3 L192,303.7 L200,304.6 L208,308.2 L216,311.5 L224,313.7 L232,315.8 L240,316.5 L248,321.0 L256,320.5 L264,322.6 L272,328.1 L280,329.7 L288,330.7 L296,332.4 L304,339.0 L312,340.7 L320,340.4 L328,340.7 L336,342.1 L344,341.7 L352,340.5 L360,343.8 L368,344.1 L376,341.3 L384,340.2 L392,341.2 L400,339.3 L408,341.2 L416,338.6 L424,337.2 L432,330.6 L440,328.8 L448,327.6 L456,324.9 L464,321.4 L472,316.8 L480,315.1 L488,313.3 L496,304.7 L504,301.5 L512,303.7 L520,298.9 L528,295.7 L536,289.6 L544,286.3 L552,287.3 L560,281.3 L568,281.1 L576,277.2 L584,276.9 L592,274.8 L600,274.5 L608,275.5 L616,274.6 L624,275.8 L632,271.4 L640,275.9 L648,275.4 L656,276.1 L664,275.2 L672,278.7 L680,278.8 L688,280.1 L696,279.6 L704,283.6 L712,281.8 L720,286.0 L728,285.6 L736,288.0 L744,293.2 L752,294.1 L760,293.9 L768,294.3 L776,298.7 L784,299.0 L792,300.0 L800,299.0 L808,302.1 L816,304.3 L824,301.2 L832,302.6 L840,305.2 L848,304.1 L856,308.0 L864,306.6 L872,304.6 L880,303.5 L888,304.4 L896,306.8 L904,303.8 L912,303.9 L920,305.6 L928,303.4 L936,302.8 L944,301.9 L952,302.7 L960,305.6 L968,306.4 L976,306.2 L984,305.0 L992,307.1 L1000,307.9 L1008,306.7 L1016,309.1 L1024,313.2 L1032,315.1 L1040,314.4 L1048,316.5 L1056,318.0 L1064,319.6 L1072,320.7 L1080,324.3 L1088,326.3 L1096,326.6 L1104,330.5 L1112,330.3 L1120,333.9 L1128,333.2 L1136,337.0 L1144,334.4 L1152,339.5 L1160,335.7 L1168,335.7 L1176,339.1 L1184,339.0 L1192,338.1 L1200,337.4" fill="none" stroke="#3b82f6" stroke-width="1.2" opacity="0.19"/><path d="M0,307.6 L8,305.4 L16,308.0 L24,303.6 L32,308.1 L40,304.6 L48,303.5 L56,304.1 L64,303.5 L72,304.8 L80,307.0 L88,303.1 L96,304.0 L104,303.1 L112,305.3 L120,305.7 L128,307.0 L136,304.9 L144,308.0 L152,303.6 L160,305.2 L168,306.7 L176,311.9 L184,312.4 L192,312.4 L200,311.6 L208,314.5 L216,314.0 L224,320.9 L232,320.5 L240,322.5 L248,322.4 L256,325.3 L264,327.1 L272,331.7 L280,332.3 L288,332.4 L296,331.6 L304,333.0 L312,335.6 L320,339.2 L328,339.6 L336,338.0 L344,338.6 L352,336.9 L360,338.7 L368,335.8 L376,337.2 L384,333.1 L392,335.9 L400,335.5 L408,333.1 L416,327.1 L424,327.1 L432,322.2 L440,318.8 L448,320.4 L456,316.3 L464,308.2 L472,307.8 L480,305.2 L488,298.1 L496,299.5 L504,295.3 L512,292.6 L520,285.9 L528,286.0 L536,279.3 L544,276.7 L552,279.5 L560,277.4 L568,271.6 L576,269.7 L584,271.7 L592,268.8 L600,270.8 L608,265.7 L616,268.5 L624,270.7 L632,269.7 L640,267.1 L648,271.3 L656,273.2 L664,275.8 L672,277.2 L680,278.1 L688,282.1 L696,280.7 L704,285.2 L712,288.6 L720,287.9 L728,289.4 L736,294.9 L744,294.0 L752,296.4 L760,302.6 L768,299.9 L776,302.7 L784,304.7 L792,309.4 L800,309.0 L808,309.6 L816,310.0 L824,314.6 L832,314.9 L840,314.6 L848,314.3 L856,314.3 L864,316.5 L872,317.2 L880,313.4 L888,313.4 L896,318.1 L904,313.5 L912,314.8 L920,312.2 L928,311.5 L936,312.8 L944,313.8 L952,315.5 L960,311.4 L968,314.5 L976,312.6 L984,314.6 L992,313.4 L1000,315.6 L1008,315.6 L1016,312.5 L1024,313.4 L1032,313.9 L1040,316.8 L1048,320.8 L1056,321.3 L1064,318.8 L1072,321.8 L1080,322.2 L1088,323.4 L1096,325.0 L1104,324.0 L1112,327.0 L1120,327.4 L1128,330.3 L1136,329.2 L1144,329.1 L1152,330.5 L1160,333.1 L1168,332.3 L1176,332.3 L1184,331.6 L1192,328.1 L1200,327.5" fill="none" stroke="#3b82f6" stroke-width="1.2" opacity="0.19"/><path d="M0,320.1 L8,324.2 L16,324.6 L24,320.6 L32,320.8 L40,323.4 L48,320.2 L56,322.7 L64,320.6 L72,321.9 L80,322.8 L88,324.9 L96,329.8 L104,329.8 L112,330.3 L120,336.6 L128,339.1 L136,339.1 L144,339.3 L152,345.2 L160,347.6 L168,347.7 L176,350.2 L184,357.0 L192,357.4 L200,364.2 L208,361.8 L216,367.1 L224,371.6 L232,370.3 L240,374.9 L248,373.3 L256,377.6 L264,379.2 L272,381.0 L280,380.0 L288,380.1 L296,383.8 L304,379.4 L312,381.7 L320,378.7 L328,379.5 L336,380.0 L344,373.1 L352,371.2 L360,372.6 L368,370.3 L376,365.3 L384,364.0 L392,359.0 L400,360.4 L408,356.9 L416,351.4 L424,349.0 L432,342.2 L440,340.9 L448,340.0 L456,335.4 L464,331.7 L472,328.9 L480,327.1 L488,323.7 L496,325.8 L504,322.6 L512,320.6 L520,316.1 L528,315.1 L536,317.0 L544,318.0 L552,317.0 L560,316.7 L568,317.3 L576,314.2 L584,313.0 L592,316.0 L600,318.9 L608,317.4 L616,321.5 L624,319.9 L632,322.1 L640,324.4 L648,325.7 L656,324.7 L664,327.9 L672,328.0 L680,328.7 L688,329.5 L696,331.8 L704,333.3 L712,331.1 L720,331.9 L728,332.3 L736,334.5 L744,335.2 L752,335.5 L760,333.7 L768,335.9 L776,336.7 L784,336.7 L792,332.0 L800,332.5 L808,332.2 L816,332.3 L824,331.3 L832,331.1 L840,330.7 L848,332.2 L856,332.9 L864,334.1 L872,329.8 L880,333.5 L888,331.3 L896,335.7 L904,331.9 L912,337.8 L920,335.2 L928,336.1 L936,338.4 L944,338.1 L952,340.4 L960,345.4 L968,344.8 L976,348.6 L984,350.9 L992,354.1 L1000,355.1 L1008,359.3 L1016,359.3 L1024,362.7 L1032,364.6 L1040,364.5 L1048,371.0 L1056,369.5 L1064,371.9 L1072,372.8 L1080,377.9 L1088,376.3 L1096,374.9 L1104,376.6 L1112,379.2 L1120,376.4 L1128,376.0 L1136,380.5 L1144,374.1 L1152,375.0 L1160,373.7 L1168,372.6 L1176,372.0 L1184,369.4 L1192,365.2 L1200,365.6" fill="none" stroke="#0033A1" stroke-width="1.2" opacity="0.20"/><path d="M0,329.0 L8,330.3 L16,332.6 L24,329.9 L32,329.8 L40,328.9 L48,329.4 L56,332.6 L64,331.3 L72,334.8 L80,336.1 L88,339.5 L96,335.4 L104,339.4 L112,340.8 L120,344.0 L128,345.4 L136,347.8 L144,351.1 L152,353.4 L160,353.9 L168,359.3 L176,361.5 L184,362.6 L192,366.6 L200,368.4 L208,369.5 L216,367.9 L224,374.7 L232,373.1 L240,373.2 L248,379.3 L256,378.4 L264,377.6 L272,379.8 L280,379.7 L288,381.4 L296,376.9 L304,376.7 L312,378.3 L320,374.3 L328,374.5 L336,371.5 L344,371.7 L352,367.6 L360,364.6 L368,361.0 L376,355.3 L384,356.0 L392,352.8 L400,350.4 L408,345.8 L416,341.0 L424,340.0 L432,334.1 L440,328.9 L448,326.7 L456,327.7 L464,322.0 L472,318.9 L480,320.7 L488,318.6 L496,312.5 L504,310.1 L512,313.5 L520,308.3 L528,310.0 L536,306.2 L544,306.4 L552,307.5 L560,307.2 L568,306.1 L576,307.2 L584,310.4 L592,309.5 L600,312.0 L608,317.2 L616,314.8 L624,320.5 L632,319.4 L640,319.7 L648,324.0 L656,322.7 L664,329.9 L672,331.2 L680,332.3 L688,330.5 L696,333.0 L704,333.7 L712,334.3 L720,337.2 L728,340.5 L736,339.4 L744,342.4 L752,344.3 L760,344.9 L768,341.6 L776,341.7 L784,342.0 L792,341.8 L800,342.6 L808,344.4 L816,343.0 L824,344.9 L832,340.4 L840,341.2 L848,340.6 L856,343.4 L864,339.6 L872,343.5 L880,344.1 L888,339.8 L896,340.4 L904,343.2 L912,344.0 L920,347.0 L928,342.6 L936,345.9 L944,346.8 L952,345.7 L960,351.1 L968,348.9 L976,353.1 L984,356.9 L992,358.6 L1000,360.9 L1008,360.6 L1016,362.1 L1024,364.9 L1032,367.2 L1040,364.7 L1048,367.7 L1056,369.1 L1064,369.6 L1072,372.4 L1080,374.8 L1088,372.2 L1096,376.2 L1104,375.0 L1112,375.7 L1120,370.4 L1128,371.7 L1136,373.4 L1144,369.1 L1152,365.5 L1160,363.2 L1168,364.7 L1176,361.6 L1184,358.3 L1192,354.4 L1200,354.2" fill="none" stroke="#0033A1" stroke-width="1.2" opacity="0.20"/><path d="M0,344.0 L8,341.0 L16,344.2 L24,340.9 L32,341.6 L40,340.2 L48,342.1 L56,342.9 L64,340.4 L72,341.0 L80,345.4 L88,342.4 L96,342.9 L104,344.3 L112,345.4 L120,352.0 L128,352.0 L136,351.2 L144,354.6 L152,355.6 L160,356.4 L168,358.0 L176,360.3 L184,364.1 L192,362.7 L200,368.9 L208,368.6 L216,368.3 L224,368.7 L232,373.2 L240,369.8 L248,372.9 L256,371.3 L264,371.5 L272,371.0 L280,375.4 L288,371.9 L296,369.5 L304,370.9 L312,368.1 L320,367.8 L328,363.4 L336,364.5 L344,359.1 L352,357.1 L360,351.7 L368,352.8 L376,350.9 L384,343.7 L392,343.7 L400,335.7 L408,334.5 L416,329.1 L424,330.8 L432,325.5 L440,319.4 L448,317.2 L456,314.8 L464,314.7 L472,310.2 L480,311.1 L488,307.4 L496,304.8 L504,307.8 L512,306.8 L520,301.5 L528,305.9 L536,300.8 L544,305.6 L552,306.8 L560,303.6 L568,305.3 L576,308.6 L584,307.8 L592,308.9 L600,310.3 L608,314.6 L616,320.3 L624,322.8 L632,319.4 L640,322.1 L648,327.7 L656,329.2 L664,329.6 L672,333.0 L680,338.5 L688,339.1 L696,343.4 L704,345.6 L712,347.3 L720,343.7 L728,348.4 L736,347.4 L744,351.6 L752,352.0 L760,350.0 L768,352.8 L776,354.8 L784,352.3 L792,350.0 L800,355.5 L808,352.8 L816,354.6 L824,350.1 L832,353.5 L840,348.6 L848,349.9 L856,349.7 L864,348.5 L872,351.1 L880,348.1 L888,351.3 L896,348.2 L904,347.5 L912,349.1 L920,351.8 L928,351.1 L936,350.5 L944,352.4 L952,352.3 L960,354.8 L968,352.5 L976,354.4 L984,355.9 L992,353.8 L1000,359.9 L1008,356.3 L1016,361.4 L1024,362.7 L1032,365.0 L1040,361.9 L1048,363.0 L1056,362.8 L1064,363.9 L1072,364.6 L1080,364.2 L1088,363.7 L1096,366.5 L1104,362.9 L1112,367.8 L1120,366.8 L1128,364.8 L1136,363.3 L1144,363.0 L1152,357.2 L1160,357.2 L1168,355.3 L1176,353.6 L1184,352.0 L1192,346.0 L1200,341.0" fill="none" stroke="#0033A1" stroke-width="1.2" opacity="0.20"/><path d="M0,374.3 L8,380.2 L16,378.0 L24,383.5 L32,381.8 L40,387.3 L48,386.5 L56,388.1 L64,394.6 L72,393.1 L80,398.6 L88,403.9 L96,406.4 L104,409.2 L112,408.8 L120,409.9 L128,415.2 L136,420.0 L144,417.5 L152,420.7 L160,426.8 L168,425.4 L176,428.8 L184,427.5 L192,427.1 L200,429.2 L208,431.7 L216,428.7 L224,430.4 L232,430.1 L240,427.1 L248,430.1 L256,426.6 L264,424.0 L272,423.4 L280,421.4 L288,419.2 L296,414.5 L304,409.8 L312,407.4 L320,403.5 L328,401.4 L336,399.3 L344,398.0 L352,396.0 L360,392.4 L368,383.9 L376,382.6 L384,383.3 L392,377.5 L400,372.8 L408,373.7 L416,372.7 L424,367.6 L432,367.8 L440,369.4 L448,368.1 L456,364.0 L464,361.7 L472,363.4 L480,362.1 L488,363.0 L496,366.5 L504,361.6 L512,366.3 L520,365.8 L528,368.7 L536,370.2 L544,371.7 L552,367.9 L560,373.2 L568,370.9 L576,374.1 L584,378.3 L592,374.1 L600,375.9 L608,379.5 L616,377.9 L624,380.1 L632,384.2 L640,380.6 L648,385.9 L656,387.3 L664,384.0 L672,385.7 L680,384.9 L688,382.4 L696,384.8 L704,387.0 L712,382.2 L720,383.5 L728,381.3 L736,383.3 L744,381.8 L752,381.6 L760,382.5 L768,381.9 L776,380.7 L784,382.1 L792,384.2 L800,381.3 L808,385.4 L816,386.5 L824,385.6 L832,383.1 L840,384.9 L848,389.8 L856,390.4 L864,388.4 L872,391.1 L880,392.7 L888,399.0 L896,401.2 L904,398.8 L912,403.0 L920,406.9 L928,409.8 L936,410.5 L944,411.8 L952,415.7 L960,419.0 L968,419.1 L976,420.0 L984,422.3 L992,425.5 L1000,427.4 L1008,425.0 L1016,426.4 L1024,425.3 L1032,425.9 L1040,430.4 L1048,429.6 L1056,428.5 L1064,422.5 L1072,425.5 L1080,421.9 L1088,422.3 L1096,419.1 L1104,414.8 L1112,413.1 L1120,409.8 L1128,406.4 L1136,407.1 L1144,400.1 L1152,401.0 L1160,392.9 L1168,394.4 L1176,385.8 L1184,384.2 L1192,379.5 L1200,379.2" fill="none" stroke="#1A5BC4" stroke-width="1.2" opacity="0.19"/><path d="M0,386.9 L8,385.4 L16,390.8 L24,389.5 L32,389.6 L40,392.3 L48,398.8 L56,395.6 L64,401.3 L72,401.2 L80,407.2 L88,407.2 L96,408.6 L104,409.1 L112,415.4 L120,418.5 L128,419.9 L136,419.0 L144,423.4 L152,422.6 L160,427.6 L168,423.0 L176,428.4 L184,424.4 L192,430.4 L200,428.2 L208,427.5 L216,428.1 L224,426.0 L232,427.2 L240,421.5 L248,418.7 L256,420.4 L264,419.3 L272,412.7 L280,411.1 L288,412.1 L296,403.8 L304,401.2 L312,402.4 L320,395.4 L328,390.8 L336,391.8 L344,384.6 L352,385.7 L360,379.1 L368,379.8 L376,374.8 L384,371.4 L392,368.2 L400,363.9 L408,366.6 L416,360.6 L424,357.6 L432,359.1 L440,361.2 L448,357.1 L456,357.8 L464,354.9 L472,358.6 L480,360.1 L488,359.2 L496,361.0 L504,361.3 L512,364.0 L520,364.9 L528,364.4 L536,365.2 L544,368.6 L552,368.0 L560,372.4 L568,371.0 L576,374.9 L584,375.8 L592,376.6 L600,382.3 L608,384.5 L616,387.5 L624,383.8 L632,386.6 L640,391.2 L648,390.9 L656,392.5 L664,389.3 L672,395.0 L680,394.2 L688,394.9 L696,394.5 L704,396.5 L712,395.5 L720,392.2 L728,395.1 L736,396.7 L744,391.6 L752,392.7 L760,395.7 L768,394.4 L776,394.2 L784,390.9 L792,395.0 L800,392.9 L808,393.6 L816,394.7 L824,394.9 L832,394.8 L840,397.6 L848,396.3 L856,399.5 L864,399.3 L872,399.3 L880,400.1 L888,403.9 L896,403.1 L904,407.8 L912,409.0 L920,405.9 L928,410.1 L936,408.7 L944,414.7 L952,415.6 L960,415.4 L968,418.5 L976,417.5 L984,418.3 L992,417.8 L1000,419.0 L1008,419.2 L1016,424.5 L1024,423.0 L1032,418.8 L1040,419.6 L1048,421.3 L1056,418.6 L1064,419.0 L1072,416.6 L1080,412.9 L1088,414.3 L1096,411.4 L1104,407.2 L1112,404.5 L1120,400.5 L1128,396.8 L1136,392.9 L1144,390.4 L1152,390.4 L1160,388.3 L1168,382.2 L1176,376.1 L1184,374.9 L1192,370.4 L1200,371.0" fill="none" stroke="#1A5BC4" stroke-width="1.2" opacity="0.19"/><path d="M0,396.6 L8,392.4 L16,393.9 L24,394.9 L32,400.4 L40,398.4 L48,403.4 L56,405.0 L64,407.0 L72,403.3 L80,405.9 L88,406.5 L96,410.5 L104,411.6 L112,415.5 L120,414.4 L128,417.4 L136,420.3 L144,419.5 L152,417.9 L160,418.5 L168,424.7 L176,422.4 L184,420.3 L192,422.7 L200,423.5 L208,418.3 L216,417.5 L224,416.7 L232,418.5 L240,413.5 L248,411.5 L256,411.8 L264,408.7 L272,403.2 L280,401.2 L288,398.1 L296,397.4 L304,395.5 L312,387.4 L320,387.4 L328,384.6 L336,381.2 L344,374.1 L352,372.6 L360,368.6 L368,367.8 L376,362.1 L384,359.9 L392,362.8 L400,360.6 L408,357.5 L416,353.6 L424,354.7 L432,351.8 L440,350.0 L448,349.8 L456,353.1 L464,350.1 L472,355.9 L480,353.6 L488,356.2 L496,358.6 L504,356.8 L512,361.3 L520,365.1 L528,363.7 L536,368.9 L544,367.3 L552,373.2 L560,378.2 L568,375.9 L576,380.6 L584,382.5 L592,388.3 L600,389.4 L608,391.7 L616,394.4 L624,395.8 L632,397.2 L640,397.5 L648,401.3 L656,400.1 L664,398.9 L672,399.3 L680,400.2 L688,401.4 L696,402.8 L704,404.1 L712,404.1 L720,406.3 L728,405.0 L736,403.4 L744,400.2 L752,404.7 L760,399.5 L768,403.4 L776,402.8 L784,401.9 L792,400.2 L800,399.8 L808,402.6 L816,402.0 L824,399.2 L832,399.2 L840,397.1 L848,398.8 L856,398.7 L864,402.7 L872,399.7 L880,400.7 L888,400.5 L896,403.9 L904,405.0 L912,405.6 L920,409.5 L928,408.9 L936,410.0 L944,408.9 L952,410.3 L960,414.5 L968,412.8 L976,414.1 L984,416.0 L992,413.7 L1000,413.0 L1008,414.6 L1016,414.9 L1024,413.0 L1032,411.3 L1040,414.1 L1048,411.8 L1056,408.1 L1064,408.6 L1072,404.2 L1080,404.9 L1088,401.6 L1096,402.5 L1104,399.4 L1112,391.7 L1120,390.4 L1128,390.3 L1136,384.8 L1144,381.1 L1152,376.8 L1160,375.3 L1168,373.4 L1176,370.9 L1184,365.5 L1192,365.9 L1200,360.9" fill="none" stroke="#1A5BC4" stroke-width="1.2" opacity="0.19"/><path d="M0,437.6 L8,445.2 L16,444.9 L24,445.6 L32,448.8 L40,453.6 L48,456.2 L56,456.5 L64,463.4 L72,464.4 L80,466.7 L88,468.6 L96,469.7 L104,472.2 L112,472.9 L120,472.1 L128,472.7 L136,470.8 L144,473.4 L152,467.1 L160,468.5 L168,469.9 L176,467.4 L184,463.0 L192,463.2 L200,457.5 L208,457.8 L216,452.3 L224,449.4 L232,448.9 L240,443.4 L248,443.6 L256,436.1 L264,436.6 L272,434.1 L280,426.5 L288,424.6 L296,421.2 L304,418.2 L312,415.8 L320,415.0 L328,410.3 L336,409.1 L344,406.4 L352,410.1 L360,408.7 L368,403.2 L376,406.2 L384,405.5 L392,405.9 L400,405.2 L408,404.0 L416,405.6 L424,401.3 L432,403.1 L440,404.4 L448,405.3 L456,406.2 L464,408.8 L472,409.3 L480,409.5 L488,412.6 L496,416.2 L504,417.2 L512,419.3 L520,419.3 L528,422.1 L536,419.9 L544,422.7 L552,421.0 L560,424.5 L568,427.3 L576,424.2 L584,423.5 L592,429.7 L600,425.8 L608,424.9 L616,429.1 L624,428.3 L632,428.2 L640,428.5 L648,427.9 L656,425.4 L664,424.6 L672,425.3 L680,424.8 L688,424.3 L696,427.8 L704,422.9 L712,427.9 L720,426.4 L728,428.4 L736,426.5 L744,424.3 L752,429.7 L760,429.5 L768,432.2 L776,430.3 L784,434.0 L792,435.5 L800,438.7 L808,440.0 L816,442.7 L824,443.6 L832,442.9 L840,446.1 L848,451.1 L856,449.7 L864,455.9 L872,457.1 L880,456.9 L888,461.5 L896,462.2 L904,464.8 L912,461.6 L920,465.4 L928,468.5 L936,469.2 L944,467.6 L952,466.4 L960,464.7 L968,464.3 L976,463.4 L984,464.8 L992,463.6 L1000,463.5 L1008,460.1 L1016,460.3 L1024,455.4 L1032,453.7 L1040,449.3 L1048,445.6 L1056,443.2 L1064,440.4 L1072,437.3 L1080,433.2 L1088,433.9 L1096,428.5 L1104,427.1 L1112,423.5 L1120,419.8 L1128,412.5 L1136,409.3 L1144,410.7 L1152,407.3 L1160,402.9 L1168,402.5 L1176,399.7 L1184,396.5 L1192,399.9 L1200,397.7" fill="none" stroke="#a855f7" stroke-width="1.2" opacity="0.21"/><path d="M0,444.0 L8,450.7 L16,453.5 L24,451.6 L32,457.5 L40,458.9 L48,457.3 L56,462.7 L64,464.3 L72,465.0 L80,464.7 L88,467.2 L96,465.3 L104,468.2 L112,469.1 L120,464.8 L128,468.7 L136,465.9 L144,467.5 L152,464.8 L160,460.3 L168,461.5 L176,459.8 L184,454.2 L192,451.8 L200,453.0 L208,446.6 L216,444.9 L224,440.7 L232,439.5 L240,436.2 L248,431.2 L256,427.0 L264,427.8 L272,421.0 L280,421.1 L288,413.7 L296,414.5 L304,412.6 L312,406.4 L320,407.4 L328,403.6 L336,401.6 L344,397.2 L352,397.8 L360,398.8 L368,399.4 L376,395.8 L384,397.8 L392,398.2 L400,398.1 L408,398.5 L416,396.6 L424,397.5 L432,400.6 L440,404.2 L448,402.5 L456,404.9 L464,406.7 L472,409.1 L480,412.3 L488,413.3 L496,415.0 L504,420.8 L512,419.4 L520,421.2 L528,424.9 L536,428.4 L544,428.8 L552,426.6 L560,428.6 L568,433.2 L576,435.0 L584,435.4 L592,434.4 L600,436.6 L608,438.6 L616,438.8 L624,433.3 L632,436.1 L640,438.9 L648,436.2 L656,438.3 L664,437.3 L672,437.3 L680,434.4 L688,434.2 L696,432.7 L704,433.4 L712,433.4 L720,436.9 L728,437.5 L736,437.9 L744,436.9 L752,438.2 L760,439.7 L768,437.8 L776,436.5 L784,441.4 L792,437.7 L800,442.3 L808,441.2 L816,442.1 L824,448.3 L832,448.3 L840,449.9 L848,450.1 L856,450.6 L864,456.2 L872,453.6 L880,459.0 L888,458.1 L896,461.4 L904,459.7 L912,462.0 L920,462.4 L928,461.3 L936,460.8 L944,459.1 L952,463.6 L960,460.6 L968,458.5 L976,458.9 L984,457.2 L992,457.2 L1000,455.2 L1008,454.4 L1016,446.3 L1024,449.4 L1032,440.8 L1040,443.7 L1048,439.7 L1056,433.5 L1064,429.6 L1072,425.8 L1080,423.3 L1088,419.9 L1096,421.0 L1104,417.1 L1112,414.5 L1120,411.8 L1128,409.1 L1136,402.7 L1144,400.1 L1152,397.0 L1160,398.9 L1168,397.0 L1176,396.2 L1184,394.4 L1192,395.7 L1200,394.2" fill="none" stroke="#a855f7" stroke-width="1.2" opacity="0.21"/><path d="M0,447.7 L8,449.0 L16,450.2 L24,454.0 L32,454.6 L40,454.8 L48,454.9 L56,460.8 L64,461.1 L72,462.0 L80,460.6 L88,462.0 L96,464.7 L104,461.7 L112,464.6 L120,464.3 L128,461.0 L136,461.4 L144,458.6 L152,459.2 L160,451.9 L168,453.1 L176,452.5 L184,445.5 L192,444.1 L200,440.6 L208,436.2 L216,434.9 L224,432.5 L232,432.1 L240,427.6 L248,425.3 L256,422.1 L264,418.7 L272,411.0 L280,412.9 L288,406.7 L296,406.3 L304,400.7 L312,400.4 L320,396.8 L328,397.0 L336,394.9 L344,395.2 L352,394.3 L360,393.8 L368,392.5 L376,395.3 L384,396.3 L392,393.4 L400,394.7 L408,395.4 L416,397.0 L424,400.5 L432,400.8 L440,403.8 L448,404.0 L456,411.7 L464,410.7 L472,416.2 L480,416.9 L488,419.8 L496,420.4 L504,422.5 L512,425.7 L520,432.2 L528,433.9 L536,434.7 L544,437.3 L552,439.1 L560,440.4 L568,442.5 L576,440.6 L584,441.5 L592,445.9 L600,442.5 L608,444.0 L616,448.3 L624,448.8 L632,445.6 L640,445.6 L648,447.4 L656,447.2 L664,446.0 L672,442.9 L680,442.7 L688,441.8 L696,444.3 L704,440.4 L712,443.7 L720,441.7 L728,444.0 L736,443.9 L744,443.7 L752,443.8 L760,441.1 L768,441.9 L776,442.2 L784,441.6 L792,441.9 L800,441.4 L808,441.4 L816,445.6 L824,448.0 L832,448.3 L840,444.8 L848,448.9 L856,447.9 L864,448.0 L872,450.5 L880,452.6 L888,453.1 L896,451.7 L904,453.8 L912,456.5 L920,456.5 L928,455.4 L936,452.7 L944,452.7 L952,453.4 L960,454.1 L968,448.0 L976,449.6 L984,448.8 L992,443.8 L1000,441.4 L1008,442.6 L1016,439.7 L1024,435.9 L1032,436.9 L1040,430.1 L1048,430.8 L1056,423.0 L1064,422.8 L1072,416.4 L1080,413.7 L1088,413.7 L1096,410.3 L1104,410.2 L1112,405.9 L1120,401.4 L1128,397.5 L1136,398.5 L1144,395.1 L1152,396.3 L1160,390.9 L1168,391.2 L1176,389.4 L1184,393.8 L1192,391.3 L1200,393.1" fill="none" stroke="#a855f7" stroke-width="1.2" opacity="0.21"/><path d="M0,515.1 L8,513.6 L16,517.0 L24,519.6 L32,520.4 L40,517.9 L48,518.9 L56,516.3 L64,517.1 L72,518.1 L80,516.2 L88,516.6 L96,513.6 L104,510.3 L112,512.1 L120,505.8 L128,503.2 L136,501.8 L144,501.3 L152,494.9 L160,492.5 L168,489.2 L176,484.7 L184,481.6 L192,477.8 L200,475.3 L208,473.9 L216,466.9 L224,467.1 L232,463.0 L240,461.1 L248,458.9 L256,458.7 L264,458.3 L272,454.5 L280,452.5 L288,454.5 L296,451.0 L304,451.0 L312,449.8 L320,452.6 L328,448.8 L336,452.6 L344,451.3 L352,452.3 L360,452.3 L368,453.4 L376,453.3 L384,454.9 L392,459.1 L400,458.7 L408,462.9 L416,461.7 L424,466.7 L432,465.9 L440,467.4 L448,468.0 L456,470.4 L464,471.2 L472,470.9 L480,474.9 L488,475.3 L496,475.1 L504,478.2 L512,477.3 L520,477.0 L528,476.3 L536,476.4 L544,475.3 L552,478.0 L560,477.8 L568,476.8 L576,474.3 L584,476.1 L592,477.4 L600,475.2 L608,475.4 L616,477.1 L624,476.5 L632,473.2 L640,474.0 L648,473.2 L656,478.2 L664,475.1 L672,477.4 L680,478.8 L688,481.5 L696,481.7 L704,484.6 L712,485.8 L720,487.6 L728,488.0 L736,487.9 L744,491.2 L752,491.6 L760,494.6 L768,498.7 L776,501.7 L784,504.4 L792,502.9 L800,507.0 L808,509.3 L816,510.8 L824,513.4 L832,511.2 L840,511.0 L848,516.4 L856,517.3 L864,517.0 L872,514.8 L880,516.9 L888,513.5 L896,514.7 L904,514.4 L912,512.8 L920,508.7 L928,506.2 L936,502.6 L944,502.3 L952,499.0 L960,499.6 L968,497.3 L976,488.4 L984,485.4 L992,485.5 L1000,480.3 L1008,478.3 L1016,471.7 L1024,471.9 L1032,466.9 L1040,463.7 L1048,462.3 L1056,456.4 L1064,458.6 L1072,451.1 L1080,449.8 L1088,451.5 L1096,450.1 L1104,445.4 L1112,443.4 L1120,443.5 L1128,445.4 L1136,445.7 L1144,445.6 L1152,443.3 L1160,446.7 L1168,445.4 L1176,445.5 L1184,446.2 L1192,452.3 L1200,453.5" fill="none" stroke="#c084fc" stroke-width="1.2" opacity="0.18"/><path d="M0,510.7 L8,514.2 L16,514.8 L24,516.2 L32,518.1 L40,514.6 L48,515.3 L56,514.0 L64,512.8 L72,514.5 L80,513.1 L88,508.7 L96,508.3 L104,505.9 L112,502.3 L120,501.4 L128,496.0 L136,493.2 L144,488.4 L152,484.7 L160,482.1 L168,478.9 L176,478.3 L184,470.0 L192,469.0 L200,468.0 L208,461.7 L216,462.3 L224,458.0 L232,455.4 L240,452.3 L248,448.4 L256,446.0 L264,448.3 L272,445.1 L280,447.6 L288,446.7 L296,446.6 L304,446.7 L312,445.2 L320,447.2 L328,446.7 L336,449.2 L344,448.2 L352,447.6 L360,452.2 L368,452.4 L376,453.6 L384,457.8 L392,458.8 L400,459.9 L408,464.6 L416,466.2 L424,465.6 L432,471.8 L440,471.3 L448,474.8 L456,476.9 L464,474.9 L472,480.9 L480,477.6 L488,479.6 L496,485.5 L504,481.8 L512,484.1 L520,482.6 L528,485.8 L536,484.8 L544,485.3 L552,487.0 L560,483.7 L568,487.6 L576,484.3 L584,483.8 L592,485.9 L600,486.6 L608,484.7 L616,483.7 L624,482.5 L632,484.4 L640,486.3 L648,482.3 L656,484.8 L664,487.8 L672,485.6 L680,487.1 L688,488.1 L696,488.1 L704,488.0 L712,487.1 L720,490.3 L728,492.4 L736,491.0 L744,497.2 L752,498.5 L760,495.4 L768,497.9 L776,499.0 L784,501.9 L792,503.4 L800,503.2 L808,506.2 L816,504.8 L824,509.3 L832,505.5 L840,509.2 L848,508.2 L856,508.5 L864,510.8 L872,509.7 L880,510.5 L888,506.1 L896,504.6 L904,506.5 L912,505.2 L920,498.5 L928,500.8 L936,497.7 L944,490.6 L952,488.8 L960,488.2 L968,481.5 L976,481.8 L984,479.0 L992,477.1 L1000,474.4 L1008,465.6 L1016,466.7 L1024,460.5 L1032,457.4 L1040,454.9 L1048,456.0 L1056,448.6 L1064,451.1 L1072,447.2 L1080,446.5 L1088,442.1 L1096,441.8 L1104,444.2 L1112,440.7 L1120,443.2 L1128,439.5 L1136,443.4 L1144,439.3 L1152,441.6 L1160,442.2 L1168,442.7 L1176,449.2 L1184,447.1 L1192,449.1 L1200,456.6" fill="none" stroke="#c084fc" stroke-width="1.2" opacity="0.18"/><path d="M0,505.9 L8,509.3 L16,507.6 L24,509.8 L32,508.6 L40,507.6 L48,505.2 L56,505.9 L64,507.9 L72,503.8 L80,499.4 L88,496.9 L96,494.2 L104,495.8 L112,493.2 L120,489.9 L128,483.2 L136,482.4 L144,476.5 L152,474.1 L160,470.9 L168,469.8 L176,468.2 L184,460.3 L192,461.5 L200,458.1 L208,454.2 L216,450.3 L224,446.5 L232,448.1 L240,445.6 L248,445.7 L256,445.1 L264,442.1 L272,441.8 L280,440.2 L288,438.1 L296,438.2 L304,441.0 L312,439.7 L320,445.6 L328,443.5 L336,445.4 L344,448.4 L352,449.5 L360,452.2 L368,455.4 L376,455.1 L384,459.4 L392,464.8 L400,467.9 L408,471.1 L416,471.0 L424,472.8 L432,476.2 L440,477.5 L448,483.0 L456,486.5 L464,485.4 L472,490.5 L480,490.8 L488,489.1 L496,494.7 L504,494.5 L512,494.5 L520,495.5 L528,495.9 L536,494.7 L544,492.8 L552,493.0 L560,494.5 L568,492.8 L576,496.0 L584,494.7 L592,496.8 L600,495.4 L608,492.3 L616,493.2 L624,492.7 L632,489.9 L640,488.3 L648,487.6 L656,488.7 L664,491.5 L672,488.1 L680,487.8 L688,492.3 L696,491.2 L704,488.2 L712,488.3 L720,491.1 L728,491.5 L736,490.9 L744,493.5 L752,494.9 L760,495.6 L768,493.6 L776,496.9 L784,496.1 L792,498.0 L800,498.0 L808,499.5 L816,501.0 L824,500.7 L832,499.6 L840,501.6 L848,502.5 L856,501.3 L864,501.4 L872,500.4 L880,496.2 L888,494.6 L896,493.1 L904,497.2 L912,495.0 L920,489.1 L928,486.5 L936,486.7 L944,480.6 L952,480.3 L960,480.1 L968,474.5 L976,469.2 L984,466.7 L992,465.4 L1000,466.2 L1008,463.1 L1016,455.0 L1024,455.5 L1032,454.5 L1040,449.7 L1048,446.2 L1056,444.1 L1064,441.2 L1072,440.1 L1080,441.4 L1088,440.7 L1096,439.6 L1104,442.1 L1112,441.9 L1120,440.6 L1128,440.1 L1136,440.5 L1144,445.5 L1152,442.6 L1160,445.4 L1168,449.4 L1176,452.2 L1184,454.1 L1192,455.4 L1200,459.9" fill="none" stroke="#c084fc" stroke-width="1.2" opacity="0.18"/><path d="M0,551.6 L8,549.2 L16,548.1 L24,548.2 L32,542.8 L40,541.1 L48,539.3 L56,534.9 L64,530.2 L72,526.9 L80,524.7 L88,519.9 L96,517.9 L104,516.0 L112,510.6 L120,510.5 L128,506.2 L136,502.5 L144,502.1 L152,497.7 L160,494.6 L168,495.1 L176,493.7 L184,488.4 L192,488.7 L200,483.6 L208,485.6 L216,485.5 L224,483.1 L232,483.3 L240,485.8 L248,482.3 L256,487.5 L264,484.3 L272,486.2 L280,489.6 L288,490.7 L296,490.9 L304,491.2 L312,494.9 L320,496.3 L328,494.7 L336,497.8 L344,497.4 L352,502.3 L360,505.7 L368,504.2 L376,507.7 L384,508.2 L392,511.1 L400,508.3 L408,509.9 L416,511.6 L424,509.7 L432,513.4 L440,509.6 L448,515.2 L456,510.3 L464,512.2 L472,511.3 L480,515.2 L488,510.2 L496,515.2 L504,514.7 L512,510.2 L520,514.4 L528,514.4 L536,513.4 L544,514.2 L552,510.7 L560,514.3 L568,514.8 L576,510.4 L584,513.3 L592,511.4 L600,517.8 L608,513.8 L616,518.0 L624,518.6 L632,518.5 L640,520.2 L648,523.2 L656,526.2 L664,527.6 L672,528.9 L680,529.7 L688,532.6 L696,535.9 L704,537.2 L712,538.8 L720,538.2 L728,545.4 L736,544.7 L744,544.6 L752,549.1 L760,546.4 L768,546.3 L776,551.0 L784,548.1 L792,551.1 L800,547.7 L808,549.5 L816,548.5 L824,545.2 L832,546.8 L840,543.7 L848,541.4 L856,537.7 L864,536.6 L872,532.3 L880,529.1 L888,527.1 L896,521.8 L904,521.2 L912,520.8 L920,515.6 L928,509.4 L936,507.6 L944,507.2 L952,503.4 L960,495.5 L968,495.6 L976,494.6 L984,490.4 L992,488.7 L1000,487.5 L1008,485.6 L1016,480.9 L1024,483.6 L1032,477.5 L1040,477.2 L1048,479.7 L1056,480.9 L1064,480.2 L1072,477.4 L1080,480.7 L1088,482.6 L1096,483.9 L1104,480.8 L1112,485.8 L1120,489.2 L1128,488.3 L1136,490.3 L1144,495.8 L1152,497.6 L1160,498.4 L1168,497.6 L1176,502.2 L1184,504.1 L1192,504.8 L1200,506.5" fill="none" stroke="#3b82f6" stroke-width="1.2" opacity="0.14"/><path d="M0,543.6 L8,540.8 L16,540.4 L24,538.6 L32,534.6 L40,531.3 L48,531.2 L56,527.6 L64,524.2 L72,521.5 L80,513.4 L88,514.2 L96,507.8 L104,504.5 L112,503.3 L120,502.4 L128,493.7 L136,491.2 L144,490.0 L152,489.2 L160,484.8 L168,483.8 L176,484.4 L184,480.1 L192,482.6 L200,478.0 L208,478.5 L216,477.9 L224,478.2 L232,478.7 L240,482.1 L248,483.1 L256,482.8 L264,481.3 L272,485.0 L280,485.8 L288,491.0 L296,490.0 L304,489.5 L312,495.7 L320,498.7 L328,499.9 L336,499.4 L344,505.6 L352,504.6 L360,507.1 L368,508.2 L376,511.8 L384,514.1 L392,516.0 L400,517.6 L408,515.4 L416,521.8 L424,517.7 L432,523.5 L440,519.0 L448,519.3 L456,521.3 L464,522.2 L472,524.9 L480,524.0 L488,519.5 L496,523.9 L504,520.4 L512,522.6 L520,520.4 L528,521.1 L536,518.3 L544,523.2 L552,519.0 L560,521.1 L568,519.7 L576,521.0 L584,518.7 L592,521.4 L600,522.9 L608,522.0 L616,524.5 L624,525.4 L632,522.7 L640,523.0 L648,527.9 L656,529.0 L664,530.7 L672,532.0 L680,533.8 L688,535.6 L696,532.2 L704,538.2 L712,535.7 L720,536.6 L728,538.4 L736,538.0 L744,540.3 L752,544.5 L760,544.7 L768,542.2 L776,545.3 L784,544.0 L792,544.7 L800,542.4 L808,541.2 L816,542.1 L824,538.8 L832,533.8 L840,531.0 L848,530.5 L856,527.5 L864,528.5 L872,521.7 L880,522.0 L888,519.4 L896,517.1 L904,509.0 L912,507.9 L920,503.5 L928,501.8 L936,497.2 L944,498.4 L952,493.0 L960,488.6 L968,484.6 L976,486.4 L984,480.1 L992,481.0 L1000,476.9 L1008,475.6 L1016,478.2 L1024,475.5 L1032,478.0 L1040,476.9 L1048,478.2 L1056,478.9 L1064,477.2 L1072,477.8 L1080,479.4 L1088,483.8 L1096,485.3 L1104,483.8 L1112,490.0 L1120,488.3 L1128,489.2 L1136,492.4 L1144,495.9 L1152,503.1 L1160,504.9 L1168,503.1 L1176,508.0 L1184,513.4 L1192,513.5 L1200,517.2" fill="none" stroke="#3b82f6" stroke-width="1.2" opacity="0.14"/><path d="M0,533.3 L8,532.3 L16,529.8 L24,526.4 L32,525.6 L40,522.5 L48,521.8 L56,514.3 L64,511.6 L72,509.8 L80,504.2 L88,505.8 L96,502.8 L104,494.4 L112,492.9 L120,492.2 L128,486.0 L136,488.8 L144,481.7 L152,480.1 L160,477.8 L168,478.0 L176,477.4 L184,478.4 L192,478.7 L200,474.4 L208,476.9 L216,476.9 L224,478.1 L232,478.2 L240,477.7 L248,482.8 L256,482.3 L264,482.6 L272,488.6 L280,490.4 L288,491.4 L296,493.6 L304,499.5 L312,500.7 L320,501.0 L328,506.0 L336,510.2 L344,510.9 L352,510.4 L360,516.0 L368,518.4 L376,520.6 L384,520.0 L392,525.6 L400,526.7 L408,525.0 L416,530.3 L424,530.2 L432,527.8 L440,532.3 L448,532.4 L456,531.7 L464,534.8 L472,533.4 L480,530.8 L488,532.8 L496,534.3 L504,527.9 L512,530.1 L520,529.0 L528,528.8 L536,529.8 L544,529.8 L552,528.4 L560,525.3 L568,524.5 L576,523.8 L584,527.7 L592,523.2 L600,525.3 L608,524.3 L616,525.5 L624,523.2 L632,523.2 L640,523.6 L648,529.2 L656,527.0 L664,529.1 L672,530.1 L680,528.8 L688,529.8 L696,533.1 L704,528.7 L712,532.9 L720,533.0 L728,536.3 L736,533.0 L744,531.8 L752,534.4 L760,534.5 L768,532.6 L776,536.0 L784,532.4 L792,531.4 L800,534.9 L808,530.0 L816,531.6 L824,526.3 L832,527.5 L840,523.9 L848,522.7 L856,522.2 L864,517.7 L872,513.9 L880,509.0 L888,509.9 L896,505.0 L904,502.3 L912,499.1 L920,497.0 L928,493.2 L936,489.9 L944,490.7 L952,484.5 L960,484.5 L968,482.6 L976,479.4 L984,478.2 L992,476.1 L1000,475.3 L1008,474.0 L1016,475.3 L1024,476.0 L1032,476.6 L1040,478.0 L1048,476.1 L1056,475.2 L1064,478.0 L1072,480.2 L1080,485.2 L1088,484.0 L1096,487.6 L1104,492.8 L1112,494.5 L1120,493.9 L1128,500.2 L1136,503.1 L1144,503.6 L1152,509.0 L1160,508.7 L1168,514.5 L1176,519.4 L1184,518.2 L1192,524.8 L1200,526.2" fill="none" stroke="#3b82f6" stroke-width="1.2" opacity="0.14"/><path d="M0,561.3 L8,556.6 L16,554.4 L24,553.4 L32,548.7 L40,544.4 L48,541.1 L56,535.4 L64,532.1 L72,533.5 L80,530.8 L88,526.6 L96,527.0 L104,525.7 L112,522.7 L120,523.1 L128,520.5 L136,521.0 L144,517.1 L152,519.2 L160,520.2 L168,518.5 L176,521.1 L184,520.6 L192,523.2 L200,523.7 L208,525.4 L216,529.1 L224,529.8 L232,532.4 L240,533.7 L248,533.8 L256,534.8 L264,538.0 L272,538.4 L280,537.4 L288,541.6 L296,542.0 L304,541.3 L312,544.7 L320,549.0 L328,549.5 L336,548.1 L344,551.1 L352,551.9 L360,552.5 L368,552.2 L376,551.3 L384,547.6 L392,550.3 L400,549.7 L408,549.2 L416,549.9 L424,548.4 L432,551.2 L440,547.3 L448,546.4 L456,546.0 L464,551.3 L472,549.4 L480,548.8 L488,550.5 L496,550.3 L504,553.4 L512,550.0 L520,554.5 L528,550.6 L536,554.4 L544,557.7 L552,558.9 L560,556.3 L568,559.5 L576,562.3 L584,563.7 L592,563.3 L600,569.5 L608,567.2 L616,573.2 L624,575.2 L632,575.0 L640,578.9 L648,580.4 L656,582.3 L664,583.9 L672,583.9 L680,583.8 L688,583.0 L696,582.5 L704,586.4 L712,586.2 L720,585.8 L728,582.3 L736,582.6 L744,582.9 L752,580.7 L760,576.5 L768,574.8 L776,575.1 L784,572.5 L792,566.0 L800,566.3 L808,563.5 L816,560.8 L824,553.9 L832,555.6 L840,549.7 L848,543.6 L856,543.8 L864,539.9 L872,534.1 L880,530.4 L888,532.6 L896,527.8 L904,522.4 L912,523.9 L920,521.4 L928,517.7 L936,515.9 L944,518.8 L952,512.0 L960,513.0 L968,516.8 L976,514.9 L984,516.2 L992,515.9 L1000,515.2 L1008,516.3 L1016,516.5 L1024,517.3 L1032,519.8 L1040,524.7 L1048,524.9 L1056,526.5 L1064,530.4 L1072,533.2 L1080,536.1 L1088,538.1 L1096,539.7 L1104,540.6 L1112,541.5 L1120,548.2 L1128,546.4 L1136,547.3 L1144,550.4 L1152,553.1 L1160,557.2 L1168,555.7 L1176,557.1 L1184,555.7 L1192,559.6 L1200,558.8" fill="none" stroke="#0033A1" stroke-width="1.2" opacity="0.17"/><path d="M0,553.4 L8,550.1 L16,545.1 L24,540.9 L32,536.1 L40,534.5 L48,531.8 L56,529.2 L64,523.4 L72,525.0 L80,522.4 L88,518.5 L96,520.1 L104,517.6 L112,516.0 L120,512.2 L128,516.3 L136,512.6 L144,515.1 L152,516.5 L160,512.9 L168,513.9 L176,514.6 L184,517.5 L192,519.3 L200,523.0 L208,521.8 L216,527.6 L224,528.0 L232,531.8 L240,531.8 L248,538.2 L256,539.9 L264,542.6 L272,540.8 L280,543.7 L288,544.8 L296,549.6 L304,550.5 L312,554.9 L320,551.6 L328,552.5 L336,554.8 L344,560.2 L352,558.4 L360,557.0 L368,556.6 L376,558.0 L384,561.1 L392,558.2 L400,560.9 L408,557.1 L416,557.4 L424,561.6 L432,558.6 L440,559.5 L448,560.8 L456,559.9 L464,560.8 L472,556.2 L480,557.7 L488,556.7 L496,559.9 L504,559.5 L512,555.1 L520,557.6 L528,561.0 L536,560.7 L544,562.2 L552,559.0 L560,561.3 L568,561.5 L576,563.9 L584,565.6 L592,568.4 L600,566.2 L608,570.3 L616,571.4 L624,572.8 L632,574.0 L640,576.6 L648,575.1 L656,576.4 L664,577.6 L672,580.0 L680,576.5 L688,575.5 L696,578.3 L704,579.0 L712,576.5 L720,575.6 L728,572.8 L736,573.1 L744,572.6 L752,572.0 L760,571.5 L768,564.3 L776,564.7 L784,561.4 L792,560.2 L800,558.1 L808,553.1 L816,550.9 L824,546.1 L832,542.2 L840,541.1 L848,536.2 L856,535.1 L864,530.3 L872,528.2 L880,525.9 L888,523.3 L896,522.7 L904,520.6 L912,517.2 L920,513.5 L928,513.0 L936,512.7 L944,509.9 L952,513.0 L960,508.5 L968,509.9 L976,514.3 L984,515.1 L992,514.3 L1000,518.7 L1008,518.8 L1016,517.4 L1024,519.6 L1032,525.0 L1040,524.7 L1048,531.2 L1056,532.6 L1064,534.0 L1072,536.1 L1080,538.7 L1088,545.2 L1096,544.9 L1104,546.2 L1112,550.8 L1120,553.2 L1128,557.6 L1136,560.8 L1144,563.6 L1152,563.9 L1160,567.1 L1168,567.7 L1176,565.8 L1184,567.7 L1192,571.0 L1200,570.1" fill="none" stroke="#0033A1" stroke-width="1.2" opacity="0.17"/><path d="M0,538.4 L8,538.1 L16,534.8 L24,534.4 L32,528.9 L40,527.2 L48,523.1 L56,522.1 L64,517.3 L72,514.5 L80,515.6 L88,516.8 L96,515.2 L104,512.1 L112,512.6 L120,510.7 L128,510.4 L136,511.7 L144,510.7 L152,510.9 L160,516.5 L168,513.9 L176,520.2 L184,520.9 L192,520.4 L200,524.0 L208,530.3 L216,530.4 L224,534.6 L232,538.5 L240,537.7 L248,542.8 L256,546.9 L264,548.4 L272,548.2 L280,551.9 L288,554.9 L296,558.8 L304,560.3 L312,560.9 L320,563.0 L328,563.6 L336,564.7 L344,564.7 L352,566.2 L360,567.9 L368,567.8 L376,570.5 L384,572.1 L392,571.4 L400,572.0 L408,568.1 L416,571.3 L424,567.6 L432,566.8 L440,569.6 L448,567.0 L456,564.2 L464,561.9 L472,561.5 L480,560.8 L488,561.6 L496,560.0 L504,563.2 L512,559.5 L520,561.5 L528,560.8 L536,562.6 L544,563.0 L552,562.9 L560,563.2 L568,561.7 L576,559.9 L584,564.1 L592,562.0 L600,567.1 L608,562.7 L616,564.2 L624,567.5 L632,569.9 L640,567.3 L648,565.9 L656,568.0 L664,569.4 L672,570.4 L680,567.5 L688,567.1 L696,570.5 L704,571.0 L712,567.3 L720,563.5 L728,563.7 L736,565.9 L744,562.5 L752,562.9 L760,559.6 L768,557.3 L776,551.6 L784,549.0 L792,549.9 L800,546.5 L808,540.7 L816,538.3 L824,538.6 L832,533.4 L840,533.8 L848,531.8 L856,528.3 L864,525.7 L872,524.2 L880,519.2 L888,519.6 L896,514.9 L904,512.3 L912,516.4 L920,513.3 L928,509.6 L936,511.6 L944,508.9 L952,511.6 L960,509.8 L968,515.9 L976,513.0 L984,515.0 L992,518.4 L1000,517.0 L1008,521.4 L1016,526.6 L1024,530.1 L1032,529.3 L1040,533.0 L1048,534.7 L1056,539.3 L1064,543.7 L1072,542.8 L1080,550.0 L1088,554.6 L1096,553.3 L1104,557.2 L1112,561.1 L1120,566.7 L1128,564.2 L1136,569.3 L1144,572.3 L1152,572.6 L1160,571.9 L1168,577.8 L1176,578.0 L1184,580.3 L1192,579.7 L1200,577.1" fill="none" stroke="#0033A1" stroke-width="1.2" opacity="0.17"/><path d="M0,577.5 L8,575.4 L16,571.7 L24,568.8 L32,567.0 L40,570.8 L48,566.5 L56,564.2 L64,567.5 L72,564.4 L80,567.7 L88,567.0 L96,565.7 L104,565.7 L112,571.7 L120,568.7 L128,572.9 L136,574.3 L144,573.2 L152,575.9 L160,577.7 L168,581.4 L176,583.0 L184,585.8 L192,588.9 L200,585.7 L208,588.6 L216,593.6 L224,593.6 L232,595.2 L240,595.1 L248,596.1 L256,596.7 L264,599.5 L272,599.1 L280,601.2 L288,602.0 L296,597.4 L304,600.8 L312,600.4 L320,597.2 L328,598.7 L336,597.3 L344,599.9 L352,599.6 L360,601.1 L368,599.3 L376,597.2 L384,599.4 L392,595.9 L400,596.8 L408,601.1 L416,596.9 L424,598.9 L432,598.1 L440,603.4 L448,602.8 L456,603.4 L464,607.0 L472,603.5 L480,606.1 L488,611.5 L496,611.1 L504,615.1 L512,615.3 L520,617.5 L528,619.1 L536,618.0 L544,620.9 L552,622.6 L560,625.4 L568,626.7 L576,630.4 L584,631.0 L592,630.3 L600,631.6 L608,628.4 L616,629.5 L624,632.4 L632,632.0 L640,631.2 L648,630.0 L656,630.5 L664,629.1 L672,629.3 L680,624.6 L688,624.4 L696,619.1 L704,620.3 L712,616.2 L720,612.9 L728,609.5 L736,608.0 L744,602.0 L752,601.0 L760,597.2 L768,591.1 L776,586.6 L784,586.7 L792,584.0 L800,581.4 L808,577.7 L816,575.9 L824,569.8 L832,566.5 L840,569.4 L848,565.5 L856,565.7 L864,565.1 L872,562.3 L880,560.4 L888,559.5 L896,560.9 L904,562.3 L912,564.4 L920,565.3 L928,563.2 L936,568.1 L944,569.0 L952,570.1 L960,572.3 L968,572.4 L976,574.9 L984,577.5 L992,577.7 L1000,580.1 L1008,582.5 L1016,587.7 L1024,589.8 L1032,595.2 L1040,596.0 L1048,595.3 L1056,600.5 L1064,599.7 L1072,599.6 L1080,604.1 L1088,603.2 L1096,608.6 L1104,608.6 L1112,605.6 L1120,609.6 L1128,609.1 L1136,611.4 L1144,609.0 L1152,611.4 L1160,612.7 L1168,612.4 L1176,608.0 L1184,611.5 L1192,611.4 L1200,609.9" fill="none" stroke="#1A5BC4" stroke-width="1.2" opacity="0.39"/><path d="M0,568.9 L8,566.4 L16,563.7 L24,562.4 L32,562.7 L40,559.3 L48,563.7 L56,558.9 L64,564.2 L72,563.8 L80,560.5 L88,567.0 L96,567.3 L104,567.7 L112,565.9 L120,570.6 L128,575.4 L136,576.6 L144,574.4 L152,579.7 L160,584.8 L168,587.0 L176,587.0 L184,591.3 L192,592.2 L200,594.0 L208,596.9 L216,596.6 L224,598.6 L232,600.1 L240,602.2 L248,601.7 L256,608.0 L264,609.8 L272,609.7 L280,609.8 L288,607.6 L296,607.9 L304,610.2 L312,607.8 L320,610.4 L328,608.4 L336,606.6 L344,608.2 L352,606.4 L360,610.7 L368,605.6 L376,607.5 L384,609.3 L392,605.1 L400,609.3 L408,604.2 L416,605.3 L424,609.4 L432,605.7 L440,608.7 L448,606.6 L456,608.9 L464,611.0 L472,609.3 L480,612.2 L488,612.4 L496,611.6 L504,615.7 L512,616.6 L520,614.9 L528,618.9 L536,616.8 L544,619.7 L552,618.7 L560,621.3 L568,624.7 L576,621.1 L584,621.1 L592,624.0 L600,625.4 L608,623.5 L616,623.7 L624,626.3 L632,621.9 L640,623.1 L648,620.7 L656,619.4 L664,618.4 L672,614.7 L680,613.9 L688,612.8 L696,610.0 L704,608.0 L712,605.2 L720,600.4 L728,602.0 L736,594.8 L744,592.2 L752,587.8 L760,588.6 L768,581.4 L776,580.7 L784,580.1 L792,573.2 L800,571.3 L808,568.4 L816,569.8 L824,563.6 L832,564.1 L840,564.0 L848,560.1 L856,559.7 L864,558.8 L872,559.1 L880,558.4 L888,559.6 L896,560.2 L904,563.8 L912,563.6 L920,566.4 L928,563.9 L936,567.4 L944,572.0 L952,570.5 L960,574.9 L968,577.5 L976,580.3 L984,584.6 L992,585.8 L1000,586.7 L1008,591.5 L1016,592.9 L1024,598.3 L1032,600.1 L1040,604.0 L1048,607.5 L1056,609.1 L1064,611.6 L1072,614.5 L1080,611.8 L1088,613.5 L1096,614.1 L1104,615.8 L1112,617.1 L1120,617.2 L1128,618.2 L1136,618.0 L1144,617.5 L1152,620.7 L1160,619.0 L1168,617.3 L1176,615.6 L1184,617.9 L1192,614.9 L1200,614.8" fill="none" stroke="#1A5BC4" stroke-width="1.2" opacity="0.39"/><path d="M0,562.6 L8,563.1 L16,560.7 L24,558.3 L32,561.2 L40,556.9 L48,560.2 L56,558.9 L64,563.4 L72,563.0 L80,563.2 L88,566.7 L96,565.5 L104,566.6 L112,569.3 L120,572.2 L128,575.7 L136,581.1 L144,585.2 L152,583.7 L160,585.8 L168,591.1 L176,595.5 L184,597.4 L192,598.0 L200,602.7 L208,602.8 L216,608.8 L224,611.2 L232,609.3 L240,611.0 L248,614.4 L256,616.0 L264,618.1 L272,619.4 L280,620.3 L288,618.1 L296,620.2 L304,620.6 L312,620.0 L320,617.1 L328,616.2 L336,618.9 L344,619.9 L352,614.6 L360,614.3 L368,614.7 L376,613.1 L384,611.4 L392,615.1 L400,609.4 L408,613.4 L416,612.5 L424,607.6 L432,606.9 L440,609.7 L448,611.3 L456,611.1 L464,611.1 L472,609.6 L480,610.7 L488,607.4 L496,609.7 L504,608.8 L512,612.2 L520,610.6 L528,613.5 L536,614.3 L544,614.3 L552,612.6 L560,614.1 L568,612.5 L576,614.2 L584,612.9 L592,616.0 L600,616.8 L608,613.4 L616,616.6 L624,614.8 L632,616.3 L640,610.7 L648,611.2 L656,607.6 L664,607.4 L672,608.8 L680,603.5 L688,603.6 L696,599.0 L704,596.6 L712,595.7 L720,595.3 L728,589.2 L736,585.4 L744,582.3 L752,582.2 L760,578.6 L768,575.2 L776,573.4 L784,569.8 L792,567.4 L800,569.3 L808,563.5 L816,562.5 L824,562.7 L832,564.3 L840,559.1 L848,559.6 L856,557.9 L864,559.3 L872,561.5 L880,562.9 L888,561.5 L896,563.2 L904,566.0 L912,569.1 L920,569.1 L928,571.7 L936,571.5 L944,574.2 L952,580.8 L960,581.2 L968,587.1 L976,589.1 L984,593.7 L992,597.1 L1000,597.7 L1008,602.3 L1016,606.7 L1024,608.8 L1032,611.2 L1040,611.4 L1048,617.5 L1056,615.3 L1064,622.3 L1072,624.0 L1080,625.2 L1088,626.7 L1096,625.9 L1104,629.4 L1112,629.9 L1120,624.8 L1128,625.0 L1136,628.8 L1144,626.5 L1152,626.3 L1160,623.4 L1168,627.6 L1176,622.9 L1184,624.7 L1192,623.9 L1200,617.1" fill="none" stroke="#1A5BC4" stroke-width="1.2" opacity="0.39"/></g>

  <!-- Gradient overlay -->
  <rect width="1200" height="630" fill="url(#overlay)"/>
  <rect width="1200" height="120" fill="url(#topFade)"/>

  <!-- Dot pattern subtle -->
  <pattern id="dots" width="40" height="40" patternUnits="userSpaceOnUse">
    <circle cx="20" cy="20" r="0.8" fill="white" opacity="0.04"/>
  </pattern>
  <rect width="1200" height="630" fill="url(#dots)"/>




</svg>