<svg xmlns="http://www.w3.org/2000/svg" width="1200" height="630" viewBox="0 0 1200 630">
  <defs>
    <linearGradient id="overlay" x1="0" y1="1" x2="0" y2="0">
      <stop offset="0%" stop-color="#001D5C" stop-opacity="0.95"/>
      <stop offset="45%" stop-color="#001D5C" stop-opacity="0.7"/>
      <stop offset="75%" stop-color="#001D5C" stop-opacity="0.2"/>
      <stop offset="100%" stop-color="#001D5C" stop-opacity="0"/>
    </linearGradient>
    <linearGradient id="topFade" x1="0" y1="0" x2="0" y2="1">
      <stop offset="0%" stop-color="#001D5C" stop-opacity="0.3"/>
      <stop offset="100%" stop-color="#001D5C" stop-opacity="0"/>
    </linearGradient>
  </defs>

  <!-- Background -->
  <rect width="1200" height="630" fill="#001D5C"/>

  <!-- Generative pattern -->
  <g><circle cx="1091" cy="355" r="19" fill="#a855f7" opacity="0.20"/><circle cx="1091" cy="355" r="19" fill="none" stroke="#a855f7" stroke-width="1" opacity="0.30"/><circle cx="905" cy="231" r="40" fill="#0033A1" opacity="0.25"/><circle cx="905" cy="231" r="40" fill="none" stroke="#0033A1" stroke-width="1" opacity="0.35"/><circle cx="296" cy="469" r="56" fill="#0033A1" opacity="0.25"/><circle cx="296" cy="469" r="56" fill="none" stroke="#0033A1" stroke-width="1" opacity="0.35"/><circle cx="550" cy="134" r="32" fill="#0033A1" opacity="0.14"/><circle cx="550" cy="134" r="32" fill="none" stroke="#0033A1" stroke-width="1" opacity="0.24"/><circle cx="787" cy="478" r="64" fill="#c084fc" opacity="0.25"/><circle cx="787" cy="478" r="64" fill="none" stroke="#c084fc" stroke-width="1" opacity="0.35"/><circle cx="433" cy="442" r="25" fill="#1A5BC4" opacity="0.25"/><circle cx="433" cy="442" r="25" fill="none" stroke="#1A5BC4" stroke-width="1" opacity="0.35"/><circle cx="1106" cy="601" r="36" fill="#0033A1" opacity="0.11"/><circle cx="1106" cy="601" r="36" fill="none" stroke="#0033A1" stroke-width="1" opacity="0.21"/><circle cx="804" cy="285" r="27" fill="#0033A1" opacity="0.27"/><circle cx="804" cy="285" r="27" fill="none" stroke="#0033A1" stroke-width="1" opacity="0.37"/><circle cx="1" cy="70" r="49" fill="#a855f7" opacity="0.13"/><circle cx="1" cy="70" r="49" fill="none" stroke="#a855f7" stroke-width="1" opacity="0.23"/><circle cx="755" cy="72" r="53" fill="#1A5BC4" opacity="0.31"/><circle cx="755" cy="72" r="53" fill="none" stroke="#1A5BC4" stroke-width="1" opacity="0.41"/><circle cx="532" cy="255" r="33" fill="#1A5BC4" opacity="0.21"/><circle cx="532" cy="255" r="33" fill="none" stroke="#1A5BC4" stroke-width="1" opacity="0.31"/><circle cx="579" cy="617" r="38" fill="#c084fc" opacity="0.09"/><circle cx="579" cy="617" r="38" fill="none" stroke="#c084fc" stroke-width="1" opacity="0.19"/><circle cx="301" cy="134" r="31" fill="#c084fc" opacity="0.17"/><circle cx="301" cy="134" r="31" fill="none" stroke="#c084fc" stroke-width="1" opacity="0.27"/><circle cx="295" cy="243" r="15" fill="#c084fc" opacity="0.28"/><circle cx="295" cy="243" r="15" fill="none" stroke="#c084fc" stroke-width="1" opacity="0.38"/><circle cx="956" cy="94" r="24" fill="#3b82f6" opacity="0.31"/><circle cx="956" cy="94" r="24" fill="none" stroke="#3b82f6" stroke-width="1" opacity="0.41"/><circle cx="147" cy="537" r="52" fill="#1A5BC4" opacity="0.31"/><circle cx="147" cy="537" r="52" fill="none" stroke="#1A5BC4" stroke-width="1" opacity="0.41"/><circle cx="219" cy="415" r="21" fill="#1A5BC4" opacity="0.21"/><circle cx="219" cy="415" r="21" fill="none" stroke="#1A5BC4" stroke-width="1" opacity="0.31"/><circle cx="10" cy="600" r="47" fill="#a855f7" opacity="0.26"/><circle cx="10" cy="600" r="47" fill="none" stroke="#a855f7" stroke-width="1" opacity="0.36"/><circle cx="816" cy="593" r="21" fill="#0033A1" opacity="0.30"/><circle cx="816" cy="593" r="21" fill="none" stroke="#0033A1" stroke-width="1" opacity="0.40"/><circle cx="1017" cy="395" r="21" fill="#3b82f6" opacity="0.17"/><circle cx="1017" cy="395" r="21" fill="none" stroke="#3b82f6" stroke-width="1" opacity="0.27"/><circle cx="492" cy="164" r="23" fill="#c084fc" opacity="0.14"/><circle cx="492" cy="164" r="23" fill="none" stroke="#c084fc" stroke-width="1" opacity="0.24"/><circle cx="153" cy="34" r="21" fill="#0033A1" opacity="0.19"/><circle cx="153" cy="34" r="21" fill="none" stroke="#0033A1" stroke-width="1" opacity="0.29"/><circle cx="1193" cy="137" r="35" fill="#1A5BC4" opacity="0.26"/><circle cx="1193" cy="137" r="35" fill="none" stroke="#1A5BC4" stroke-width="1" opacity="0.36"/><circle cx="98" cy="308" r="37" fill="#0033A1" opacity="0.24"/><circle cx="98" cy="308" r="37" fill="none" stroke="#0033A1" stroke-width="1" opacity="0.34"/><circle cx="997" cy="567" r="53" fill="#a855f7" opacity="0.10"/><circle cx="997" cy="567" r="53" fill="none" stroke="#a855f7" stroke-width="1" opacity="0.20"/><circle cx="892" cy="394" r="33" fill="#1A5BC4" opacity="0.10"/><circle cx="892" cy="394" r="33" fill="none" stroke="#1A5BC4" stroke-width="1" opacity="0.20"/><circle cx="444" cy="531" r="30" fill="#3b82f6" opacity="0.20"/><circle cx="444" cy="531" r="30" fill="none" stroke="#3b82f6" stroke-width="1" opacity="0.30"/><circle cx="63" cy="440" r="12" fill="#3b82f6" opacity="0.27"/><circle cx="63" cy="440" r="12" fill="none" stroke="#3b82f6" stroke-width="1" opacity="0.37"/><circle cx="1051" cy="159" r="60" fill="#a855f7" opacity="0.20"/><circle cx="1051" cy="159" r="60" fill="none" stroke="#a855f7" stroke-width="1" opacity="0.30"/><circle cx="661" cy="447" r="33" fill="#a855f7" opacity="0.13"/><circle cx="661" cy="447" r="33" fill="none" stroke="#a855f7" stroke-width="1" opacity="0.23"/><circle cx="207" cy="224" r="14" fill="#c084fc" opacity="0.21"/><circle cx="207" cy="224" r="14" fill="none" stroke="#c084fc" stroke-width="1" opacity="0.31"/><circle cx="67" cy="211" r="41" fill="#c084fc" opacity="0.28"/><circle cx="67" cy="211" r="41" fill="none" stroke="#c084fc" stroke-width="1" opacity="0.38"/><circle cx="345" cy="300" r="47" fill="#a855f7" opacity="0.27"/><circle cx="345" cy="300" r="47" fill="none" stroke="#a855f7" stroke-width="1" opacity="0.37"/><circle cx="628" cy="41" r="20" fill="#a855f7" opacity="0.10"/><circle cx="628" cy="41" r="20" fill="none" stroke="#a855f7" stroke-width="1" opacity="0.20"/><circle cx="556" cy="508" r="56" fill="#3b82f6" opacity="0.17"/><circle cx="556" cy="508" r="56" fill="none" stroke="#3b82f6" stroke-width="1" opacity="0.27"/><circle cx="1175" cy="44" r="31" fill="#3b82f6" opacity="0.23"/><circle cx="1175" cy="44" r="31" fill="none" stroke="#3b82f6" stroke-width="1" opacity="0.33"/><circle cx="939" cy="12" r="18" fill="#c084fc" opacity="0.22"/><circle cx="939" cy="12" r="18" fill="none" stroke="#c084fc" stroke-width="1" opacity="0.32"/><circle cx="269" cy="605" r="21" fill="#c084fc" opacity="0.09"/><circle cx="269" cy="605" r="21" fill="none" stroke="#c084fc" stroke-width="1" opacity="0.19"/><circle cx="540" cy="402" r="21" fill="#c084fc" opacity="0.26"/><circle cx="540" cy="402" r="21" fill="none" stroke="#c084fc" stroke-width="1" opacity="0.36"/><circle cx="442" cy="15" r="50" fill="#c084fc" opacity="0.26"/><circle cx="442" cy="15" r="50" fill="none" stroke="#c084fc" stroke-width="1" opacity="0.36"/><circle cx="708" cy="321" r="19" fill="#a855f7" opacity="0.23"/><circle cx="708" cy="321" r="19" fill="none" stroke="#a855f7" stroke-width="1" opacity="0.33"/><circle cx="445" cy="258" r="33" fill="#1A5BC4" opacity="0.09"/><circle cx="445" cy="258" r="33" fill="none" stroke="#1A5BC4" stroke-width="1" opacity="0.19"/><circle cx="402" cy="603" r="11" fill="#0033A1" opacity="0.28"/><circle cx="402" cy="603" r="11" fill="none" stroke="#0033A1" stroke-width="1" opacity="0.38"/><circle cx="190" cy="4" r="20" fill="#c084fc" opacity="0.16"/><circle cx="190" cy="4" r="20" fill="none" stroke="#c084fc" stroke-width="1" opacity="0.26"/><circle cx="70" cy="46" r="11" fill="#c084fc" opacity="0.22"/><circle cx="70" cy="46" r="11" fill="none" stroke="#c084fc" stroke-width="1" opacity="0.32"/><circle cx="1032" cy="490" r="24" fill="#a855f7" opacity="0.14"/><circle cx="1032" cy="490" r="24" fill="none" stroke="#a855f7" stroke-width="1" opacity="0.24"/><circle cx="370" cy="394" r="24" fill="#0033A1" opacity="0.13"/><circle cx="370" cy="394" r="24" fill="none" stroke="#0033A1" stroke-width="1" opacity="0.23"/><circle cx="620" cy="256" r="17" fill="#a855f7" opacity="0.19"/><circle cx="620" cy="256" r="17" fill="none" stroke="#a855f7" stroke-width="1" opacity="0.29"/><circle cx="232" cy="109" r="33" fill="#3b82f6" opacity="0.16"/><circle cx="232" cy="109" r="33" fill="none" stroke="#3b82f6" stroke-width="1" opacity="0.26"/><circle cx="396" cy="221" r="17" fill="#0033A1" opacity="0.22"/><circle cx="396" cy="221" r="17" fill="none" stroke="#0033A1" stroke-width="1" opacity="0.32"/><circle cx="671" cy="571" r="59" fill="#a855f7" opacity="0.31"/><circle cx="671" cy="571" r="59" fill="none" stroke="#a855f7" stroke-width="1" opacity="0.41"/><circle cx="1184" cy="303" r="42" fill="#3b82f6" opacity="0.24"/><circle cx="1184" cy="303" r="42" fill="none" stroke="#3b82f6" stroke-width="1" opacity="0.34"/><circle cx="1171" cy="603" r="14" fill="#c084fc" opacity="0.15"/><circle cx="1171" cy="603" r="14" fill="none" stroke="#c084fc" stroke-width="1" opacity="0.25"/><circle cx="1119" cy="239" r="15" fill="#3b82f6" opacity="0.30"/><circle cx="1119" cy="239" r="15" fill="none" stroke="#3b82f6" stroke-width="1" opacity="0.40"/><circle cx="500" cy="104" r="16" fill="#1A5BC4" opacity="0.15"/><circle cx="500" cy="104" r="16" fill="none" stroke="#1A5BC4" stroke-width="1" opacity="0.25"/><circle cx="508" cy="350" r="12" fill="#a855f7" opacity="0.08"/><circle cx="508" cy="350" r="12" fill="none" stroke="#a855f7" stroke-width="1" opacity="0.18"/><circle cx="80" cy="483" r="18" fill="#1A5BC4" opacity="0.22"/><circle cx="80" cy="483" r="18" fill="none" stroke="#1A5BC4" stroke-width="1" opacity="0.32"/><circle cx="1161" cy="429" r="20" fill="#a855f7" opacity="0.19"/><circle cx="1161" cy="429" r="20" fill="none" stroke="#a855f7" stroke-width="1" opacity="0.29"/><circle cx="524" cy="61" r="20" fill="#a855f7" opacity="0.11"/><circle cx="524" cy="61" r="20" fill="none" stroke="#a855f7" stroke-width="1" opacity="0.21"/><circle cx="484" cy="315" r="18" fill="#c084fc" opacity="0.15"/><circle cx="484" cy="315" r="18" fill="none" stroke="#c084fc" stroke-width="1" opacity="0.25"/><circle cx="1078" cy="48" r="15" fill="#3b82f6" opacity="0.13"/><circle cx="1078" cy="48" r="15" fill="none" stroke="#3b82f6" stroke-width="1" opacity="0.23"/><circle cx="877" cy="131" r="53" fill="#1A5BC4" opacity="0.32"/><circle cx="877" cy="131" r="53" fill="none" stroke="#1A5BC4" stroke-width="1" opacity="0.42"/><circle cx="461" cy="610" r="27" fill="#0033A1" opacity="0.15"/><circle cx="461" cy="610" r="27" fill="none" stroke="#0033A1" stroke-width="1" opacity="0.25"/><circle cx="26" cy="409" r="29" fill="#3b82f6" opacity="0.30"/><circle cx="26" cy="409" r="29" fill="none" stroke="#3b82f6" stroke-width="1" opacity="0.40"/><circle cx="1023" cy="41" r="16" fill="#3b82f6" opacity="0.12"/><circle cx="1023" cy="41" r="16" fill="none" stroke="#3b82f6" stroke-width="1" opacity="0.22"/><circle cx="337" cy="598" r="17" fill="#3b82f6" opacity="0.23"/><circle cx="337" cy="598" r="17" fill="none" stroke="#3b82f6" stroke-width="1" opacity="0.33"/><circle cx="230" cy="302" r="20" fill="#0033A1" opacity="0.19"/><circle cx="230" cy="302" r="20" fill="none" stroke="#0033A1" stroke-width="1" opacity="0.29"/><circle cx="882" cy="548" r="29" fill="#0033A1" opacity="0.24"/><circle cx="882" cy="548" r="29" fill="none" stroke="#0033A1" stroke-width="1" opacity="0.34"/><circle cx="746" cy="232" r="11" fill="#1A5BC4" opacity="0.28"/><circle cx="746" cy="232" r="11" fill="none" stroke="#1A5BC4" stroke-width="1" opacity="0.38"/><circle cx="777" cy="348" r="23" fill="#c084fc" opacity="0.20"/><circle cx="777" cy="348" r="23" fill="none" stroke="#c084fc" stroke-width="1" opacity="0.30"/></g>

  <!-- Gradient overlay -->
  <rect width="1200" height="630" fill="url(#overlay)"/>
  <rect width="1200" height="120" fill="url(#topFade)"/>

  <!-- Dot pattern subtle -->
  <pattern id="dots" width="40" height="40" patternUnits="userSpaceOnUse">
    <circle cx="20" cy="20" r="0.8" fill="white" opacity="0.04"/>
  </pattern>
  <rect width="1200" height="630" fill="url(#dots)"/>




</svg>