<svg xmlns="http://www.w3.org/2000/svg" width="1200" height="630" viewBox="0 0 1200 630">
  <defs>
    <linearGradient id="overlay" x1="0" y1="1" x2="0" y2="0">
      <stop offset="0%" stop-color="#001D5C" stop-opacity="0.95"/>
      <stop offset="45%" stop-color="#001D5C" stop-opacity="0.7"/>
      <stop offset="75%" stop-color="#001D5C" stop-opacity="0.2"/>
      <stop offset="100%" stop-color="#001D5C" stop-opacity="0"/>
    </linearGradient>
    <linearGradient id="topFade" x1="0" y1="0" x2="0" y2="1">
      <stop offset="0%" stop-color="#001D5C" stop-opacity="0.3"/>
      <stop offset="100%" stop-color="#001D5C" stop-opacity="0"/>
    </linearGradient>
  </defs>

  <!-- Background -->
  <rect width="1200" height="630" fill="#001D5C"/>

  <!-- Generative pattern -->
  <g><path d="M716.4,83.3 L721.5,80.0 L726.1,76.3 L730.4,72.1 L734.3,67.5 L737.7,62.6 L740.8,57.4 L743.4,52.0 L745.6,46.4 L747.4,40.7 L748.9,34.9 L750.0,29.0 L750.9,23.0 L751.4,17.1 L751.8,11.1 L751.9,5.1 L751.8,-0.9 L751.5,-6.9 L751.2,-12.9 L750.6,-18.9 L750.0,-24.9 L749.3,-30.8 L748.5,-36.8 L747.7,-42.7 L746.8,-48.6 L745.9,-54.6 L744.9,-60.5 L744.0,-66.4 L743.0,-72.3 L742.0,-78.3 L741.1,-84.2 L740.1,-90.1 L739.1,-96.0 L738.2,-101.9 L737.3,-107.9 L736.4,-113.8 L735.5,-119.7 L734.6,-125.7 L733.8,-131.6 L733.0,-137.6 L732.2,-143.5" fill="none" stroke="#1A5BC4" stroke-width="1.9" opacity="0.31"/><path d="M479.6,200.7 L474.1,198.3 L468.9,195.4 L464.0,191.9 L459.5,187.9 L455.4,183.5 L451.8,178.8 L448.6,173.7 L445.9,168.3 L443.5,162.8 L441.6,157.1 L440.0,151.4 L438.7,145.5 L437.7,139.6 L436.9,133.6 L436.4,127.7 L436.0,121.7 L435.8,115.7 L435.7,109.7 L435.7,103.7 L435.8,97.7 L435.9,91.7 L436.1,85.7 L436.3,79.7 L436.5,73.7 L436.7,67.7 L436.9,61.7 L437.0,55.7 L437.1,49.7 L437.2,43.7 L437.1,37.7 L437.1,31.7 L436.9,25.7 L436.7,19.7 L436.4,13.7 L436.0,7.7 L435.5,1.7 L434.9,-4.2 L434.2,-10.2 L433.3,-16.1 L432.4,-22.1" fill="none" stroke="#0033A1" stroke-width="1.3" opacity="0.25"/><path d="M607.3,627.1 L603.7,622.3 L600.2,617.4 L596.8,612.5 L593.5,607.5 L590.4,602.3 L587.4,597.1 L584.7,591.8 L582.2,586.3 L580.0,580.7 L578.1,575.0 L576.6,569.2 L575.5,563.3 L574.8,557.4 L574.5,551.4 L574.7,545.4 L575.3,539.4 L576.4,533.5 L577.9,527.7 L579.9,522.0 L582.3,516.5 L585.0,511.2 L588.1,506.1 L591.5,501.1 L595.3,496.4 L599.2,491.9 L603.4,487.7 L607.8,483.6 L612.4,479.7 L617.2,476.1 L622.1,472.6 L627.1,469.3 L632.2,466.2 L637.5,463.2 L642.8,460.5 L648.2,457.8 L653.6,455.4 L659.2,453.1 L664.8,450.9 L670.4,448.9 L676.1,447.0" fill="none" stroke="#ec4899" stroke-width="1.3" opacity="0.15"/><path d="M643.7,280.6 L648.6,284.0 L653.8,287.1 L659.1,289.9 L664.6,292.3 L670.2,294.5 L675.9,296.3 L681.7,297.8 L687.5,299.1 L693.5,300.1 L699.4,300.9 L705.4,301.5 L711.4,301.8 L717.4,302.0 L723.4,301.9 L729.4,301.7 L735.3,301.4 L741.3,300.9 L747.3,300.3 L753.2,299.5 L759.2,298.7 L765.1,297.7 L771.0,296.6 L776.9,295.4 L782.8,294.2 L788.6,292.9 L794.4,291.5 L800.3,290.0 L806.1,288.4 L811.8,286.8 L817.6,285.2 L823.3,283.4 L829.1,281.6 L834.8,279.8 L840.5,277.9 L846.1,275.9 L851.8,273.9 L857.4,271.8 L863.0,269.7 L868.6,267.5 L874.2,265.3" fill="none" stroke="#0033A1" stroke-width="2.0" opacity="0.21"/><path d="M45.8,577.6 L49.0,582.7 L52.6,587.5 L56.5,592.0 L60.7,596.3 L65.2,600.2 L70.0,603.9 L75.1,607.1 L80.3,610.0 L85.8,612.5 L91.4,614.7 L97.1,616.5 L102.9,617.9 L108.8,619.0 L114.8,619.8 L120.8,620.2 L126.8,620.3 L132.8,620.2 L138.7,619.8 L144.7,619.1 L150.6,618.2 L156.5,617.2 L162.4,615.9 L168.3,614.5 L174.1,613.0 L179.8,611.3 L185.5,609.6 L191.3,607.7 L196.9,605.8 L202.6,603.7 L208.2,601.7 L213.8,599.5 L219.4,597.3 L225.0,595.1 L230.5,592.9 L236.1,590.6 L241.6,588.3 L247.1,585.9 L252.7,583.6 L258.2,581.2 L263.7,578.9" fill="none" stroke="#3b82f6" stroke-width="2.8" opacity="0.11"/><path d="M398.3,252.2 L395.7,246.8 L393.7,241.1 L392.2,235.3 L391.2,229.4 L390.6,223.4 L390.4,217.4 L390.5,211.4 L391.0,205.5 L391.7,199.5 L392.7,193.6 L393.9,187.7 L395.2,181.8 L396.7,176.0 L398.3,170.2 L399.9,164.5 L401.7,158.7 L403.5,153.0 L405.3,147.3 L407.1,141.6 L409.0,135.9 L410.8,130.2 L412.6,124.4 L414.4,118.7 L416.1,113.0 L417.8,107.2 L419.4,101.4 L420.9,95.6 L422.4,89.8 L423.7,83.9 L425.0,78.1 L426.2,72.2 L427.3,66.3 L428.3,60.4 L429.2,54.5 L430.0,48.5 L430.6,42.5 L431.2,36.6 L431.6,30.6 L431.9,24.6 L432.1,18.6" fill="none" stroke="#ec4899" stroke-width="3.0" opacity="0.14"/><path d="M102.9,445.6 L96.9,446.4 L91.0,447.4 L85.1,448.6 L79.3,450.0 L73.5,451.6 L67.8,453.4 L62.2,455.5 L56.7,458.0 L51.4,460.7 L46.2,463.8 L41.3,467.2 L36.6,470.9 L32.2,475.0 L28.1,479.4 L24.4,484.1 L21.0,489.1 L18.1,494.3 L15.5,499.8 L13.5,505.4 L11.8,511.1 L10.6,517.0 L9.8,523.0 L9.5,529.0 L9.6,535.0 L10.1,540.9 L10.9,546.9 L12.2,552.7 L13.9,558.5 L15.9,564.2 L18.2,569.7 L20.9,575.0 L23.9,580.2 L27.3,585.2 L30.9,590.0 L34.8,594.5 L39.0,598.8 L43.5,602.8 L48.2,606.6 L53.1,610.0 L58.2,613.1" fill="none" stroke="#f472b6" stroke-width="1.4" opacity="0.32"/><path d="M768.3,132.7 L770.9,127.3 L773.2,121.7 L775.1,116.0 L776.6,110.3 L777.8,104.4 L778.7,98.4 L779.3,92.5 L779.6,86.5 L779.6,80.5 L779.3,74.5 L778.9,68.5 L778.2,62.5 L777.4,56.6 L776.4,50.7 L775.3,44.8 L774.0,38.9 L772.7,33.0 L771.3,27.2 L769.8,21.4 L768.3,15.6 L766.8,9.8 L765.2,4.0 L763.6,-1.8 L762.0,-7.6 L760.4,-13.4 L758.9,-19.1 L757.3,-24.9 L755.7,-30.7 L754.2,-36.5 L752.7,-42.3 L751.2,-48.2 L749.8,-54.0 L748.4,-59.8 L747.0,-65.7 L745.7,-71.5 L744.4,-77.4 L743.2,-83.2 L742.0,-89.1 L740.8,-95.0 L739.6,-100.9" fill="none" stroke="#f472b6" stroke-width="1.0" opacity="0.28"/><path d="M181.6,518.0 L181.8,524.0 L182.7,529.9 L184.3,535.7 L186.6,541.2 L189.6,546.4 L193.3,551.2 L197.5,555.5 L202.1,559.2 L207.2,562.4 L212.6,565.1 L218.2,567.1 L224.0,568.7 L229.9,569.8 L235.9,570.4 L241.9,570.6 L247.9,570.5 L253.9,570.0 L259.8,569.3 L265.7,568.3 L271.6,567.2 L277.5,565.8 L283.3,564.3 L289.1,562.7 L294.8,561.0 L300.5,559.1 L306.2,557.2 L311.9,555.2 L317.5,553.2 L323.1,551.1 L328.8,549.0 L334.4,546.9 L340.0,544.7 L345.5,542.5 L351.1,540.3 L356.7,538.1 L362.3,535.8 L367.8,533.6 L373.4,531.3 L378.9,529.1 L384.5,526.8" fill="none" stroke="#f472b6" stroke-width="1.0" opacity="0.19"/><path d="M579.5,108.2 L576.5,113.4 L573.2,118.4 L569.6,123.3 L565.8,127.9 L561.6,132.2 L557.2,136.2 L552.5,139.9 L547.4,143.2 L542.2,146.1 L536.7,148.5 L531.0,150.3 L525.1,151.6 L519.1,152.3 L513.1,152.3 L507.2,151.7 L501.3,150.4 L495.6,148.5 L490.2,145.9 L485.0,142.8 L480.2,139.2 L475.8,135.2 L471.8,130.7 L468.2,125.9 L464.9,120.9 L462.1,115.6 L459.5,110.2 L457.3,104.6 L455.3,98.9 L453.6,93.2 L452.1,87.4 L450.8,81.5 L449.7,75.6 L448.7,69.7 L447.7,63.8 L446.9,57.9 L446.1,51.9 L445.3,46.0 L444.6,40.0 L443.9,34.0 L443.2,28.1" fill="none" stroke="#3b82f6" stroke-width="2.9" opacity="0.34"/><path d="M346.7,586.7 L348.0,580.8 L350.0,575.2 L352.6,569.8 L355.7,564.6 L359.2,559.8 L363.1,555.2 L367.2,550.8 L371.6,546.8 L376.2,542.9 L381.0,539.2 L385.9,535.8 L390.9,532.4 L396.0,529.3 L401.1,526.2 L406.4,523.3 L411.6,520.4 L417.0,517.6 L422.3,515.0 L427.7,512.3 L433.1,509.8 L438.6,507.2 L444.0,504.8 L449.5,502.3 L455.0,499.9 L460.5,497.6 L466.1,495.2 L471.6,492.9 L477.2,490.6 L482.7,488.4 L488.3,486.1 L493.9,483.9 L499.4,481.7 L505.0,479.5 L510.6,477.4 L516.2,475.2 L521.8,473.1 L527.5,471.0 L533.1,468.9 L538.7,466.8 L544.4,464.8" fill="none" stroke="#1A5BC4" stroke-width="1.9" opacity="0.18"/><path d="M385.8,130.9 L389.3,126.1 L392.7,121.1 L396.0,116.1 L399.1,111.0 L402.1,105.7 L404.9,100.4 L407.5,95.1 L410.0,89.6 L412.4,84.1 L414.6,78.5 L416.6,72.9 L418.5,67.2 L420.2,61.4 L421.8,55.6 L423.2,49.8 L424.4,43.9 L425.5,38.0 L426.4,32.1 L427.2,26.1 L427.8,20.2 L428.2,14.2 L428.5,8.2 L428.6,2.2 L428.6,-3.8 L428.4,-9.8 L428.0,-15.8 L427.5,-21.8 L426.9,-27.7 L426.1,-33.7 L425.1,-39.6 L424.0,-45.5 L422.7,-51.4 L421.2,-57.2 L419.6,-63.0 L417.8,-68.7 L415.9,-74.4 L413.8,-80.0 L411.6,-85.6 L409.2,-91.1 L406.6,-96.5" fill="none" stroke="#3b82f6" stroke-width="3.3" opacity="0.37"/><path d="M181.1,329.5 L181.6,323.5 L182.5,317.6 L183.9,311.7 L185.7,306.0 L188.0,300.4 L190.5,295.0 L193.5,289.8 L196.7,284.7 L200.2,279.9 L204.0,275.2 L208.0,270.7 L212.2,266.4 L216.6,262.3 L221.1,258.4 L225.7,254.6 L230.5,250.9 L235.4,247.4 L240.3,244.0 L245.3,240.7 L250.4,237.5 L255.5,234.4 L260.6,231.3 L265.8,228.2 L271.0,225.2 L276.2,222.2 L281.4,219.2 L286.5,216.1 L291.7,213.1 L296.9,210.0 L302.0,206.9 L307.1,203.7 L312.1,200.5 L317.1,197.2 L322.1,193.8 L327.0,190.3 L331.8,186.8 L336.6,183.2 L341.3,179.5 L346.0,175.6 L350.5,171.7" fill="none" stroke="#0033A1" stroke-width="0.9" opacity="0.12"/><path d="M368.2,339.1 L362.5,337.4 L356.9,335.1 L351.6,332.3 L346.6,329.0 L342.0,325.1 L337.9,320.8 L334.2,316.0 L331.1,310.9 L328.6,305.5 L326.6,299.8 L325.3,293.9 L324.5,288.0 L324.2,282.0 L324.4,276.0 L325.1,270.0 L326.2,264.1 L327.6,258.3 L329.4,252.6 L331.4,246.9 L333.7,241.4 L336.2,235.9 L338.9,230.6 L341.7,225.3 L344.7,220.0 L347.7,214.9 L350.8,209.8 L354.0,204.7 L357.2,199.6 L360.5,194.6 L363.8,189.6 L367.1,184.5 L370.3,179.5 L373.6,174.5 L376.8,169.4 L380.0,164.3 L383.1,159.2 L386.2,154.1 L389.3,148.9 L392.2,143.7 L395.1,138.4" fill="none" stroke="#3b82f6" stroke-width="0.7" opacity="0.34"/><path d="M395.3,299.1 L390.3,295.8 L385.6,292.0 L381.4,287.7 L377.7,283.0 L374.6,277.9 L371.9,272.5 L369.9,266.8 L368.4,261.0 L367.4,255.1 L366.9,249.1 L366.8,243.1 L367.1,237.2 L367.8,231.2 L368.9,225.3 L370.1,219.4 L371.7,213.6 L373.4,207.9 L375.3,202.2 L377.3,196.5 L379.5,190.9 L381.7,185.4 L384.0,179.8 L386.4,174.3 L388.8,168.8 L391.2,163.3 L393.7,157.8 L396.1,152.4 L398.5,146.9 L400.8,141.3 L403.2,135.8 L405.4,130.3 L407.6,124.7 L409.8,119.1 L411.9,113.4 L413.9,107.8 L415.8,102.1 L417.6,96.4 L419.3,90.6 L420.9,84.9 L422.5,79.1" fill="none" stroke="#0033A1" stroke-width="1.3" opacity="0.13"/><path d="M816.0,186.0 L818.5,180.6 L820.5,174.9 L822.3,169.2 L823.6,163.3 L824.6,157.4 L825.1,151.4 L825.3,145.4 L825.2,139.4 L824.7,133.5 L823.9,127.5 L822.8,121.6 L821.5,115.8 L819.9,110.0 L818.0,104.3 L816.0,98.6 L813.9,93.0 L811.6,87.5 L809.2,82.0 L806.7,76.5 L804.1,71.1 L801.5,65.7 L798.9,60.3 L796.2,54.9 L793.5,49.5 L790.9,44.2 L788.2,38.8 L785.6,33.4 L783.0,28.0 L780.5,22.6 L778.0,17.1 L775.5,11.6 L773.1,6.1 L770.8,0.6 L768.5,-5.0 L766.3,-10.5 L764.2,-16.2 L762.1,-21.8 L760.1,-27.4 L758.2,-33.1 L756.3,-38.8" fill="none" stroke="#3b82f6" stroke-width="1.8" opacity="0.32"/><path d="M860.3,521.9 L859.7,527.9 L859.1,533.8 L858.4,539.8 L857.6,545.8 L856.8,551.7 L856.0,557.6 L855.2,563.6 L854.3,569.5 L853.5,575.5 L852.7,581.4 L851.9,587.4 L851.2,593.3 L850.4,599.3 L849.8,605.2 L849.1,611.2 L848.5,617.2 L848.0,623.2 L847.5,629.1 L847.1,635.1 L846.7,641.1 L846.3,647.1 L846.0,653.1 L845.8,659.1 L845.6,665.1 L845.5,671.1 L845.5,677.1 L845.4,683.1 L845.5,689.1 L845.6,695.1 L845.7,701.1 L845.9,707.1 L846.1,713.1 L846.4,719.1 L846.7,725.1 L847.0,731.0 L847.4,737.0 L847.9,743.0 L848.4,749.0 L848.9,755.0 L849.4,760.9" fill="none" stroke="#ec4899" stroke-width="1.2" opacity="0.24"/><path d="M635.4,574.3 L636.1,568.3 L637.1,562.4 L638.5,556.5 L640.2,550.8 L642.3,545.2 L644.8,539.7 L647.6,534.4 L650.7,529.3 L654.1,524.3 L657.8,519.6 L661.8,515.2 L666.1,510.9 L670.6,506.9 L675.3,503.2 L680.2,499.7 L685.2,496.5 L690.5,493.6 L695.8,490.9 L701.3,488.5 L706.9,486.4 L712.7,484.6 L718.5,483.0 L724.3,481.8 L730.2,480.9 L736.2,480.2 L742.2,479.9 L748.2,479.9 L754.2,480.3 L760.2,481.0 L766.1,482.1 L771.9,483.6 L777.6,485.4 L783.2,487.6 L788.6,490.1 L793.8,493.1 L798.8,496.4 L803.6,500.0 L808.1,504.0 L812.3,508.3 L816.2,512.9" fill="none" stroke="#0033A1" stroke-width="3.3" opacity="0.20"/><path d="M819.8,15.8 L814.4,13.0 L809.3,10.0 L804.3,6.7 L799.5,3.0 L794.9,-0.8 L790.5,-4.9 L786.3,-9.2 L782.4,-13.7 L778.6,-18.4 L775.1,-23.3 L771.7,-28.2 L768.6,-33.3 L765.6,-38.5 L762.8,-43.9 L760.2,-49.2 L757.7,-54.7 L755.4,-60.2 L753.2,-65.8 L751.1,-71.5 L749.2,-77.1 L747.4,-82.9 L745.6,-88.6 L744.0,-94.4 L742.5,-100.2 L741.1,-106.0 L739.7,-111.9 L738.4,-117.7 L737.2,-123.6 L736.1,-129.5 L735.0,-135.4 L734.0,-141.3 L733.1,-147.2 L732.2,-153.2 L731.3,-159.1 L730.6,-165.1 L729.8,-171.0 L729.1,-177.0 L728.5,-182.9 L727.9,-188.9 L727.4,-194.9" fill="none" stroke="#0033A1" stroke-width="3.0" opacity="0.12"/><path d="M388.0,146.0 L391.1,140.8 L394.1,135.6 L397.0,130.4 L399.9,125.1 L402.6,119.8 L405.2,114.3 L407.7,108.9 L410.1,103.4 L412.3,97.8 L414.4,92.2 L416.4,86.6 L418.3,80.9 L420.1,75.1 L421.7,69.3 L423.1,63.5 L424.5,57.7 L425.7,51.8 L426.7,45.9 L427.6,39.9 L428.4,34.0 L429.0,28.0 L429.5,22.0 L429.8,16.1 L430.0,10.1 L430.1,4.1 L430.0,-1.9 L429.7,-7.9 L429.3,-13.9 L428.8,-19.9 L428.1,-25.9 L427.2,-31.8 L426.2,-37.7 L425.1,-43.6 L423.8,-49.5 L422.4,-55.3 L420.8,-61.1 L419.0,-66.8 L417.1,-72.5 L415.0,-78.1 L412.8,-83.7" fill="none" stroke="#3b82f6" stroke-width="2.1" opacity="0.37"/><path d="M639.5,218.7 L643.5,223.2 L647.8,227.4 L652.4,231.2 L657.2,234.8 L662.3,238.0 L667.6,240.9 L673.0,243.4 L678.6,245.5 L684.3,247.3 L690.2,248.7 L696.1,249.7 L702.0,250.5 L708.0,250.8 L714.0,250.9 L720.0,250.6 L726.0,250.1 L731.9,249.2 L737.8,248.1 L743.7,246.7 L749.4,245.0 L755.1,243.0 L760.7,240.8 L766.1,238.4 L771.5,235.6 L776.7,232.7 L781.8,229.5 L786.7,226.0 L791.4,222.4 L796.0,218.4 L800.3,214.3 L804.4,209.9 L808.2,205.3 L811.8,200.4 L815.0,195.4 L817.9,190.1 L820.5,184.7 L822.8,179.2 L824.6,173.5 L826.1,167.6 L827.2,161.7" fill="none" stroke="#0033A1" stroke-width="2.9" opacity="0.17"/><path d="M392.6,364.6 L387.1,367.1 L381.6,369.4 L376.0,371.6 L370.4,373.7 L364.7,375.6 L359.0,377.3 L353.2,378.9 L347.3,380.3 L341.4,381.4 L335.5,382.3 L329.5,383.0 L323.5,383.4 L317.5,383.4 L311.6,383.1 L305.6,382.5 L299.7,381.4 L293.9,379.9 L288.2,378.0 L282.7,375.6 L277.4,372.7 L272.4,369.4 L267.8,365.6 L263.5,361.4 L259.7,356.8 L256.4,351.8 L253.6,346.4 L251.4,340.9 L249.7,335.1 L248.6,329.2 L248.1,323.2 L248.1,317.2 L248.7,311.3 L249.7,305.3 L251.2,299.5 L253.1,293.8 L255.4,288.3 L257.9,282.9 L260.8,277.6 L264.0,272.5 L267.3,267.5" fill="none" stroke="#ec4899" stroke-width="3.0" opacity="0.18"/><path d="M62.4,477.9 L57.8,481.9 L53.6,486.2 L49.7,490.7 L46.2,495.6 L43.1,500.7 L40.3,506.0 L38.0,511.6 L36.2,517.3 L34.8,523.1 L33.9,529.1 L33.5,535.0 L33.5,541.0 L34.0,547.0 L35.0,552.9 L36.4,558.8 L38.2,564.5 L40.5,570.1 L43.1,575.4 L46.1,580.6 L49.6,585.6 L53.3,590.2 L57.4,594.6 L61.8,598.7 L66.5,602.5 L71.4,605.9 L76.5,609.0 L81.9,611.7 L87.4,614.0 L93.1,616.0 L98.8,617.6 L104.7,618.9 L110.6,619.8 L116.6,620.4 L122.6,620.7 L128.6,620.7 L134.6,620.4 L140.6,619.9 L146.5,619.2 L152.4,618.2 L158.3,617.0" fill="none" stroke="#1A5BC4" stroke-width="1.4" opacity="0.37"/><path d="M68.2,503.4 L65.4,508.7 L62.9,514.2 L60.9,519.8 L59.4,525.6 L58.5,531.5 L58.0,537.5 L58.0,543.5 L58.5,549.5 L59.6,555.4 L61.1,561.2 L63.2,566.8 L65.7,572.3 L68.7,577.5 L72.0,582.5 L75.8,587.1 L80.0,591.4 L84.5,595.4 L89.3,599.0 L94.4,602.2 L99.7,605.0 L105.2,607.4 L110.8,609.4 L116.6,611.1 L122.5,612.3 L128.4,613.2 L134.4,613.7 L140.4,613.9 L146.4,613.8 L152.4,613.4 L158.3,612.8 L164.3,612.0 L170.2,610.9 L176.0,609.7 L181.9,608.3 L187.7,606.8 L193.5,605.1 L199.2,603.4 L204.9,601.5 L210.6,599.5 L216.2,597.5" fill="none" stroke="#3b82f6" stroke-width="0.9" opacity="0.18"/><path d="M278.0,268.4 L281.2,263.4 L284.6,258.4 L288.2,253.6 L291.9,248.9 L295.7,244.3 L299.7,239.8 L303.7,235.3 L307.8,230.9 L311.9,226.6 L316.1,222.3 L320.3,218.0 L324.5,213.7 L328.7,209.5 L333.0,205.2 L337.2,200.9 L341.3,196.6 L345.5,192.3 L349.6,187.9 L353.6,183.5 L357.6,179.0 L361.6,174.5 L365.5,169.9 L369.3,165.3 L373.0,160.6 L376.7,155.8 L380.2,151.0 L383.7,146.1 L387.1,141.1 L390.3,136.1 L393.5,131.0 L396.6,125.8 L399.5,120.6 L402.3,115.3 L405.0,109.9 L407.6,104.5 L410.0,99.0 L412.3,93.5 L414.4,87.9 L416.5,82.2 L418.4,76.5" fill="none" stroke="#3b82f6" stroke-width="1.5" opacity="0.16"/><path d="M600.3,431.1 L606.2,430.2 L612.1,429.2 L618.0,428.2 L623.9,427.2 L629.9,426.2 L635.8,425.1 L641.7,424.0 L647.6,422.9 L653.5,421.9 L659.4,420.8 L665.3,419.8 L671.2,418.8 L677.1,417.9 L683.1,417.0 L689.0,416.2 L695.0,415.4 L700.9,414.7 L706.9,414.1 L712.9,413.6 L718.9,413.2 L724.9,412.9 L730.9,412.7 L736.9,412.7 L742.8,412.8 L748.8,413.1 L754.8,413.6 L760.8,414.2 L766.7,415.1 L772.6,416.2 L778.5,417.5 L784.3,419.1 L790.0,421.0 L795.6,423.2 L801.0,425.6 L806.4,428.4 L811.5,431.5 L816.4,434.9 L821.1,438.6 L825.6,442.6 L829.7,447.0" fill="none" stroke="#f472b6" stroke-width="1.5" opacity="0.10"/><path d="M368.4,350.2 L362.4,349.6 L356.5,348.5 L350.8,346.9 L345.1,344.8 L339.7,342.2 L334.6,339.0 L329.9,335.4 L325.6,331.2 L321.7,326.6 L318.4,321.6 L315.6,316.3 L313.5,310.7 L311.9,304.9 L310.9,299.0 L310.5,293.0 L310.5,287.0 L311.1,281.0 L312.1,275.1 L313.5,269.2 L315.2,263.5 L317.3,257.9 L319.6,252.3 L322.2,246.9 L324.9,241.6 L327.9,236.3 L330.9,231.2 L334.1,226.1 L337.4,221.1 L340.8,216.1 L344.2,211.2 L347.7,206.3 L351.2,201.4 L354.7,196.6 L358.2,191.7 L361.7,186.8 L365.2,181.9 L368.7,177.0 L372.1,172.1 L375.5,167.2 L378.8,162.2" fill="none" stroke="#ec4899" stroke-width="1.1" opacity="0.32"/><path d="M686.5,558.7 L690.4,554.2 L694.7,549.9 L699.2,546.0 L704.0,542.4 L709.1,539.1 L714.3,536.2 L719.8,533.7 L725.4,531.6 L731.1,529.8 L737.0,528.5 L742.9,527.7 L748.9,527.2 L754.9,527.3 L760.9,527.8 L766.8,528.7 L772.6,530.1 L778.3,532.0 L783.8,534.3 L789.2,537.1 L794.3,540.3 L799.1,543.9 L803.6,547.8 L807.8,552.1 L811.7,556.6 L815.3,561.4 L818.5,566.5 L821.5,571.7 L824.1,577.1 L826.5,582.6 L828.6,588.2 L830.4,594.0 L832.0,599.7 L833.4,605.6 L834.7,611.4 L835.8,617.3 L836.8,623.3 L837.6,629.2 L838.3,635.1 L839.0,641.1 L839.6,647.1" fill="none" stroke="#1A5BC4" stroke-width="1.2" opacity="0.21"/><path d="M614.0,160.8 L615.3,166.7 L616.7,172.5 L618.3,178.3 L620.2,184.0 L622.3,189.6 L624.6,195.1 L627.3,200.5 L630.2,205.8 L633.4,210.8 L636.9,215.7 L640.8,220.3 L644.9,224.7 L649.3,228.8 L653.9,232.5 L658.9,236.0 L664.0,239.1 L669.3,241.8 L674.8,244.2 L680.5,246.2 L686.3,247.9 L692.1,249.2 L698.0,250.1 L704.0,250.7 L710.0,251.0 L716.0,250.9 L722.0,250.6 L728.0,249.9 L733.9,249.0 L739.7,247.7 L745.6,246.2 L751.3,244.5 L756.9,242.4 L762.5,240.1 L767.9,237.6 L773.2,234.8 L778.4,231.8 L783.4,228.5 L788.3,225.0 L793.0,221.2 L797.4,217.2" fill="none" stroke="#f472b6" stroke-width="0.8" opacity="0.25"/><path d="M899.2,81.9 L893.5,80.0 L887.8,78.1 L882.1,76.1 L876.5,74.0 L870.9,71.8 L865.4,69.5 L859.9,67.1 L854.5,64.5 L849.1,61.8 L843.9,58.9 L838.7,55.9 L833.6,52.7 L828.6,49.4 L823.7,45.9 L819.0,42.2 L814.3,38.4 L809.9,34.4 L805.5,30.3 L801.3,26.0 L797.2,21.6 L793.3,17.1 L789.5,12.4 L785.9,7.6 L782.5,2.7 L779.2,-2.3 L776.0,-7.4 L773.0,-12.6 L770.1,-17.9 L767.4,-23.2 L764.8,-28.6 L762.3,-34.1 L760.0,-39.6 L757.8,-45.2 L755.6,-50.8 L753.6,-56.5 L751.7,-62.2 L749.9,-67.9 L748.2,-73.6 L746.6,-79.4 L745.0,-85.2" fill="none" stroke="#1A5BC4" stroke-width="3.3" opacity="0.33"/><path d="M679.3,503.3 L684.3,500.0 L689.5,496.9 L694.8,494.1 L700.2,491.6 L705.8,489.4 L711.5,487.4 L717.2,485.8 L723.1,484.4 L729.0,483.4 L735.0,482.7 L740.9,482.3 L746.9,482.2 L752.9,482.5 L758.9,483.1 L764.8,484.1 L770.7,485.5 L776.4,487.2 L782.0,489.4 L787.5,491.9 L792.7,494.8 L797.8,498.0 L802.6,501.6 L807.1,505.5 L811.3,509.8 L815.3,514.3 L818.9,519.1 L822.2,524.1 L825.2,529.3 L827.8,534.7 L830.2,540.2 L832.2,545.9 L834.1,551.6 L835.6,557.4 L836.9,563.2 L838.1,569.1 L839.0,575.0 L839.8,581.0 L840.5,586.9 L841.0,592.9 L841.5,598.9" fill="none" stroke="#0033A1" stroke-width="2.1" opacity="0.14"/><path d="M165.8,149.5 L171.6,148.0 L177.5,146.8 L183.4,145.7 L189.3,144.9 L195.3,144.1 L201.2,143.6 L207.2,143.1 L213.2,142.8 L219.2,142.5 L225.2,142.3 L231.2,142.2 L237.2,142.1 L243.2,142.0 L249.2,141.9 L255.2,141.7 L261.2,141.6 L267.2,141.3 L273.2,141.0 L279.2,140.5 L285.1,139.9 L291.1,139.2 L297.0,138.4 L302.9,137.4 L308.8,136.1 L314.7,134.8 L320.4,133.2 L326.2,131.4 L331.8,129.3 L337.4,127.1 L342.8,124.6 L348.2,121.9 L353.4,119.0 L358.5,115.9 L363.5,112.5 L368.3,108.9 L373.0,105.1 L377.4,101.1 L381.7,96.9 L385.8,92.5 L389.7,87.9" fill="none" stroke="#f472b6" stroke-width="0.7" opacity="0.11"/><path d="M708.3,611.0 L712.2,606.5 L716.5,602.3 L721.2,598.5 L726.1,595.1 L731.3,592.1 L736.8,589.7 L742.5,587.7 L748.3,586.4 L754.3,585.5 L760.3,585.3 L766.3,585.6 L772.2,586.5 L778.0,588.0 L783.6,590.1 L789.1,592.7 L794.2,595.7 L799.1,599.2 L803.6,603.2 L807.8,607.4 L811.7,612.0 L815.2,616.9 L818.4,622.0 L821.3,627.2 L823.9,632.6 L826.3,638.1 L828.4,643.8 L830.2,649.5 L831.9,655.2 L833.4,661.0 L834.8,666.9 L836.0,672.7 L837.2,678.6 L838.2,684.5 L839.2,690.5 L840.1,696.4 L840.9,702.3 L841.7,708.3 L842.5,714.2 L843.2,720.2 L844.0,726.1" fill="none" stroke="#0033A1" stroke-width="0.6" opacity="0.38"/><path d="M343.4,413.8 L339.2,418.1 L335.1,422.5 L331.3,427.1 L327.7,431.9 L324.4,436.9 L321.5,442.2 L319.0,447.6 L317.0,453.3 L315.6,459.1 L314.8,465.1 L314.7,471.1 L315.3,477.0 L316.8,482.9 L319.0,488.4 L322.0,493.6 L325.7,498.3 L330.0,502.5 L334.8,506.1 L340.1,509.0 L345.6,511.4 L351.3,513.1 L357.2,514.4 L363.2,515.1 L369.2,515.4 L375.2,515.4 L381.1,515.0 L387.1,514.3 L393.0,513.5 L398.9,512.4 L404.8,511.1 L410.7,509.7 L416.5,508.2 L422.2,506.6 L428.0,504.9 L433.7,503.2 L439.4,501.3 L445.1,499.5 L450.8,497.6 L456.5,495.6 L462.2,493.6" fill="none" stroke="#1A5BC4" stroke-width="2.1" opacity="0.20"/><path d="M579.3,545.5 L580.0,539.6 L581.1,533.7 L582.7,527.9 L584.7,522.2 L587.1,516.7 L589.8,511.4 L593.0,506.3 L596.4,501.4 L600.1,496.7 L604.1,492.2 L608.3,487.9 L612.7,483.8 L617.3,480.0 L622.1,476.3 L627.0,472.9 L632.0,469.6 L637.1,466.5 L642.4,463.6 L647.7,460.8 L653.1,458.2 L658.6,455.8 L664.2,453.5 L669.8,451.4 L675.4,449.4 L681.2,447.6 L686.9,445.9 L692.7,444.4 L698.6,443.1 L704.5,441.9 L710.4,440.9 L716.3,440.0 L722.3,439.3 L728.3,438.9 L734.2,438.6 L740.2,438.5 L746.2,438.7 L752.2,439.1 L758.2,439.8 L764.1,440.7 L770.0,441.9" fill="none" stroke="#3b82f6" stroke-width="0.6" opacity="0.33"/><path d="M534.8,86.6 L528.8,87.4 L522.9,87.5 L516.9,87.0 L511.0,85.7 L505.3,83.9 L499.8,81.4 L494.7,78.3 L489.8,74.8 L485.3,70.9 L481.1,66.6 L477.3,62.0 L473.7,57.1 L470.5,52.1 L467.5,46.8 L464.8,41.5 L462.3,36.1 L459.9,30.5 L457.7,25.0 L455.6,19.3 L453.6,13.7 L451.7,8.0 L449.9,2.3 L448.1,-3.5 L446.3,-9.2 L444.5,-14.9 L442.8,-20.6 L441.0,-26.4 L439.1,-32.1 L437.2,-37.8 L435.3,-43.4 L433.3,-49.1 L431.2,-54.7 L429.1,-60.3 L426.8,-65.9 L424.5,-71.4 L422.0,-76.9 L419.5,-82.3 L416.8,-87.7 L414.0,-93.0 L411.1,-98.2" fill="none" stroke="#f472b6" stroke-width="1.9" opacity="0.13"/><path d="M345.8,186.5 L350.1,182.3 L354.3,178.0 L358.4,173.7 L362.5,169.2 L366.5,164.7 L370.4,160.2 L374.2,155.5 L377.9,150.8 L381.5,146.0 L385.0,141.2 L388.4,136.2 L391.7,131.2 L394.9,126.1 L397.9,120.9 L400.8,115.7 L403.6,110.4 L406.3,105.0 L408.8,99.5 L411.2,94.0 L413.4,88.5 L415.5,82.9 L417.5,77.2 L419.3,71.5 L420.9,65.7 L422.5,59.9 L423.8,54.1 L425.1,48.2 L426.1,42.3 L427.0,36.3 L427.8,30.4 L428.4,24.4 L428.9,18.4 L429.2,12.5 L429.4,6.5 L429.4,0.5 L429.2,-5.5 L429.0,-11.5 L428.5,-17.5 L427.9,-23.5 L427.2,-29.4" fill="none" stroke="#ec4899" stroke-width="1.2" opacity="0.22"/><path d="M1120.3,248.5 L1122.5,254.1 L1123.8,260.0 L1124.4,265.9 L1124.2,271.9 L1123.2,277.8 L1121.6,283.6 L1119.3,289.2 L1116.6,294.5 L1113.5,299.7 L1110.0,304.5 L1106.2,309.2 L1102.1,313.6 L1097.9,317.9 L1093.5,321.9 L1089.0,325.9 L1084.4,329.7 L1079.7,333.4 L1074.9,337.1 L1070.0,340.6 L1065.2,344.1 L1060.3,347.6 L1055.4,351.0 L1050.4,354.4 L1045.5,357.8 L1040.5,361.2 L1035.6,364.7 L1030.7,368.1 L1025.8,371.5 L1020.9,375.0 L1016.0,378.5 L1011.1,382.0 L1006.3,385.5 L1001.5,389.1 L996.7,392.7 L991.9,396.4 L987.2,400.1 L982.5,403.9 L977.9,407.7 L973.3,411.5 L968.8,415.4" fill="none" stroke="#3b82f6" stroke-width="0.6" opacity="0.33"/><path d="M1035.5,296.3 L1037.0,302.1 L1037.8,308.0 L1037.9,314.0 L1037.3,320.0 L1036.1,325.8 L1034.4,331.6 L1032.2,337.2 L1029.5,342.6 L1026.6,347.8 L1023.3,352.8 L1019.9,357.7 L1016.2,362.5 L1012.4,367.1 L1008.4,371.6 L1004.3,376.0 L1000.2,380.3 L996.0,384.6 L991.8,388.9 L987.5,393.1 L983.2,397.3 L978.9,401.4 L974.6,405.6 L970.3,409.8 L966.0,414.0 L961.7,418.2 L957.4,422.4 L953.2,426.7 L949.0,431.0 L944.9,435.3 L940.8,439.7 L936.8,444.2 L932.8,448.6 L928.8,453.2 L925.0,457.8 L921.2,462.4 L917.4,467.1 L913.8,471.9 L910.2,476.7 L906.7,481.5 L903.3,486.5" fill="none" stroke="#0033A1" stroke-width="3.1" opacity="0.37"/><path d="M505.0,463.5 L511.0,462.9 L516.9,462.1 L522.8,461.1 L528.7,460.0 L534.6,458.8 L540.5,457.6 L546.3,456.2 L552.2,454.8 L558.0,453.4 L563.8,451.9 L569.6,450.4 L575.4,448.9 L581.2,447.3 L587.0,445.7 L592.8,444.2 L598.6,442.6 L604.4,441.0 L610.2,439.5 L616.0,437.9 L621.8,436.4 L627.6,434.9 L633.4,433.4 L639.2,432.0 L645.0,430.6 L650.9,429.2 L656.7,427.9 L662.6,426.6 L668.5,425.4 L674.4,424.3 L680.3,423.2 L686.2,422.2 L692.1,421.3 L698.0,420.4 L704.0,419.7 L710.0,419.0 L715.9,418.5 L721.9,418.1 L727.9,417.8 L733.9,417.7 L739.9,417.7" fill="none" stroke="#f472b6" stroke-width="3.3" opacity="0.28"/><path d="M571.4,37.5 L567.6,42.1 L563.4,46.4 L558.9,50.4 L554.0,53.8 L548.8,56.8 L543.3,59.2 L537.5,60.9 L531.6,62.0 L525.7,62.4 L519.7,62.1 L513.7,61.1 L508.0,59.5 L502.4,57.2 L497.1,54.4 L492.1,51.1 L487.4,47.4 L483.1,43.2 L479.0,38.8 L475.2,34.2 L471.7,29.3 L468.5,24.2 L465.5,19.1 L462.6,13.8 L460.0,8.4 L457.4,3.0 L455.0,-2.5 L452.7,-8.1 L450.4,-13.6 L448.2,-19.2 L446.0,-24.8 L443.8,-30.4 L441.6,-36.0 L439.4,-41.5 L437.2,-47.1 L434.9,-52.7 L432.6,-58.2 L430.2,-63.7 L427.7,-69.2 L425.2,-74.6 L422.5,-80.0" fill="none" stroke="#1A5BC4" stroke-width="0.6" opacity="0.30"/><path d="M208.1,422.2 L202.1,421.5 L196.2,420.6 L190.3,419.5 L184.4,418.2 L178.6,416.6 L172.9,414.7 L167.3,412.6 L161.8,410.3 L156.4,407.7 L151.1,404.8 L146.0,401.7 L141.0,398.4 L136.1,394.8 L131.5,391.0 L127.0,387.0 L122.8,382.8 L118.7,378.4 L114.8,373.8 L111.2,369.0 L107.8,364.1 L104.6,359.0 L101.7,353.8 L99.0,348.4 L96.5,343.0 L94.3,337.4 L92.4,331.7 L90.7,325.9 L89.2,320.1 L88.1,314.2 L87.2,308.3 L86.6,302.3 L86.3,296.3 L86.3,290.3 L86.5,284.3 L87.1,278.4 L87.9,272.4 L89.1,266.5 L90.6,260.7 L92.3,255.0 L94.4,249.4" fill="none" stroke="#3b82f6" stroke-width="2.7" opacity="0.28"/><path d="M1051.5,435.8 L1046.8,432.1 L1041.7,428.9 L1036.3,426.3 L1030.7,424.2 L1024.9,422.8 L1018.9,421.9 L1012.9,421.6 L1006.9,421.8 L1001.0,422.5 L995.1,423.6 L989.3,425.1 L983.6,427.0 L978.0,429.1 L972.5,431.6 L967.1,434.3 L961.9,437.3 L956.8,440.4 L951.8,443.8 L947.0,447.3 L942.2,451.0 L937.6,454.8 L933.1,458.8 L928.7,462.9 L924.5,467.1 L920.3,471.4 L916.3,475.9 L912.4,480.4 L908.6,485.0 L904.9,489.8 L901.3,494.6 L897.8,499.5 L894.5,504.5 L891.3,509.5 L888.1,514.6 L885.1,519.8 L882.3,525.1 L879.5,530.4 L876.9,535.8 L874.4,541.3 L872.0,546.8" fill="none" stroke="#1A5BC4" stroke-width="1.2" opacity="0.32"/><path d="M775.5,117.2 L777.1,111.4 L778.3,105.5 L779.2,99.6 L779.8,93.6 L780.0,87.6 L780.0,81.6 L779.8,75.6 L779.3,69.6 L778.7,63.7 L777.9,57.7 L776.9,51.8 L775.8,45.9 L774.5,40.0 L773.2,34.2 L771.8,28.4 L770.3,22.5 L768.8,16.7 L767.2,10.9 L765.7,5.2 L764.1,-0.6 L762.5,-6.4 L760.8,-12.2 L759.3,-18.0 L757.7,-23.8 L756.1,-29.6 L754.6,-35.4 L753.1,-41.2 L751.6,-47.0 L750.1,-52.8 L748.7,-58.6 L747.3,-64.5 L746.0,-70.3 L744.7,-76.2 L743.4,-82.0 L742.2,-87.9 L741.0,-93.8 L739.9,-99.7 L738.8,-105.6 L737.7,-111.5 L736.7,-117.4" fill="none" stroke="#f472b6" stroke-width="1.3" opacity="0.22"/><path d="M939.6,115.7 L934.8,112.0 L929.9,108.6 L924.8,105.4 L919.6,102.4 L914.4,99.5 L909.0,96.8 L903.7,94.1 L898.3,91.5 L892.8,88.9 L887.4,86.3 L882.0,83.8 L876.6,81.2 L871.2,78.5 L865.9,75.8 L860.5,73.0 L855.3,70.1 L850.1,67.2 L844.9,64.1 L839.9,60.8 L834.9,57.5 L830.0,54.0 L825.2,50.4 L820.5,46.7 L815.9,42.8 L811.5,38.7 L807.2,34.6 L803.0,30.3 L798.9,25.9 L795.0,21.3 L791.3,16.6 L787.7,11.8 L784.2,6.9 L780.9,2.0 L777.7,-3.1 L774.6,-8.3 L771.7,-13.5 L768.9,-18.9 L766.3,-24.3 L763.8,-29.7 L761.4,-35.2" fill="none" stroke="#ec4899" stroke-width="2.0" opacity="0.39"/><path d="M945.5,211.7 L949.1,206.9 L952.4,201.9 L955.4,196.7 L957.9,191.3 L960.0,185.6 L961.5,179.8 L962.5,173.9 L963.0,167.9 L962.8,161.9 L962.0,156.0 L960.5,150.2 L958.5,144.5 L955.9,139.1 L952.8,134.0 L949.3,129.1 L945.4,124.5 L941.2,120.3 L936.7,116.3 L932.0,112.6 L927.1,109.1 L922.1,105.8 L917.0,102.7 L911.7,99.8 L906.4,96.9 L901.1,94.2 L895.7,91.5 L890.4,88.9 L885.0,86.2 L879.6,83.6 L874.2,80.9 L868.9,78.2 L863.6,75.4 L858.3,72.5 L853.1,69.5 L847.9,66.5 L842.8,63.3 L837.8,60.0 L832.9,56.6 L828.0,53.0 L823.3,49.3" fill="none" stroke="#3b82f6" stroke-width="3.4" opacity="0.28"/><path d="M392.3,217.4 L392.3,211.4 L392.7,205.4 L393.3,199.4 L394.1,193.5 L395.2,187.6 L396.4,181.7 L397.8,175.9 L399.3,170.1 L400.9,164.3 L402.6,158.5 L404.3,152.8 L406.1,147.0 L407.9,141.3 L409.7,135.6 L411.4,129.9 L413.2,124.1 L414.9,118.4 L416.6,112.6 L418.2,106.8 L419.8,101.1 L421.3,95.2 L422.7,89.4 L424.1,83.6 L425.3,77.7 L426.5,71.8 L427.6,65.9 L428.5,60.0 L429.4,54.1 L430.2,48.1 L430.8,42.1 L431.3,36.2 L431.7,30.2 L432.0,24.2 L432.2,18.2 L432.2,12.2 L432.1,6.2 L431.9,0.2 L431.6,-5.8 L431.1,-11.8 L430.5,-17.8" fill="none" stroke="#0033A1" stroke-width="3.3" opacity="0.28"/><path d="M217.4,223.5 L223.0,221.3 L228.6,219.1 L234.2,217.0 L239.9,215.0 L245.5,213.0 L251.2,211.0 L256.8,209.0 L262.5,207.0 L268.1,204.9 L273.8,202.9 L279.4,200.7 L284.9,198.5 L290.5,196.2 L296.0,193.9 L301.5,191.4 L306.9,188.8 L312.3,186.1 L317.6,183.3 L322.8,180.4 L328.0,177.4 L333.1,174.2 L338.1,170.9 L343.0,167.5 L347.9,164.0 L352.6,160.3 L357.2,156.4 L361.7,152.5 L366.1,148.4 L370.4,144.2 L374.5,139.8 L378.5,135.4 L382.4,130.8 L386.1,126.1 L389.7,121.3 L393.2,116.4 L396.5,111.3 L399.6,106.2 L402.6,101.0 L405.4,95.7 L408.0,90.3" fill="none" stroke="#3b82f6" stroke-width="0.9" opacity="0.28"/><path d="M301.1,278.5 L302.8,272.7 L304.8,267.0 L307.1,261.5 L309.7,256.1 L312.5,250.8 L315.4,245.5 L318.6,240.4 L321.9,235.4 L325.2,230.5 L328.7,225.6 L332.3,220.7 L335.9,216.0 L339.6,211.2 L343.3,206.5 L347.0,201.8 L350.7,197.0 L354.4,192.3 L358.1,187.6 L361.7,182.8 L365.3,178.0 L368.9,173.2 L372.5,168.4 L375.9,163.5 L379.3,158.5 L382.7,153.6 L385.9,148.5 L389.1,143.4 L392.2,138.3 L395.2,133.1 L398.1,127.8 L400.9,122.5 L403.6,117.2 L406.1,111.7 L408.6,106.3 L410.9,100.7 L413.1,95.2 L415.2,89.5 L417.2,83.9 L419.0,78.2 L420.7,72.4" fill="none" stroke="#1A5BC4" stroke-width="0.9" opacity="0.24"/><path d="M1033.4,9.5 L1030.3,14.6 L1026.8,19.5 L1023.0,24.2 L1018.9,28.5 L1014.5,32.6 L1009.8,36.4 L1005.0,40.0 L1000.0,43.2 L994.8,46.2 L989.5,49.0 L984.0,51.5 L978.5,53.8 L972.8,55.9 L967.1,57.8 L961.4,59.4 L955.5,60.8 L949.7,62.1 L943.8,63.1 L937.8,64.0 L931.9,64.6 L925.9,65.1 L919.9,65.4 L913.9,65.4 L907.9,65.3 L901.9,65.0 L895.9,64.5 L890.0,63.8 L884.0,62.9 L878.1,61.8 L872.3,60.4 L866.5,58.9 L860.7,57.2 L855.1,55.2 L849.5,53.0 L844.0,50.6 L838.6,48.0 L833.3,45.2 L828.1,42.2 L823.0,39.0 L818.1,35.5" fill="none" stroke="#1A5BC4" stroke-width="1.5" opacity="0.17"/></g>

  <!-- Gradient overlay -->
  <rect width="1200" height="630" fill="url(#overlay)"/>
  <rect width="1200" height="120" fill="url(#topFade)"/>

  <!-- Dot pattern subtle -->
  <pattern id="dots" width="40" height="40" patternUnits="userSpaceOnUse">
    <circle cx="20" cy="20" r="0.8" fill="white" opacity="0.04"/>
  </pattern>
  <rect width="1200" height="630" fill="url(#dots)"/>




</svg>