<svg xmlns="http://www.w3.org/2000/svg" width="1200" height="630" viewBox="0 0 1200 630">
  <defs>
    <linearGradient id="overlay" x1="0" y1="1" x2="0" y2="0">
      <stop offset="0%" stop-color="#001D5C" stop-opacity="0.95"/>
      <stop offset="45%" stop-color="#001D5C" stop-opacity="0.7"/>
      <stop offset="75%" stop-color="#001D5C" stop-opacity="0.2"/>
      <stop offset="100%" stop-color="#001D5C" stop-opacity="0"/>
    </linearGradient>
    <linearGradient id="topFade" x1="0" y1="0" x2="0" y2="1">
      <stop offset="0%" stop-color="#001D5C" stop-opacity="0.3"/>
      <stop offset="100%" stop-color="#001D5C" stop-opacity="0"/>
    </linearGradient>
  </defs>

  <!-- Background -->
  <rect width="1200" height="630" fill="#001D5C"/>

  <!-- Generative pattern -->
  <g><circle cx="44.313581973314285" cy="21.544342394918203" r="4.1" fill="#1A5BC4" opacity="0.36"/><circle cx="93.46914425119758" cy="16.270228100940585" r="4.8" fill="#f472b6" opacity="0.43"/><circle cx="118.45980948396027" cy="17.25931708700955" r="5.0" fill="#3b82f6" opacity="0.45"/><circle cx="195.58721230179071" cy="23.14365060068667" r="4.7" fill="#0033A1" opacity="0.42"/><circle cx="218.47992285899818" cy="23.721992768347263" r="4.4" fill="#0033A1" opacity="0.39"/><circle cx="245.37014061026275" cy="17.862791331484914" r="4.0" fill="#f472b6" opacity="0.35"/><circle cx="267.71986865252256" cy="22.641240322962403" r="3.6" fill="#3b82f6" opacity="0.31"/><circle cx="295.29241046123207" cy="18.076412733644247" r="3.1" fill="#f472b6" opacity="0.26"/><circle cx="647.3696431703866" cy="23.449994031339884" r="3.6" fill="#3b82f6" opacity="0.31"/><circle cx="692.3622702658176" cy="20.93612129986286" r="4.5" fill="#1A5BC4" opacity="0.40"/><circle cx="746.9655525516719" cy="23.843482663854957" r="4.9" fill="#ec4899" opacity="0.44"/><circle cx="843.0813837815076" cy="22.335423385724425" r="4.5" fill="#ec4899" opacity="0.40"/><circle cx="897.8640418238938" cy="19.1069327685982" r="3.6" fill="#1A5BC4" opacity="0.31"/><circle cx="991.0530390571803" cy="22.55733374133706" r="1.7" fill="#ec4899" opacity="0.12"/><circle cx="20.29149814322591" cy="48.756519950926304" r="4.1" fill="#1A5BC4" opacity="0.36"/><circle cx="116.6729301456362" cy="48.4620033018291" r="5.0" fill="#0033A1" opacity="0.45"/><circle cx="141.276225797832" cy="41.53543235734105" r="4.9" fill="#3b82f6" opacity="0.44"/><circle cx="216.8244615420699" cy="45.711331989616156" r="4.1" fill="#3b82f6" opacity="0.36"/><circle cx="269.151169070974" cy="45.560319969430566" r="3.2" fill="#1A5BC4" opacity="0.27"/><circle cx="397.33071628957987" cy="46.48132438771427" r="1.2" fill="#3b82f6" opacity="0.07"/><circle cx="592.3432031795382" cy="42.30412062816322" r="3.1" fill="#ec4899" opacity="0.26"/><circle cx="694.7354797068983" cy="44.301239715889096" r="4.7" fill="#f472b6" opacity="0.42"/><circle cx="717.0429009795189" cy="41.15995229780674" r="4.9" fill="#f472b6" opacity="0.44"/><circle cx="741.1142520420253" cy="48.16823584213853" r="5.0" fill="#3b82f6" opacity="0.45"/><circle cx="767.6299542654306" cy="47.04753780178726" r="5.0" fill="#3b82f6" opacity="0.45"/><circle cx="818.3463731501251" cy="43.77832522429526" r="4.5" fill="#f472b6" opacity="0.40"/><circle cx="869.1077521815896" cy="41.434828121215105" r="3.7" fill="#ec4899" opacity="0.32"/><circle cx="893.3555875904858" cy="46.90823479741812" r="3.2" fill="#0033A1" opacity="0.27"/><circle cx="992.5508415922523" cy="42.2731473762542" r="1.5" fill="#3b82f6" opacity="0.10"/><circle cx="20.669917710125446" cy="66.95119764469564" r="4.4" fill="#0033A1" opacity="0.39"/><circle cx="119.01755877025425" cy="69.04229650087655" r="5.0" fill="#ec4899" opacity="0.45"/><circle cx="143.9642309844494" cy="71.65625446289778" r="4.8" fill="#ec4899" opacity="0.43"/><circle cx="170.49043053016067" cy="69.02817580662668" r="4.5" fill="#ec4899" opacity="0.40"/><circle cx="194.77277163043618" cy="67.6122467033565" r="4.2" fill="#3b82f6" opacity="0.37"/><circle cx="497.0327151492238" cy="68.96229727566242" r="1.6" fill="#1A5BC4" opacity="0.11"/><circle cx="571.8414795454592" cy="71.73155719041824" r="3.0" fill="#1A5BC4" opacity="0.25"/><circle cx="591.360185181722" cy="70.8900415096432" r="3.4" fill="#0033A1" opacity="0.29"/><circle cx="620.7060098219663" cy="73.7622840423137" r="3.9" fill="#1A5BC4" opacity="0.34"/><circle cx="643.8624393623322" cy="72.42525006644428" r="4.3" fill="#f472b6" opacity="0.38"/><circle cx="670.2670176681131" cy="73.11074851825833" r="4.7" fill="#1A5BC4" opacity="0.42"/><circle cx="716.9079542383552" cy="70.70560001954436" r="5.0" fill="#0033A1" opacity="0.45"/><circle cx="741.9314599633217" cy="66.16333279572427" r="5.0" fill="#3b82f6" opacity="0.45"/><circle cx="772.4356713499874" cy="71.79424691386521" r="4.8" fill="#3b82f6" opacity="0.43"/><circle cx="798.5789591204375" cy="67.26075043901801" r="4.6" fill="#f472b6" opacity="0.41"/><circle cx="848.9114690124989" cy="66.06666601262987" r="3.8" fill="#0033A1" opacity="0.33"/><circle cx="1195.167877836153" cy="67.60167047381401" r="2.9" fill="#3b82f6" opacity="0.24"/><circle cx="17.563535882160068" cy="91.1548956669867" r="4.6" fill="#0033A1" opacity="0.41"/><circle cx="43.810224728658795" cy="95.33297485858202" r="4.9" fill="#f472b6" opacity="0.44"/><circle cx="69.4569976516068" cy="98.67305051907897" r="5.0" fill="#3b82f6" opacity="0.45"/><circle cx="118.69597542099655" cy="91.71465188078582" r="4.9" fill="#3b82f6" opacity="0.44"/><circle cx="144.99121813848615" cy="97.16637721657753" r="4.6" fill="#0033A1" opacity="0.41"/><circle cx="170.46832651086152" cy="96.16653184220195" r="4.3" fill="#ec4899" opacity="0.38"/><circle cx="248.01306433789432" cy="98.93141106143594" r="2.9" fill="#ec4899" opacity="0.24"/><circle cx="568.5346256066114" cy="95.24150567688048" r="3.4" fill="#ec4899" opacity="0.29"/><circle cx="616.2454175371677" cy="94.54720965772867" r="4.3" fill="#3b82f6" opacity="0.38"/><circle cx="666.4367639012635" cy="96.70410894230008" r="4.8" fill="#1A5BC4" opacity="0.43"/><circle cx="692.4325447585434" cy="91.18665180541575" r="5.0" fill="#3b82f6" opacity="0.45"/><circle cx="716.9751473665237" cy="93.19200684688985" r="5.0" fill="#1A5BC4" opacity="0.45"/><circle cx="744.9407899659127" cy="92.57091497443616" r="4.9" fill="#ec4899" opacity="0.44"/><circle cx="766.2826483212411" cy="91.9582318328321" r="4.6" fill="#3b82f6" opacity="0.41"/><circle cx="797.8786973953247" cy="98.2819733005017" r="4.3" fill="#1A5BC4" opacity="0.38"/><circle cx="893.7655909974128" cy="91.86794196814299" r="2.4" fill="#1A5BC4" opacity="0.19"/><circle cx="1144.2925751544535" cy="94.7715013306588" r="2.3" fill="#f472b6" opacity="0.18"/><circle cx="1198.9737358968705" cy="98.81206808425486" r="3.3" fill="#0033A1" opacity="0.28"/><circle cx="20.143557604402304" cy="120.66762282885611" r="4.8" fill="#3b82f6" opacity="0.43"/><circle cx="48.586986646056175" cy="116.92311960458755" r="5.0" fill="#1A5BC4" opacity="0.45"/><circle cx="91.66589838825166" cy="119.24678206071258" r="4.9" fill="#ec4899" opacity="0.44"/><circle cx="120.18866105936468" cy="123.89603615365922" r="4.7" fill="#ec4899" opacity="0.42"/><circle cx="148.03077936917543" cy="122.44974834099412" r="4.3" fill="#f472b6" opacity="0.38"/><circle cx="171.2911637146026" cy="119.33610816858709" r="3.9" fill="#3b82f6" opacity="0.34"/><circle cx="221.35734633170068" cy="119.21218024939299" r="3.0" fill="#3b82f6" opacity="0.25"/><circle cx="521.6353039611131" cy="120.45604034140706" r="2.8" fill="#ec4899" opacity="0.23"/><circle cx="545.5827244855464" cy="118.73985256813467" r="3.3" fill="#1A5BC4" opacity="0.28"/><circle cx="571.2989508621395" cy="119.04208544641733" r="3.7" fill="#1A5BC4" opacity="0.32"/><circle cx="594.9837647806853" cy="118.23698805645108" r="4.2" fill="#0033A1" opacity="0.37"/><circle cx="621.4601531457156" cy="120.9756479524076" r="4.5" fill="#3b82f6" opacity="0.40"/><circle cx="647.8605869356543" cy="118.47525615617633" r="4.8" fill="#ec4899" opacity="0.43"/><circle cx="697.9709281604737" cy="119.6512641608715" r="5.0" fill="#1A5BC4" opacity="0.45"/><circle cx="745.0245507024229" cy="117.01211923919618" r="4.7" fill="#f472b6" opacity="0.42"/><circle cx="794.7198017779738" cy="120.81547183543444" r="4.0" fill="#f472b6" opacity="0.35"/><circle cx="23.463647048920393" cy="148.54228824190795" r="5.0" fill="#0033A1" opacity="0.45"/><circle cx="41.510953119024634" cy="142.85882478393614" r="5.0" fill="#1A5BC4" opacity="0.45"/><circle cx="72.28308678232133" cy="141.50664866156876" r="4.9" fill="#ec4899" opacity="0.44"/><circle cx="122.83499127998948" cy="148.00452346540987" r="4.4" fill="#ec4899" opacity="0.39"/><circle cx="145.55857622809708" cy="142.31473599933088" r="4.0" fill="#3b82f6" opacity="0.35"/><circle cx="170.82340734265745" cy="142.46957804076374" r="3.6" fill="#0033A1" opacity="0.31"/><circle cx="193.82198912091553" cy="144.17145897634327" r="3.1" fill="#ec4899" opacity="0.26"/><circle cx="220.33926200680435" cy="143.36768231727183" r="2.6" fill="#ec4899" opacity="0.21"/><circle cx="544.5967900585383" cy="146.09923273138702" r="3.6" fill="#1A5BC4" opacity="0.31"/><circle cx="597.7537484876812" cy="144.94356908649206" r="4.5" fill="#ec4899" opacity="0.40"/><circle cx="623.010532386601" cy="145.9672163259238" r="4.8" fill="#ec4899" opacity="0.43"/><circle cx="642.3942264523357" cy="144.14663398824632" r="4.9" fill="#f472b6" opacity="0.44"/><circle cx="667.7614501230419" cy="142.92770983092487" r="5.0" fill="#0033A1" opacity="0.45"/><circle cx="720.75520991534" cy="148.15838478133082" r="4.7" fill="#0033A1" opacity="0.42"/><circle cx="795.1338921785355" cy="145.25249598547816" r="3.6" fill="#1A5BC4" opacity="0.31"/><circle cx="821.091131972149" cy="142.25016562081873" r="3.1" fill="#0033A1" opacity="0.26"/><circle cx="20.013046376407146" cy="173.26277825795114" r="5.0" fill="#3b82f6" opacity="0.45"/><circle cx="71.60680068098009" cy="169.72640357911587" r="4.8" fill="#0033A1" opacity="0.43"/><circle cx="121.3158623110503" cy="173.86621661670506" r="4.1" fill="#f472b6" opacity="0.36"/><circle cx="173.07174712233245" cy="169.90040659159422" r="3.2" fill="#3b82f6" opacity="0.27"/><circle cx="272.6306136548519" cy="172.93731655180454" r="1.4" fill="#f472b6" opacity="0.09"/><circle cx="469.62529034912586" cy="169.14226679503918" r="2.6" fill="#ec4899" opacity="0.21"/><circle cx="498.9665117394179" cy="172.32441491633654" r="3.1" fill="#1A5BC4" opacity="0.26"/><circle cx="543.3127501159906" cy="168.9129777252674" r="4.0" fill="#f472b6" opacity="0.35"/><circle cx="572.1592811029404" cy="172.70579512789845" r="4.4" fill="#ec4899" opacity="0.39"/><circle cx="591.4652490336448" cy="167.64771735668182" r="4.7" fill="#3b82f6" opacity="0.42"/><circle cx="644.0231509227306" cy="172.99386158771813" r="5.0" fill="#ec4899" opacity="0.45"/><circle cx="673.816398749128" cy="169.71758605353534" r="5.0" fill="#3b82f6" opacity="0.45"/><circle cx="718.5688671953976" cy="168.62001287192106" r="4.5" fill="#ec4899" opacity="0.40"/><circle cx="1021.3236876539886" cy="172.8857747875154" r="1.3" fill="#f472b6" opacity="0.08"/><circle cx="1120.1125612724572" cy="170.33093067258596" r="3.0" fill="#3b82f6" opacity="0.25"/><circle cx="1147.487113038078" cy="171.40182906389236" r="3.5" fill="#ec4899" opacity="0.30"/><circle cx="1194.0383112467825" cy="166.695705184713" r="4.4" fill="#f472b6" opacity="0.39"/><circle cx="16.73698651790619" cy="195.09186340123415" r="5.0" fill="#f472b6" opacity="0.45"/><circle cx="48.818925032392144" cy="191.3113918043673" r="4.8" fill="#3b82f6" opacity="0.43"/><circle cx="142.00996202975512" cy="191.68336423672736" r="3.3" fill="#1A5BC4" opacity="0.28"/><circle cx="422.1265723090619" cy="192.50326277688146" r="2.0" fill="#ec4899" opacity="0.15"/><circle cx="469.37453416362405" cy="196.50413686409593" r="3.0" fill="#1A5BC4" opacity="0.25"/><circle cx="542.8623533640057" cy="194.69044163823128" r="4.3" fill="#ec4899" opacity="0.38"/><circle cx="571.2745898887515" cy="195.1171530969441" r="4.7" fill="#1A5BC4" opacity="0.42"/><circle cx="621.2921177409589" cy="198.13474061526358" r="5.0" fill="#3b82f6" opacity="0.45"/><circle cx="644.3467684146017" cy="197.17458552122116" r="5.0" fill="#ec4899" opacity="0.45"/><circle cx="693.0418144129217" cy="195.22650322690606" r="4.6" fill="#3b82f6" opacity="0.41"/><circle cx="720.1933230049908" cy="192.82797012850642" r="4.2" fill="#0033A1" opacity="0.37"/><circle cx="823.9400507695973" cy="193.3390942811966" r="2.3" fill="#3b82f6" opacity="0.18"/><circle cx="1022.5385204795748" cy="196.41426918655634" r="1.6" fill="#f472b6" opacity="0.11"/><circle cx="1096.2355569098145" cy="193.9661510810256" r="2.9" fill="#ec4899" opacity="0.24"/><circle cx="43.46473962068558" cy="218.69784659706056" r="4.6" fill="#3b82f6" opacity="0.41"/><circle cx="67.0980586707592" cy="221.14668886363506" r="4.3" fill="#1A5BC4" opacity="0.38"/><circle cx="171.09927932731807" cy="221.83196891844273" r="2.4" fill="#ec4899" opacity="0.19"/><circle cx="198.34776861406863" cy="216.08401508815587" r="1.9" fill="#1A5BC4" opacity="0.14"/><circle cx="248.60755225084722" cy="218.75553794391453" r="1.2" fill="#0033A1" opacity="0.07"/><circle cx="471.67097425833344" cy="223.5371560882777" r="3.4" fill="#ec4899" opacity="0.29"/><circle cx="518.4806384984404" cy="218.63561684079468" r="4.3" fill="#0033A1" opacity="0.38"/><circle cx="542.5113799590617" cy="220.72705585695803" r="4.6" fill="#1A5BC4" opacity="0.41"/><circle cx="566.5909199323505" cy="218.6636939458549" r="4.8" fill="#f472b6" opacity="0.43"/><circle cx="594.4616140201688" cy="220.521298404783" r="5.0" fill="#ec4899" opacity="0.45"/><circle cx="666.9418510962278" cy="217.81234305351973" r="4.6" fill="#1A5BC4" opacity="0.41"/><circle cx="693.8520936574787" cy="222.0348791964352" r="4.3" fill="#f472b6" opacity="0.38"/><circle cx="719.7121676802635" cy="217.20421619340777" r="3.9" fill="#3b82f6" opacity="0.34"/><circle cx="1092.2624654471874" cy="220.4576989132911" r="3.3" fill="#f472b6" opacity="0.28"/><circle cx="1171.0877924524248" cy="217.50226168334484" r="4.6" fill="#ec4899" opacity="0.41"/><circle cx="18.802962182089686" cy="248.39592580311" r="4.7" fill="#ec4899" opacity="0.42"/><circle cx="43.225757563486695" cy="248.44239997304976" r="4.3" fill="#1A5BC4" opacity="0.38"/><circle cx="442.0458415262401" cy="248.7961440589279" r="3.3" fill="#0033A1" opacity="0.28"/><circle cx="523.54467256926" cy="243.76813186332583" r="4.5" fill="#ec4899" opacity="0.40"/><circle cx="568.3034179098904" cy="246.86892946250737" r="5.0" fill="#1A5BC4" opacity="0.45"/><circle cx="596.2914882488549" cy="244.9115110207349" r="5.0" fill="#1A5BC4" opacity="0.45"/><circle cx="622.4120731186122" cy="241.3419143036008" r="4.9" fill="#0033A1" opacity="0.44"/><circle cx="641.5866503473371" cy="247.73721330054104" r="4.7" fill="#f472b6" opacity="0.42"/><circle cx="716.289473509416" cy="242.73923864215612" r="3.5" fill="#0033A1" opacity="0.30"/><circle cx="871.3703011423349" cy="245.60789135843515" r="1.1" fill="#0033A1" opacity="0.06"/><circle cx="1091.8644878733903" cy="245.46933266706765" r="3.7" fill="#f472b6" opacity="0.32"/><circle cx="1122.273229362443" cy="245.13427790813148" r="4.1" fill="#1A5BC4" opacity="0.36"/><circle cx="1172.5707605797797" cy="244.92296874150634" r="4.8" fill="#ec4899" opacity="0.43"/><circle cx="22.18455735221505" cy="270.696939624846" r="4.4" fill="#ec4899" opacity="0.39"/><circle cx="48.58771331049502" cy="266.2027344349772" r="4.0" fill="#3b82f6" opacity="0.35"/><circle cx="66.61516126617789" cy="273.6011007130146" r="3.6" fill="#f472b6" opacity="0.31"/><circle cx="145.27274194173515" cy="270.3791423588991" r="2.1" fill="#f472b6" opacity="0.16"/><circle cx="395.0666890963912" cy="273.90137515589595" r="2.7" fill="#1A5BC4" opacity="0.22"/><circle cx="444.41683483310044" cy="268.8318348824978" r="3.6" fill="#1A5BC4" opacity="0.31"/><circle cx="497.5535577815026" cy="266.77861805818975" r="4.5" fill="#f472b6" opacity="0.40"/><circle cx="521.9121557250619" cy="269.16253169067204" r="4.8" fill="#ec4899" opacity="0.43"/><circle cx="542.4464624617249" cy="266.0436551999301" r="4.9" fill="#ec4899" opacity="0.44"/><circle cx="571.7760630939156" cy="272.63436299934983" r="5.0" fill="#f472b6" opacity="0.45"/><circle cx="597.3796134516597" cy="269.35626976005733" r="4.9" fill="#ec4899" opacity="0.44"/><circle cx="616.7922408375889" cy="271.9252277482301" r="4.7" fill="#1A5BC4" opacity="0.42"/><circle cx="669.9433252587914" cy="269.101513300091" r="4.1" fill="#3b82f6" opacity="0.36"/><circle cx="698.4743449613452" cy="273.2269872594625" r="3.6" fill="#3b82f6" opacity="0.31"/><circle cx="1118.239861626178" cy="273.95264163054526" r="4.4" fill="#f472b6" opacity="0.39"/><circle cx="1167.5149027705193" cy="269.2769739702344" r="4.9" fill="#1A5BC4" opacity="0.44"/><circle cx="17.562478872016072" cy="293.1543221715838" r="4.1" fill="#1A5BC4" opacity="0.36"/><circle cx="70.2208987288177" cy="296.8957576137036" r="3.2" fill="#0033A1" opacity="0.27"/><circle cx="423.75147605128586" cy="292.67709993571043" r="3.5" fill="#1A5BC4" opacity="0.30"/><circle cx="443.9668656811118" cy="292.5004626009613" r="4.0" fill="#3b82f6" opacity="0.35"/><circle cx="469.21307371370494" cy="292.89095832407475" r="4.4" fill="#1A5BC4" opacity="0.39"/><circle cx="498.68505247309804" cy="297.9545051343739" r="4.7" fill="#f472b6" opacity="0.42"/><circle cx="573.2743390221149" cy="298.03794346377254" r="5.0" fill="#1A5BC4" opacity="0.45"/><circle cx="594.2497468031943" cy="293.0444775149226" r="4.8" fill="#0033A1" opacity="0.43"/><circle cx="622.8183930497617" cy="294.3431951943785" r="4.5" fill="#1A5BC4" opacity="0.40"/><circle cx="696.8462042268366" cy="298.0612202230841" r="3.2" fill="#f472b6" opacity="0.27"/><circle cx="942.3425410259515" cy="296.56238949485123" r="1.6" fill="#0033A1" opacity="0.11"/><circle cx="968.2848251406103" cy="294.05291019566357" r="2.0" fill="#1A5BC4" opacity="0.15"/><circle cx="1018.9960610400885" cy="291.26676022820175" r="3.0" fill="#1A5BC4" opacity="0.25"/><circle cx="1119.0886565018445" cy="297.5678975265473" r="4.7" fill="#0033A1" opacity="0.42"/><circle cx="17.84434505738318" cy="323.56411925703287" r="3.7" fill="#1A5BC4" opacity="0.32"/><circle cx="44.29614406451583" cy="317.64769350737333" r="3.3" fill="#1A5BC4" opacity="0.28"/><circle cx="73.80480276793242" cy="320.5656614936888" r="2.8" fill="#f472b6" opacity="0.23"/><circle cx="421.1233729571104" cy="319.94306061416864" r="3.9" fill="#f472b6" opacity="0.34"/><circle cx="472.6649913340807" cy="319.05631433427334" r="4.7" fill="#1A5BC4" opacity="0.42"/><circle cx="543.6653736960143" cy="317.43284725397825" r="5.0" fill="#0033A1" opacity="0.45"/><circle cx="623.4089242964983" cy="317.2389984559268" r="4.2" fill="#0033A1" opacity="0.37"/><circle cx="645.9594973679632" cy="316.3604416511953" r="3.8" fill="#0033A1" opacity="0.33"/><circle cx="697.9926030859351" cy="316.18438226543367" r="2.8" fill="#ec4899" opacity="0.23"/><circle cx="746.2551788315177" cy="323.7130428943783" r="1.9" fill="#ec4899" opacity="0.14"/><circle cx="1046.7252175416797" cy="317.1180554367602" r="3.9" fill="#1A5BC4" opacity="0.34"/><circle cx="1067.371524285525" cy="318.6343668960035" r="4.3" fill="#ec4899" opacity="0.38"/><circle cx="1117.7391307204962" cy="322.0719589237124" r="4.9" fill="#3b82f6" opacity="0.44"/><circle cx="1142.3405460566282" cy="316.0105616003275" r="5.0" fill="#0033A1" opacity="0.45"/><circle cx="372.6947475206107" cy="346.4125847108662" r="3.4" fill="#3b82f6" opacity="0.29"/><circle cx="418.51996483281255" cy="344.4922370444983" r="4.3" fill="#0033A1" opacity="0.38"/><circle cx="445.77123702690005" cy="344.5514164250344" r="4.6" fill="#ec4899" opacity="0.41"/><circle cx="466.5256255120039" cy="344.1111411526799" r="4.8" fill="#0033A1" opacity="0.43"/><circle cx="516.5640712156892" cy="343.8006251771003" r="5.0" fill="#f472b6" opacity="0.45"/><circle cx="547.4509863704443" cy="343.6967701818794" r="4.9" fill="#0033A1" opacity="0.44"/><circle cx="569.3604013901204" cy="342.31104005128145" r="4.6" fill="#3b82f6" opacity="0.41"/><circle cx="597.1982774380594" cy="345.4844965264201" r="4.3" fill="#ec4899" opacity="0.38"/><circle cx="623.2863331083208" cy="347.2265095859766" r="3.9" fill="#ec4899" opacity="0.34"/><circle cx="1172.8878858610988" cy="342.76856919005513" r="4.9" fill="#1A5BC4" opacity="0.44"/><circle cx="1194.2970068138093" cy="343.00475376471877" r="4.7" fill="#ec4899" opacity="0.42"/><circle cx="47.627565713599324" cy="371.1567683313042" r="2.5" fill="#f472b6" opacity="0.20"/><circle cx="348.7381310928613" cy="368.96212883479893" r="3.3" fill="#ec4899" opacity="0.28"/><circle cx="396.9515828937292" cy="369.8158939983696" r="4.2" fill="#f472b6" opacity="0.37"/><circle cx="423.9674707464874" cy="367.2190799023956" r="4.5" fill="#3b82f6" opacity="0.40"/><circle cx="471.80007558502257" cy="369.63163913041353" r="5.0" fill="#3b82f6" opacity="0.45"/><circle cx="498.3776771109551" cy="371.9580992870033" r="5.0" fill="#1A5BC4" opacity="0.45"/><circle cx="519.3423149641603" cy="366.0831611249596" r="4.9" fill="#3b82f6" opacity="0.44"/><circle cx="544.5965345744044" cy="371.85996357165277" r="4.7" fill="#ec4899" opacity="0.42"/><circle cx="623.2634740900248" cy="368.6834795586765" r="3.5" fill="#3b82f6" opacity="0.30"/><circle cx="647.5453415624797" cy="371.6925237160176" r="3.0" fill="#1A5BC4" opacity="0.25"/><circle cx="666.7555515337735" cy="372.74342807009816" r="2.5" fill="#ec4899" opacity="0.20"/><circle cx="723.4699149783701" cy="372.71081856265664" r="1.7" fill="#ec4899" opacity="0.12"/><circle cx="947.5328214690089" cy="370.0978639833629" r="2.7" fill="#3b82f6" opacity="0.22"/><circle cx="995.8274697419256" cy="372.68028209358454" r="3.7" fill="#1A5BC4" opacity="0.32"/><circle cx="1019.0441884491593" cy="367.6715744547546" r="4.1" fill="#3b82f6" opacity="0.36"/><circle cx="1070.154008841142" cy="369.9994148593396" r="4.8" fill="#f472b6" opacity="0.43"/><circle cx="1092.8549318611622" cy="367.85490359179676" r="4.9" fill="#3b82f6" opacity="0.44"/><circle cx="1142.5830722916871" cy="367.5348292570561" r="4.9" fill="#3b82f6" opacity="0.44"/><circle cx="1169.0278297662735" cy="368.9651856087148" r="4.7" fill="#3b82f6" opacity="0.42"/><circle cx="1192.400535583496" cy="369.9908955357969" r="4.4" fill="#1A5BC4" opacity="0.39"/><circle cx="298.07482716068625" cy="394.48463872261345" r="2.7" fill="#ec4899" opacity="0.22"/><circle cx="320.57821870967746" cy="396.8233913425356" r="3.2" fill="#3b82f6" opacity="0.27"/><circle cx="395.6902499832213" cy="391.95664919167757" r="4.5" fill="#ec4899" opacity="0.40"/><circle cx="448.45514772832394" cy="393.7266785185784" r="4.9" fill="#3b82f6" opacity="0.44"/><circle cx="497.8829359486699" cy="395.90442623384297" r="4.9" fill="#1A5BC4" opacity="0.44"/><circle cx="516.5429894886911" cy="398.97929359972477" r="4.7" fill="#3b82f6" opacity="0.42"/><circle cx="548.2806682679802" cy="394.026030767709" r="4.5" fill="#ec4899" opacity="0.40"/><circle cx="566.2583390083164" cy="394.73697363212705" r="4.1" fill="#f472b6" opacity="0.36"/><circle cx="597.1811649035662" cy="393.3978781066835" r="3.6" fill="#3b82f6" opacity="0.31"/><circle cx="942.6957767643034" cy="391.1311199720949" r="3.1" fill="#f472b6" opacity="0.26"/><circle cx="1016.8542417436838" cy="393.95480659231544" r="4.4" fill="#0033A1" opacity="0.39"/><circle cx="1068.716981710866" cy="394.9183526802808" r="4.9" fill="#1A5BC4" opacity="0.44"/><circle cx="1094.8870535083115" cy="392.46305120550096" r="5.0" fill="#0033A1" opacity="0.45"/><circle cx="196.1890198905021" cy="420.2397839743644" r="1.3" fill="#3b82f6" opacity="0.08"/><circle cx="320.6938639320433" cy="422.2980685438961" r="3.5" fill="#1A5BC4" opacity="0.30"/><circle cx="348.7532509807497" cy="421.5915022343397" r="4.0" fill="#1A5BC4" opacity="0.35"/><circle cx="368.2388396579772" cy="418.06666448153555" r="4.4" fill="#3b82f6" opacity="0.39"/><circle cx="397.1200524941087" cy="421.7451898884028" r="4.7" fill="#0033A1" opacity="0.42"/><circle cx="418.7690254058689" cy="418.63216393627226" r="4.9" fill="#ec4899" opacity="0.44"/><circle cx="494.2572306878865" cy="417.69910752773285" r="4.8" fill="#1A5BC4" opacity="0.43"/><circle cx="572.2184571959078" cy="421.13873802497983" r="3.7" fill="#1A5BC4" opacity="0.32"/><circle cx="592.7495597135276" cy="422.50444014184177" r="3.2" fill="#0033A1" opacity="0.27"/><circle cx="994.6502408180386" cy="416.42618373036385" r="4.4" fill="#f472b6" opacity="0.39"/><circle cx="1041.7432087995112" cy="423.25004981458187" r="4.9" fill="#ec4899" opacity="0.44"/><circle cx="1097.2810853365809" cy="417.9042788185179" r="5.0" fill="#3b82f6" opacity="0.45"/><circle cx="1146.6412028186023" cy="419.3455225452781" r="4.6" fill="#0033A1" opacity="0.41"/><circle cx="1195.090816538781" cy="416.15764670073986" r="3.8" fill="#1A5BC4" opacity="0.33"/><circle cx="295.6160317007452" cy="442.603112841025" r="3.4" fill="#0033A1" opacity="0.29"/><circle cx="348.13670145720243" cy="448.0689684730023" r="4.3" fill="#f472b6" opacity="0.38"/><circle cx="372.5620404742658" cy="443.1748877745122" r="4.7" fill="#1A5BC4" opacity="0.42"/><circle cx="395.1587367299944" cy="444.9569379705936" r="4.9" fill="#1A5BC4" opacity="0.44"/><circle cx="417.7580646183342" cy="444.7539439853281" r="5.0" fill="#3b82f6" opacity="0.45"/><circle cx="446.6287207938731" cy="441.14402872882783" r="5.0" fill="#3b82f6" opacity="0.45"/><circle cx="468.01385838352144" cy="442.0994793511927" r="4.8" fill="#1A5BC4" opacity="0.43"/><circle cx="495.020591866225" cy="447.4194862227887" r="4.6" fill="#ec4899" opacity="0.41"/><circle cx="947.8558362368494" cy="444.40573573857546" r="3.9" fill="#f472b6" opacity="0.34"/><circle cx="968.4232505746186" cy="441.18476136773825" r="4.3" fill="#1A5BC4" opacity="0.38"/><circle cx="1066.3764995969832" cy="442.20764968916774" r="5.0" fill="#0033A1" opacity="0.45"/><circle cx="1094.996885607019" cy="447.90294034034014" r="4.9" fill="#0033A1" opacity="0.44"/><circle cx="1145.3377516940236" cy="447.7808597050607" r="4.3" fill="#0033A1" opacity="0.38"/><circle cx="1170.8942930642515" cy="447.7329493947327" r="3.9" fill="#0033A1" opacity="0.34"/><circle cx="168.40062230825424" cy="472.27764501422644" r="1.5" fill="#0033A1" opacity="0.10"/><circle cx="198.61030793562531" cy="471.9735587872565" r="1.9" fill="#ec4899" opacity="0.14"/><circle cx="248.7475800830871" cy="467.9750204645097" r="2.9" fill="#f472b6" opacity="0.24"/><circle cx="268.83644931949675" cy="467.1420141700655" r="3.4" fill="#1A5BC4" opacity="0.29"/><circle cx="293.7054804973304" cy="472.4141817614436" r="3.8" fill="#1A5BC4" opacity="0.33"/><circle cx="346.0212096236646" cy="467.40313686802983" r="4.6" fill="#f472b6" opacity="0.41"/><circle cx="373.4669474530965" cy="467.81224593147635" r="4.8" fill="#1A5BC4" opacity="0.43"/><circle cx="395.14252251014113" cy="469.8826945349574" r="5.0" fill="#0033A1" opacity="0.45"/><circle cx="420.1169444117695" cy="466.21043165400624" r="5.0" fill="#3b82f6" opacity="0.45"/><circle cx="445.04062810726464" cy="468.794369045645" r="4.9" fill="#ec4899" opacity="0.44"/><circle cx="472.5376616511494" cy="470.3790330197662" r="4.6" fill="#ec4899" opacity="0.41"/><circle cx="493.7371214944869" cy="471.57431366853416" r="4.3" fill="#3b82f6" opacity="0.38"/><circle cx="541.4120869785547" cy="472.4318949878216" r="3.4" fill="#ec4899" opacity="0.29"/><circle cx="646.3696517460048" cy="469.0186936557293" r="1.6" fill="#0033A1" opacity="0.11"/><circle cx="869.1282585728914" cy="467.5958747770637" r="2.8" fill="#3b82f6" opacity="0.23"/><circle cx="948.724219545722" cy="470.85389182530344" r="4.2" fill="#1A5BC4" opacity="0.37"/><circle cx="993.4277351442724" cy="467.5246829353273" r="4.8" fill="#1A5BC4" opacity="0.43"/><circle cx="1017.8316594846547" cy="471.6522037591785" r="5.0" fill="#3b82f6" opacity="0.45"/><circle cx="1073.938136683777" cy="469.5117939542979" r="4.9" fill="#0033A1" opacity="0.44"/><circle cx="1091.0851293504238" cy="470.5271200258285" r="4.7" fill="#ec4899" opacity="0.42"/><circle cx="1123.5266879480332" cy="469.4148501548916" r="4.4" fill="#f472b6" opacity="0.39"/><circle cx="144.58447763882577" cy="492.0905074644834" r="1.5" fill="#0033A1" opacity="0.10"/><circle cx="220.08485927060246" cy="496.5462436322123" r="2.8" fill="#1A5BC4" opacity="0.23"/><circle cx="269.87970677763224" cy="498.18106755800545" r="3.7" fill="#3b82f6" opacity="0.32"/><circle cx="322.62446951679885" cy="492.16785871237516" r="4.5" fill="#0033A1" opacity="0.40"/><circle cx="345.55766760371625" cy="491.35393187589943" r="4.8" fill="#f472b6" opacity="0.43"/><circle cx="392.22791050747037" cy="496.41671767644584" r="5.0" fill="#0033A1" opacity="0.45"/><circle cx="446.4084291011095" cy="497.00843369588256" r="4.7" fill="#0033A1" opacity="0.42"/><circle cx="495.53694765269756" cy="494.3473372180015" r="4.0" fill="#0033A1" opacity="0.35"/><circle cx="522.1356313824654" cy="494.3070431575179" r="3.5" fill="#ec4899" opacity="0.30"/><circle cx="569.1435097213835" cy="493.40781093388796" r="2.5" fill="#3b82f6" opacity="0.20"/><circle cx="823.7575229182839" cy="492.2457258105278" r="2.2" fill="#3b82f6" opacity="0.17"/><circle cx="847.7307922597975" cy="495.1423730570823" r="2.7" fill="#0033A1" opacity="0.22"/><circle cx="917.063167091459" cy="497.73018661141396" r="4.1" fill="#3b82f6" opacity="0.36"/><circle cx="948.9486114569008" cy="496.1099649127573" r="4.5" fill="#3b82f6" opacity="0.40"/><circle cx="995.7389790043235" cy="491.77515109069645" r="4.9" fill="#0033A1" opacity="0.44"/><circle cx="1016.8160830810666" cy="496.90677037648857" r="5.0" fill="#ec4899" opacity="0.45"/><circle cx="1042.678475663066" cy="495.5135174226016" r="4.9" fill="#0033A1" opacity="0.44"/><circle cx="1067.0540996789932" cy="498.1287951134145" r="4.7" fill="#3b82f6" opacity="0.42"/><circle cx="1191.861832857132" cy="492.46616731211543" r="2.6" fill="#1A5BC4" opacity="0.21"/><circle cx="195.3729779627174" cy="518.061517899856" r="2.7" fill="#1A5BC4" opacity="0.22"/><circle cx="242.50733236037195" cy="518.3770810626447" r="3.6" fill="#1A5BC4" opacity="0.31"/><circle cx="268.71933157369494" cy="522.0045815687627" r="4.1" fill="#f472b6" opacity="0.36"/><circle cx="292.95024471729994" cy="518.684207804501" r="4.5" fill="#0033A1" opacity="0.40"/><circle cx="317.48785805143416" cy="522.476120557636" r="4.8" fill="#1A5BC4" opacity="0.43"/><circle cx="341.84084859117866" cy="523.6102093551308" r="4.9" fill="#ec4899" opacity="0.44"/><circle cx="416.76022543758154" cy="518.7263919599354" r="4.7" fill="#3b82f6" opacity="0.42"/><circle cx="445.5722837243229" cy="518.8220565617085" r="4.5" fill="#f472b6" opacity="0.40"/><circle cx="544.4437399487942" cy="519.3882886022329" r="2.6" fill="#1A5BC4" opacity="0.21"/><circle cx="796.7060027588159" cy="519.5006695874035" r="2.1" fill="#f472b6" opacity="0.16"/><circle cx="843.1319512035698" cy="519.2638805340976" r="3.1" fill="#3b82f6" opacity="0.26"/><circle cx="895.6571950968355" cy="522.1537926085293" r="4.0" fill="#ec4899" opacity="0.35"/><circle cx="920.7716805748641" cy="516.1803588289768" r="4.4" fill="#1A5BC4" opacity="0.39"/><circle cx="968.7701288703829" cy="517.4341096077114" r="4.9" fill="#0033A1" opacity="0.44"/><circle cx="994.659218383953" cy="523.4438979122788" r="5.0" fill="#f472b6" opacity="0.45"/><circle cx="1042.9344749916345" cy="522.284714858979" r="4.8" fill="#f472b6" opacity="0.43"/><circle cx="1095.8003450725228" cy="521.4522281289101" r="4.1" fill="#f472b6" opacity="0.36"/><circle cx="1119.6650128234178" cy="520.2219299152493" r="3.7" fill="#1A5BC4" opacity="0.32"/><circle cx="316.14872971363366" cy="542.3018151354045" r="4.9" fill="#f472b6" opacity="0.44"/><circle cx="342.0141698997468" cy="546.3872069083154" r="5.0" fill="#0033A1" opacity="0.45"/><circle cx="373.67297022789717" cy="544.2243221886456" r="5.0" fill="#3b82f6" opacity="0.45"/><circle cx="397.49143937416375" cy="546.6774690728635" r="4.8" fill="#1A5BC4" opacity="0.43"/><circle cx="416.2833151258528" cy="546.4338402431458" r="4.5" fill="#0033A1" opacity="0.40"/><circle cx="448.7955739721656" cy="547.4689193330705" r="4.2" fill="#0033A1" opacity="0.37"/><circle cx="495.3890451416373" cy="546.2350729592144" r="3.2" fill="#3b82f6" opacity="0.27"/><circle cx="623.5967494975775" cy="547.6640418544412" r="1.2" fill="#f472b6" opacity="0.07"/><circle cx="841.6233715154231" cy="547.1257370617241" r="3.5" fill="#ec4899" opacity="0.30"/><circle cx="897.0308516342193" cy="548.6922246515751" r="4.4" fill="#3b82f6" opacity="0.39"/><circle cx="916.6965192966163" cy="541.1015443317592" r="4.7" fill="#f472b6" opacity="0.42"/><circle cx="944.5182580258697" cy="541.3403106499463" r="4.9" fill="#f472b6" opacity="0.44"/><circle cx="993.1143990345299" cy="546.068440515548" r="5.0" fill="#0033A1" opacity="0.45"/><circle cx="1043.2260742094368" cy="542.0492796692997" r="4.6" fill="#ec4899" opacity="0.41"/><circle cx="1144.4841004535556" cy="541.6165169291198" r="2.8" fill="#3b82f6" opacity="0.23"/><circle cx="142.39412019774318" cy="571.6823139861226" r="2.5" fill="#1A5BC4" opacity="0.20"/><circle cx="194.28970081172884" cy="570.439553167671" r="3.4" fill="#0033A1" opacity="0.29"/><circle cx="221.9690771251917" cy="570.5620017815381" r="3.9" fill="#ec4899" opacity="0.34"/><circle cx="244.19829073175788" cy="568.0659344866872" r="4.3" fill="#0033A1" opacity="0.38"/><circle cx="341.6007058285177" cy="573.2779462914914" r="5.0" fill="#ec4899" opacity="0.45"/><circle cx="369.23058916814625" cy="568.4082929193974" r="4.8" fill="#3b82f6" opacity="0.43"/><circle cx="443.5072467401624" cy="570.894687121734" r="3.8" fill="#3b82f6" opacity="0.33"/><circle cx="471.9377114288509" cy="570.7324586696923" r="3.3" fill="#3b82f6" opacity="0.28"/><circle cx="492.17294552363455" cy="566.7799376342446" r="2.8" fill="#f472b6" opacity="0.23"/><circle cx="817.2833276838064" cy="572.5325486622751" r="3.4" fill="#1A5BC4" opacity="0.29"/><circle cx="866.6465870384127" cy="566.1331462487578" r="4.3" fill="#3b82f6" opacity="0.38"/><circle cx="919.174423020333" cy="566.9701119866222" r="4.9" fill="#0033A1" opacity="0.44"/><circle cx="943.2665251959115" cy="569.2931584175676" r="5.0" fill="#0033A1" opacity="0.45"/><circle cx="998.0011601187289" cy="570.8146508783102" r="4.9" fill="#ec4899" opacity="0.44"/><circle cx="1016.117159511894" cy="566.5053309667856" r="4.6" fill="#0033A1" opacity="0.41"/><circle cx="1048.2203303650022" cy="566.717333605513" r="4.3" fill="#3b82f6" opacity="0.38"/><circle cx="1141.9386296756566" cy="566.9914415944368" r="2.4" fill="#1A5BC4" opacity="0.19"/><circle cx="123.91474782675505" cy="591.515065766871" r="2.4" fill="#f472b6" opacity="0.19"/><circle cx="143.2228733599186" cy="592.3793974891305" r="2.9" fill="#3b82f6" opacity="0.24"/><circle cx="217.6901859063655" cy="595.6691339369863" r="4.3" fill="#ec4899" opacity="0.38"/><circle cx="244.16770671866834" cy="598.4977373722941" r="4.6" fill="#ec4899" opacity="0.41"/><circle cx="292.0032018292695" cy="592.2461152262986" r="5.0" fill="#0033A1" opacity="0.45"/><circle cx="317.5067118741572" cy="596.0528503898531" r="5.0" fill="#1A5BC4" opacity="0.45"/><circle cx="348.8508617579937" cy="593.5441015008837" r="4.9" fill="#0033A1" opacity="0.44"/><circle cx="372.2149350438267" cy="594.8970787711442" r="4.6" fill="#f472b6" opacity="0.41"/><circle cx="471.2294025775045" cy="597.4645935483277" r="2.9" fill="#1A5BC4" opacity="0.24"/><circle cx="566.5018301419914" cy="596.8848803304136" r="1.3" fill="#f472b6" opacity="0.08"/><circle cx="798.3570634871721" cy="596.9092064984143" r="3.3" fill="#1A5BC4" opacity="0.28"/><circle cx="823.3337280061096" cy="592.6959691867232" r="3.8" fill="#f472b6" opacity="0.33"/><circle cx="845.2472732774913" cy="598.0505587961525" r="4.2" fill="#ec4899" opacity="0.37"/><circle cx="868.3590241856873" cy="592.7043301910162" r="4.6" fill="#0033A1" opacity="0.41"/><circle cx="946.3136799726635" cy="598.3832421097904" r="5.0" fill="#1A5BC4" opacity="0.45"/><circle cx="967.2870657648891" cy="595.9458171650767" r="4.9" fill="#ec4899" opacity="0.44"/><circle cx="992.5239858720452" cy="598.3004345912486" r="4.7" fill="#1A5BC4" opacity="0.42"/><circle cx="1022.1835888661444" cy="598.4674046821892" r="4.4" fill="#f472b6" opacity="0.39"/><circle cx="1066.8896943945438" cy="598.0122609175742" r="3.5" fill="#ec4899" opacity="0.30"/><circle cx="1098.8629286270589" cy="591.3949454110116" r="3.0" fill="#0033A1" opacity="0.25"/><circle cx="1172.2815144583583" cy="595.6085726507008" r="1.6" fill="#ec4899" opacity="0.11"/><circle cx="48.95721070468426" cy="620.94894076325" r="1.5" fill="#1A5BC4" opacity="0.10"/><circle cx="142.52061316743493" cy="617.6160351857543" r="3.3" fill="#1A5BC4" opacity="0.28"/><circle cx="172.14662059769034" cy="623.0328347478062" r="3.7" fill="#1A5BC4" opacity="0.32"/><circle cx="192.78329583257437" cy="617.0368108600378" r="4.2" fill="#3b82f6" opacity="0.37"/><circle cx="219.58077676035464" cy="617.894253430888" r="4.5" fill="#3b82f6" opacity="0.40"/><circle cx="248.9802081026137" cy="617.7846774514765" r="4.8" fill="#ec4899" opacity="0.43"/><circle cx="273.6626010145992" cy="620.4826916176826" r="5.0" fill="#3b82f6" opacity="0.45"/><circle cx="292.7331308517605" cy="622.0131665114313" r="5.0" fill="#ec4899" opacity="0.45"/><circle cx="319.2109400294721" cy="618.6946176663041" r="4.9" fill="#ec4899" opacity="0.44"/><circle cx="345.39971971325576" cy="622.7100944370031" r="4.7" fill="#ec4899" opacity="0.42"/><circle cx="366.34537477605045" cy="618.1448027100414" r="4.4" fill="#1A5BC4" opacity="0.39"/><circle cx="469.00844878703356" cy="623.1580996159464" r="2.5" fill="#3b82f6" opacity="0.20"/><circle cx="817.1203659195453" cy="616.965490128845" r="4.1" fill="#3b82f6" opacity="0.36"/><circle cx="846.1814882233739" cy="616.9182596243918" r="4.5" fill="#0033A1" opacity="0.40"/><circle cx="870.5493899956346" cy="622.4202745761722" r="4.8" fill="#ec4899" opacity="0.43"/><circle cx="923.2581437937915" cy="623.2140133846551" r="5.0" fill="#ec4899" opacity="0.45"/><circle cx="970.682460943237" cy="619.8039819207042" r="4.7" fill="#1A5BC4" opacity="0.42"/><circle cx="1067.5401240009815" cy="618.918904427439" r="3.1" fill="#f472b6" opacity="0.26"/><circle cx="1094.151135046035" cy="617.4826657976955" r="2.6" fill="#ec4899" opacity="0.21"/></g>

  <!-- Gradient overlay -->
  <rect width="1200" height="630" fill="url(#overlay)"/>
  <rect width="1200" height="120" fill="url(#topFade)"/>

  <!-- Dot pattern subtle -->
  <pattern id="dots" width="40" height="40" patternUnits="userSpaceOnUse">
    <circle cx="20" cy="20" r="0.8" fill="white" opacity="0.04"/>
  </pattern>
  <rect width="1200" height="630" fill="url(#dots)"/>




</svg>