<svg xmlns="http://www.w3.org/2000/svg" width="1200" height="630" viewBox="0 0 1200 630">
  <defs>
    <linearGradient id="overlay" x1="0" y1="1" x2="0" y2="0">
      <stop offset="0%" stop-color="#001D5C" stop-opacity="0.95"/>
      <stop offset="45%" stop-color="#001D5C" stop-opacity="0.7"/>
      <stop offset="75%" stop-color="#001D5C" stop-opacity="0.2"/>
      <stop offset="100%" stop-color="#001D5C" stop-opacity="0"/>
    </linearGradient>
    <linearGradient id="topFade" x1="0" y1="0" x2="0" y2="1">
      <stop offset="0%" stop-color="#001D5C" stop-opacity="0.3"/>
      <stop offset="100%" stop-color="#001D5C" stop-opacity="0"/>
    </linearGradient>
  </defs>

  <!-- Background -->
  <rect width="1200" height="630" fill="#001D5C"/>

  <!-- Generative pattern -->
  <g><path d="M0,19.2 L8,21.2 L16,29.4 L24,30.3 L32,35.2 L40,35.0 L48,39.9 L56,44.0 L64,45.9 L72,49.5 L80,51.4 L88,50.4 L96,50.1 L104,55.9 L112,52.1 L120,55.6 L128,58.3 L136,53.3 L144,53.4 L152,56.6 L160,54.6 L168,50.4 L176,53.7 L184,52.4 L192,49.5 L200,44.7 L208,46.3 L216,45.7 L224,40.8 L232,39.1 L240,39.6 L248,37.4 L256,30.3 L264,30.8 L272,29.9 L280,28.6 L288,25.3 L296,25.7 L304,19.8 L312,18.4 L320,18.8 L328,19.6 L336,16.9 L344,14.0 L352,18.2 L360,13.7 L368,16.1 L376,15.2 L384,16.4 L392,13.5 L400,16.4 L408,15.1 L416,13.3 L424,14.0 L432,13.2 L440,13.4 L448,15.1 L456,15.5 L464,14.3 L472,13.6 L480,17.0 L488,17.8 L496,12.9 L504,15.2 L512,15.1 L520,12.2 L528,12.9 L536,9.6 L544,7.9 L552,9.8 L560,8.4 L568,4.5 L576,8.6 L584,5.6 L592,1.2 L600,-0.2 L608,1.4 L616,-4.3 L624,-1.5 L632,-2.2 L640,-3.1 L648,-7.5 L656,-7.9 L664,-7.2 L672,-6.9 L680,-10.3 L688,-6.5 L696,-7.6 L704,-7.1 L712,-10.2 L720,-8.2 L728,-6.7 L736,-7.0 L744,-4.3 L752,1.7 L760,-1.7 L768,4.9 L776,5.3 L784,11.4 L792,9.8 L800,12.6 L808,19.9 L816,22.2 L824,26.0 L832,30.4 L840,32.8 L848,35.8 L856,39.1 L864,40.1 L872,43.4 L880,43.1 L888,51.4 L896,52.2 L904,55.5 L912,52.1 L920,56.2 L928,54.6 L936,57.3 L944,58.4 L952,60.3 L960,59.5 L968,60.8 L976,55.8 L984,58.5 L992,55.0 L1000,52.9 L1008,55.4 L1016,50.4 L1024,46.4 L1032,46.5 L1040,46.5 L1048,43.0 L1056,37.8 L1064,37.5 L1072,33.2 L1080,33.3 L1088,24.9 L1096,28.0 L1104,24.5 L1112,17.8 L1120,16.9 L1128,18.0 L1136,16.6 L1144,14.1 L1152,11.7 L1160,5.8 L1168,7.0 L1176,3.6 L1184,7.5 L1192,2.7 L1200,2.6" fill="none" stroke="#10b981" stroke-width="1.2" opacity="0.21"/><path d="M0,29.6 L8,30.0 L16,35.2 L24,41.8 L32,43.0 L40,43.8 L48,48.0 L56,50.5 L64,53.6 L72,54.0 L80,54.1 L88,56.2 L96,55.4 L104,59.8 L112,60.6 L120,61.4 L128,60.0 L136,55.9 L144,59.1 L152,53.7 L160,55.5 L168,55.9 L176,53.2 L184,51.0 L192,49.9 L200,42.8 L208,45.2 L216,40.2 L224,38.5 L232,31.5 L240,29.2 L248,29.3 L256,24.9 L264,25.1 L272,21.0 L280,20.4 L288,17.3 L296,15.5 L304,10.0 L312,12.9 L320,12.3 L328,8.4 L336,4.7 L344,4.4 L352,8.2 L360,4.4 L368,3.8 L376,2.1 L384,5.9 L392,5.7 L400,4.6 L408,3.6 L416,7.7 L424,8.9 L432,7.2 L440,6.7 L448,7.3 L456,10.4 L464,9.7 L472,7.3 L480,7.0 L488,8.8 L496,13.0 L504,7.8 L512,7.5 L520,9.9 L528,11.4 L536,10.9 L544,8.2 L552,8.7 L560,8.3 L568,8.6 L576,5.3 L584,6.7 L592,5.9 L600,3.8 L608,1.2 L616,0.8 L624,0.6 L632,-0.7 L640,-1.6 L648,-1.4 L656,-1.1 L664,1.0 L672,-1.5 L680,-2.7 L688,1.5 L696,0.3 L704,0.5 L712,3.5 L720,1.9 L728,6.3 L736,6.1 L744,6.3 L752,9.0 L760,8.3 L768,12.6 L776,13.3 L784,17.5 L792,24.3 L800,25.5 L808,29.8 L816,33.0 L824,31.9 L832,37.2 L840,40.8 L848,42.8 L856,43.0 L864,47.5 L872,47.8 L880,52.6 L888,53.1 L896,55.6 L904,58.3 L912,59.7 L920,60.5 L928,58.8 L936,60.8 L944,58.6 L952,56.9 L960,59.2 L968,57.8 L976,54.8 L984,56.7 L992,55.4 L1000,53.0 L1008,47.9 L1016,49.0 L1024,45.4 L1032,41.2 L1040,37.3 L1048,37.6 L1056,29.0 L1064,27.5 L1072,24.9 L1080,19.3 L1088,19.1 L1096,14.2 L1104,14.1 L1112,12.8 L1120,10.4 L1128,8.1 L1136,1.5 L1144,4.2 L1152,-1.0 L1160,-2.9 L1168,-3.6 L1176,-2.6 L1184,-6.1 L1192,-5.4 L1200,-3.3" fill="none" stroke="#10b981" stroke-width="1.2" opacity="0.21"/><path d="M0,38.6 L8,40.0 L16,42.7 L24,43.8 L32,47.8 L40,49.6 L48,50.1 L56,53.5 L64,55.7 L72,59.4 L80,56.9 L88,57.9 L96,61.7 L104,58.1 L112,61.6 L120,58.2 L128,58.2 L136,59.2 L144,53.8 L152,56.2 L160,51.5 L168,51.0 L176,47.3 L184,46.2 L192,39.7 L200,37.7 L208,34.2 L216,33.6 L224,28.3 L232,28.9 L240,23.2 L248,17.9 L256,15.8 L264,14.2 L272,10.4 L280,7.0 L288,7.5 L296,6.7 L304,4.6 L312,1.9 L320,-2.6 L328,-0.8 L336,-0.2 L344,-2.6 L352,-1.2 L360,-7.3 L368,-2.7 L376,-2.7 L384,-4.2 L392,-3.2 L400,-1.4 L408,0.4 L416,-3.2 L424,0.4 L432,0.1 L440,0.6 L448,3.6 L456,2.8 L464,2.7 L472,7.6 L480,8.5 L488,6.0 L496,8.3 L504,10.5 L512,7.8 L520,12.2 L528,13.7 L536,9.3 L544,13.4 L552,11.5 L560,9.9 L568,11.7 L576,10.1 L584,8.1 L592,11.1 L600,8.8 L608,12.7 L616,8.1 L624,10.0 L632,10.3 L640,10.1 L648,7.3 L656,10.4 L664,10.9 L672,9.4 L680,7.4 L688,7.3 L696,8.6 L704,11.4 L712,11.7 L720,14.1 L728,14.6 L736,15.7 L744,14.9 L752,19.2 L760,19.9 L768,20.2 L776,24.7 L784,26.0 L792,29.0 L800,32.9 L808,31.9 L816,38.2 L824,39.4 L832,39.2 L840,42.2 L848,45.0 L856,47.2 L864,47.5 L872,54.0 L880,54.4 L888,53.9 L896,56.7 L904,55.3 L912,55.2 L920,59.9 L928,60.8 L936,60.4 L944,55.9 L952,57.2 L960,54.1 L968,50.3 L976,52.0 L984,48.3 L992,49.6 L1000,44.0 L1008,40.6 L1016,35.7 L1024,33.4 L1032,29.3 L1040,30.7 L1048,27.2 L1056,19.8 L1064,18.0 L1072,12.8 L1080,11.5 L1088,7.8 L1096,7.2 L1104,1.3 L1112,-0.3 L1120,-3.0 L1128,-0.8 L1136,-7.6 L1144,-5.1 L1152,-8.5 L1160,-10.2 L1168,-11.5 L1176,-11.2 L1184,-12.2 L1192,-14.1 L1200,-13.6" fill="none" stroke="#10b981" stroke-width="1.2" opacity="0.21"/><path d="M0,81.6 L8,88.1 L16,90.3 L24,86.0 L32,87.5 L40,87.4 L48,91.1 L56,88.0 L64,89.3 L72,90.9 L80,86.8 L88,90.0 L96,84.3 L104,84.7 L112,84.0 L120,79.7 L128,77.9 L136,76.5 L144,73.7 L152,73.9 L160,72.6 L168,65.2 L176,63.6 L184,66.6 L192,62.6 L200,60.6 L208,55.7 L216,53.1 L224,51.8 L232,50.4 L240,50.1 L248,49.8 L256,48.9 L264,51.5 L272,50.0 L280,48.7 L288,48.3 L296,44.1 L304,44.8 L312,47.6 L320,47.6 L328,45.1 L336,45.8 L344,50.5 L352,50.1 L360,48.7 L368,49.8 L376,46.5 L384,48.5 L392,49.1 L400,50.0 L408,49.9 L416,46.4 L424,46.8 L432,49.1 L440,48.8 L448,45.0 L456,45.2 L464,46.4 L472,41.3 L480,44.8 L488,41.6 L496,39.1 L504,40.1 L512,35.0 L520,38.1 L528,36.4 L536,34.0 L544,33.4 L552,31.3 L560,26.7 L568,26.1 L576,27.9 L584,28.4 L592,25.6 L600,28.9 L608,27.2 L616,28.9 L624,27.5 L632,24.5 L640,29.4 L648,28.2 L656,30.4 L664,30.5 L672,34.9 L680,35.4 L688,39.2 L696,40.3 L704,43.8 L712,44.7 L720,51.6 L728,56.3 L736,54.6 L744,59.1 L752,64.4 L760,63.9 L768,68.4 L776,69.9 L784,73.1 L792,81.0 L800,83.9 L808,81.0 L816,88.5 L824,88.8 L832,87.1 L840,90.5 L848,93.4 L856,94.9 L864,91.0 L872,90.9 L880,92.4 L888,92.9 L896,93.9 L904,88.5 L912,92.8 L920,85.4 L928,86.0 L936,81.8 L944,85.0 L952,79.2 L960,79.7 L968,73.1 L976,72.5 L984,66.3 L992,63.5 L1000,60.9 L1008,62.3 L1016,59.5 L1024,55.3 L1032,53.8 L1040,52.9 L1048,49.4 L1056,48.7 L1064,44.5 L1072,42.4 L1080,43.7 L1088,41.8 L1096,39.1 L1104,38.7 L1112,36.5 L1120,36.1 L1128,36.3 L1136,36.4 L1144,35.6 L1152,35.7 L1160,38.4 L1168,40.1 L1176,36.4 L1184,37.1 L1192,37.0 L1200,37.0" fill="none" stroke="#34d399" stroke-width="1.2" opacity="0.14"/><path d="M0,92.8 L8,88.6 L16,93.1 L24,90.6 L32,94.3 L40,91.3 L48,95.9 L56,95.3 L64,93.1 L72,92.4 L80,90.5 L88,85.3 L96,87.0 L104,80.4 L112,82.9 L120,79.5 L128,73.6 L136,74.0 L144,68.8 L152,68.7 L160,66.3 L168,59.5 L176,58.0 L184,54.7 L192,56.9 L200,49.4 L208,49.3 L216,46.6 L224,47.8 L232,46.6 L240,41.3 L248,39.4 L256,36.8 L264,39.8 L272,40.3 L280,39.2 L288,34.3 L296,39.1 L304,36.5 L312,39.1 L320,39.4 L328,38.1 L336,35.5 L344,39.1 L352,36.9 L360,40.7 L368,43.0 L376,43.2 L384,42.9 L392,39.6 L400,44.0 L408,41.7 L416,41.1 L424,46.2 L432,45.5 L440,46.2 L448,44.7 L456,45.5 L464,42.4 L472,40.9 L480,43.9 L488,40.3 L496,39.6 L504,41.7 L512,42.1 L520,40.2 L528,40.9 L536,35.8 L544,36.8 L552,35.0 L560,37.2 L568,34.5 L576,35.2 L584,36.2 L592,34.4 L600,36.5 L608,35.6 L616,33.4 L624,38.5 L632,35.8 L640,37.3 L648,37.0 L656,40.4 L664,42.7 L672,47.1 L680,46.7 L688,50.6 L696,51.3 L704,53.4 L712,59.0 L720,61.6 L728,64.6 L736,68.2 L744,69.1 L752,71.5 L760,74.5 L768,78.4 L776,81.3 L784,81.6 L792,85.1 L800,89.2 L808,87.0 L816,91.3 L824,91.4 L832,95.4 L840,95.5 L848,92.3 L856,93.9 L864,96.3 L872,95.4 L880,91.3 L888,90.8 L896,92.0 L904,89.3 L912,88.8 L920,82.5 L928,81.2 L936,76.9 L944,75.0 L952,72.2 L960,72.0 L968,68.0 L976,64.7 L984,59.7 L992,56.2 L1000,55.4 L1008,50.9 L1016,51.5 L1024,46.8 L1032,43.3 L1040,41.2 L1048,37.8 L1056,35.7 L1064,35.2 L1072,35.6 L1080,29.0 L1088,33.0 L1096,27.5 L1104,27.7 L1112,26.3 L1120,25.5 L1128,30.4 L1136,30.3 L1144,28.3 L1152,29.2 L1160,30.6 L1168,30.3 L1176,28.8 L1184,33.6 L1192,32.6 L1200,36.3" fill="none" stroke="#34d399" stroke-width="1.2" opacity="0.14"/><path d="M0,90.7 L8,91.2 L16,92.3 L24,91.2 L32,94.0 L40,92.3 L48,94.6 L56,90.9 L64,88.7 L72,87.1 L80,87.6 L88,80.3 L96,78.0 L104,76.9 L112,73.8 L120,70.4 L128,70.9 L136,64.8 L144,60.2 L152,61.0 L160,58.5 L168,50.8 L176,51.4 L184,44.9 L192,44.0 L200,40.7 L208,38.4 L216,34.9 L224,36.3 L232,34.5 L240,34.0 L248,31.4 L256,29.1 L264,30.2 L272,29.1 L280,25.8 L288,29.1 L296,27.9 L304,28.6 L312,30.3 L320,29.1 L328,32.5 L336,31.8 L344,32.0 L352,36.9 L360,34.7 L368,39.2 L376,35.5 L384,35.9 L392,40.4 L400,42.5 L408,41.7 L416,42.5 L424,41.0 L432,43.7 L440,44.1 L448,46.9 L456,47.6 L464,44.6 L472,43.9 L480,44.3 L488,44.8 L496,46.0 L504,48.4 L512,47.4 L520,46.3 L528,44.8 L536,44.3 L544,43.0 L552,46.6 L560,46.1 L568,42.0 L576,43.7 L584,46.3 L592,42.2 L600,44.2 L608,42.7 L616,45.5 L624,46.0 L632,47.6 L640,49.1 L648,50.3 L656,47.8 L664,49.2 L672,53.8 L680,56.7 L688,58.5 L696,58.0 L704,60.1 L712,67.2 L720,66.0 L728,67.5 L736,72.3 L744,71.3 L752,74.3 L760,81.3 L768,81.4 L776,84.1 L784,81.9 L792,87.5 L800,86.1 L808,91.5 L816,88.1 L824,91.0 L832,93.0 L840,90.3 L848,93.7 L856,93.7 L864,89.0 L872,92.2 L880,89.8 L888,84.6 L896,83.9 L904,81.8 L912,78.0 L920,77.5 L928,76.9 L936,70.4 L944,66.8 L952,66.7 L960,62.9 L968,59.4 L976,52.0 L984,49.7 L992,45.4 L1000,45.4 L1008,40.7 L1016,39.1 L1024,37.2 L1032,34.5 L1040,29.1 L1048,28.3 L1056,25.3 L1064,27.0 L1072,22.3 L1080,25.3 L1088,22.7 L1096,22.7 L1104,23.3 L1112,19.9 L1120,21.3 L1128,22.5 L1136,19.9 L1144,25.2 L1152,23.5 L1160,25.3 L1168,24.7 L1176,27.5 L1184,32.8 L1192,30.5 L1200,32.6" fill="none" stroke="#34d399" stroke-width="1.2" opacity="0.14"/><path d="M0,136.2 L8,130.3 L16,132.8 L24,131.8 L32,128.4 L40,124.8 L48,126.1 L56,124.8 L64,122.5 L72,116.0 L80,112.6 L88,111.9 L96,110.3 L104,107.8 L112,103.3 L120,104.6 L128,103.7 L136,97.5 L144,101.2 L152,94.8 L160,94.1 L168,95.4 L176,94.7 L184,94.1 L192,89.5 L200,94.0 L208,89.0 L216,90.7 L224,92.6 L232,93.2 L240,91.6 L248,93.8 L256,91.7 L264,89.0 L272,89.6 L280,90.3 L288,92.2 L296,94.2 L304,94.1 L312,90.8 L320,95.4 L328,93.0 L336,90.8 L344,90.6 L352,91.8 L360,90.9 L368,92.7 L376,88.9 L384,92.3 L392,88.0 L400,90.1 L408,86.7 L416,87.1 L424,84.5 L432,83.4 L440,81.4 L448,77.4 L456,81.4 L464,78.3 L472,75.9 L480,76.5 L488,74.2 L496,71.0 L504,70.7 L512,74.2 L520,75.1 L528,73.7 L536,73.4 L544,76.0 L552,72.9 L560,75.8 L568,74.9 L576,76.2 L584,81.7 L592,80.7 L600,83.9 L608,86.9 L616,88.2 L624,92.0 L632,93.1 L640,96.6 L648,103.5 L656,101.9 L664,108.0 L672,109.3 L680,114.0 L688,118.0 L696,119.7 L704,120.2 L712,127.5 L720,128.2 L728,133.1 L736,133.5 L744,136.2 L752,135.2 L760,139.5 L768,138.5 L776,138.0 L784,138.0 L792,138.4 L800,137.2 L808,135.6 L816,139.5 L824,135.0 L832,136.5 L840,134.5 L848,131.8 L856,131.1 L864,127.4 L872,126.1 L880,120.2 L888,117.5 L896,114.7 L904,115.8 L912,113.5 L920,106.5 L928,102.1 L936,104.7 L944,96.8 L952,98.1 L960,93.0 L968,93.6 L976,90.6 L984,90.2 L992,88.3 L1000,85.0 L1008,82.0 L1016,85.6 L1024,84.0 L1032,81.2 L1040,82.7 L1048,83.6 L1056,83.6 L1064,79.5 L1072,78.8 L1080,78.9 L1088,82.4 L1096,84.5 L1104,81.3 L1112,82.8 L1120,83.3 L1128,84.3 L1136,83.2 L1144,84.7 L1152,87.7 L1160,85.5 L1168,89.2 L1176,87.1 L1184,87.7 L1192,87.4 L1200,88.0" fill="none" stroke="#3b82f6" stroke-width="1.2" opacity="0.14"/><path d="M0,134.6 L8,131.8 L16,130.1 L24,126.0 L32,123.9 L40,121.8 L48,119.4 L56,115.3 L64,112.6 L72,113.6 L80,107.3 L88,106.2 L96,104.0 L104,102.3 L112,95.9 L120,93.5 L128,96.1 L136,92.6 L144,88.7 L152,88.5 L160,85.7 L168,82.9 L176,86.2 L184,84.3 L192,83.5 L200,80.0 L208,80.4 L216,81.1 L224,79.0 L232,83.5 L240,80.9 L248,84.4 L256,85.3 L264,85.4 L272,86.1 L280,82.6 L288,82.6 L296,86.3 L304,89.3 L312,89.4 L320,88.0 L328,86.2 L336,88.3 L344,90.9 L352,89.0 L360,90.7 L368,90.4 L376,92.4 L384,89.4 L392,88.5 L400,90.6 L408,85.6 L416,89.8 L424,87.0 L432,85.2 L440,85.0 L448,83.3 L456,82.7 L464,85.2 L472,80.1 L480,82.7 L488,84.2 L496,80.8 L504,78.4 L512,82.5 L520,80.2 L528,80.8 L536,84.1 L544,80.7 L552,82.7 L560,85.5 L568,87.0 L576,86.9 L584,88.5 L592,88.8 L600,91.4 L608,95.4 L616,96.0 L624,103.6 L632,104.3 L640,108.1 L648,107.7 L656,114.3 L664,113.0 L672,116.8 L680,122.7 L688,121.0 L696,125.9 L704,129.5 L712,133.2 L720,135.2 L728,135.6 L736,134.6 L744,134.1 L752,138.7 L760,140.4 L768,140.7 L776,140.3 L784,136.2 L792,135.9 L800,134.9 L808,137.4 L816,132.7 L824,133.1 L832,132.7 L840,126.7 L848,127.0 L856,126.0 L864,123.5 L872,119.6 L880,115.0 L888,112.6 L896,108.3 L904,106.5 L912,104.2 L920,100.8 L928,97.4 L936,93.3 L944,87.4 L952,89.0 L960,85.3 L968,82.3 L976,78.8 L984,76.7 L992,76.4 L1000,77.1 L1008,76.1 L1016,76.5 L1024,73.1 L1032,73.6 L1040,71.6 L1048,74.1 L1056,72.3 L1064,72.8 L1072,71.7 L1080,73.3 L1088,78.4 L1096,74.6 L1104,76.9 L1112,79.2 L1120,79.9 L1128,82.2 L1136,84.0 L1144,86.2 L1152,85.6 L1160,85.2 L1168,87.5 L1176,90.5 L1184,90.8 L1192,90.7 L1200,93.9" fill="none" stroke="#3b82f6" stroke-width="1.2" opacity="0.14"/><path d="M0,127.3 L8,126.5 L16,124.2 L24,120.8 L32,119.4 L40,118.7 L48,110.3 L56,108.2 L64,104.6 L72,104.5 L80,98.4 L88,95.8 L96,91.4 L104,88.6 L112,88.9 L120,84.2 L128,85.9 L136,83.2 L144,76.9 L152,80.7 L160,79.2 L168,77.0 L176,74.3 L184,72.3 L192,70.2 L200,73.2 L208,75.2 L216,75.0 L224,71.1 L232,75.4 L240,76.6 L248,72.7 L256,74.1 L264,76.7 L272,76.6 L280,80.3 L288,82.0 L296,85.7 L304,82.1 L312,84.6 L320,86.9 L328,86.9 L336,87.7 L344,91.7 L352,91.5 L360,92.9 L368,93.1 L376,90.2 L384,93.0 L392,95.3 L400,90.4 L408,95.6 L416,95.6 L424,95.1 L432,90.8 L440,95.1 L448,94.9 L456,90.6 L464,93.9 L472,90.6 L480,93.3 L488,90.4 L496,90.5 L504,91.7 L512,93.7 L520,90.4 L528,91.0 L536,92.8 L544,94.1 L552,96.3 L560,95.4 L568,94.4 L576,94.6 L584,97.4 L592,98.1 L600,101.1 L608,101.3 L616,107.1 L624,110.5 L632,109.4 L640,115.4 L648,117.4 L656,116.8 L664,120.6 L672,121.0 L680,122.0 L688,127.2 L696,126.7 L704,130.3 L712,134.9 L720,134.4 L728,136.8 L736,138.2 L744,136.5 L752,137.0 L760,134.7 L768,139.0 L776,133.7 L784,134.5 L792,136.6 L800,133.7 L808,131.2 L816,130.0 L824,125.7 L832,125.9 L840,122.5 L848,119.7 L856,113.8 L864,114.9 L872,108.2 L880,107.3 L888,103.4 L896,98.3 L904,97.7 L912,94.7 L920,87.1 L928,86.5 L936,81.2 L944,80.4 L952,74.8 L960,77.3 L968,74.8 L976,73.3 L984,67.5 L992,68.2 L1000,69.4 L1008,68.7 L1016,64.9 L1024,66.0 L1032,65.8 L1040,65.0 L1048,65.7 L1056,68.4 L1064,70.5 L1072,72.1 L1080,73.0 L1088,72.7 L1096,76.7 L1104,75.6 L1112,78.7 L1120,80.3 L1128,81.4 L1136,81.5 L1144,88.4 L1152,90.4 L1160,88.8 L1168,89.1 L1176,93.7 L1184,95.1 L1192,95.9 L1200,99.0" fill="none" stroke="#3b82f6" stroke-width="1.2" opacity="0.14"/><path d="M0,159.8 L8,158.6 L16,157.3 L24,157.2 L32,155.0 L40,147.6 L48,147.9 L56,144.1 L64,143.8 L72,145.4 L80,139.6 L88,138.6 L96,136.6 L104,140.3 L112,139.7 L120,135.7 L128,140.0 L136,138.9 L144,135.0 L152,133.9 L160,138.0 L168,134.1 L176,136.4 L184,138.4 L192,141.0 L200,137.2 L208,137.0 L216,139.8 L224,141.0 L232,140.9 L240,137.5 L248,139.6 L256,141.8 L264,137.4 L272,141.2 L280,136.0 L288,136.2 L296,138.7 L304,135.6 L312,135.8 L320,132.2 L328,134.7 L336,131.7 L344,132.7 L352,129.9 L360,131.6 L368,125.4 L376,127.3 L384,124.0 L392,127.4 L400,123.6 L408,124.7 L416,120.7 L424,122.1 L432,120.2 L440,123.2 L448,118.6 L456,121.1 L464,122.2 L472,122.5 L480,125.5 L488,124.7 L496,126.5 L504,125.6 L512,132.0 L520,133.3 L528,135.0 L536,135.1 L544,138.5 L552,145.7 L560,143.8 L568,151.5 L576,152.5 L584,155.0 L592,160.8 L600,160.9 L608,164.7 L616,168.1 L624,169.9 L632,174.5 L640,177.6 L648,175.8 L656,179.6 L664,179.7 L672,182.6 L680,186.5 L688,185.3 L696,186.9 L704,189.7 L712,185.3 L720,185.9 L728,184.1 L736,185.4 L744,182.4 L752,185.2 L760,179.7 L768,175.5 L776,174.5 L784,171.7 L792,170.9 L800,166.9 L808,164.7 L816,161.4 L824,160.5 L832,156.9 L840,151.7 L848,150.7 L856,145.7 L864,142.8 L872,140.6 L880,141.5 L888,136.0 L896,135.0 L904,131.8 L912,134.0 L920,130.0 L928,129.2 L936,130.1 L944,127.0 L952,129.8 L960,128.3 L968,127.5 L976,127.3 L984,124.5 L992,124.9 L1000,126.0 L1008,131.0 L1016,127.4 L1024,128.0 L1032,132.6 L1040,128.8 L1048,130.0 L1056,133.4 L1064,133.4 L1072,133.4 L1080,137.2 L1088,134.4 L1096,137.9 L1104,134.5 L1112,134.2 L1120,137.1 L1128,138.9 L1136,135.9 L1144,135.5 L1152,134.4 L1160,136.6 L1168,138.5 L1176,137.2 L1184,136.0 L1192,133.0 L1200,132.5" fill="none" stroke="#0033A1" stroke-width="1.2" opacity="0.31"/><path d="M0,154.3 L8,153.3 L16,148.9 L24,145.6 L32,145.0 L40,141.7 L48,141.6 L56,136.9 L64,132.9 L72,135.7 L80,133.6 L88,128.7 L96,127.8 L104,126.3 L112,126.5 L120,128.5 L128,129.2 L136,128.3 L144,127.9 L152,129.5 L160,126.3 L168,131.3 L176,129.1 L184,132.4 L192,131.8 L200,130.7 L208,131.2 L216,133.9 L224,134.5 L232,134.5 L240,132.9 L248,133.2 L256,138.9 L264,134.0 L272,135.4 L280,138.0 L288,134.4 L296,139.0 L304,136.7 L312,135.0 L320,136.7 L328,138.0 L336,134.0 L344,133.8 L352,132.0 L360,134.9 L368,131.3 L376,129.4 L384,132.1 L392,131.0 L400,133.2 L408,128.8 L416,129.8 L424,127.8 L432,130.9 L440,132.4 L448,131.8 L456,130.6 L464,133.1 L472,135.5 L480,133.1 L488,134.1 L496,135.4 L504,136.6 L512,137.6 L520,139.8 L528,143.9 L536,149.5 L544,150.5 L552,154.4 L560,153.7 L568,155.8 L576,161.5 L584,164.4 L592,167.4 L600,168.3 L608,170.1 L616,174.0 L624,174.3 L632,178.2 L640,183.2 L648,184.0 L656,186.0 L664,182.6 L672,186.5 L680,184.5 L688,188.2 L696,185.8 L704,185.9 L712,183.3 L720,183.8 L728,182.1 L736,180.0 L744,181.5 L752,176.2 L760,174.3 L768,172.2 L776,168.1 L784,166.8 L792,163.3 L800,161.3 L808,159.9 L816,154.9 L824,151.8 L832,145.9 L840,142.9 L848,139.4 L856,137.5 L864,133.1 L872,131.5 L880,130.9 L888,129.9 L896,128.3 L904,123.9 L912,124.3 L920,120.5 L928,119.7 L936,117.1 L944,118.1 L952,116.3 L960,118.0 L968,120.8 L976,117.5 L984,122.4 L992,119.6 L1000,122.2 L1008,122.2 L1016,123.5 L1024,125.3 L1032,126.9 L1040,126.4 L1048,128.5 L1056,132.2 L1064,132.0 L1072,132.9 L1080,135.9 L1088,137.7 L1096,136.4 L1104,135.2 L1112,141.3 L1120,138.0 L1128,138.8 L1136,141.8 L1144,142.8 L1152,140.5 L1160,144.7 L1168,140.7 L1176,143.3 L1184,140.2 L1192,141.1 L1200,143.0" fill="none" stroke="#0033A1" stroke-width="1.2" opacity="0.31"/><path d="M0,147.8 L8,141.8 L16,142.1 L24,136.6 L32,132.9 L40,130.6 L48,127.5 L56,126.6 L64,126.4 L72,126.4 L80,121.6 L88,118.2 L96,119.7 L104,117.9 L112,117.0 L120,120.1 L128,117.2 L136,121.3 L144,116.8 L152,117.6 L160,122.4 L168,124.2 L176,126.1 L184,124.6 L192,126.6 L200,127.5 L208,128.1 L216,129.3 L224,129.1 L232,132.5 L240,133.1 L248,137.6 L256,138.5 L264,135.9 L272,138.9 L280,137.4 L288,139.6 L296,138.1 L304,141.1 L312,139.2 L320,140.9 L328,140.4 L336,141.8 L344,142.7 L352,139.8 L360,143.1 L368,139.2 L376,138.1 L384,138.4 L392,139.8 L400,141.6 L408,140.2 L416,139.2 L424,141.7 L432,137.5 L440,139.6 L448,141.3 L456,140.5 L464,140.3 L472,142.0 L480,143.4 L488,142.6 L496,144.9 L504,145.6 L512,147.8 L520,148.7 L528,152.6 L536,152.2 L544,154.9 L552,157.7 L560,163.8 L568,166.2 L576,168.2 L584,169.5 L592,168.4 L600,173.0 L608,174.6 L616,176.3 L624,175.5 L632,177.2 L640,178.8 L648,183.8 L656,182.4 L664,181.8 L672,185.6 L680,183.0 L688,184.3 L696,185.2 L704,184.1 L712,182.9 L720,181.4 L728,174.7 L736,173.5 L744,174.0 L752,170.2 L760,168.5 L768,165.2 L776,164.4 L784,157.6 L792,152.6 L800,151.4 L808,149.6 L816,145.6 L824,139.1 L832,135.8 L840,136.3 L848,129.5 L856,131.7 L864,126.8 L872,125.3 L880,118.7 L888,120.2 L896,117.9 L904,117.0 L912,114.8 L920,114.6 L928,111.8 L936,112.1 L944,113.6 L952,114.0 L960,110.2 L968,115.3 L976,115.4 L984,116.4 L992,114.6 L1000,118.6 L1008,122.4 L1016,120.1 L1024,126.5 L1032,124.3 L1040,125.7 L1048,130.6 L1056,130.5 L1064,134.9 L1072,138.8 L1080,135.1 L1088,138.3 L1096,142.7 L1104,142.0 L1112,144.0 L1120,146.8 L1128,144.6 L1136,150.6 L1144,148.0 L1152,151.1 L1160,150.5 L1168,148.8 L1176,152.6 L1184,150.0 L1192,153.4 L1200,152.9" fill="none" stroke="#0033A1" stroke-width="1.2" opacity="0.31"/><path d="M0,175.7 L8,173.7 L16,172.9 L24,170.1 L32,171.8 L40,167.7 L48,168.5 L56,168.9 L64,169.5 L72,166.9 L80,169.5 L88,171.4 L96,167.7 L104,172.1 L112,170.0 L120,172.2 L128,172.2 L136,174.4 L144,173.7 L152,170.7 L160,172.9 L168,173.1 L176,171.6 L184,170.5 L192,173.5 L200,170.7 L208,169.8 L216,169.3 L224,173.1 L232,167.4 L240,167.4 L248,168.5 L256,168.6 L264,163.8 L272,166.2 L280,163.0 L288,160.3 L296,161.0 L304,158.4 L312,159.1 L320,159.8 L328,156.1 L336,159.0 L344,158.8 L352,158.0 L360,158.2 L368,158.5 L376,159.5 L384,158.5 L392,160.8 L400,159.6 L408,158.7 L416,162.6 L424,166.6 L432,165.0 L440,168.7 L448,167.7 L456,175.0 L464,174.6 L472,180.3 L480,183.9 L488,186.6 L496,189.0 L504,193.3 L512,191.3 L520,199.5 L528,203.1 L536,204.0 L544,203.1 L552,208.1 L560,212.5 L568,215.2 L576,213.5 L584,215.1 L592,217.3 L600,221.3 L608,218.4 L616,223.6 L624,221.0 L632,222.5 L640,222.2 L648,221.9 L656,217.6 L664,220.1 L672,218.4 L680,211.9 L688,212.8 L696,211.0 L704,205.0 L712,202.8 L720,199.1 L728,197.6 L736,193.3 L744,192.7 L752,192.1 L760,184.0 L768,184.4 L776,182.4 L784,176.9 L792,178.8 L800,171.1 L808,168.1 L816,167.9 L824,164.4 L832,162.7 L840,162.7 L848,164.1 L856,159.6 L864,158.0 L872,160.6 L880,160.2 L888,159.1 L896,159.8 L904,159.9 L912,159.5 L920,161.3 L928,162.2 L936,161.0 L944,162.7 L952,166.3 L960,165.2 L968,165.6 L976,168.3 L984,168.8 L992,168.4 L1000,170.3 L1008,168.5 L1016,169.7 L1024,169.6 L1032,168.9 L1040,172.2 L1048,169.7 L1056,172.8 L1064,174.0 L1072,171.7 L1080,173.1 L1088,172.0 L1096,169.0 L1104,166.9 L1112,171.0 L1120,167.2 L1128,170.4 L1136,169.1 L1144,164.6 L1152,169.3 L1160,166.3 L1168,168.5 L1176,166.0 L1184,163.1 L1192,165.5 L1200,164.1" fill="none" stroke="#1A5BC4" stroke-width="1.2" opacity="0.12"/><path d="M0,164.2 L8,166.0 L16,164.8 L24,160.1 L32,157.9 L40,161.8 L48,157.0 L56,159.7 L64,160.8 L72,157.6 L80,163.1 L88,159.8 L96,162.8 L104,162.2 L112,165.2 L120,166.3 L128,163.2 L136,164.1 L144,164.4 L152,166.5 L160,165.8 L168,172.3 L176,168.1 L184,172.1 L192,169.0 L200,171.2 L208,168.6 L216,169.0 L224,171.4 L232,168.2 L240,170.7 L248,171.6 L256,169.6 L264,171.7 L272,168.5 L280,167.4 L288,166.7 L296,168.6 L304,167.7 L312,169.0 L320,168.3 L328,166.5 L336,166.1 L344,163.5 L352,167.8 L360,164.8 L368,164.8 L376,166.3 L384,166.8 L392,170.7 L400,171.3 L408,170.6 L416,171.6 L424,174.5 L432,174.1 L440,177.9 L448,179.2 L456,184.0 L464,183.7 L472,185.0 L480,189.7 L488,192.0 L496,196.7 L504,198.1 L512,198.2 L520,204.2 L528,206.8 L536,207.1 L544,207.7 L552,214.3 L560,212.8 L568,217.5 L576,217.7 L584,221.6 L592,217.5 L600,218.8 L608,220.3 L616,221.3 L624,220.5 L632,220.5 L640,220.5 L648,219.3 L656,212.5 L664,212.2 L672,211.8 L680,205.9 L688,206.5 L696,203.7 L704,198.0 L712,194.6 L720,191.9 L728,189.6 L736,185.8 L744,186.7 L752,182.0 L760,177.5 L768,174.7 L776,173.2 L784,170.4 L792,168.9 L800,165.4 L808,160.5 L816,156.5 L824,154.3 L832,157.5 L840,155.7 L848,151.4 L856,154.4 L864,154.1 L872,150.3 L880,153.2 L888,153.7 L896,153.4 L904,152.4 L912,152.8 L920,155.6 L928,154.7 L936,158.3 L944,156.2 L952,159.0 L960,159.8 L968,162.6 L976,165.7 L984,163.2 L992,166.6 L1000,167.4 L1008,168.5 L1016,171.3 L1024,172.7 L1032,173.1 L1040,176.7 L1048,175.9 L1056,177.5 L1064,177.0 L1072,178.7 L1080,179.0 L1088,176.8 L1096,176.3 L1104,180.1 L1112,177.6 L1120,179.2 L1128,175.3 L1136,177.2 L1144,176.4 L1152,177.8 L1160,178.0 L1168,176.6 L1176,172.7 L1184,177.4 L1192,174.5 L1200,173.2" fill="none" stroke="#1A5BC4" stroke-width="1.2" opacity="0.12"/><path d="M0,157.3 L8,156.1 L16,151.0 L24,153.3 L32,153.3 L40,151.0 L48,150.8 L56,153.5 L64,155.5 L72,151.8 L80,156.7 L88,154.2 L96,157.3 L104,158.2 L112,157.4 L120,160.8 L128,160.7 L136,165.7 L144,167.9 L152,169.0 L160,165.9 L168,172.5 L176,171.1 L184,174.5 L192,171.9 L200,175.8 L208,177.3 L216,177.9 L224,174.6 L232,173.7 L240,177.8 L248,175.4 L256,179.2 L264,174.0 L272,174.7 L280,175.8 L288,175.8 L296,176.5 L304,178.8 L312,177.1 L320,176.2 L328,174.5 L336,172.7 L344,172.9 L352,178.0 L360,176.3 L368,175.4 L376,176.9 L384,174.1 L392,176.6 L400,180.7 L408,180.0 L416,183.2 L424,182.6 L432,183.3 L440,187.6 L448,188.8 L456,188.2 L464,192.2 L472,190.9 L480,196.3 L488,197.8 L496,202.4 L504,200.3 L512,204.4 L520,203.6 L528,206.2 L536,210.4 L544,211.2 L552,212.9 L560,215.9 L568,215.7 L576,216.7 L584,219.5 L592,215.0 L600,216.0 L608,216.4 L616,214.3 L624,217.3 L632,211.1 L640,210.8 L648,210.7 L656,209.4 L664,205.1 L672,201.1 L680,201.3 L688,197.5 L696,194.7 L704,188.1 L712,187.8 L720,186.3 L728,183.6 L736,176.6 L744,173.4 L752,172.3 L760,164.8 L768,164.7 L776,160.1 L784,160.6 L792,155.6 L800,153.2 L808,154.6 L816,147.5 L824,147.0 L832,148.8 L840,144.5 L848,146.0 L856,146.3 L864,145.3 L872,147.0 L880,143.7 L888,147.1 L896,146.9 L904,147.3 L912,149.4 L920,150.9 L928,154.6 L936,153.8 L944,157.3 L952,161.7 L960,162.2 L968,163.3 L976,164.2 L984,167.3 L992,171.0 L1000,172.0 L1008,176.2 L1016,174.7 L1024,180.7 L1032,180.0 L1040,178.2 L1048,184.5 L1056,183.4 L1064,182.5 L1072,187.4 L1080,183.6 L1088,187.0 L1096,189.2 L1104,186.8 L1112,184.9 L1120,187.2 L1128,183.6 L1136,184.1 L1144,188.3 L1152,186.8 L1160,182.9 L1168,182.9 L1176,187.2 L1184,186.6 L1192,187.9 L1200,183.1" fill="none" stroke="#1A5BC4" stroke-width="1.2" opacity="0.12"/><path d="M0,216.3 L8,215.4 L16,215.5 L24,218.0 L32,217.6 L40,219.7 L48,215.2 L56,217.5 L64,220.2 L72,221.6 L80,218.6 L88,220.3 L96,222.0 L104,218.0 L112,217.3 L120,219.6 L128,218.3 L136,216.3 L144,217.7 L152,219.8 L160,217.5 L168,214.2 L176,216.3 L184,213.4 L192,215.6 L200,213.4 L208,209.9 L216,210.2 L224,209.3 L232,208.6 L240,204.1 L248,205.5 L256,203.4 L264,202.7 L272,202.7 L280,203.3 L288,202.8 L296,203.2 L304,208.1 L312,208.5 L320,205.4 L328,208.3 L336,209.1 L344,215.9 L352,214.4 L360,216.0 L368,222.5 L376,220.8 L384,227.8 L392,230.3 L400,229.9 L408,232.4 L416,237.3 L424,237.8 L432,241.3 L440,245.1 L448,249.8 L456,251.2 L464,256.5 L472,253.9 L480,257.7 L488,263.4 L496,263.4 L504,265.4 L512,265.7 L520,265.2 L528,269.6 L536,269.3 L544,267.4 L552,267.6 L560,267.8 L568,264.2 L576,266.9 L584,266.1 L592,263.7 L600,260.1 L608,259.1 L616,258.3 L624,251.3 L632,250.8 L640,248.8 L648,248.1 L656,243.1 L664,240.4 L672,236.4 L680,233.5 L688,228.0 L696,228.6 L704,223.3 L712,224.0 L720,218.0 L728,214.2 L736,217.0 L744,213.8 L752,210.6 L760,209.4 L768,209.3 L776,204.9 L784,209.6 L792,207.2 L800,206.7 L808,203.1 L816,206.3 L824,204.1 L832,204.7 L840,205.3 L848,205.4 L856,208.3 L864,212.3 L872,209.3 L880,214.0 L888,214.0 L896,215.5 L904,215.9 L912,214.5 L920,216.5 L928,218.4 L936,216.1 L944,218.3 L952,221.4 L960,221.7 L968,220.4 L976,216.5 L984,218.4 L992,217.6 L1000,219.3 L1008,217.0 L1016,220.4 L1024,217.4 L1032,215.4 L1040,218.1 L1048,219.2 L1056,216.0 L1064,218.5 L1072,214.5 L1080,217.6 L1088,211.9 L1096,212.1 L1104,216.7 L1112,215.7 L1120,216.3 L1128,214.6 L1136,215.5 L1144,218.6 L1152,216.0 L1160,218.3 L1168,223.1 L1176,220.4 L1184,222.6 L1192,223.0 L1200,226.9" fill="none" stroke="#10b981" stroke-width="1.2" opacity="0.40"/><path d="M0,205.9 L8,208.2 L16,206.0 L24,207.5 L32,210.6 L40,210.3 L48,213.5 L56,213.2 L64,213.8 L72,214.9 L80,217.5 L88,216.6 L96,218.4 L104,219.8 L112,219.4 L120,217.6 L128,220.1 L136,217.6 L144,221.1 L152,217.6 L160,221.3 L168,218.8 L176,216.5 L184,220.9 L192,218.3 L200,219.8 L208,217.3 L216,214.3 L224,213.5 L232,215.5 L240,214.8 L248,212.2 L256,214.1 L264,216.2 L272,213.3 L280,216.4 L288,214.8 L296,216.2 L304,214.2 L312,214.5 L320,216.5 L328,220.9 L336,221.3 L344,222.1 L352,224.8 L360,227.8 L368,230.9 L376,231.0 L384,234.1 L392,235.6 L400,236.7 L408,239.3 L416,244.0 L424,247.1 L432,246.6 L440,252.7 L448,253.3 L456,256.1 L464,255.7 L472,261.7 L480,264.4 L488,262.0 L496,267.1 L504,268.9 L512,264.4 L520,264.3 L528,265.0 L536,268.1 L544,268.7 L552,264.0 L560,267.0 L568,265.0 L576,259.4 L584,259.1 L592,258.8 L600,254.5 L608,251.5 L616,250.1 L624,247.4 L632,240.5 L640,242.8 L648,236.9 L656,234.1 L664,229.3 L672,226.1 L680,225.2 L688,218.7 L696,216.0 L704,213.2 L712,214.7 L720,209.9 L728,207.4 L736,202.4 L744,203.0 L752,203.1 L760,200.7 L768,199.0 L776,195.9 L784,198.3 L792,195.3 L800,200.2 L808,196.7 L816,198.8 L824,197.7 L832,202.2 L840,201.8 L848,203.9 L856,204.2 L864,205.4 L872,207.0 L880,207.9 L888,212.4 L896,211.1 L904,214.7 L912,216.9 L920,214.4 L928,219.3 L936,220.5 L944,222.7 L952,221.1 L960,221.4 L968,226.3 L976,222.9 L984,223.7 L992,225.4 L1000,226.7 L1008,225.7 L1016,227.3 L1024,224.1 L1032,227.4 L1040,227.5 L1048,225.9 L1056,227.2 L1064,225.2 L1072,226.1 L1080,222.8 L1088,227.1 L1096,223.3 L1104,227.2 L1112,222.6 L1120,222.5 L1128,227.0 L1136,224.1 L1144,229.0 L1152,229.3 L1160,231.1 L1168,226.8 L1176,233.4 L1184,229.1 L1192,235.4 L1200,237.0" fill="none" stroke="#10b981" stroke-width="1.2" opacity="0.40"/><path d="M0,200.7 L8,201.4 L16,205.6 L24,204.4 L32,207.4 L40,208.9 L48,212.6 L56,209.0 L64,212.2 L72,217.3 L80,217.3 L88,215.1 L96,220.5 L104,220.0 L112,221.9 L120,223.8 L128,225.5 L136,224.8 L144,227.0 L152,224.4 L160,226.9 L168,227.4 L176,225.9 L184,222.9 L192,224.2 L200,226.8 L208,222.4 L216,223.9 L224,227.6 L232,224.6 L240,226.4 L248,226.9 L256,223.3 L264,226.0 L272,225.7 L280,224.5 L288,225.4 L296,226.4 L304,222.9 L312,227.2 L320,226.6 L328,226.4 L336,226.8 L344,230.2 L352,230.7 L360,235.5 L368,235.3 L376,235.9 L384,237.6 L392,243.1 L400,241.6 L408,244.6 L416,249.8 L424,250.3 L432,252.9 L440,255.4 L448,252.9 L456,255.4 L464,260.4 L472,259.0 L480,262.7 L488,264.7 L496,264.3 L504,262.0 L512,262.1 L520,261.9 L528,260.2 L536,261.1 L544,258.9 L552,262.3 L560,258.3 L568,255.2 L576,255.2 L584,254.4 L592,246.8 L600,244.5 L608,241.6 L616,238.4 L624,237.3 L632,233.5 L640,228.4 L648,228.8 L656,221.7 L664,223.0 L672,218.0 L680,212.2 L688,212.7 L696,206.6 L704,203.7 L712,203.3 L720,200.1 L728,195.9 L736,195.5 L744,196.8 L752,196.0 L760,195.7 L768,190.9 L776,189.6 L784,190.6 L792,191.7 L800,193.1 L808,195.3 L816,193.3 L824,195.5 L832,196.1 L840,201.2 L848,199.9 L856,203.4 L864,203.9 L872,206.5 L880,210.0 L888,212.6 L896,214.2 L904,218.0 L912,221.3 L920,218.7 L928,223.0 L936,227.5 L944,224.4 L952,226.0 L960,228.0 L968,233.6 L976,230.0 L984,234.9 L992,231.2 L1000,234.6 L1008,232.4 L1016,238.2 L1024,237.9 L1032,233.9 L1040,236.9 L1048,235.2 L1056,233.8 L1064,237.9 L1072,234.1 L1080,235.7 L1088,235.8 L1096,232.2 L1104,236.8 L1112,235.5 L1120,232.2 L1128,234.5 L1136,232.6 L1144,234.4 L1152,234.4 L1160,237.4 L1168,234.2 L1176,237.5 L1184,239.5 L1192,241.1 L1200,236.9" fill="none" stroke="#10b981" stroke-width="1.2" opacity="0.40"/><path d="M0,260.9 L8,261.9 L16,258.8 L24,262.5 L32,264.1 L40,258.7 L48,260.4 L56,263.1 L64,257.7 L72,258.4 L80,260.3 L88,256.8 L96,258.8 L104,256.9 L112,254.6 L120,253.2 L128,256.1 L136,254.9 L144,253.6 L152,250.5 L160,250.1 L168,250.0 L176,249.6 L184,251.4 L192,245.8 L200,248.1 L208,250.6 L216,250.1 L224,249.6 L232,250.6 L240,252.1 L248,251.5 L256,255.9 L264,255.1 L272,258.0 L280,259.8 L288,266.4 L296,265.2 L304,265.9 L312,272.9 L320,276.5 L328,277.8 L336,280.4 L344,281.1 L352,288.5 L360,288.1 L368,290.1 L376,293.0 L384,298.0 L392,299.2 L400,300.8 L408,301.6 L416,309.0 L424,306.7 L432,308.7 L440,307.1 L448,310.8 L456,308.9 L464,309.8 L472,308.7 L480,307.0 L488,306.3 L496,309.2 L504,307.6 L512,306.4 L520,301.5 L528,301.5 L536,298.3 L544,297.5 L552,294.7 L560,291.3 L568,284.8 L576,281.2 L584,279.7 L592,276.7 L600,273.0 L608,273.1 L616,266.3 L624,267.9 L632,264.0 L640,260.1 L648,257.7 L656,258.6 L664,253.8 L672,253.7 L680,252.2 L688,250.6 L696,251.1 L704,248.6 L712,249.0 L720,246.1 L728,247.0 L736,249.2 L744,246.9 L752,249.4 L760,246.6 L768,251.7 L776,249.6 L784,252.4 L792,252.6 L800,251.1 L808,253.7 L816,258.0 L824,254.6 L832,259.2 L840,259.4 L848,259.2 L856,258.2 L864,257.7 L872,263.8 L880,259.2 L888,260.8 L896,262.0 L904,260.3 L912,264.9 L920,262.1 L928,264.2 L936,259.8 L944,259.4 L952,262.1 L960,258.0 L968,262.6 L976,262.6 L984,262.0 L992,258.9 L1000,257.1 L1008,258.1 L1016,261.2 L1024,256.9 L1032,260.1 L1040,261.2 L1048,262.0 L1056,257.5 L1064,263.7 L1072,263.3 L1080,260.2 L1088,263.6 L1096,265.6 L1104,268.9 L1112,267.6 L1120,271.8 L1128,272.7 L1136,273.8 L1144,279.7 L1152,278.7 L1160,281.8 L1168,287.9 L1176,289.8 L1184,292.3 L1192,294.0 L1200,294.6" fill="none" stroke="#34d399" stroke-width="1.2" opacity="0.29"/><path d="M0,256.9 L8,260.2 L16,259.2 L24,263.3 L32,261.0 L40,264.4 L48,262.6 L56,260.1 L64,264.4 L72,260.4 L80,261.5 L88,261.5 L96,261.1 L104,264.3 L112,258.1 L120,260.2 L128,261.6 L136,256.9 L144,261.6 L152,258.8 L160,257.2 L168,257.5 L176,260.6 L184,256.0 L192,260.6 L200,260.9 L208,255.8 L216,261.9 L224,257.8 L232,261.6 L240,260.4 L248,266.3 L256,267.2 L264,266.4 L272,268.4 L280,270.5 L288,272.2 L296,275.3 L304,275.1 L312,281.5 L320,282.5 L328,283.3 L336,286.0 L344,291.4 L352,294.0 L360,297.5 L368,298.9 L376,302.2 L384,303.9 L392,300.8 L400,305.7 L408,307.3 L416,308.5 L424,309.9 L432,307.5 L440,308.3 L448,311.8 L456,306.3 L464,309.1 L472,310.2 L480,303.4 L488,304.6 L496,300.0 L504,301.1 L512,295.6 L520,296.2 L528,290.8 L536,291.1 L544,286.5 L552,286.6 L560,279.8 L568,278.1 L576,275.5 L584,270.9 L592,266.9 L600,262.9 L608,259.1 L616,259.0 L624,257.0 L632,253.9 L640,248.2 L648,246.4 L656,246.2 L664,244.5 L672,241.3 L680,240.2 L688,239.4 L696,238.3 L704,242.5 L712,240.5 L720,241.2 L728,240.6 L736,237.6 L744,242.3 L752,245.1 L760,244.6 L768,242.1 L776,249.1 L784,246.9 L792,247.5 L800,253.4 L808,255.3 L816,252.1 L824,257.9 L832,256.9 L840,259.3 L848,262.3 L856,264.1 L864,264.1 L872,266.3 L880,263.2 L888,265.2 L896,266.6 L904,268.8 L912,271.8 L920,267.7 L928,267.2 L936,266.7 L944,270.0 L952,268.3 L960,271.3 L968,268.5 L976,267.3 L984,271.2 L992,266.5 L1000,269.7 L1008,266.3 L1016,270.5 L1024,266.7 L1032,268.6 L1040,271.5 L1048,270.0 L1056,268.7 L1064,268.7 L1072,271.5 L1080,269.0 L1088,274.4 L1096,273.4 L1104,278.2 L1112,277.7 L1120,278.7 L1128,282.7 L1136,282.0 L1144,286.4 L1152,283.6 L1160,289.4 L1168,291.1 L1176,292.4 L1184,291.3 L1192,292.6 L1200,298.1" fill="none" stroke="#34d399" stroke-width="1.2" opacity="0.29"/><path d="M0,261.3 L8,257.5 L16,260.3 L24,265.8 L32,262.1 L40,262.5 L48,265.1 L56,267.5 L64,270.5 L72,268.7 L80,269.7 L88,270.4 L96,271.4 L104,266.5 L112,268.2 L120,268.2 L128,270.2 L136,268.2 L144,267.8 L152,267.1 L160,270.3 L168,267.2 L176,269.8 L184,269.4 L192,269.9 L200,267.5 L208,266.9 L216,267.8 L224,266.9 L232,271.1 L240,273.8 L248,273.2 L256,274.5 L264,272.5 L272,277.2 L280,277.2 L288,281.5 L296,279.1 L304,283.4 L312,281.9 L320,287.6 L328,289.6 L336,291.3 L344,291.5 L352,296.7 L360,295.0 L368,298.0 L376,301.3 L384,298.6 L392,302.0 L400,303.4 L408,306.0 L416,307.6 L424,304.8 L432,303.9 L440,306.0 L448,304.2 L456,302.8 L464,303.4 L472,303.9 L480,299.4 L488,295.5 L496,294.3 L504,291.7 L512,287.4 L520,285.2 L528,282.2 L536,281.0 L544,277.7 L552,274.6 L560,268.2 L568,265.0 L576,262.3 L584,260.9 L592,256.0 L600,252.5 L608,248.8 L616,251.3 L624,246.7 L632,245.4 L640,239.9 L648,239.2 L656,239.3 L664,239.3 L672,238.0 L680,232.1 L688,235.3 L696,231.8 L704,234.7 L712,233.2 L720,234.8 L728,238.8 L736,240.0 L744,241.5 L752,242.8 L760,244.4 L768,243.6 L776,247.1 L784,248.9 L792,251.5 L800,254.0 L808,253.5 L816,255.0 L824,259.9 L832,261.0 L840,265.3 L848,268.3 L856,266.3 L864,270.2 L872,270.5 L880,271.2 L888,275.7 L896,275.9 L904,278.0 L912,277.8 L920,279.1 L928,281.7 L936,281.3 L944,276.5 L952,277.3 L960,276.7 L968,282.1 L976,278.3 L984,277.1 L992,280.9 L1000,276.5 L1008,275.6 L1016,276.1 L1024,279.6 L1032,279.7 L1040,274.6 L1048,274.7 L1056,278.2 L1064,277.8 L1072,277.2 L1080,278.4 L1088,280.7 L1096,276.5 L1104,282.9 L1112,278.6 L1120,284.4 L1128,285.5 L1136,286.1 L1144,284.1 L1152,288.3 L1160,285.5 L1168,290.9 L1176,292.8 L1184,290.8 L1192,293.0 L1200,292.9" fill="none" stroke="#34d399" stroke-width="1.2" opacity="0.29"/><path d="M0,298.9 L8,294.7 L16,295.1 L24,298.3 L32,297.0 L40,293.8 L48,289.8 L56,291.6 L64,292.3 L72,287.4 L80,291.7 L88,290.7 L96,289.1 L104,291.2 L112,286.6 L120,288.5 L128,287.6 L136,287.6 L144,288.5 L152,289.0 L160,291.2 L168,294.7 L176,296.7 L184,299.6 L192,300.8 L200,298.7 L208,305.5 L216,307.1 L224,306.6 L232,310.0 L240,314.8 L248,315.3 L256,322.6 L264,320.3 L272,325.9 L280,330.1 L288,334.4 L296,333.0 L304,333.8 L312,336.8 L320,343.7 L328,343.1 L336,347.8 L344,343.6 L352,347.0 L360,346.6 L368,351.2 L376,350.6 L384,350.5 L392,346.0 L400,346.1 L408,348.9 L416,346.1 L424,346.7 L432,340.0 L440,341.0 L448,336.3 L456,335.3 L464,334.4 L472,326.8 L480,326.0 L488,321.6 L496,318.6 L504,314.6 L512,313.4 L520,314.0 L528,309.1 L536,308.1 L544,303.5 L552,298.4 L560,295.8 L568,292.1 L576,292.9 L584,288.2 L592,286.8 L600,287.2 L608,284.2 L616,284.5 L624,282.2 L632,282.8 L640,281.1 L648,282.3 L656,286.5 L664,287.1 L672,285.4 L680,285.8 L688,284.9 L696,285.6 L704,285.9 L712,288.8 L720,289.7 L728,291.6 L736,294.3 L744,296.4 L752,295.3 L760,294.5 L768,295.4 L776,301.2 L784,300.2 L792,302.5 L800,302.7 L808,301.7 L816,302.1 L824,301.7 L832,303.8 L840,301.9 L848,304.2 L856,299.7 L864,303.1 L872,299.4 L880,299.3 L888,297.3 L896,301.0 L904,296.4 L912,298.4 L920,296.3 L928,301.0 L936,295.6 L944,300.1 L952,298.8 L960,300.1 L968,300.0 L976,297.5 L984,298.7 L992,302.0 L1000,300.7 L1008,302.0 L1016,308.4 L1024,305.9 L1032,310.6 L1040,313.9 L1048,311.2 L1056,316.8 L1064,320.5 L1072,319.0 L1080,323.2 L1088,322.4 L1096,329.1 L1104,329.1 L1112,333.9 L1120,337.0 L1128,335.9 L1136,335.9 L1144,341.7 L1152,343.8 L1160,343.4 L1168,347.5 L1176,347.1 L1184,348.7 L1192,348.8 L1200,344.5" fill="none" stroke="#3b82f6" stroke-width="1.2" opacity="0.16"/><path d="M0,301.3 L8,301.5 L16,302.4 L24,299.1 L32,302.7 L40,298.1 L48,301.5 L56,301.2 L64,297.5 L72,297.1 L80,295.6 L88,298.6 L96,299.0 L104,295.3 L112,296.6 L120,300.7 L128,296.9 L136,296.5 L144,299.9 L152,299.2 L160,300.1 L168,304.7 L176,302.3 L184,307.6 L192,310.7 L200,311.6 L208,313.9 L216,311.4 L224,314.3 L232,319.7 L240,320.2 L248,325.6 L256,327.5 L264,327.4 L272,332.4 L280,334.9 L288,334.0 L296,337.7 L304,341.0 L312,344.0 L320,345.9 L328,347.4 L336,347.1 L344,344.8 L352,345.2 L360,344.7 L368,347.6 L376,345.7 L384,347.9 L392,345.9 L400,344.5 L408,343.3 L416,342.8 L424,337.7 L432,336.9 L440,331.2 L448,330.9 L456,329.2 L464,322.4 L472,321.3 L480,319.4 L488,312.3 L496,308.9 L504,309.0 L512,303.9 L520,298.4 L528,301.1 L536,292.8 L544,294.8 L552,287.7 L560,289.3 L568,287.7 L576,285.5 L584,280.8 L592,280.0 L600,278.5 L608,275.5 L616,274.5 L624,274.2 L632,279.3 L640,277.1 L648,277.9 L656,278.3 L664,279.0 L672,281.4 L680,278.6 L688,280.7 L696,286.2 L704,285.9 L712,286.0 L720,290.3 L728,290.0 L736,294.4 L744,295.9 L752,297.7 L760,297.9 L768,297.8 L776,303.3 L784,299.9 L792,306.7 L800,306.9 L808,304.2 L816,306.4 L824,306.7 L832,308.6 L840,306.6 L848,308.5 L856,311.5 L864,311.2 L872,308.0 L880,306.8 L888,306.8 L896,306.4 L904,308.9 L912,307.7 L920,310.8 L928,310.1 L936,310.9 L944,309.9 L952,305.7 L960,307.6 L968,305.9 L976,310.1 L984,307.9 L992,308.7 L1000,310.1 L1008,313.2 L1016,311.5 L1024,314.4 L1032,318.9 L1040,316.7 L1048,318.3 L1056,323.3 L1064,323.1 L1072,324.4 L1080,328.3 L1088,327.8 L1096,331.3 L1104,333.0 L1112,334.0 L1120,336.1 L1128,338.7 L1136,336.4 L1144,338.2 L1152,340.8 L1160,339.0 L1168,341.5 L1176,340.3 L1184,343.4 L1192,343.3 L1200,340.1" fill="none" stroke="#3b82f6" stroke-width="1.2" opacity="0.16"/><path d="M0,307.9 L8,308.2 L16,308.9 L24,309.4 L32,311.6 L40,306.9 L48,307.6 L56,306.0 L64,310.9 L72,309.7 L80,309.5 L88,307.8 L96,306.7 L104,308.9 L112,310.0 L120,309.9 L128,306.7 L136,307.6 L144,309.9 L152,309.5 L160,308.3 L168,309.4 L176,315.6 L184,312.5 L192,314.3 L200,315.4 L208,316.7 L216,318.7 L224,319.7 L232,321.6 L240,327.2 L248,327.8 L256,332.2 L264,330.2 L272,331.8 L280,332.7 L288,337.2 L296,337.6 L304,338.3 L312,342.2 L320,341.4 L328,343.1 L336,343.7 L344,339.7 L352,339.7 L360,341.2 L368,342.8 L376,340.1 L384,341.9 L392,340.9 L400,338.2 L408,333.1 L416,331.0 L424,328.5 L432,324.4 L440,322.4 L448,319.0 L456,318.4 L464,311.8 L472,312.0 L480,305.5 L488,307.6 L496,299.5 L504,300.6 L512,296.7 L520,292.3 L528,288.3 L536,285.4 L544,282.0 L552,282.2 L560,279.9 L568,279.4 L576,278.2 L584,272.1 L592,273.0 L600,270.8 L608,273.2 L616,270.7 L624,272.3 L632,275.3 L640,271.4 L648,276.4 L656,272.7 L664,278.2 L672,276.7 L680,281.8 L688,282.6 L696,286.7 L704,285.8 L712,288.2 L720,290.4 L728,295.8 L736,297.7 L744,296.8 L752,301.4 L760,306.2 L768,308.4 L776,310.4 L784,307.9 L792,313.2 L800,316.0 L808,314.5 L816,313.2 L824,318.8 L832,319.8 L840,320.2 L848,316.1 L856,319.4 L864,318.2 L872,319.9 L880,318.5 L888,317.7 L896,321.2 L904,318.9 L912,318.5 L920,320.4 L928,317.7 L936,320.3 L944,316.1 L952,317.4 L960,317.9 L968,317.5 L976,316.6 L984,315.3 L992,319.6 L1000,318.7 L1008,315.1 L1016,319.4 L1024,320.1 L1032,319.8 L1040,319.3 L1048,324.1 L1056,320.3 L1064,326.6 L1072,325.0 L1080,324.0 L1088,329.9 L1096,328.9 L1104,328.3 L1112,331.4 L1120,333.4 L1128,333.7 L1136,336.4 L1144,331.7 L1152,334.9 L1160,336.4 L1168,336.8 L1176,335.1 L1184,334.7 L1192,332.3 L1200,331.7" fill="none" stroke="#3b82f6" stroke-width="1.2" opacity="0.16"/><path d="M0,337.5 L8,333.6 L16,336.1 L24,335.4 L32,332.5 L40,333.2 L48,332.1 L56,338.0 L64,337.0 L72,334.2 L80,337.3 L88,337.3 L96,342.9 L104,344.5 L112,346.3 L120,347.1 L128,351.5 L136,352.6 L144,355.9 L152,359.1 L160,360.9 L168,363.4 L176,366.1 L184,365.9 L192,370.7 L200,375.2 L208,374.6 L216,377.9 L224,380.0 L232,383.0 L240,383.6 L248,387.7 L256,390.7 L264,390.3 L272,394.2 L280,395.4 L288,392.3 L296,395.0 L304,391.9 L312,389.9 L320,394.4 L328,390.1 L336,390.7 L344,387.3 L352,387.1 L360,382.1 L368,383.1 L376,380.4 L384,378.6 L392,370.8 L400,369.3 L408,366.0 L416,366.0 L424,359.8 L432,354.9 L440,351.5 L448,353.5 L456,347.2 L464,342.4 L472,340.9 L480,340.1 L488,335.3 L496,335.3 L504,334.9 L512,330.4 L520,333.5 L528,329.5 L536,328.8 L544,329.3 L552,327.5 L560,330.2 L568,324.6 L576,324.5 L584,325.4 L592,330.8 L600,328.3 L608,328.1 L616,328.7 L624,329.4 L632,336.1 L640,332.3 L648,338.7 L656,336.1 L664,340.8 L672,342.8 L680,343.3 L688,340.2 L696,343.8 L704,341.0 L712,344.3 L720,346.5 L728,344.4 L736,347.6 L744,349.5 L752,346.6 L760,349.7 L768,344.7 L776,346.6 L784,349.4 L792,344.3 L800,348.8 L808,346.2 L816,343.7 L824,344.6 L832,344.0 L840,344.6 L848,345.5 L856,346.8 L864,342.7 L872,347.0 L880,346.1 L888,346.7 L896,347.9 L904,346.3 L912,345.6 L920,351.0 L928,350.1 L936,352.2 L944,352.6 L952,353.2 L960,356.1 L968,356.7 L976,362.5 L984,362.4 L992,363.3 L1000,368.6 L1008,371.0 L1016,373.3 L1024,376.9 L1032,376.0 L1040,381.9 L1048,382.0 L1056,384.9 L1064,386.5 L1072,385.9 L1080,389.2 L1088,391.3 L1096,389.9 L1104,388.1 L1112,391.0 L1120,393.5 L1128,391.7 L1136,392.8 L1144,386.2 L1152,386.1 L1160,387.4 L1168,382.7 L1176,384.7 L1184,378.1 L1192,379.5 L1200,375.5" fill="none" stroke="#0033A1" stroke-width="1.2" opacity="0.31"/><path d="M0,345.5 L8,345.2 L16,345.1 L24,343.3 L32,342.7 L40,341.6 L48,343.0 L56,344.0 L64,346.2 L72,345.9 L80,344.7 L88,351.8 L96,347.6 L104,354.1 L112,356.4 L120,358.3 L128,356.3 L136,358.9 L144,364.7 L152,363.6 L160,366.7 L168,369.7 L176,372.1 L184,375.0 L192,375.1 L200,378.9 L208,381.7 L216,385.0 L224,387.1 L232,383.5 L240,384.9 L248,389.4 L256,389.4 L264,392.8 L272,393.0 L280,390.7 L288,391.8 L296,388.3 L304,390.4 L312,389.2 L320,389.1 L328,384.2 L336,381.0 L344,380.7 L352,376.8 L360,376.1 L368,374.3 L376,373.4 L384,369.3 L392,364.8 L400,359.8 L408,359.1 L416,355.3 L424,353.8 L432,349.7 L440,341.8 L448,341.0 L456,336.0 L464,335.2 L472,331.0 L480,330.9 L488,330.3 L496,329.1 L504,323.5 L512,323.3 L520,324.1 L528,322.4 L536,322.7 L544,318.1 L552,318.7 L560,323.1 L568,319.4 L576,319.7 L584,320.5 L592,325.1 L600,326.4 L608,329.7 L616,330.8 L624,330.5 L632,331.9 L640,336.4 L648,336.5 L656,335.4 L664,338.0 L672,340.5 L680,344.2 L688,346.3 L696,347.8 L704,348.1 L712,350.2 L720,348.2 L728,352.3 L736,354.3 L744,355.4 L752,352.9 L760,352.6 L768,356.9 L776,357.0 L784,358.2 L792,353.2 L800,353.1 L808,354.5 L816,355.7 L824,356.7 L832,354.3 L840,351.6 L848,354.9 L856,356.6 L864,353.3 L872,355.2 L880,355.8 L888,354.2 L896,353.2 L904,356.7 L912,357.1 L920,353.9 L928,356.0 L936,357.2 L944,359.9 L952,361.9 L960,365.2 L968,361.1 L976,367.4 L984,369.1 L992,371.0 L1000,369.3 L1008,374.8 L1016,374.3 L1024,376.5 L1032,379.1 L1040,380.6 L1048,381.7 L1056,379.1 L1064,381.7 L1072,387.0 L1080,383.0 L1088,384.2 L1096,383.4 L1104,383.6 L1112,383.3 L1120,382.3 L1128,382.0 L1136,380.8 L1144,380.2 L1152,381.2 L1160,378.0 L1168,377.7 L1176,374.5 L1184,371.4 L1192,370.0 L1200,366.0" fill="none" stroke="#0033A1" stroke-width="1.2" opacity="0.31"/><path d="M0,353.6 L8,355.4 L16,352.8 L24,354.9 L32,353.7 L40,351.8 L48,355.9 L56,354.7 L64,351.9 L72,354.1 L80,357.0 L88,359.3 L96,357.6 L104,358.3 L112,358.4 L120,364.2 L128,365.5 L136,365.9 L144,367.2 L152,368.6 L160,368.2 L168,374.0 L176,374.1 L184,377.4 L192,375.9 L200,379.7 L208,381.3 L216,384.2 L224,383.5 L232,386.5 L240,384.6 L248,386.7 L256,386.9 L264,388.0 L272,386.7 L280,382.7 L288,385.7 L296,383.2 L304,379.8 L312,379.9 L320,379.4 L328,376.9 L336,377.7 L344,371.8 L352,371.4 L360,367.5 L368,365.3 L376,360.1 L384,357.6 L392,356.9 L400,352.7 L408,346.7 L416,346.4 L424,338.5 L432,339.1 L440,335.4 L448,330.3 L456,327.5 L464,326.3 L472,326.8 L480,322.6 L488,318.2 L496,320.0 L504,318.0 L512,319.5 L520,314.1 L528,318.0 L536,313.7 L544,316.9 L552,317.4 L560,320.4 L568,320.6 L576,322.4 L584,319.3 L592,325.5 L600,326.2 L608,326.9 L616,330.6 L624,332.2 L632,334.1 L640,336.6 L648,338.9 L656,339.3 L664,343.0 L672,349.0 L680,349.6 L688,351.4 L696,350.7 L704,352.7 L712,358.0 L720,359.9 L728,357.7 L736,363.9 L744,360.6 L752,365.8 L760,366.9 L768,365.6 L776,362.9 L784,363.8 L792,365.0 L800,367.6 L808,364.5 L816,363.2 L824,366.9 L832,366.0 L840,360.8 L848,362.6 L856,360.9 L864,361.8 L872,361.4 L880,359.5 L888,364.4 L896,363.7 L904,362.3 L912,364.6 L920,359.1 L928,360.7 L936,362.0 L944,365.6 L952,367.0 L960,366.4 L968,366.9 L976,368.1 L984,365.6 L992,369.0 L1000,369.9 L1008,369.9 L1016,373.4 L1024,372.6 L1032,375.1 L1040,377.1 L1048,378.5 L1056,379.1 L1064,377.4 L1072,377.0 L1080,379.3 L1088,378.0 L1096,375.7 L1104,376.5 L1112,379.7 L1120,378.9 L1128,374.7 L1136,371.8 L1144,373.5 L1152,369.6 L1160,370.0 L1168,368.5 L1176,361.2 L1184,363.9 L1192,356.2 L1200,355.2" fill="none" stroke="#0033A1" stroke-width="1.2" opacity="0.31"/><path d="M0,371.6 L8,374.3 L16,371.4 L24,375.0 L32,374.3 L40,376.4 L48,380.9 L56,383.1 L64,386.2 L72,387.6 L80,390.8 L88,392.0 L96,399.6 L104,401.0 L112,404.0 L120,407.9 L128,410.2 L136,409.8 L144,413.7 L152,417.9 L160,418.0 L168,420.7 L176,422.3 L184,422.7 L192,425.3 L200,425.4 L208,424.7 L216,425.7 L224,422.9 L232,424.5 L240,421.7 L248,421.1 L256,419.6 L264,420.0 L272,414.8 L280,414.2 L288,410.5 L296,409.1 L304,404.7 L312,399.9 L320,401.3 L328,394.6 L336,396.2 L344,391.1 L352,386.9 L360,381.3 L368,382.2 L376,377.7 L384,373.0 L392,370.4 L400,366.7 L408,364.5 L416,366.8 L424,363.0 L432,360.8 L440,358.5 L448,357.0 L456,359.0 L464,358.9 L472,356.1 L480,354.1 L488,354.9 L496,359.3 L504,355.1 L512,357.5 L520,358.8 L528,362.3 L536,360.9 L544,360.5 L552,365.9 L560,367.7 L568,364.5 L576,370.2 L584,369.5 L592,372.2 L600,370.8 L608,371.1 L616,373.2 L624,376.9 L632,377.4 L640,375.6 L648,377.5 L656,375.3 L664,378.7 L672,377.2 L680,376.5 L688,378.5 L696,378.2 L704,377.5 L712,380.9 L720,380.5 L728,379.2 L736,376.9 L744,375.8 L752,376.2 L760,377.4 L768,374.3 L776,377.0 L784,377.6 L792,376.0 L800,375.8 L808,379.1 L816,376.9 L824,380.7 L832,377.0 L840,377.7 L848,380.0 L856,383.6 L864,385.2 L872,388.9 L880,391.1 L888,393.1 L896,393.7 L904,393.8 L912,395.5 L920,396.7 L928,404.4 L936,401.7 L944,403.1 L952,409.3 L960,409.5 L968,413.5 L976,416.6 L984,418.1 L992,417.9 L1000,417.1 L1008,417.5 L1016,421.9 L1024,423.7 L1032,422.3 L1040,419.3 L1048,423.1 L1056,419.7 L1064,419.3 L1072,415.5 L1080,417.7 L1088,416.2 L1096,411.2 L1104,408.9 L1112,408.1 L1120,403.8 L1128,399.5 L1136,398.3 L1144,394.5 L1152,390.7 L1160,387.3 L1168,383.8 L1176,379.4 L1184,376.3 L1192,378.3 L1200,371.1" fill="none" stroke="#1A5BC4" stroke-width="1.2" opacity="0.17"/><path d="M0,382.6 L8,378.3 L16,382.6 L24,382.4 L32,388.1 L40,385.0 L48,387.1 L56,390.3 L64,393.0 L72,396.7 L80,399.0 L88,402.5 L96,400.4 L104,406.3 L112,407.6 L120,410.6 L128,413.3 L136,411.2 L144,412.5 L152,414.6 L160,416.8 L168,417.4 L176,418.2 L184,423.0 L192,419.7 L200,422.4 L208,420.6 L216,421.3 L224,416.7 L232,417.8 L240,415.4 L248,417.0 L256,414.8 L264,412.8 L272,410.3 L280,406.3 L288,400.3 L296,397.7 L304,394.9 L312,396.4 L320,388.3 L328,388.0 L336,385.1 L344,377.9 L352,379.0 L360,372.9 L368,369.4 L376,367.6 L384,366.5 L392,360.9 L400,362.7 L408,356.3 L416,358.5 L424,353.7 L432,352.3 L440,352.8 L448,351.1 L456,350.8 L464,353.0 L472,352.5 L480,348.9 L488,354.0 L496,353.6 L504,350.5 L512,354.0 L520,356.9 L528,355.0 L536,360.8 L544,361.4 L552,364.0 L560,365.5 L568,367.8 L576,367.0 L584,371.1 L592,370.4 L600,373.8 L608,377.6 L616,379.9 L624,382.5 L632,378.5 L640,383.4 L648,384.9 L656,383.3 L664,383.9 L672,388.9 L680,385.3 L688,389.1 L696,385.6 L704,385.5 L712,388.9 L720,390.5 L728,388.9 L736,385.7 L744,385.9 L752,385.7 L760,389.6 L768,383.7 L776,387.2 L784,385.2 L792,385.2 L800,386.4 L808,388.7 L816,386.5 L824,388.7 L832,385.1 L840,390.6 L848,391.7 L856,391.1 L864,391.1 L872,393.8 L880,394.8 L888,397.0 L896,397.6 L904,399.0 L912,403.1 L920,402.6 L928,405.5 L936,406.4 L944,405.3 L952,406.2 L960,411.5 L968,410.9 L976,414.8 L984,410.6 L992,416.5 L1000,414.7 L1008,414.9 L1016,415.3 L1024,416.0 L1032,415.6 L1040,414.5 L1048,415.1 L1056,410.5 L1064,409.8 L1072,410.4 L1080,409.6 L1088,404.9 L1096,401.1 L1104,398.2 L1112,399.5 L1120,393.8 L1128,393.1 L1136,386.3 L1144,383.1 L1152,382.8 L1160,378.9 L1168,376.8 L1176,374.8 L1184,371.4 L1192,364.6 L1200,363.8" fill="none" stroke="#1A5BC4" stroke-width="1.2" opacity="0.17"/><path d="M0,387.2 L8,389.6 L16,387.3 L24,389.2 L32,390.7 L40,393.0 L48,392.4 L56,397.5 L64,399.5 L72,401.8 L80,403.6 L88,403.1 L96,402.4 L104,408.3 L112,406.6 L120,408.8 L128,409.6 L136,412.8 L144,410.8 L152,413.0 L160,412.9 L168,413.5 L176,413.3 L184,413.1 L192,414.9 L200,416.9 L208,414.2 L216,415.6 L224,413.7 L232,409.9 L240,411.7 L248,409.5 L256,406.1 L264,400.5 L272,396.8 L280,399.3 L288,393.8 L296,387.8 L304,388.5 L312,384.6 L320,378.4 L328,376.2 L336,371.9 L344,370.7 L352,367.1 L360,365.1 L368,362.6 L376,358.0 L384,354.2 L392,351.8 L400,353.8 L408,353.2 L416,350.4 L424,346.4 L432,347.0 L440,346.0 L448,347.3 L456,346.6 L464,346.0 L472,346.1 L480,349.3 L488,349.1 L496,353.4 L504,350.2 L512,354.8 L520,356.8 L528,361.5 L536,358.7 L544,361.0 L552,366.7 L560,370.4 L568,369.9 L576,371.2 L584,379.4 L592,380.1 L600,380.9 L608,384.7 L616,383.8 L624,386.4 L632,387.7 L640,391.9 L648,392.8 L656,391.2 L664,391.9 L672,394.7 L680,394.0 L688,399.9 L696,395.7 L704,396.6 L712,397.2 L720,395.2 L728,395.2 L736,397.9 L744,399.4 L752,395.4 L760,393.8 L768,394.6 L776,397.2 L784,394.3 L792,394.8 L800,393.6 L808,392.3 L816,391.1 L824,395.2 L832,390.5 L840,395.8 L848,395.4 L856,396.3 L864,396.5 L872,398.3 L880,396.5 L888,398.3 L896,398.7 L904,401.1 L912,397.3 L920,402.5 L928,404.6 L936,404.1 L944,405.2 L952,405.1 L960,403.5 L968,405.5 L976,404.4 L984,408.8 L992,405.8 L1000,407.7 L1008,409.7 L1016,407.3 L1024,409.1 L1032,409.4 L1040,407.1 L1048,407.6 L1056,403.2 L1064,399.0 L1072,402.0 L1080,396.5 L1088,394.4 L1096,395.6 L1104,392.2 L1112,388.2 L1120,382.7 L1128,380.7 L1136,382.0 L1144,374.2 L1152,372.5 L1160,368.8 L1168,364.4 L1176,366.7 L1184,363.6 L1192,359.2 L1200,354.8" fill="none" stroke="#1A5BC4" stroke-width="1.2" opacity="0.17"/><path d="M0,437.8 L8,442.3 L16,446.6 L24,451.4 L32,449.8 L40,454.2 L48,459.6 L56,457.2 L64,462.3 L72,466.2 L80,464.5 L88,467.5 L96,471.3 L104,470.1 L112,469.6 L120,470.5 L128,474.0 L136,470.1 L144,468.4 L152,472.9 L160,470.2 L168,468.5 L176,466.4 L184,462.9 L192,460.4 L200,460.3 L208,460.1 L216,453.0 L224,454.9 L232,448.9 L240,446.5 L248,445.5 L256,438.2 L264,436.6 L272,434.4 L280,429.3 L288,424.7 L296,420.9 L304,421.1 L312,416.9 L320,415.9 L328,412.6 L336,413.9 L344,407.4 L352,410.1 L360,408.4 L368,403.7 L376,404.3 L384,403.3 L392,404.9 L400,404.8 L408,406.5 L416,401.7 L424,404.7 L432,404.9 L440,406.8 L448,405.5 L456,409.8 L464,407.4 L472,413.8 L480,412.4 L488,411.7 L496,414.7 L504,416.0 L512,420.7 L520,418.7 L528,419.7 L536,423.9 L544,423.5 L552,424.2 L560,426.9 L568,427.1 L576,425.0 L584,426.9 L592,428.5 L600,429.1 L608,428.7 L616,429.8 L624,425.8 L632,425.7 L640,427.4 L648,426.6 L656,426.8 L664,425.4 L672,425.9 L680,423.3 L688,426.8 L696,427.0 L704,427.5 L712,423.7 L720,426.0 L728,428.4 L736,428.2 L744,428.9 L752,430.3 L760,432.7 L768,429.1 L776,431.9 L784,433.8 L792,436.8 L800,436.0 L808,440.9 L816,440.2 L824,446.2 L832,446.7 L840,446.1 L848,451.8 L856,452.8 L864,453.9 L872,455.3 L880,461.0 L888,460.3 L896,459.0 L904,463.9 L912,465.7 L920,465.5 L928,466.5 L936,470.3 L944,469.7 L952,470.1 L960,470.2 L968,470.6 L976,465.8 L984,465.2 L992,464.2 L1000,464.6 L1008,461.7 L1016,460.3 L1024,456.0 L1032,455.0 L1040,451.6 L1048,446.8 L1056,447.7 L1064,440.2 L1072,440.8 L1080,434.9 L1088,430.1 L1096,425.6 L1104,422.2 L1112,418.8 L1120,418.8 L1128,415.7 L1136,415.7 L1144,412.2 L1152,409.0 L1160,406.8 L1168,403.1 L1176,402.7 L1184,400.9 L1192,400.4 L1200,399.1" fill="none" stroke="#10b981" stroke-width="1.2" opacity="0.19"/><path d="M0,449.2 L8,446.3 L16,453.2 L24,451.4 L32,454.9 L40,457.5 L48,462.2 L56,463.7 L64,463.4 L72,466.9 L80,465.8 L88,465.3 L96,470.0 L104,469.5 L112,465.9 L120,465.6 L128,465.9 L136,469.0 L144,465.2 L152,465.8 L160,465.4 L168,464.5 L176,459.3 L184,455.6 L192,457.6 L200,449.9 L208,449.0 L216,448.5 L224,444.7 L232,438.9 L240,437.2 L248,433.2 L256,427.5 L264,424.0 L272,420.7 L280,421.6 L288,418.8 L296,415.2 L304,412.4 L312,408.8 L320,408.8 L328,406.6 L336,400.9 L344,401.5 L352,397.8 L360,397.3 L368,398.0 L376,397.2 L384,400.0 L392,398.2 L400,397.8 L408,397.5 L416,400.9 L424,398.9 L432,405.1 L440,405.7 L448,404.2 L456,409.2 L464,409.0 L472,412.0 L480,414.4 L488,415.1 L496,418.8 L504,420.3 L512,422.7 L520,422.3 L528,426.4 L536,424.1 L544,431.6 L552,429.6 L560,432.6 L568,431.5 L576,433.6 L584,436.6 L592,434.4 L600,434.1 L608,437.3 L616,435.3 L624,438.1 L632,437.2 L640,436.1 L648,439.6 L656,436.6 L664,437.4 L672,433.9 L680,436.0 L688,432.9 L696,436.7 L704,437.8 L712,437.8 L720,434.4 L728,434.2 L736,435.3 L744,435.4 L752,438.7 L760,435.2 L768,436.5 L776,439.3 L784,440.0 L792,441.4 L800,442.7 L808,440.9 L816,445.8 L824,447.3 L832,447.5 L840,448.7 L848,450.6 L856,455.8 L864,454.2 L872,458.5 L880,454.6 L888,457.9 L896,462.6 L904,457.8 L912,464.1 L920,462.9 L928,464.3 L936,465.1 L944,460.6 L952,462.7 L960,462.6 L968,458.5 L976,461.7 L984,457.2 L992,453.8 L1000,455.9 L1008,451.3 L1016,452.3 L1024,445.0 L1032,446.2 L1040,439.7 L1048,440.2 L1056,435.3 L1064,431.2 L1072,427.5 L1080,427.0 L1088,422.8 L1096,420.5 L1104,414.1 L1112,413.1 L1120,408.8 L1128,404.6 L1136,407.0 L1144,403.2 L1152,400.0 L1160,400.5 L1168,393.7 L1176,393.4 L1184,395.1 L1192,393.1 L1200,394.5" fill="none" stroke="#10b981" stroke-width="1.2" opacity="0.19"/><path d="M0,447.8 L8,453.6 L16,453.7 L24,451.8 L32,457.8 L40,457.1 L48,458.4 L56,457.6 L64,461.7 L72,462.7 L80,460.9 L88,464.5 L96,465.1 L104,463.9 L112,462.4 L120,459.8 L128,461.7 L136,461.9 L144,461.4 L152,454.4 L160,455.4 L168,455.0 L176,449.7 L184,450.4 L192,444.4 L200,440.4 L208,439.6 L216,438.4 L224,435.8 L232,428.6 L240,426.4 L248,421.4 L256,420.4 L264,417.2 L272,413.3 L280,409.6 L288,406.9 L296,404.1 L304,401.0 L312,401.2 L320,398.2 L328,398.7 L336,395.1 L344,397.4 L352,392.5 L360,393.7 L368,396.2 L376,394.4 L384,393.9 L392,395.1 L400,397.3 L408,400.0 L416,398.2 L424,402.9 L432,401.2 L440,403.1 L448,408.0 L456,408.3 L464,414.8 L472,413.0 L480,420.3 L488,417.5 L496,420.2 L504,423.7 L512,429.8 L520,427.7 L528,434.1 L536,436.4 L544,436.3 L552,441.5 L560,441.9 L568,441.4 L576,442.0 L584,442.3 L592,447.6 L600,445.3 L608,444.0 L616,444.8 L624,448.8 L632,447.4 L640,446.0 L648,449.0 L656,447.3 L664,446.1 L672,443.2 L680,444.1 L688,441.7 L696,444.2 L704,445.4 L712,442.9 L720,443.5 L728,441.2 L736,439.6 L744,438.8 L752,441.0 L760,443.9 L768,439.1 L776,439.5 L784,441.4 L792,442.7 L800,443.1 L808,446.3 L816,448.2 L824,447.1 L832,449.3 L840,447.0 L848,446.4 L856,447.2 L864,452.4 L872,448.7 L880,452.5 L888,452.3 L896,453.4 L904,453.9 L912,453.0 L920,452.2 L928,453.3 L936,452.4 L944,451.2 L952,451.8 L960,452.2 L968,449.3 L976,450.3 L984,449.6 L992,445.5 L1000,443.6 L1008,439.5 L1016,441.7 L1024,437.4 L1032,437.3 L1040,428.8 L1048,431.0 L1056,425.4 L1064,421.4 L1072,419.7 L1080,415.5 L1088,414.2 L1096,412.2 L1104,405.8 L1112,403.2 L1120,403.8 L1128,398.6 L1136,397.2 L1144,397.3 L1152,394.1 L1160,397.2 L1168,393.1 L1176,391.9 L1184,393.3 L1192,395.3 L1200,391.1" fill="none" stroke="#10b981" stroke-width="1.2" opacity="0.19"/><path d="M0,500.3 L8,503.6 L16,502.1 L24,504.4 L32,505.8 L40,507.9 L48,504.9 L56,503.7 L64,502.3 L72,503.5 L80,503.1 L88,499.3 L96,502.8 L104,497.9 L112,497.4 L120,495.7 L128,492.4 L136,487.4 L144,484.0 L152,485.0 L160,480.5 L168,474.2 L176,471.2 L184,471.0 L192,467.1 L200,465.0 L208,459.7 L216,456.4 L224,451.1 L232,453.5 L240,445.6 L248,447.2 L256,447.1 L264,440.7 L272,442.6 L280,439.7 L288,438.8 L296,439.5 L304,439.8 L312,439.3 L320,433.9 L328,434.2 L336,436.5 L344,438.9 L352,440.5 L360,442.3 L368,440.0 L376,442.4 L384,443.5 L392,444.0 L400,446.5 L408,445.9 L416,448.7 L424,450.1 L432,454.8 L440,456.8 L448,452.9 L456,458.6 L464,458.9 L472,456.5 L480,461.8 L488,460.5 L496,464.5 L504,463.1 L512,465.6 L520,464.2 L528,465.4 L536,464.7 L544,465.2 L552,462.8 L560,461.2 L568,460.5 L576,460.3 L584,462.9 L592,464.3 L600,459.6 L608,463.4 L616,459.0 L624,461.8 L632,461.9 L640,462.3 L648,461.1 L656,463.0 L664,466.7 L672,462.5 L680,462.7 L688,466.3 L696,469.6 L704,468.1 L712,473.0 L720,470.1 L728,472.3 L736,474.1 L744,478.0 L752,482.3 L760,482.2 L768,483.1 L776,486.3 L784,490.1 L792,488.7 L800,492.8 L808,493.4 L816,496.7 L824,496.6 L832,496.0 L840,501.8 L848,498.9 L856,501.7 L864,504.7 L872,504.8 L880,503.8 L888,503.9 L896,500.5 L904,501.9 L912,495.1 L920,493.2 L928,495.3 L936,491.1 L944,488.8 L952,484.6 L960,485.4 L968,483.5 L976,476.7 L984,473.4 L992,470.7 L1000,466.6 L1008,465.7 L1016,459.3 L1024,460.1 L1032,457.0 L1040,453.0 L1048,447.9 L1056,444.0 L1064,444.4 L1072,442.8 L1080,436.1 L1088,433.9 L1096,432.9 L1104,430.9 L1112,432.2 L1120,429.3 L1128,429.6 L1136,430.1 L1144,428.2 L1152,432.8 L1160,432.0 L1168,434.2 L1176,433.1 L1184,435.8 L1192,434.8 L1200,438.7" fill="none" stroke="#34d399" stroke-width="1.2" opacity="0.39"/><path d="M0,499.9 L8,501.9 L16,500.5 L24,501.7 L32,504.4 L40,502.6 L48,501.2 L56,502.9 L64,498.5 L72,496.7 L80,495.2 L88,496.2 L96,495.3 L104,493.1 L112,485.7 L120,484.9 L128,484.7 L136,480.8 L144,475.1 L152,472.2 L160,466.5 L168,467.5 L176,465.5 L184,458.0 L192,455.6 L200,453.5 L208,448.9 L216,444.1 L224,443.1 L232,439.1 L240,440.2 L248,436.5 L256,434.6 L264,432.5 L272,432.0 L280,434.6 L288,432.6 L296,432.9 L304,433.8 L312,432.5 L320,432.2 L328,429.8 L336,434.8 L344,433.5 L352,437.8 L360,440.6 L368,440.6 L376,443.7 L384,442.5 L392,444.8 L400,446.9 L408,447.8 L416,453.6 L424,453.8 L432,459.0 L440,456.4 L448,461.7 L456,460.9 L464,462.3 L472,466.2 L480,468.9 L488,469.8 L496,468.6 L504,467.6 L512,470.5 L520,471.2 L528,469.8 L536,473.7 L544,470.9 L552,473.4 L560,469.8 L568,474.8 L576,470.8 L584,472.6 L592,472.7 L600,470.1 L608,471.5 L616,473.8 L624,471.3 L632,469.5 L640,469.6 L648,471.6 L656,471.6 L664,468.8 L672,469.1 L680,473.9 L688,471.9 L696,471.1 L704,477.2 L712,474.3 L720,479.9 L728,476.5 L736,482.7 L744,479.4 L752,483.4 L760,482.0 L768,484.7 L776,486.6 L784,487.0 L792,488.8 L800,488.5 L808,491.0 L816,495.6 L824,496.8 L832,495.2 L840,495.8 L848,498.0 L856,498.5 L864,495.8 L872,497.6 L880,492.1 L888,494.6 L896,495.0 L904,492.9 L912,487.9 L920,490.1 L928,485.1 L936,480.4 L944,478.5 L952,479.4 L960,472.5 L968,471.0 L976,468.2 L984,465.4 L992,459.9 L1000,455.6 L1008,455.0 L1016,449.8 L1024,447.9 L1032,446.2 L1040,440.9 L1048,442.9 L1056,435.0 L1064,435.0 L1072,434.1 L1080,430.7 L1088,430.3 L1096,430.9 L1104,427.3 L1112,426.3 L1120,428.3 L1128,428.3 L1136,429.6 L1144,425.8 L1152,430.3 L1160,430.5 L1168,429.5 L1176,435.6 L1184,434.3 L1192,440.9 L1200,440.5" fill="none" stroke="#34d399" stroke-width="1.2" opacity="0.39"/><path d="M0,496.6 L8,498.0 L16,495.9 L24,495.0 L32,496.8 L40,495.7 L48,496.4 L56,493.7 L64,489.4 L72,487.5 L80,489.4 L88,483.7 L96,484.0 L104,482.8 L112,479.9 L120,474.9 L128,472.2 L136,469.6 L144,464.2 L152,460.3 L160,461.1 L168,459.0 L176,452.5 L184,451.8 L192,447.6 L200,446.4 L208,440.1 L216,438.7 L224,434.5 L232,432.5 L240,434.4 L248,429.0 L256,429.6 L264,428.5 L272,428.4 L280,429.6 L288,427.9 L296,429.9 L304,426.9 L312,431.5 L320,430.1 L328,429.8 L336,431.4 L344,436.2 L352,439.1 L360,437.9 L368,442.1 L376,443.1 L384,449.6 L392,450.1 L400,451.9 L408,454.5 L416,460.3 L424,462.0 L432,465.0 L440,466.4 L448,467.7 L456,469.8 L464,470.5 L472,471.7 L480,476.7 L488,479.3 L496,476.1 L504,477.6 L512,478.8 L520,482.4 L528,485.1 L536,480.2 L544,479.7 L552,482.5 L560,483.0 L568,480.8 L576,483.8 L584,478.5 L592,479.5 L600,483.1 L608,479.3 L616,481.1 L624,478.6 L632,479.5 L640,478.8 L648,474.5 L656,477.7 L664,477.2 L672,474.3 L680,478.3 L688,476.5 L696,474.1 L704,479.4 L712,480.2 L720,480.9 L728,481.5 L736,478.8 L744,481.6 L752,481.0 L760,482.9 L768,483.8 L776,484.8 L784,482.6 L792,484.2 L800,485.5 L808,483.4 L816,484.6 L824,488.3 L832,489.1 L840,489.6 L848,487.8 L856,486.0 L864,489.5 L872,487.2 L880,486.9 L888,484.8 L896,482.3 L904,481.1 L912,477.3 L920,474.5 L928,476.2 L936,472.3 L944,470.6 L952,469.2 L960,465.0 L968,459.0 L976,458.4 L984,456.2 L992,453.3 L1000,447.9 L1008,445.0 L1016,444.3 L1024,440.9 L1032,436.7 L1040,439.7 L1048,436.0 L1056,433.9 L1064,433.9 L1072,429.8 L1080,429.3 L1088,429.0 L1096,425.3 L1104,429.2 L1112,424.4 L1120,429.7 L1128,429.0 L1136,429.6 L1144,430.1 L1152,432.2 L1160,431.8 L1168,436.1 L1176,439.6 L1184,440.9 L1192,445.2 L1200,448.7" fill="none" stroke="#34d399" stroke-width="1.2" opacity="0.39"/><path d="M0,554.2 L8,549.7 L16,548.7 L24,545.7 L32,545.0 L40,544.5 L48,541.8 L56,536.8 L64,530.9 L72,530.8 L80,528.1 L88,522.7 L96,518.8 L104,515.7 L112,515.7 L120,508.8 L128,508.6 L136,502.6 L144,502.9 L152,500.2 L160,497.2 L168,493.4 L176,491.6 L184,489.5 L192,489.5 L200,489.4 L208,486.0 L216,485.8 L224,487.6 L232,482.5 L240,488.2 L248,486.2 L256,489.1 L264,486.1 L272,486.5 L280,489.8 L288,490.8 L296,492.1 L304,490.7 L312,494.2 L320,497.4 L328,497.0 L336,501.4 L344,501.4 L352,503.4 L360,502.8 L368,507.0 L376,504.5 L384,508.7 L392,510.7 L400,513.4 L408,510.3 L416,514.7 L424,510.8 L432,511.4 L440,513.7 L448,514.9 L456,515.6 L464,512.7 L472,511.1 L480,512.6 L488,512.5 L496,512.0 L504,512.9 L512,510.3 L520,512.1 L528,511.2 L536,514.3 L544,512.8 L552,511.0 L560,511.7 L568,511.5 L576,514.5 L584,516.5 L592,515.9 L600,515.1 L608,515.5 L616,517.8 L624,519.3 L632,520.5 L640,525.3 L648,522.6 L656,524.6 L664,527.5 L672,527.8 L680,534.9 L688,534.2 L696,534.8 L704,539.5 L712,541.0 L720,543.0 L728,545.4 L736,546.9 L744,544.4 L752,545.3 L760,549.7 L768,547.1 L776,547.9 L784,553.1 L792,547.6 L800,552.8 L808,550.8 L816,546.7 L824,545.6 L832,543.9 L840,545.1 L848,542.7 L856,538.4 L864,538.7 L872,536.0 L880,531.9 L888,528.4 L896,523.6 L904,521.4 L912,521.9 L920,513.0 L928,511.2 L936,506.5 L944,507.2 L952,500.9 L960,501.7 L968,495.1 L976,492.5 L984,493.2 L992,489.7 L1000,487.8 L1008,484.1 L1016,484.7 L1024,484.3 L1032,480.4 L1040,477.7 L1048,480.9 L1056,479.0 L1064,482.1 L1072,481.2 L1080,480.7 L1088,483.4 L1096,485.7 L1104,485.4 L1112,485.6 L1120,490.5 L1128,492.2 L1136,492.3 L1144,496.9 L1152,495.7 L1160,501.0 L1168,498.6 L1176,506.1 L1184,505.1 L1192,506.1 L1200,510.0" fill="none" stroke="#3b82f6" stroke-width="1.2" opacity="0.40"/><path d="M0,548.1 L8,545.1 L16,540.4 L24,538.0 L32,536.2 L40,532.0 L48,532.1 L56,524.6 L64,526.5 L72,523.4 L80,517.6 L88,511.4 L96,508.9 L104,506.4 L112,502.3 L120,498.3 L128,496.5 L136,492.1 L144,493.2 L152,491.1 L160,489.4 L168,488.0 L176,481.9 L184,484.5 L192,482.3 L200,478.8 L208,482.8 L216,478.2 L224,477.4 L232,481.9 L240,483.6 L248,481.2 L256,483.1 L264,485.5 L272,488.0 L280,486.3 L288,487.0 L296,493.9 L304,494.9 L312,497.7 L320,497.1 L328,498.4 L336,504.1 L344,506.9 L352,506.5 L360,508.0 L368,508.5 L376,514.9 L384,512.6 L392,515.1 L400,518.7 L408,516.8 L416,520.1 L424,519.8 L432,521.7 L440,525.4 L448,523.8 L456,521.1 L464,522.0 L472,524.6 L480,524.8 L488,524.7 L496,521.8 L504,525.1 L512,521.8 L520,524.2 L528,519.8 L536,524.2 L544,521.4 L552,518.8 L560,521.6 L568,519.5 L576,519.9 L584,522.1 L592,521.2 L600,524.0 L608,523.8 L616,525.1 L624,522.4 L632,523.5 L640,526.4 L648,525.9 L656,530.7 L664,528.5 L672,532.5 L680,534.7 L688,533.9 L696,535.1 L704,539.4 L712,536.5 L720,538.1 L728,542.7 L736,540.7 L744,540.8 L752,545.9 L760,540.9 L768,543.4 L776,544.4 L784,545.9 L792,542.1 L800,543.1 L808,543.9 L816,537.5 L824,536.7 L832,538.1 L840,534.0 L848,534.5 L856,531.8 L864,529.2 L872,526.3 L880,520.6 L888,518.6 L896,513.7 L904,512.6 L912,510.8 L920,507.4 L928,504.0 L936,499.3 L944,497.7 L952,491.6 L960,489.6 L968,485.7 L976,488.3 L984,483.7 L992,482.0 L1000,479.4 L1008,478.6 L1016,479.2 L1024,479.7 L1032,474.6 L1040,474.1 L1048,478.4 L1056,478.5 L1064,475.3 L1072,481.0 L1080,478.7 L1088,483.1 L1096,485.9 L1104,488.7 L1112,487.8 L1120,492.5 L1128,495.9 L1136,494.2 L1144,500.7 L1152,499.6 L1160,504.6 L1168,507.4 L1176,510.8 L1184,511.2 L1192,513.2 L1200,516.4" fill="none" stroke="#3b82f6" stroke-width="1.2" opacity="0.40"/><path d="M0,536.3 L8,536.5 L16,533.0 L24,527.6 L32,523.5 L40,522.4 L48,522.3 L56,515.3 L64,514.3 L72,511.5 L80,508.5 L88,504.4 L96,504.1 L104,496.8 L112,493.6 L120,492.9 L128,487.5 L136,487.9 L144,484.6 L152,484.9 L160,481.0 L168,479.5 L176,478.2 L184,476.2 L192,476.3 L200,474.1 L208,474.1 L216,477.7 L224,479.7 L232,477.2 L240,478.5 L248,480.8 L256,481.7 L264,487.0 L272,486.3 L280,489.1 L288,489.5 L296,494.4 L304,498.2 L312,497.9 L320,503.8 L328,506.9 L336,506.0 L344,509.6 L352,514.3 L360,515.3 L368,521.9 L376,519.7 L384,523.0 L392,528.1 L400,524.8 L408,529.7 L416,527.9 L424,528.9 L432,528.8 L440,534.1 L448,532.6 L456,533.1 L464,535.7 L472,534.2 L480,532.6 L488,532.7 L496,531.0 L504,533.1 L512,532.4 L520,529.1 L528,528.1 L536,529.2 L544,530.8 L552,530.0 L560,528.4 L568,527.4 L576,528.9 L584,525.1 L592,528.2 L600,525.3 L608,527.2 L616,526.0 L624,525.6 L632,529.0 L640,527.3 L648,528.4 L656,529.8 L664,529.0 L672,530.7 L680,531.8 L688,530.5 L696,533.5 L704,532.8 L712,530.6 L720,533.1 L728,537.3 L736,537.4 L744,536.0 L752,537.0 L760,537.8 L768,536.9 L776,533.8 L784,531.8 L792,535.1 L800,530.5 L808,530.6 L816,532.9 L824,527.2 L832,526.8 L840,522.6 L848,522.0 L856,519.7 L864,519.3 L872,514.1 L880,510.3 L888,509.9 L896,504.2 L904,505.1 L912,503.3 L920,496.7 L928,497.7 L936,495.7 L944,492.4 L952,486.4 L960,485.4 L968,481.7 L976,479.7 L984,480.5 L992,480.0 L1000,477.5 L1008,475.8 L1016,479.3 L1024,474.0 L1032,477.6 L1040,477.7 L1048,475.4 L1056,481.5 L1064,482.8 L1072,480.9 L1080,484.7 L1088,485.4 L1096,487.0 L1104,489.0 L1112,494.1 L1120,496.4 L1128,497.7 L1136,503.8 L1144,505.1 L1152,511.2 L1160,509.8 L1168,514.7 L1176,515.8 L1184,522.9 L1192,525.3 L1200,526.2" fill="none" stroke="#3b82f6" stroke-width="1.2" opacity="0.40"/><path d="M0,566.6 L8,566.2 L16,563.7 L24,556.6 L32,551.5 L40,552.8 L48,547.8 L56,542.4 L64,539.3 L72,536.7 L80,535.1 L88,532.5 L96,534.8 L104,531.9 L112,531.9 L120,529.3 L128,527.3 L136,528.7 L144,528.6 L152,528.3 L160,525.6 L168,529.8 L176,527.8 L184,527.6 L192,526.8 L200,532.1 L208,530.4 L216,536.4 L224,532.5 L232,534.9 L240,539.4 L248,541.6 L256,543.2 L264,542.0 L272,543.7 L280,546.4 L288,550.3 L296,550.5 L304,552.5 L312,554.0 L320,553.9 L328,556.5 L336,557.9 L344,554.4 L352,557.8 L360,559.9 L368,555.0 L376,558.5 L384,555.2 L392,555.3 L400,555.8 L408,557.4 L416,555.1 L424,559.7 L432,555.9 L440,555.9 L448,554.6 L456,558.7 L464,553.3 L472,555.2 L480,557.8 L488,555.6 L496,557.5 L504,557.2 L512,560.8 L520,558.8 L528,560.7 L536,559.5 L544,564.2 L552,563.3 L560,565.1 L568,564.9 L576,569.3 L584,569.8 L592,573.9 L600,575.1 L608,577.5 L616,576.0 L624,583.0 L632,585.0 L640,587.0 L648,585.4 L656,588.1 L664,591.1 L672,587.0 L680,591.2 L688,589.5 L696,589.7 L704,591.4 L712,589.9 L720,591.7 L728,590.4 L736,587.1 L744,590.5 L752,589.4 L760,584.4 L768,584.0 L776,579.2 L784,577.0 L792,572.9 L800,572.9 L808,566.9 L816,564.1 L824,563.4 L832,559.9 L840,553.9 L848,554.0 L856,549.8 L864,544.4 L872,541.1 L880,537.7 L888,534.6 L896,534.1 L904,533.7 L912,529.0 L920,524.7 L928,527.8 L936,526.3 L944,525.0 L952,524.8 L960,522.8 L968,518.3 L976,522.8 L984,523.7 L992,522.8 L1000,523.4 L1008,525.6 L1016,523.9 L1024,525.7 L1032,528.3 L1040,529.0 L1048,532.4 L1056,533.7 L1064,536.7 L1072,541.1 L1080,538.8 L1088,545.4 L1096,546.1 L1104,550.5 L1112,548.0 L1120,552.2 L1128,554.9 L1136,554.0 L1144,556.5 L1152,557.8 L1160,564.6 L1168,562.9 L1176,563.1 L1184,565.4 L1192,566.3 L1200,565.7" fill="none" stroke="#0033A1" stroke-width="1.2" opacity="0.31"/><path d="M0,556.0 L8,554.2 L16,549.4 L24,545.0 L32,546.1 L40,543.3 L48,540.8 L56,533.1 L64,533.8 L72,528.9 L80,528.9 L88,524.0 L96,522.8 L104,523.8 L112,520.5 L120,524.0 L128,524.1 L136,523.3 L144,521.7 L152,522.3 L160,524.6 L168,521.4 L176,521.9 L184,526.3 L192,529.8 L200,527.1 L208,533.7 L216,533.4 L224,534.7 L232,539.4 L240,542.5 L248,540.3 L256,547.4 L264,545.3 L272,551.1 L280,552.3 L288,555.1 L296,556.9 L304,556.1 L312,561.1 L320,558.6 L328,560.0 L336,562.0 L344,563.1 L352,565.9 L360,566.1 L368,567.5 L376,569.2 L384,569.3 L392,565.6 L400,566.0 L408,565.2 L416,565.8 L424,567.5 L432,564.5 L440,566.1 L448,563.2 L456,565.1 L464,565.1 L472,562.1 L480,565.6 L488,562.6 L496,565.1 L504,564.9 L512,563.9 L520,567.6 L528,565.2 L536,565.0 L544,564.8 L552,571.0 L560,568.4 L568,569.2 L576,572.6 L584,570.5 L592,571.9 L600,572.5 L608,578.8 L616,579.7 L624,582.1 L632,579.1 L640,581.8 L648,584.9 L656,581.7 L664,582.0 L672,583.1 L680,585.8 L688,584.1 L696,582.0 L704,584.4 L712,584.1 L720,583.8 L728,580.4 L736,581.1 L744,580.4 L752,579.9 L760,577.2 L768,571.6 L776,570.0 L784,566.6 L792,567.4 L800,561.5 L808,557.7 L816,557.9 L824,554.3 L832,548.2 L840,547.0 L848,544.3 L856,538.0 L864,537.1 L872,534.9 L880,529.8 L888,530.5 L896,527.1 L904,524.3 L912,524.2 L920,520.2 L928,520.1 L936,520.7 L944,520.5 L952,519.7 L960,515.7 L968,520.0 L976,516.9 L984,523.0 L992,522.2 L1000,522.5 L1008,524.0 L1016,525.9 L1024,527.0 L1032,529.7 L1040,531.1 L1048,537.2 L1056,541.6 L1064,542.1 L1072,542.1 L1080,550.5 L1088,548.4 L1096,552.1 L1104,555.5 L1112,558.6 L1120,562.4 L1128,565.7 L1136,566.8 L1144,567.5 L1152,568.5 L1160,574.4 L1168,572.7 L1176,576.2 L1184,575.7 L1192,577.6 L1200,578.4" fill="none" stroke="#0033A1" stroke-width="1.2" opacity="0.31"/><path d="M0,546.6 L8,545.8 L16,539.1 L24,538.4 L32,535.9 L40,534.8 L48,530.8 L56,528.6 L64,525.3 L72,527.0 L80,520.1 L88,519.4 L96,521.9 L104,521.4 L112,520.1 L120,518.8 L128,521.3 L136,521.4 L144,517.5 L152,522.8 L160,522.9 L168,521.0 L176,523.7 L184,526.7 L192,527.3 L200,534.5 L208,537.3 L216,539.8 L224,540.8 L232,542.4 L240,543.5 L248,548.2 L256,554.4 L264,555.5 L272,557.3 L280,561.8 L288,560.1 L296,564.8 L304,568.2 L312,567.7 L320,572.6 L328,574.9 L336,574.9 L344,574.4 L352,574.0 L360,576.1 L368,576.7 L376,578.9 L384,574.5 L392,577.1 L400,579.5 L408,578.0 L416,574.5 L424,575.5 L432,574.5 L440,576.8 L448,572.9 L456,569.7 L464,569.9 L472,568.1 L480,569.2 L488,571.4 L496,567.7 L504,566.7 L512,566.2 L520,570.0 L528,566.5 L536,566.6 L544,570.6 L552,566.1 L560,570.8 L568,566.9 L576,570.7 L584,570.1 L592,574.0 L600,569.5 L608,573.6 L616,574.8 L624,571.0 L632,577.2 L640,575.3 L648,573.9 L656,574.1 L664,574.5 L672,579.4 L680,574.9 L688,573.4 L696,574.4 L704,575.2 L712,576.0 L720,571.2 L728,570.6 L736,571.8 L744,567.4 L752,568.8 L760,568.4 L768,564.1 L776,558.9 L784,559.8 L792,559.0 L800,552.5 L808,550.0 L816,548.5 L824,547.7 L832,543.2 L840,539.2 L848,536.0 L856,536.6 L864,533.1 L872,526.7 L880,526.3 L888,525.6 L896,524.0 L904,524.4 L912,523.4 L920,521.0 L928,517.5 L936,521.6 L944,518.4 L952,517.7 L960,517.1 L968,518.3 L976,522.7 L984,523.2 L992,525.3 L1000,524.8 L1008,526.4 L1016,529.4 L1024,532.2 L1032,540.1 L1040,541.6 L1048,542.8 L1056,546.5 L1064,548.9 L1072,554.2 L1080,557.2 L1088,558.3 L1096,564.2 L1104,564.4 L1112,569.4 L1120,568.0 L1128,571.4 L1136,575.8 L1144,574.9 L1152,577.9 L1160,581.4 L1168,584.4 L1176,585.0 L1184,585.2 L1192,587.9 L1200,584.4" fill="none" stroke="#0033A1" stroke-width="1.2" opacity="0.31"/><path d="M0,586.0 L8,582.7 L16,582.2 L24,579.0 L32,578.6 L40,580.8 L48,576.4 L56,578.4 L64,578.5 L72,578.7 L80,577.8 L88,577.8 L96,578.9 L104,580.8 L112,581.8 L120,583.6 L128,582.7 L136,582.2 L144,585.3 L152,588.8 L160,590.2 L168,592.9 L176,591.8 L184,592.5 L192,598.7 L200,596.4 L208,600.4 L216,604.5 L224,605.2 L232,604.8 L240,604.5 L248,604.6 L256,606.4 L264,605.2 L272,609.7 L280,609.6 L288,610.1 L296,610.7 L304,609.1 L312,610.4 L320,610.2 L328,609.5 L336,608.9 L344,607.3 L352,608.7 L360,611.8 L368,611.0 L376,608.0 L384,611.2 L392,610.4 L400,605.8 L408,609.0 L416,609.0 L424,611.0 L432,611.1 L440,609.3 L448,613.2 L456,614.9 L464,615.8 L472,615.9 L480,617.1 L488,622.0 L496,620.9 L504,624.7 L512,623.6 L520,626.2 L528,628.1 L536,628.9 L544,632.7 L552,635.5 L560,631.9 L568,638.0 L576,634.9 L584,636.6 L592,640.6 L600,639.7 L608,641.9 L616,639.4 L624,643.8 L632,640.2 L640,639.4 L648,639.5 L656,636.8 L664,640.0 L672,634.8 L680,632.7 L688,631.9 L696,630.9 L704,628.7 L712,622.7 L720,622.9 L728,618.3 L736,616.1 L744,611.1 L752,612.0 L760,608.3 L768,604.9 L776,601.2 L784,593.2 L792,590.2 L800,591.3 L808,589.5 L816,583.3 L824,583.4 L832,582.3 L840,577.8 L848,577.1 L856,575.6 L864,570.7 L872,570.8 L880,573.5 L888,572.8 L896,571.6 L904,570.8 L912,571.0 L920,570.6 L928,571.6 L936,573.9 L944,577.4 L952,578.5 L960,583.0 L968,582.7 L976,586.5 L984,589.6 L992,589.3 L1000,590.9 L1008,596.6 L1016,596.2 L1024,600.5 L1032,605.2 L1040,607.3 L1048,607.9 L1056,611.3 L1064,612.9 L1072,614.2 L1080,615.4 L1088,614.8 L1096,615.0 L1104,617.6 L1112,617.1 L1120,621.4 L1128,619.3 L1136,618.6 L1144,618.4 L1152,621.8 L1160,617.7 L1168,620.3 L1176,619.6 L1184,621.0 L1192,616.9 L1200,617.1" fill="none" stroke="#1A5BC4" stroke-width="1.2" opacity="0.23"/><path d="M0,578.3 L8,578.8 L16,577.8 L24,574.0 L32,570.3 L40,571.7 L48,572.7 L56,571.0 L64,574.2 L72,571.7 L80,573.4 L88,574.3 L96,578.4 L104,578.4 L112,576.0 L120,580.7 L128,582.4 L136,586.4 L144,589.0 L152,591.8 L160,591.3 L168,596.0 L176,596.0 L184,599.9 L192,601.7 L200,603.2 L208,603.6 L216,607.9 L224,611.5 L232,613.8 L240,611.1 L248,612.0 L256,617.9 L264,616.0 L272,615.4 L280,619.9 L288,617.7 L296,619.4 L304,618.1 L312,618.1 L320,622.6 L328,620.7 L336,621.2 L344,616.2 L352,616.2 L360,620.6 L368,619.3 L376,618.6 L384,615.8 L392,618.4 L400,614.7 L408,616.5 L416,618.4 L424,619.1 L432,615.7 L440,617.0 L448,619.5 L456,618.0 L464,616.5 L472,617.9 L480,622.7 L488,619.4 L496,620.9 L504,626.2 L512,626.8 L520,626.1 L528,626.2 L536,630.9 L544,632.3 L552,632.9 L560,632.7 L568,630.6 L576,632.4 L584,631.4 L592,631.9 L600,637.0 L608,637.4 L616,635.1 L624,636.7 L632,632.8 L640,633.4 L648,630.1 L656,631.6 L664,629.9 L672,625.3 L680,622.3 L688,621.2 L696,618.4 L704,620.3 L712,615.6 L720,610.6 L728,609.9 L736,609.0 L744,603.6 L752,598.0 L760,595.5 L768,593.2 L776,593.3 L784,589.3 L792,582.1 L800,580.7 L808,582.6 L816,575.3 L824,577.9 L832,570.8 L840,570.5 L848,571.2 L856,571.8 L864,572.1 L872,570.5 L880,567.3 L888,570.9 L896,569.4 L904,571.4 L912,573.6 L920,572.1 L928,578.6 L936,578.3 L944,577.5 L952,580.2 L960,585.7 L968,585.1 L976,590.1 L984,594.3 L992,598.0 L1000,598.3 L1008,603.7 L1016,602.7 L1024,608.6 L1032,610.4 L1040,612.9 L1048,614.4 L1056,619.5 L1064,621.8 L1072,624.4 L1080,623.8 L1088,625.4 L1096,626.7 L1104,625.4 L1112,629.5 L1120,629.9 L1128,632.3 L1136,631.1 L1144,631.9 L1152,632.1 L1160,629.8 L1168,629.8 L1176,631.1 L1184,629.1 L1192,626.4 L1200,623.2" fill="none" stroke="#1A5BC4" stroke-width="1.2" opacity="0.23"/><path d="M0,575.7 L8,569.5 L16,567.9 L24,569.8 L32,568.0 L40,571.4 L48,566.9 L56,568.3 L64,572.1 L72,571.7 L80,570.9 L88,576.3 L96,577.9 L104,580.9 L112,578.8 L120,584.3 L128,588.2 L136,590.3 L144,594.3 L152,593.2 L160,598.7 L168,598.7 L176,601.5 L184,608.0 L192,611.8 L200,615.3 L208,613.8 L216,614.9 L224,620.9 L232,622.3 L240,624.1 L248,626.6 L256,624.5 L264,625.9 L272,625.9 L280,626.5 L288,629.7 L296,629.3 L304,631.2 L312,628.6 L320,629.5 L328,626.0 L336,629.3 L344,624.5 L352,627.8 L360,628.7 L368,624.2 L376,625.2 L384,624.9 L392,620.5 L400,623.6 L408,623.2 L416,621.1 L424,617.3 L432,620.4 L440,620.7 L448,618.6 L456,619.5 L464,619.0 L472,622.0 L480,616.9 L488,619.2 L496,619.1 L504,618.5 L512,618.6 L520,623.6 L528,623.4 L536,623.4 L544,620.8 L552,623.2 L560,626.6 L568,626.2 L576,627.1 L584,626.8 L592,625.1 L600,624.5 L608,627.8 L616,623.1 L624,624.8 L632,624.3 L640,620.9 L648,619.9 L656,621.4 L664,619.3 L672,616.5 L680,612.8 L688,614.1 L696,611.3 L704,608.6 L712,603.8 L720,602.8 L728,598.7 L736,596.6 L744,596.7 L752,590.7 L760,592.2 L768,586.8 L776,583.9 L784,583.1 L792,579.6 L800,577.1 L808,576.3 L816,575.7 L824,571.6 L832,568.9 L840,569.6 L848,567.9 L856,569.9 L864,572.5 L872,572.7 L880,573.0 L888,570.2 L896,570.3 L904,572.6 L912,579.2 L920,579.6 L928,579.1 L936,582.5 L944,584.7 L952,587.6 L960,594.1 L968,592.9 L976,600.9 L984,602.8 L992,603.3 L1000,607.1 L1008,613.1 L1016,614.8 L1024,619.0 L1032,621.0 L1040,624.2 L1048,627.1 L1056,629.3 L1064,627.6 L1072,629.5 L1080,636.0 L1088,635.9 L1096,636.8 L1104,634.4 L1112,640.2 L1120,639.6 L1128,639.2 L1136,639.2 L1144,635.2 L1152,636.7 L1160,632.9 L1168,633.2 L1176,632.3 L1184,632.3 L1192,632.4 L1200,632.3" fill="none" stroke="#1A5BC4" stroke-width="1.2" opacity="0.23"/></g>

  <!-- Gradient overlay -->
  <rect width="1200" height="630" fill="url(#overlay)"/>
  <rect width="1200" height="120" fill="url(#topFade)"/>

  <!-- Dot pattern subtle -->
  <pattern id="dots" width="40" height="40" patternUnits="userSpaceOnUse">
    <circle cx="20" cy="20" r="0.8" fill="white" opacity="0.04"/>
  </pattern>
  <rect width="1200" height="630" fill="url(#dots)"/>




</svg>